<?xml version="1.0" encoding="UTF-8" standalone="no"?>
<!DOCTYPE svg PUBLIC "-//W3C//DTD SVG 1.1//EN"
 "http://www.w3.org/Graphics/SVG/1.1/DTD/svg11.dtd">
<!-- Generated by graphviz version 2.43.0 (0)
 -->
<!-- Title: system Pages: 1 -->
<svg width="392pt" height="325pt"
 viewBox="0.00 0.00 391.50 325.00" xmlns="http://www.w3.org/2000/svg" xmlns:xlink="http://www.w3.org/1999/xlink">
<g id="graph0" class="graph" transform="scale(1 1) rotate(0) translate(4 321)">
<title>system</title>
<polygon fill="white" stroke="transparent" points="-4,4 -4,-321 387.5,-321 387.5,4 -4,4"/>
<g id="clust1" class="cluster">
<title>cluster_grass</title>
<polygon fill="none" stroke="lightgrey" points="232,-95 232,-309 336,-309 336,-95 232,-95"/>
<text text-anchor="middle" x="284" y="-293.8" font-family="Times,serif" font-size="14.00">grass</text>
</g>
<g id="clust2" class="cluster">
<title>cluster_sheep</title>
<polygon fill="none" stroke="lightgrey" points="8,-8 8,-309 141,-309 141,-8 8,-8"/>
<text text-anchor="middle" x="74.5" y="-293.8" font-family="Times,serif" font-size="14.00">sheep</text>
</g>
<!-- graze -->
<g id="node1" class="node">
<title>graze</title>
<g id="a_node1"><a xlink:title="Grass grazed (kg/year)">
<ellipse fill="none" stroke="black" cx="319" cy="-34" rx="36.29" ry="18"/>
<text text-anchor="middle" x="319" y="-30.3" font-family="Times,serif" font-size="14.00">graze</text>
</a>
</g>
</g>
<!-- grass -->
<g id="node5" class="node">
<title>grass</title>
<g id="a_node5"><a xlink:title="Ammount of grass (kg)">
<polygon fill="none" stroke="black" points="312,-139 256,-139 256,-103 312,-103 312,-139"/>
<text text-anchor="middle" x="284" y="-117.3" font-family="Times,serif" font-size="14.00">grass</text>
</a>
</g>
</g>
<!-- graze&#45;&gt;grass -->
<g id="edge14" class="edge">
<title>graze&#45;&gt;grass</title>
<path fill="none" stroke="black" d="M312.05,-51.89C307.16,-63.76 300.52,-79.88 294.93,-93.46"/>
<polygon fill="black" stroke="black" points="291.65,-92.22 291.08,-102.8 298.13,-94.88 291.65,-92.22"/>
<text text-anchor="middle" x="306.5" y="-73.8" font-family="Times,serif" font-size="14.00">&#45;</text>
</g>
<!-- graze_c -->
<g id="node2" class="node">
<title>graze_c</title>
<g id="a_node2"><a xlink:title="How much a sheep eats = 900 kg/year&#10;">
<text text-anchor="middle" x="364" y="-117.3" font-family="Times,serif" font-size="14.00">const</text>
</a>
</g>
</g>
<!-- graze_c&#45;&gt;graze -->
<g id="edge1" class="edge">
<title>graze_c&#45;&gt;graze</title>
<path fill="none" stroke="black" d="M360.47,-113.33C353.51,-100.18 337.82,-70.56 327.86,-51.74"/>
</g>
<!-- starvation -->
<g id="node3" class="node">
<title>starvation</title>
<g id="a_node3"><a xlink:title="Sheep starving (n)">
<ellipse fill="none" stroke="black" cx="207" cy="-34" rx="57.69" ry="18"/>
<text text-anchor="middle" x="207" y="-30.3" font-family="Times,serif" font-size="14.00">starvation</text>
</a>
</g>
</g>
<!-- sheep -->
<g id="node12" class="node">
<title>sheep</title>
<g id="a_node12"><a xlink:title="Number of sheep (n)">
<polygon fill="none" stroke="black" points="132.5,-139 73.5,-139 73.5,-103 132.5,-103 132.5,-139"/>
<text text-anchor="middle" x="103" y="-117.3" font-family="Times,serif" font-size="14.00">sheep</text>
</a>
</g>
</g>
<!-- starvation&#45;&gt;sheep -->
<g id="edge15" class="edge">
<title>starvation&#45;&gt;sheep</title>
<path fill="none" stroke="black" d="M193.18,-51.84C184.31,-62.09 172.19,-75.07 160,-85 154.24,-89.69 147.81,-94.22 141.39,-98.38"/>
<polygon fill="black" stroke="black" points="139.34,-95.53 132.71,-103.8 143.05,-101.47 139.34,-95.53"/>
<text text-anchor="middle" x="178.5" y="-73.8" font-family="Times,serif" font-size="14.00">&#45;</text>
</g>
<!-- starvation_c -->
<g id="node4" class="node">
<title>starvation_c</title>
<g id="a_node4"><a xlink:title="How much a sheep eats = 900 kg/year&#10;">
<text text-anchor="middle" x="204" y="-117.3" font-family="Times,serif" font-size="14.00">const</text>
</a>
</g>
</g>
<!-- starvation_c&#45;&gt;starvation -->
<g id="edge2" class="edge">
<title>starvation_c&#45;&gt;starvation</title>
<path fill="none" stroke="black" d="M204.24,-113.33C204.7,-100.26 205.73,-70.91 206.4,-52.08"/>
</g>
<!-- grass&#45;&gt;starvation -->
<g id="edge6" class="edge">
<title>grass&#45;&gt;starvation</title>
<path fill="none" stroke="black" d="M278.04,-102.94C273.84,-92.62 267.46,-79.62 259,-70 254.41,-64.78 248.88,-59.99 243.16,-55.74"/>
<polygon fill="black" stroke="black" points="244.95,-52.72 234.73,-49.9 240.96,-58.47 244.95,-52.72"/>
<text text-anchor="middle" x="271.5" y="-73.8" font-family="Times,serif" font-size="14.00">&#45;</text>
</g>
<!-- growth -->
<g id="node6" class="node">
<title>growth</title>
<g id="a_node6"><a xlink:title="Grass growth (kg)">
<ellipse fill="none" stroke="black" cx="284" cy="-208" rx="44.39" ry="18"/>
<text text-anchor="middle" x="284" y="-204.3" font-family="Times,serif" font-size="14.00">growth</text>
</a>
</g>
</g>
<!-- growth&#45;&gt;grass -->
<g id="edge7" class="edge">
<title>growth&#45;&gt;grass</title>
<path fill="none" stroke="black" d="M284,-189.8C284,-178.16 284,-162.55 284,-149.24"/>
<polygon fill="black" stroke="black" points="287.5,-149.18 284,-139.18 280.5,-149.18 287.5,-149.18"/>
<text text-anchor="middle" x="290.5" y="-160.8" font-family="Times,serif" font-size="14.00">+</text>
</g>
<!-- growth_c -->
<g id="node7" class="node">
<title>growth_c</title>
<g id="a_node7"><a xlink:title="Area where grass grows = 100 ha&#10;Grass growth rate = 5500 kg/ha/year&#10;">
<text text-anchor="middle" x="284" y="-266.8" font-family="Times,serif" font-size="14.00">const</text>
</a>
</g>
</g>
<!-- growth_c&#45;&gt;growth -->
<g id="edge3" class="edge">
<title>growth_c&#45;&gt;growth</title>
<path fill="none" stroke="black" d="M284,-262.56C284,-253.75 284,-238.23 284,-226.16"/>
</g>
<!-- births -->
<g id="node8" class="node">
<title>births</title>
<g id="a_node8"><a xlink:title="Sheep born (n/year)">
<ellipse fill="none" stroke="black" cx="88" cy="-208" rx="38.19" ry="18"/>
<text text-anchor="middle" x="88" y="-204.3" font-family="Times,serif" font-size="14.00">births</text>
</a>
</g>
</g>
<!-- births&#45;&gt;sheep -->
<g id="edge8" class="edge">
<title>births&#45;&gt;sheep</title>
<path fill="none" stroke="black" d="M78.65,-190.13C74.45,-180.33 71.2,-167.83 75,-157 76.17,-153.67 77.8,-150.42 79.7,-147.32"/>
<polygon fill="black" stroke="black" points="82.62,-149.26 85.58,-139.09 76.92,-145.19 82.62,-149.26"/>
<text text-anchor="middle" x="81.5" y="-160.8" font-family="Times,serif" font-size="14.00">+</text>
</g>
<!-- births_c -->
<g id="node9" class="node">
<title>births_c</title>
<g id="a_node9"><a xlink:title="Birth rate = 0.5 n/year/sheep&#10;">
<text text-anchor="middle" x="88" y="-266.8" font-family="Times,serif" font-size="14.00">const</text>
</a>
</g>
</g>
<!-- births_c&#45;&gt;births -->
<g id="edge4" class="edge">
<title>births_c&#45;&gt;births</title>
<path fill="none" stroke="black" d="M88,-262.56C88,-253.75 88,-238.23 88,-226.16"/>
</g>
<!-- deaths -->
<g id="node10" class="node">
<title>deaths</title>
<g id="a_node10"><a xlink:title="Sheep died (n/year)">
<ellipse fill="none" stroke="black" cx="67" cy="-34" rx="42.49" ry="18"/>
<text text-anchor="middle" x="67" y="-30.3" font-family="Times,serif" font-size="14.00">deaths</text>
</a>
</g>
</g>
<!-- deaths&#45;&gt;sheep -->
<g id="edge9" class="edge">
<title>deaths&#45;&gt;sheep</title>
<path fill="none" stroke="black" d="M74.15,-51.89C79.18,-63.76 86.01,-79.88 91.76,-93.46"/>
<polygon fill="black" stroke="black" points="88.59,-94.96 95.71,-102.8 95.04,-92.23 88.59,-94.96"/>
<text text-anchor="middle" x="90.5" y="-73.8" font-family="Times,serif" font-size="14.00">&#45;</text>
</g>
<!-- deaths_c -->
<g id="node11" class="node">
<title>deaths_c</title>
<g id="a_node11"><a xlink:title="Death rate = 0.1 n/year/sheep&#10;">
<text text-anchor="middle" x="36" y="-117.3" font-family="Times,serif" font-size="14.00">const</text>
</a>
</g>
</g>
<!-- deaths_c&#45;&gt;deaths -->
<g id="edge5" class="edge">
<title>deaths_c&#45;&gt;deaths</title>
<path fill="none" stroke="black" d="M36.39,-113.31C37.15,-103.51 39.26,-84.8 45,-70 47.49,-63.58 51.21,-57.05 54.88,-51.4"/>
</g>
<!-- sheep&#45;&gt;graze -->
<g id="edge13" class="edge">
<title>sheep&#45;&gt;graze</title>
<path fill="none" stroke="black" d="M132.58,-108.36C171.49,-93.05 239.87,-66.14 282.11,-49.52"/>
<polygon fill="black" stroke="black" points="283.46,-52.75 291.48,-45.83 280.89,-46.23 283.46,-52.75"/>
<text text-anchor="middle" x="230.5" y="-73.8" font-family="Times,serif" font-size="14.00">+</text>
</g>
<!-- sheep&#45;&gt;starvation -->
<g id="edge11" class="edge">
<title>sheep&#45;&gt;starvation</title>
<path fill="none" stroke="black" d="M115.67,-103C123.88,-92.69 135.21,-79.7 147,-70 153.69,-64.49 161.36,-59.32 168.92,-54.72"/>
<polygon fill="black" stroke="black" points="170.81,-57.67 177.69,-49.61 167.28,-51.63 170.81,-57.67"/>
<text text-anchor="middle" x="153.5" y="-73.8" font-family="Times,serif" font-size="14.00">+</text>
</g>
<!-- sheep&#45;&gt;births -->
<g id="edge10" class="edge">
<title>sheep&#45;&gt;births</title>
<path fill="none" stroke="black" d="M99.97,-139.18C97.92,-150.81 95.16,-166.42 92.81,-179.73"/>
<polygon fill="black" stroke="black" points="89.33,-179.34 91.04,-189.8 96.22,-180.56 89.33,-179.34"/>
<text text-anchor="middle" x="103.5" y="-160.8" font-family="Times,serif" font-size="14.00">+</text>
</g>
<!-- sheep&#45;&gt;deaths -->
<g id="edge12" class="edge">
<title>sheep&#45;&gt;deaths</title>
<path fill="none" stroke="black" d="M78.93,-102.7C73.69,-97.64 68.87,-91.66 66,-85 63.01,-78.06 62.17,-70.07 62.36,-62.53"/>
<polygon fill="black" stroke="black" points="65.87,-62.6 63.2,-52.34 58.89,-62.02 65.87,-62.6"/>
<text text-anchor="middle" x="72.5" y="-73.8" font-family="Times,serif" font-size="14.00">+</text>
</g>
</g>
</svg>
