<?xml version="1.0" encoding="utf-8" standalone="no"?>
<!DOCTYPE svg PUBLIC "-//W3C//DTD SVG 1.1//EN"
  "http://www.w3.org/Graphics/SVG/1.1/DTD/svg11.dtd">
<svg xmlns:xlink="http://www.w3.org/1999/xlink" width="576pt" height="288pt" viewBox="0 0 576 288" xmlns="http://www.w3.org/2000/svg" version="1.1">
 <metadata>
  <rdf:RDF xmlns:dc="http://purl.org/dc/elements/1.1/" xmlns:cc="http://creativecommons.org/ns#" xmlns:rdf="http://www.w3.org/1999/02/22-rdf-syntax-ns#">
   <cc:Work>
    <dc:type rdf:resource="http://purl.org/dc/dcmitype/StillImage"/>
    <dc:date>2024-10-22T14:20:15.289521</dc:date>
    <dc:format>image/svg+xml</dc:format>
    <dc:creator>
     <cc:Agent>
      <dc:title>Matplotlib v3.6.3, https://matplotlib.org/</dc:title>
     </cc:Agent>
    </dc:creator>
   </cc:Work>
  </rdf:RDF>
 </metadata>
 <defs>
  <style type="text/css">*{stroke-linejoin: round; stroke-linecap: butt}</style>
 </defs>
 <g id="figure_1">
  <g id="patch_1">
   <path d="M 0 288 
L 576 288 
L 576 0 
L 0 0 
z
" style="fill: #ffffff"/>
  </g>
  <g id="axes_1">
   <g id="patch_2">
    <path d="M 44.66 246.04 
L 471.8 246.04 
L 471.8 32.4 
L 44.66 32.4 
z
" style="fill: #ffffff"/>
   </g>
   <g id="matplotlib.axis_1">
    <g id="xtick_1">
     <g id="line2d_1">
      <path d="M 64.075455 246.04 
L 64.075455 32.4 
" clip-path="url(#peac3c944b8)" style="fill: none; stroke-dasharray: 0.8,1.32; stroke-dashoffset: 0; stroke: #b0b0b0; stroke-width: 0.8"/>
     </g>
     <g id="line2d_2">
      <defs>
       <path id="mb1b934f3b5" d="M 0 0 
L 0 3.5 
" style="stroke: #000000; stroke-width: 0.8"/>
      </defs>
      <g>
       <use xlink:href="#mb1b934f3b5" x="64.075455" y="246.04" style="stroke: #000000; stroke-width: 0.8"/>
      </g>
     </g>
     <g id="text_1">
      <!-- 0 -->
      <g transform="translate(60.894205 260.638438) scale(0.1 -0.1)">
       <defs>
        <path id="DejaVuSans-30" d="M 2034 4250 
Q 1547 4250 1301 3770 
Q 1056 3291 1056 2328 
Q 1056 1369 1301 889 
Q 1547 409 2034 409 
Q 2525 409 2770 889 
Q 3016 1369 3016 2328 
Q 3016 3291 2770 3770 
Q 2525 4250 2034 4250 
z
M 2034 4750 
Q 2819 4750 3233 4129 
Q 3647 3509 3647 2328 
Q 3647 1150 3233 529 
Q 2819 -91 2034 -91 
Q 1250 -91 836 529 
Q 422 1150 422 2328 
Q 422 3509 836 4129 
Q 1250 4750 2034 4750 
z
" transform="scale(0.015625)"/>
       </defs>
       <use xlink:href="#DejaVuSans-30"/>
      </g>
     </g>
    </g>
    <g id="xtick_2">
     <g id="line2d_3">
      <path d="M 129.337487 246.04 
L 129.337487 32.4 
" clip-path="url(#peac3c944b8)" style="fill: none; stroke-dasharray: 0.8,1.32; stroke-dashoffset: 0; stroke: #b0b0b0; stroke-width: 0.8"/>
     </g>
     <g id="line2d_4">
      <g>
       <use xlink:href="#mb1b934f3b5" x="129.337487" y="246.04" style="stroke: #000000; stroke-width: 0.8"/>
      </g>
     </g>
     <g id="text_2">
      <!-- 2 -->
      <g transform="translate(126.156237 260.638438) scale(0.1 -0.1)">
       <defs>
        <path id="DejaVuSans-32" d="M 1228 531 
L 3431 531 
L 3431 0 
L 469 0 
L 469 531 
Q 828 903 1448 1529 
Q 2069 2156 2228 2338 
Q 2531 2678 2651 2914 
Q 2772 3150 2772 3378 
Q 2772 3750 2511 3984 
Q 2250 4219 1831 4219 
Q 1534 4219 1204 4116 
Q 875 4013 500 3803 
L 500 4441 
Q 881 4594 1212 4672 
Q 1544 4750 1819 4750 
Q 2544 4750 2975 4387 
Q 3406 4025 3406 3419 
Q 3406 3131 3298 2873 
Q 3191 2616 2906 2266 
Q 2828 2175 2409 1742 
Q 1991 1309 1228 531 
z
" transform="scale(0.015625)"/>
       </defs>
       <use xlink:href="#DejaVuSans-32"/>
      </g>
     </g>
    </g>
    <g id="xtick_3">
     <g id="line2d_5">
      <path d="M 194.599519 246.04 
L 194.599519 32.4 
" clip-path="url(#peac3c944b8)" style="fill: none; stroke-dasharray: 0.8,1.32; stroke-dashoffset: 0; stroke: #b0b0b0; stroke-width: 0.8"/>
     </g>
     <g id="line2d_6">
      <g>
       <use xlink:href="#mb1b934f3b5" x="194.599519" y="246.04" style="stroke: #000000; stroke-width: 0.8"/>
      </g>
     </g>
     <g id="text_3">
      <!-- 4 -->
      <g transform="translate(191.418269 260.638438) scale(0.1 -0.1)">
       <defs>
        <path id="DejaVuSans-34" d="M 2419 4116 
L 825 1625 
L 2419 1625 
L 2419 4116 
z
M 2253 4666 
L 3047 4666 
L 3047 1625 
L 3713 1625 
L 3713 1100 
L 3047 1100 
L 3047 0 
L 2419 0 
L 2419 1100 
L 313 1100 
L 313 1709 
L 2253 4666 
z
" transform="scale(0.015625)"/>
       </defs>
       <use xlink:href="#DejaVuSans-34"/>
      </g>
     </g>
    </g>
    <g id="xtick_4">
     <g id="line2d_7">
      <path d="M 259.861551 246.04 
L 259.861551 32.4 
" clip-path="url(#peac3c944b8)" style="fill: none; stroke-dasharray: 0.8,1.32; stroke-dashoffset: 0; stroke: #b0b0b0; stroke-width: 0.8"/>
     </g>
     <g id="line2d_8">
      <g>
       <use xlink:href="#mb1b934f3b5" x="259.861551" y="246.04" style="stroke: #000000; stroke-width: 0.8"/>
      </g>
     </g>
     <g id="text_4">
      <!-- 6 -->
      <g transform="translate(256.680301 260.638438) scale(0.1 -0.1)">
       <defs>
        <path id="DejaVuSans-36" d="M 2113 2584 
Q 1688 2584 1439 2293 
Q 1191 2003 1191 1497 
Q 1191 994 1439 701 
Q 1688 409 2113 409 
Q 2538 409 2786 701 
Q 3034 994 3034 1497 
Q 3034 2003 2786 2293 
Q 2538 2584 2113 2584 
z
M 3366 4563 
L 3366 3988 
Q 3128 4100 2886 4159 
Q 2644 4219 2406 4219 
Q 1781 4219 1451 3797 
Q 1122 3375 1075 2522 
Q 1259 2794 1537 2939 
Q 1816 3084 2150 3084 
Q 2853 3084 3261 2657 
Q 3669 2231 3669 1497 
Q 3669 778 3244 343 
Q 2819 -91 2113 -91 
Q 1303 -91 875 529 
Q 447 1150 447 2328 
Q 447 3434 972 4092 
Q 1497 4750 2381 4750 
Q 2619 4750 2861 4703 
Q 3103 4656 3366 4563 
z
" transform="scale(0.015625)"/>
       </defs>
       <use xlink:href="#DejaVuSans-36"/>
      </g>
     </g>
    </g>
    <g id="xtick_5">
     <g id="line2d_9">
      <path d="M 325.123583 246.04 
L 325.123583 32.4 
" clip-path="url(#peac3c944b8)" style="fill: none; stroke-dasharray: 0.8,1.32; stroke-dashoffset: 0; stroke: #b0b0b0; stroke-width: 0.8"/>
     </g>
     <g id="line2d_10">
      <g>
       <use xlink:href="#mb1b934f3b5" x="325.123583" y="246.04" style="stroke: #000000; stroke-width: 0.8"/>
      </g>
     </g>
     <g id="text_5">
      <!-- 8 -->
      <g transform="translate(321.942333 260.638438) scale(0.1 -0.1)">
       <defs>
        <path id="DejaVuSans-38" d="M 2034 2216 
Q 1584 2216 1326 1975 
Q 1069 1734 1069 1313 
Q 1069 891 1326 650 
Q 1584 409 2034 409 
Q 2484 409 2743 651 
Q 3003 894 3003 1313 
Q 3003 1734 2745 1975 
Q 2488 2216 2034 2216 
z
M 1403 2484 
Q 997 2584 770 2862 
Q 544 3141 544 3541 
Q 544 4100 942 4425 
Q 1341 4750 2034 4750 
Q 2731 4750 3128 4425 
Q 3525 4100 3525 3541 
Q 3525 3141 3298 2862 
Q 3072 2584 2669 2484 
Q 3125 2378 3379 2068 
Q 3634 1759 3634 1313 
Q 3634 634 3220 271 
Q 2806 -91 2034 -91 
Q 1263 -91 848 271 
Q 434 634 434 1313 
Q 434 1759 690 2068 
Q 947 2378 1403 2484 
z
M 1172 3481 
Q 1172 3119 1398 2916 
Q 1625 2713 2034 2713 
Q 2441 2713 2670 2916 
Q 2900 3119 2900 3481 
Q 2900 3844 2670 4047 
Q 2441 4250 2034 4250 
Q 1625 4250 1398 4047 
Q 1172 3844 1172 3481 
z
" transform="scale(0.015625)"/>
       </defs>
       <use xlink:href="#DejaVuSans-38"/>
      </g>
     </g>
    </g>
    <g id="xtick_6">
     <g id="line2d_11">
      <path d="M 390.385615 246.04 
L 390.385615 32.4 
" clip-path="url(#peac3c944b8)" style="fill: none; stroke-dasharray: 0.8,1.32; stroke-dashoffset: 0; stroke: #b0b0b0; stroke-width: 0.8"/>
     </g>
     <g id="line2d_12">
      <g>
       <use xlink:href="#mb1b934f3b5" x="390.385615" y="246.04" style="stroke: #000000; stroke-width: 0.8"/>
      </g>
     </g>
     <g id="text_6">
      <!-- 10 -->
      <g transform="translate(384.023115 260.638438) scale(0.1 -0.1)">
       <defs>
        <path id="DejaVuSans-31" d="M 794 531 
L 1825 531 
L 1825 4091 
L 703 3866 
L 703 4441 
L 1819 4666 
L 2450 4666 
L 2450 531 
L 3481 531 
L 3481 0 
L 794 0 
L 794 531 
z
" transform="scale(0.015625)"/>
       </defs>
       <use xlink:href="#DejaVuSans-31"/>
       <use xlink:href="#DejaVuSans-30" x="63.623047"/>
      </g>
     </g>
    </g>
    <g id="xtick_7">
     <g id="line2d_13">
      <path d="M 455.647647 246.04 
L 455.647647 32.4 
" clip-path="url(#peac3c944b8)" style="fill: none; stroke-dasharray: 0.8,1.32; stroke-dashoffset: 0; stroke: #b0b0b0; stroke-width: 0.8"/>
     </g>
     <g id="line2d_14">
      <g>
       <use xlink:href="#mb1b934f3b5" x="455.647647" y="246.04" style="stroke: #000000; stroke-width: 0.8"/>
      </g>
     </g>
     <g id="text_7">
      <!-- 12 -->
      <g transform="translate(449.285147 260.638438) scale(0.1 -0.1)">
       <use xlink:href="#DejaVuSans-31"/>
       <use xlink:href="#DejaVuSans-32" x="63.623047"/>
      </g>
     </g>
    </g>
    <g id="text_8">
     <!-- Day -->
     <g transform="translate(248.356562 274.316562) scale(0.1 -0.1)">
      <defs>
       <path id="DejaVuSans-44" d="M 1259 4147 
L 1259 519 
L 2022 519 
Q 2988 519 3436 956 
Q 3884 1394 3884 2338 
Q 3884 3275 3436 3711 
Q 2988 4147 2022 4147 
L 1259 4147 
z
M 628 4666 
L 1925 4666 
Q 3281 4666 3915 4102 
Q 4550 3538 4550 2338 
Q 4550 1131 3912 565 
Q 3275 0 1925 0 
L 628 0 
L 628 4666 
z
" transform="scale(0.015625)"/>
       <path id="DejaVuSans-61" d="M 2194 1759 
Q 1497 1759 1228 1600 
Q 959 1441 959 1056 
Q 959 750 1161 570 
Q 1363 391 1709 391 
Q 2188 391 2477 730 
Q 2766 1069 2766 1631 
L 2766 1759 
L 2194 1759 
z
M 3341 1997 
L 3341 0 
L 2766 0 
L 2766 531 
Q 2569 213 2275 61 
Q 1981 -91 1556 -91 
Q 1019 -91 701 211 
Q 384 513 384 1019 
Q 384 1609 779 1909 
Q 1175 2209 1959 2209 
L 2766 2209 
L 2766 2266 
Q 2766 2663 2505 2880 
Q 2244 3097 1772 3097 
Q 1472 3097 1187 3025 
Q 903 2953 641 2809 
L 641 3341 
Q 956 3463 1253 3523 
Q 1550 3584 1831 3584 
Q 2591 3584 2966 3190 
Q 3341 2797 3341 1997 
z
" transform="scale(0.015625)"/>
       <path id="DejaVuSans-79" d="M 2059 -325 
Q 1816 -950 1584 -1140 
Q 1353 -1331 966 -1331 
L 506 -1331 
L 506 -850 
L 844 -850 
Q 1081 -850 1212 -737 
Q 1344 -625 1503 -206 
L 1606 56 
L 191 3500 
L 800 3500 
L 1894 763 
L 2988 3500 
L 3597 3500 
L 2059 -325 
z
" transform="scale(0.015625)"/>
      </defs>
      <use xlink:href="#DejaVuSans-44"/>
      <use xlink:href="#DejaVuSans-61" x="77.001953"/>
      <use xlink:href="#DejaVuSans-79" x="138.28125"/>
     </g>
    </g>
   </g>
   <g id="matplotlib.axis_2">
    <g id="ytick_1">
     <g id="line2d_15">
      <defs>
       <path id="ma2535fd83c" d="M 0 0 
L -3.5 0 
" style="stroke: #1f77b4; stroke-width: 0.8"/>
      </defs>
      <g>
       <use xlink:href="#ma2535fd83c" x="44.66" y="236.329091" style="fill: #1f77b4; stroke: #1f77b4; stroke-width: 0.8"/>
      </g>
     </g>
     <g id="text_9">
      <!-- 0 -->
      <g style="fill: #1f77b4" transform="translate(31.2975 240.12831) scale(0.1 -0.1)">
       <use xlink:href="#DejaVuSans-30"/>
      </g>
     </g>
    </g>
    <g id="ytick_2">
     <g id="line2d_16">
      <g>
       <use xlink:href="#ma2535fd83c" x="44.66" y="197.485455" style="fill: #1f77b4; stroke: #1f77b4; stroke-width: 0.8"/>
      </g>
     </g>
     <g id="text_10">
      <!-- 2 -->
      <g style="fill: #1f77b4" transform="translate(31.2975 201.284673) scale(0.1 -0.1)">
       <use xlink:href="#DejaVuSans-32"/>
      </g>
     </g>
    </g>
    <g id="ytick_3">
     <g id="line2d_17">
      <g>
       <use xlink:href="#ma2535fd83c" x="44.66" y="158.641818" style="fill: #1f77b4; stroke: #1f77b4; stroke-width: 0.8"/>
      </g>
     </g>
     <g id="text_11">
      <!-- 4 -->
      <g style="fill: #1f77b4" transform="translate(31.2975 162.441037) scale(0.1 -0.1)">
       <use xlink:href="#DejaVuSans-34"/>
      </g>
     </g>
    </g>
    <g id="ytick_4">
     <g id="line2d_18">
      <g>
       <use xlink:href="#ma2535fd83c" x="44.66" y="119.798182" style="fill: #1f77b4; stroke: #1f77b4; stroke-width: 0.8"/>
      </g>
     </g>
     <g id="text_12">
      <!-- 6 -->
      <g style="fill: #1f77b4" transform="translate(31.2975 123.597401) scale(0.1 -0.1)">
       <use xlink:href="#DejaVuSans-36"/>
      </g>
     </g>
    </g>
    <g id="ytick_5">
     <g id="line2d_19">
      <g>
       <use xlink:href="#ma2535fd83c" x="44.66" y="80.954545" style="fill: #1f77b4; stroke: #1f77b4; stroke-width: 0.8"/>
      </g>
     </g>
     <g id="text_13">
      <!-- 8 -->
      <g style="fill: #1f77b4" transform="translate(31.2975 84.753764) scale(0.1 -0.1)">
       <use xlink:href="#DejaVuSans-38"/>
      </g>
     </g>
    </g>
    <g id="ytick_6">
     <g id="line2d_20">
      <g>
       <use xlink:href="#ma2535fd83c" x="44.66" y="42.110909" style="fill: #1f77b4; stroke: #1f77b4; stroke-width: 0.8"/>
      </g>
     </g>
     <g id="text_14">
      <!-- 10 -->
      <g style="fill: #1f77b4" transform="translate(24.935 45.910128) scale(0.1 -0.1)">
       <use xlink:href="#DejaVuSans-31"/>
       <use xlink:href="#DejaVuSans-30" x="63.623047"/>
      </g>
     </g>
    </g>
    <g id="text_15">
     <!-- Flow through the gate (m3/day) -->
     <g style="fill: #1f77b4" transform="translate(18.855313 218.948125) rotate(-90) scale(0.1 -0.1)">
      <defs>
       <path id="DejaVuSans-46" d="M 628 4666 
L 3309 4666 
L 3309 4134 
L 1259 4134 
L 1259 2759 
L 3109 2759 
L 3109 2228 
L 1259 2228 
L 1259 0 
L 628 0 
L 628 4666 
z
" transform="scale(0.015625)"/>
       <path id="DejaVuSans-6c" d="M 603 4863 
L 1178 4863 
L 1178 0 
L 603 0 
L 603 4863 
z
" transform="scale(0.015625)"/>
       <path id="DejaVuSans-6f" d="M 1959 3097 
Q 1497 3097 1228 2736 
Q 959 2375 959 1747 
Q 959 1119 1226 758 
Q 1494 397 1959 397 
Q 2419 397 2687 759 
Q 2956 1122 2956 1747 
Q 2956 2369 2687 2733 
Q 2419 3097 1959 3097 
z
M 1959 3584 
Q 2709 3584 3137 3096 
Q 3566 2609 3566 1747 
Q 3566 888 3137 398 
Q 2709 -91 1959 -91 
Q 1206 -91 779 398 
Q 353 888 353 1747 
Q 353 2609 779 3096 
Q 1206 3584 1959 3584 
z
" transform="scale(0.015625)"/>
       <path id="DejaVuSans-77" d="M 269 3500 
L 844 3500 
L 1563 769 
L 2278 3500 
L 2956 3500 
L 3675 769 
L 4391 3500 
L 4966 3500 
L 4050 0 
L 3372 0 
L 2619 2869 
L 1863 0 
L 1184 0 
L 269 3500 
z
" transform="scale(0.015625)"/>
       <path id="DejaVuSans-20" transform="scale(0.015625)"/>
       <path id="DejaVuSans-74" d="M 1172 4494 
L 1172 3500 
L 2356 3500 
L 2356 3053 
L 1172 3053 
L 1172 1153 
Q 1172 725 1289 603 
Q 1406 481 1766 481 
L 2356 481 
L 2356 0 
L 1766 0 
Q 1100 0 847 248 
Q 594 497 594 1153 
L 594 3053 
L 172 3053 
L 172 3500 
L 594 3500 
L 594 4494 
L 1172 4494 
z
" transform="scale(0.015625)"/>
       <path id="DejaVuSans-68" d="M 3513 2113 
L 3513 0 
L 2938 0 
L 2938 2094 
Q 2938 2591 2744 2837 
Q 2550 3084 2163 3084 
Q 1697 3084 1428 2787 
Q 1159 2491 1159 1978 
L 1159 0 
L 581 0 
L 581 4863 
L 1159 4863 
L 1159 2956 
Q 1366 3272 1645 3428 
Q 1925 3584 2291 3584 
Q 2894 3584 3203 3211 
Q 3513 2838 3513 2113 
z
" transform="scale(0.015625)"/>
       <path id="DejaVuSans-72" d="M 2631 2963 
Q 2534 3019 2420 3045 
Q 2306 3072 2169 3072 
Q 1681 3072 1420 2755 
Q 1159 2438 1159 1844 
L 1159 0 
L 581 0 
L 581 3500 
L 1159 3500 
L 1159 2956 
Q 1341 3275 1631 3429 
Q 1922 3584 2338 3584 
Q 2397 3584 2469 3576 
Q 2541 3569 2628 3553 
L 2631 2963 
z
" transform="scale(0.015625)"/>
       <path id="DejaVuSans-75" d="M 544 1381 
L 544 3500 
L 1119 3500 
L 1119 1403 
Q 1119 906 1312 657 
Q 1506 409 1894 409 
Q 2359 409 2629 706 
Q 2900 1003 2900 1516 
L 2900 3500 
L 3475 3500 
L 3475 0 
L 2900 0 
L 2900 538 
Q 2691 219 2414 64 
Q 2138 -91 1772 -91 
Q 1169 -91 856 284 
Q 544 659 544 1381 
z
M 1991 3584 
L 1991 3584 
z
" transform="scale(0.015625)"/>
       <path id="DejaVuSans-67" d="M 2906 1791 
Q 2906 2416 2648 2759 
Q 2391 3103 1925 3103 
Q 1463 3103 1205 2759 
Q 947 2416 947 1791 
Q 947 1169 1205 825 
Q 1463 481 1925 481 
Q 2391 481 2648 825 
Q 2906 1169 2906 1791 
z
M 3481 434 
Q 3481 -459 3084 -895 
Q 2688 -1331 1869 -1331 
Q 1566 -1331 1297 -1286 
Q 1028 -1241 775 -1147 
L 775 -588 
Q 1028 -725 1275 -790 
Q 1522 -856 1778 -856 
Q 2344 -856 2625 -561 
Q 2906 -266 2906 331 
L 2906 616 
Q 2728 306 2450 153 
Q 2172 0 1784 0 
Q 1141 0 747 490 
Q 353 981 353 1791 
Q 353 2603 747 3093 
Q 1141 3584 1784 3584 
Q 2172 3584 2450 3431 
Q 2728 3278 2906 2969 
L 2906 3500 
L 3481 3500 
L 3481 434 
z
" transform="scale(0.015625)"/>
       <path id="DejaVuSans-65" d="M 3597 1894 
L 3597 1613 
L 953 1613 
Q 991 1019 1311 708 
Q 1631 397 2203 397 
Q 2534 397 2845 478 
Q 3156 559 3463 722 
L 3463 178 
Q 3153 47 2828 -22 
Q 2503 -91 2169 -91 
Q 1331 -91 842 396 
Q 353 884 353 1716 
Q 353 2575 817 3079 
Q 1281 3584 2069 3584 
Q 2775 3584 3186 3129 
Q 3597 2675 3597 1894 
z
M 3022 2063 
Q 3016 2534 2758 2815 
Q 2500 3097 2075 3097 
Q 1594 3097 1305 2825 
Q 1016 2553 972 2059 
L 3022 2063 
z
" transform="scale(0.015625)"/>
       <path id="DejaVuSans-28" d="M 1984 4856 
Q 1566 4138 1362 3434 
Q 1159 2731 1159 2009 
Q 1159 1288 1364 580 
Q 1569 -128 1984 -844 
L 1484 -844 
Q 1016 -109 783 600 
Q 550 1309 550 2009 
Q 550 2706 781 3412 
Q 1013 4119 1484 4856 
L 1984 4856 
z
" transform="scale(0.015625)"/>
       <path id="DejaVuSans-6d" d="M 3328 2828 
Q 3544 3216 3844 3400 
Q 4144 3584 4550 3584 
Q 5097 3584 5394 3201 
Q 5691 2819 5691 2113 
L 5691 0 
L 5113 0 
L 5113 2094 
Q 5113 2597 4934 2840 
Q 4756 3084 4391 3084 
Q 3944 3084 3684 2787 
Q 3425 2491 3425 1978 
L 3425 0 
L 2847 0 
L 2847 2094 
Q 2847 2600 2669 2842 
Q 2491 3084 2119 3084 
Q 1678 3084 1418 2786 
Q 1159 2488 1159 1978 
L 1159 0 
L 581 0 
L 581 3500 
L 1159 3500 
L 1159 2956 
Q 1356 3278 1631 3431 
Q 1906 3584 2284 3584 
Q 2666 3584 2933 3390 
Q 3200 3197 3328 2828 
z
" transform="scale(0.015625)"/>
       <path id="DejaVuSans-33" d="M 2597 2516 
Q 3050 2419 3304 2112 
Q 3559 1806 3559 1356 
Q 3559 666 3084 287 
Q 2609 -91 1734 -91 
Q 1441 -91 1130 -33 
Q 819 25 488 141 
L 488 750 
Q 750 597 1062 519 
Q 1375 441 1716 441 
Q 2309 441 2620 675 
Q 2931 909 2931 1356 
Q 2931 1769 2642 2001 
Q 2353 2234 1838 2234 
L 1294 2234 
L 1294 2753 
L 1863 2753 
Q 2328 2753 2575 2939 
Q 2822 3125 2822 3475 
Q 2822 3834 2567 4026 
Q 2313 4219 1838 4219 
Q 1578 4219 1281 4162 
Q 984 4106 628 3988 
L 628 4550 
Q 988 4650 1302 4700 
Q 1616 4750 1894 4750 
Q 2613 4750 3031 4423 
Q 3450 4097 3450 3541 
Q 3450 3153 3228 2886 
Q 3006 2619 2597 2516 
z
" transform="scale(0.015625)"/>
       <path id="DejaVuSans-2f" d="M 1625 4666 
L 2156 4666 
L 531 -594 
L 0 -594 
L 1625 4666 
z
" transform="scale(0.015625)"/>
       <path id="DejaVuSans-64" d="M 2906 2969 
L 2906 4863 
L 3481 4863 
L 3481 0 
L 2906 0 
L 2906 525 
Q 2725 213 2448 61 
Q 2172 -91 1784 -91 
Q 1150 -91 751 415 
Q 353 922 353 1747 
Q 353 2572 751 3078 
Q 1150 3584 1784 3584 
Q 2172 3584 2448 3432 
Q 2725 3281 2906 2969 
z
M 947 1747 
Q 947 1113 1208 752 
Q 1469 391 1925 391 
Q 2381 391 2643 752 
Q 2906 1113 2906 1747 
Q 2906 2381 2643 2742 
Q 2381 3103 1925 3103 
Q 1469 3103 1208 2742 
Q 947 2381 947 1747 
z
" transform="scale(0.015625)"/>
       <path id="DejaVuSans-29" d="M 513 4856 
L 1013 4856 
Q 1481 4119 1714 3412 
Q 1947 2706 1947 2009 
Q 1947 1309 1714 600 
Q 1481 -109 1013 -844 
L 513 -844 
Q 928 -128 1133 580 
Q 1338 1288 1338 2009 
Q 1338 2731 1133 3434 
Q 928 4138 513 4856 
z
" transform="scale(0.015625)"/>
      </defs>
      <use xlink:href="#DejaVuSans-46"/>
      <use xlink:href="#DejaVuSans-6c" x="57.519531"/>
      <use xlink:href="#DejaVuSans-6f" x="85.302734"/>
      <use xlink:href="#DejaVuSans-77" x="146.484375"/>
      <use xlink:href="#DejaVuSans-20" x="228.271484"/>
      <use xlink:href="#DejaVuSans-74" x="260.058594"/>
      <use xlink:href="#DejaVuSans-68" x="299.267578"/>
      <use xlink:href="#DejaVuSans-72" x="362.646484"/>
      <use xlink:href="#DejaVuSans-6f" x="401.509766"/>
      <use xlink:href="#DejaVuSans-75" x="462.691406"/>
      <use xlink:href="#DejaVuSans-67" x="526.070312"/>
      <use xlink:href="#DejaVuSans-68" x="589.546875"/>
      <use xlink:href="#DejaVuSans-20" x="652.925781"/>
      <use xlink:href="#DejaVuSans-74" x="684.712891"/>
      <use xlink:href="#DejaVuSans-68" x="723.921875"/>
      <use xlink:href="#DejaVuSans-65" x="787.300781"/>
      <use xlink:href="#DejaVuSans-20" x="848.824219"/>
      <use xlink:href="#DejaVuSans-67" x="880.611328"/>
      <use xlink:href="#DejaVuSans-61" x="944.087891"/>
      <use xlink:href="#DejaVuSans-74" x="1005.367188"/>
      <use xlink:href="#DejaVuSans-65" x="1044.576172"/>
      <use xlink:href="#DejaVuSans-20" x="1106.099609"/>
      <use xlink:href="#DejaVuSans-28" x="1137.886719"/>
      <use xlink:href="#DejaVuSans-6d" x="1176.900391"/>
      <use xlink:href="#DejaVuSans-33" x="1274.3125"/>
      <use xlink:href="#DejaVuSans-2f" x="1337.935547"/>
      <use xlink:href="#DejaVuSans-64" x="1371.626953"/>
      <use xlink:href="#DejaVuSans-61" x="1435.103516"/>
      <use xlink:href="#DejaVuSans-79" x="1496.382812"/>
      <use xlink:href="#DejaVuSans-29" x="1555.5625"/>
     </g>
    </g>
   </g>
   <g id="line2d_21">
    <path d="M 64.075455 236.329091 
L 67.338556 236.329091 
L 70.601658 236.329091 
L 73.864759 236.329091 
L 77.127861 236.329091 
L 80.390963 236.329091 
L 83.654064 236.329091 
L 86.917166 236.329091 
L 90.180267 236.329091 
L 93.443369 236.329091 
L 96.706471 236.329091 
L 99.969572 236.329091 
L 103.232674 236.329091 
L 106.495775 236.329091 
L 109.758877 236.329091 
L 113.021979 236.329091 
L 116.28508 236.329091 
L 119.548182 236.329091 
L 122.811283 236.329091 
L 126.074385 236.329091 
L 129.337487 42.110909 
L 132.600588 42.110909 
L 135.86369 42.110909 
L 139.126791 42.110909 
L 142.389893 42.110909 
L 145.652995 42.110909 
L 148.916096 42.110909 
L 152.179198 42.110909 
L 155.442299 42.110909 
L 158.705401 42.110909 
L 161.968503 42.110909 
L 165.231604 42.110909 
L 168.494706 42.110909 
L 171.757807 42.110909 
L 175.020909 42.110909 
L 178.284011 42.110909 
L 181.547112 42.110909 
L 184.810214 42.110909 
L 188.073316 42.110909 
L 191.336417 42.110909 
L 194.599519 236.329091 
L 197.86262 236.329091 
L 201.125722 236.329091 
L 204.388824 236.329091 
L 207.651925 236.329091 
L 210.915027 236.329091 
L 214.178128 236.329091 
L 217.44123 236.329091 
L 220.704332 236.329091 
L 223.967433 236.329091 
L 227.230535 236.329091 
L 230.493636 236.329091 
L 233.756738 236.329091 
L 237.01984 236.329091 
L 240.282941 236.329091 
L 243.546043 236.329091 
L 246.809144 236.329091 
L 250.072246 236.329091 
L 253.335348 236.329091 
L 256.598449 236.329091 
L 259.861551 236.329091 
L 263.124652 236.329091 
L 266.387754 236.329091 
L 269.650856 236.329091 
L 272.913957 236.329091 
L 276.177059 236.329091 
L 279.44016 236.329091 
L 282.703262 236.329091 
L 285.966364 236.329091 
L 289.229465 236.329091 
L 292.492567 236.329091 
L 295.755668 236.329091 
L 299.01877 236.329091 
L 302.281872 236.329091 
L 305.544973 236.329091 
L 308.808075 236.329091 
L 312.071176 236.329091 
L 315.334278 236.329091 
L 318.59738 236.329091 
L 321.860481 236.329091 
L 325.123583 236.329091 
L 328.386684 236.329091 
L 331.649786 236.329091 
L 334.912888 236.329091 
L 338.175989 236.329091 
L 341.439091 236.329091 
L 344.702193 236.329091 
L 347.965294 236.329091 
L 351.228396 236.329091 
L 354.491497 236.329091 
L 357.754599 236.329091 
L 361.017701 236.329091 
L 364.280802 236.329091 
L 367.543904 236.329091 
L 370.807005 236.329091 
L 374.070107 236.329091 
L 377.333209 236.329091 
L 380.59631 236.329091 
L 383.859412 236.329091 
L 387.122513 236.329091 
L 390.385615 236.329091 
L 393.648717 236.329091 
L 396.911818 236.329091 
L 400.17492 236.329091 
L 403.438021 236.329091 
L 406.701123 236.329091 
L 409.964225 236.329091 
L 413.227326 236.329091 
L 416.490428 236.329091 
L 419.753529 236.329091 
L 423.016631 236.329091 
L 426.279733 236.329091 
L 429.542834 236.329091 
L 432.805936 236.329091 
L 436.069037 236.329091 
L 439.332139 236.329091 
L 442.595241 236.329091 
L 445.858342 236.329091 
L 449.121444 236.329091 
L 452.384545 236.329091 
" clip-path="url(#peac3c944b8)" style="fill: none; stroke: #1f77b4; stroke-width: 1.5; stroke-linecap: square"/>
   </g>
   <g id="patch_3">
    <path d="M 44.66 246.04 
L 44.66 32.4 
" style="fill: none; stroke: #000000; stroke-width: 0.8; stroke-linejoin: miter; stroke-linecap: square"/>
   </g>
   <g id="patch_4">
    <path d="M 471.8 246.04 
L 471.8 32.4 
" style="fill: none; stroke: #000000; stroke-width: 0.8; stroke-linejoin: miter; stroke-linecap: square"/>
   </g>
   <g id="patch_5">
    <path d="M 44.66 246.04 
L 471.8 246.04 
" style="fill: none; stroke: #000000; stroke-width: 0.8; stroke-linejoin: miter; stroke-linecap: square"/>
   </g>
   <g id="patch_6">
    <path d="M 44.66 32.4 
L 471.8 32.4 
" style="fill: none; stroke: #000000; stroke-width: 0.8; stroke-linejoin: miter; stroke-linecap: square"/>
   </g>
  </g>
  <g id="axes_2">
   <g id="matplotlib.axis_3">
    <g id="ytick_7">
     <g id="line2d_22">
      <defs>
       <path id="md19ffb530b" d="M 0 0 
L 3.5 0 
" style="stroke: #ff7f0e; stroke-width: 0.8"/>
      </defs>
      <g>
       <use xlink:href="#md19ffb530b" x="471.8" y="236.329091" style="fill: #ff7f0e; stroke: #ff7f0e; stroke-width: 0.8"/>
      </g>
     </g>
     <g id="text_16">
      <!-- 0 -->
      <g style="fill: #ff7f0e" transform="translate(478.8 240.12831) scale(0.1 -0.1)">
       <use xlink:href="#DejaVuSans-30"/>
      </g>
     </g>
    </g>
    <g id="ytick_8">
     <g id="line2d_23">
      <g>
       <use xlink:href="#md19ffb530b" x="471.8" y="209.467017" style="fill: #ff7f0e; stroke: #ff7f0e; stroke-width: 0.8"/>
      </g>
     </g>
     <g id="text_17">
      <!-- 1 -->
      <g style="fill: #ff7f0e" transform="translate(478.8 213.266236) scale(0.1 -0.1)">
       <use xlink:href="#DejaVuSans-31"/>
      </g>
     </g>
    </g>
    <g id="ytick_9">
     <g id="line2d_24">
      <g>
       <use xlink:href="#md19ffb530b" x="471.8" y="182.604944" style="fill: #ff7f0e; stroke: #ff7f0e; stroke-width: 0.8"/>
      </g>
     </g>
     <g id="text_18">
      <!-- 2 -->
      <g style="fill: #ff7f0e" transform="translate(478.8 186.404162) scale(0.1 -0.1)">
       <use xlink:href="#DejaVuSans-32"/>
      </g>
     </g>
    </g>
    <g id="ytick_10">
     <g id="line2d_25">
      <g>
       <use xlink:href="#md19ffb530b" x="471.8" y="155.74287" style="fill: #ff7f0e; stroke: #ff7f0e; stroke-width: 0.8"/>
      </g>
     </g>
     <g id="text_19">
      <!-- 3 -->
      <g style="fill: #ff7f0e" transform="translate(478.8 159.542089) scale(0.1 -0.1)">
       <use xlink:href="#DejaVuSans-33"/>
      </g>
     </g>
    </g>
    <g id="ytick_11">
     <g id="line2d_26">
      <g>
       <use xlink:href="#md19ffb530b" x="471.8" y="128.880796" style="fill: #ff7f0e; stroke: #ff7f0e; stroke-width: 0.8"/>
      </g>
     </g>
     <g id="text_20">
      <!-- 4 -->
      <g style="fill: #ff7f0e" transform="translate(478.8 132.680015) scale(0.1 -0.1)">
       <use xlink:href="#DejaVuSans-34"/>
      </g>
     </g>
    </g>
    <g id="ytick_12">
     <g id="line2d_27">
      <g>
       <use xlink:href="#md19ffb530b" x="471.8" y="102.018723" style="fill: #ff7f0e; stroke: #ff7f0e; stroke-width: 0.8"/>
      </g>
     </g>
     <g id="text_21">
      <!-- 5 -->
      <g style="fill: #ff7f0e" transform="translate(478.8 105.817941) scale(0.1 -0.1)">
       <defs>
        <path id="DejaVuSans-35" d="M 691 4666 
L 3169 4666 
L 3169 4134 
L 1269 4134 
L 1269 2991 
Q 1406 3038 1543 3061 
Q 1681 3084 1819 3084 
Q 2600 3084 3056 2656 
Q 3513 2228 3513 1497 
Q 3513 744 3044 326 
Q 2575 -91 1722 -91 
Q 1428 -91 1123 -41 
Q 819 9 494 109 
L 494 744 
Q 775 591 1075 516 
Q 1375 441 1709 441 
Q 2250 441 2565 725 
Q 2881 1009 2881 1497 
Q 2881 1984 2565 2268 
Q 2250 2553 1709 2553 
Q 1456 2553 1204 2497 
Q 953 2441 691 2322 
L 691 4666 
z
" transform="scale(0.015625)"/>
       </defs>
       <use xlink:href="#DejaVuSans-35"/>
      </g>
     </g>
    </g>
    <g id="ytick_13">
     <g id="line2d_28">
      <g>
       <use xlink:href="#md19ffb530b" x="471.8" y="75.156649" style="fill: #ff7f0e; stroke: #ff7f0e; stroke-width: 0.8"/>
      </g>
     </g>
     <g id="text_22">
      <!-- 6 -->
      <g style="fill: #ff7f0e" transform="translate(478.8 78.955868) scale(0.1 -0.1)">
       <use xlink:href="#DejaVuSans-36"/>
      </g>
     </g>
    </g>
    <g id="ytick_14">
     <g id="line2d_29">
      <g>
       <use xlink:href="#md19ffb530b" x="471.8" y="48.294575" style="fill: #ff7f0e; stroke: #ff7f0e; stroke-width: 0.8"/>
      </g>
     </g>
     <g id="text_23">
      <!-- 7 -->
      <g style="fill: #ff7f0e" transform="translate(478.8 52.093794) scale(0.1 -0.1)">
       <defs>
        <path id="DejaVuSans-37" d="M 525 4666 
L 3525 4666 
L 3525 4397 
L 1831 0 
L 1172 0 
L 2766 4134 
L 525 4134 
L 525 4666 
z
" transform="scale(0.015625)"/>
       </defs>
       <use xlink:href="#DejaVuSans-37"/>
      </g>
     </g>
    </g>
    <g id="text_24">
     <!-- Flow through the stream (m3/day) -->
     <g style="fill: #ff7f0e" transform="translate(496.760937 225.191875) rotate(-90) scale(0.1 -0.1)">
      <defs>
       <path id="DejaVuSans-73" d="M 2834 3397 
L 2834 2853 
Q 2591 2978 2328 3040 
Q 2066 3103 1784 3103 
Q 1356 3103 1142 2972 
Q 928 2841 928 2578 
Q 928 2378 1081 2264 
Q 1234 2150 1697 2047 
L 1894 2003 
Q 2506 1872 2764 1633 
Q 3022 1394 3022 966 
Q 3022 478 2636 193 
Q 2250 -91 1575 -91 
Q 1294 -91 989 -36 
Q 684 19 347 128 
L 347 722 
Q 666 556 975 473 
Q 1284 391 1588 391 
Q 1994 391 2212 530 
Q 2431 669 2431 922 
Q 2431 1156 2273 1281 
Q 2116 1406 1581 1522 
L 1381 1569 
Q 847 1681 609 1914 
Q 372 2147 372 2553 
Q 372 3047 722 3315 
Q 1072 3584 1716 3584 
Q 2034 3584 2315 3537 
Q 2597 3491 2834 3397 
z
" transform="scale(0.015625)"/>
      </defs>
      <use xlink:href="#DejaVuSans-46"/>
      <use xlink:href="#DejaVuSans-6c" x="57.519531"/>
      <use xlink:href="#DejaVuSans-6f" x="85.302734"/>
      <use xlink:href="#DejaVuSans-77" x="146.484375"/>
      <use xlink:href="#DejaVuSans-20" x="228.271484"/>
      <use xlink:href="#DejaVuSans-74" x="260.058594"/>
      <use xlink:href="#DejaVuSans-68" x="299.267578"/>
      <use xlink:href="#DejaVuSans-72" x="362.646484"/>
      <use xlink:href="#DejaVuSans-6f" x="401.509766"/>
      <use xlink:href="#DejaVuSans-75" x="462.691406"/>
      <use xlink:href="#DejaVuSans-67" x="526.070312"/>
      <use xlink:href="#DejaVuSans-68" x="589.546875"/>
      <use xlink:href="#DejaVuSans-20" x="652.925781"/>
      <use xlink:href="#DejaVuSans-74" x="684.712891"/>
      <use xlink:href="#DejaVuSans-68" x="723.921875"/>
      <use xlink:href="#DejaVuSans-65" x="787.300781"/>
      <use xlink:href="#DejaVuSans-20" x="848.824219"/>
      <use xlink:href="#DejaVuSans-73" x="880.611328"/>
      <use xlink:href="#DejaVuSans-74" x="932.710938"/>
      <use xlink:href="#DejaVuSans-72" x="971.919922"/>
      <use xlink:href="#DejaVuSans-65" x="1010.783203"/>
      <use xlink:href="#DejaVuSans-61" x="1072.306641"/>
      <use xlink:href="#DejaVuSans-6d" x="1133.585938"/>
      <use xlink:href="#DejaVuSans-20" x="1230.998047"/>
      <use xlink:href="#DejaVuSans-28" x="1262.785156"/>
      <use xlink:href="#DejaVuSans-6d" x="1301.798828"/>
      <use xlink:href="#DejaVuSans-33" x="1399.210938"/>
      <use xlink:href="#DejaVuSans-2f" x="1462.833984"/>
      <use xlink:href="#DejaVuSans-64" x="1496.525391"/>
      <use xlink:href="#DejaVuSans-61" x="1560.001953"/>
      <use xlink:href="#DejaVuSans-79" x="1621.28125"/>
      <use xlink:href="#DejaVuSans-29" x="1680.460938"/>
     </g>
    </g>
   </g>
   <g id="line2d_30">
    <path d="M 64.075455 236.329091 
L 67.338556 236.329091 
L 70.601658 236.329091 
L 73.864759 236.329091 
L 77.127861 236.329091 
L 80.390963 236.329091 
L 83.654064 236.329091 
L 86.917166 236.329091 
L 90.180267 236.329091 
L 93.443369 236.329091 
L 96.706471 236.329091 
L 99.969572 236.329091 
L 103.232674 236.329091 
L 106.495775 236.329091 
L 109.758877 236.329091 
L 113.021979 236.329091 
L 116.28508 236.329091 
L 119.548182 236.329091 
L 122.811283 236.329091 
L 126.074385 236.329091 
L 129.337487 236.329091 
L 132.600588 236.329091 
L 135.86369 235.422496 
L 139.126791 233.110679 
L 142.389893 229.180589 
L 145.652995 223.612963 
L 148.916096 216.514239 
L 152.179198 208.066758 
L 155.442299 198.492946 
L 158.705401 188.030137 
L 161.968503 176.913403 
L 165.231604 165.364351 
L 168.494706 153.584318 
L 171.757807 141.750739 
L 175.020909 130.015774 
L 178.284011 118.506481 
L 181.547112 107.326025 
L 184.810214 96.555519 
L 188.073316 86.256222 
L 191.336417 76.471891 
L 194.599519 67.231133 
L 197.86262 58.549685 
L 201.125722 51.339125 
L 204.388824 46.094258 
L 207.651925 43.01724 
L 210.915027 42.110909 
L 214.178128 43.248197 
L 217.44123 46.22308 
L 220.704332 50.787359 
L 223.967433 56.676651 
L 227.230535 63.628218 
L 230.493636 71.392712 
L 233.756738 79.741413 
L 237.01984 88.470189 
L 240.282941 97.40113 
L 243.546043 106.382553 
L 246.809144 115.287925 
L 250.072246 124.014106 
L 253.335348 132.479189 
L 256.598449 140.620164 
L 259.861551 148.39055 
L 263.124652 155.758089 
L 266.387754 162.70258 
L 269.650856 169.213878 
L 272.913957 175.290093 
L 276.177059 180.935989 
L 279.44016 186.16158 
L 282.703262 190.980912 
L 285.966364 195.411025 
L 289.229465 199.471078 
L 292.492567 203.181616 
L 295.755668 206.563965 
L 299.01877 209.639746 
L 302.281872 212.430477 
L 305.544973 214.957273 
L 308.808075 217.240608 
L 312.071176 219.300137 
L 315.334278 221.154579 
L 318.59738 222.821627 
L 321.860481 224.317908 
L 325.123583 225.658954 
L 328.386684 226.85921 
L 331.649786 227.932048 
L 334.912888 228.889801 
L 338.175989 229.743802 
L 341.439091 230.504431 
L 344.702193 231.181167 
L 347.965294 231.782646 
L 351.228396 232.316711 
L 354.491497 232.790473 
L 357.754599 233.210364 
L 361.017701 233.582188 
L 364.280802 233.911176 
L 367.543904 234.202031 
L 370.807005 234.458978 
L 374.070107 234.685802 
L 377.333209 234.885894 
L 380.59631 235.062285 
L 383.859412 235.217679 
L 387.122513 235.35449 
L 390.385615 235.474867 
L 393.648717 235.58072 
L 396.911818 235.673751 
L 400.17492 235.755466 
L 403.438021 235.827203 
L 406.701123 235.89015 
L 409.964225 235.945355 
L 413.227326 235.993747 
L 416.490428 236.036147 
L 419.753529 236.07328 
L 423.016631 236.105786 
L 426.279733 236.134229 
L 429.542834 236.159108 
L 432.805936 236.180859 
L 436.069037 236.199868 
L 439.332139 236.216475 
L 442.595241 236.230978 
L 445.858342 236.243639 
L 449.121444 236.254687 
L 452.384545 236.264326 
" clip-path="url(#peac3c944b8)" style="fill: none; stroke: #ff7f0e; stroke-width: 1.5; stroke-linecap: square"/>
   </g>
   <g id="patch_7">
    <path d="M 44.66 246.04 
L 44.66 32.4 
" style="fill: none; stroke: #000000; stroke-width: 0.8; stroke-linejoin: miter; stroke-linecap: square"/>
   </g>
   <g id="patch_8">
    <path d="M 471.8 246.04 
L 471.8 32.4 
" style="fill: none; stroke: #000000; stroke-width: 0.8; stroke-linejoin: miter; stroke-linecap: square"/>
   </g>
   <g id="patch_9">
    <path d="M 44.66 246.04 
L 471.8 246.04 
" style="fill: none; stroke: #000000; stroke-width: 0.8; stroke-linejoin: miter; stroke-linecap: square"/>
   </g>
   <g id="patch_10">
    <path d="M 44.66 32.4 
L 471.8 32.4 
" style="fill: none; stroke: #000000; stroke-width: 0.8; stroke-linejoin: miter; stroke-linecap: square"/>
   </g>
  </g>
  <g id="axes_3">
   <g id="matplotlib.axis_4">
    <g id="ytick_15">
     <g id="line2d_31">
      <defs>
       <path id="md210bd0c6b" d="M 0 0 
L 3.5 0 
" style="stroke: #2ca02c; stroke-width: 0.8"/>
      </defs>
      <g>
       <use xlink:href="#md210bd0c6b" x="521.8" y="236.329091" style="fill: #2ca02c; stroke: #2ca02c; stroke-width: 0.8"/>
      </g>
     </g>
     <g id="text_25">
      <!-- 0.0 -->
      <g style="fill: #2ca02c" transform="translate(528.8 240.12831) scale(0.1 -0.1)">
       <defs>
        <path id="DejaVuSans-2e" d="M 684 794 
L 1344 794 
L 1344 0 
L 684 0 
L 684 794 
z
" transform="scale(0.015625)"/>
       </defs>
       <use xlink:href="#DejaVuSans-30"/>
       <use xlink:href="#DejaVuSans-2e" x="63.623047"/>
       <use xlink:href="#DejaVuSans-30" x="95.410156"/>
      </g>
     </g>
    </g>
    <g id="ytick_16">
     <g id="line2d_32">
      <g>
       <use xlink:href="#md210bd0c6b" x="521.8" y="212.049586" style="fill: #2ca02c; stroke: #2ca02c; stroke-width: 0.8"/>
      </g>
     </g>
     <g id="text_26">
      <!-- 2.5 -->
      <g style="fill: #2ca02c" transform="translate(528.8 215.848805) scale(0.1 -0.1)">
       <use xlink:href="#DejaVuSans-32"/>
       <use xlink:href="#DejaVuSans-2e" x="63.623047"/>
       <use xlink:href="#DejaVuSans-35" x="95.410156"/>
      </g>
     </g>
    </g>
    <g id="ytick_17">
     <g id="line2d_33">
      <g>
       <use xlink:href="#md210bd0c6b" x="521.8" y="187.770082" style="fill: #2ca02c; stroke: #2ca02c; stroke-width: 0.8"/>
      </g>
     </g>
     <g id="text_27">
      <!-- 5.0 -->
      <g style="fill: #2ca02c" transform="translate(528.8 191.569301) scale(0.1 -0.1)">
       <use xlink:href="#DejaVuSans-35"/>
       <use xlink:href="#DejaVuSans-2e" x="63.623047"/>
       <use xlink:href="#DejaVuSans-30" x="95.410156"/>
      </g>
     </g>
    </g>
    <g id="ytick_18">
     <g id="line2d_34">
      <g>
       <use xlink:href="#md210bd0c6b" x="521.8" y="163.490577" style="fill: #2ca02c; stroke: #2ca02c; stroke-width: 0.8"/>
      </g>
     </g>
     <g id="text_28">
      <!-- 7.5 -->
      <g style="fill: #2ca02c" transform="translate(528.8 167.289796) scale(0.1 -0.1)">
       <use xlink:href="#DejaVuSans-37"/>
       <use xlink:href="#DejaVuSans-2e" x="63.623047"/>
       <use xlink:href="#DejaVuSans-35" x="95.410156"/>
      </g>
     </g>
    </g>
    <g id="ytick_19">
     <g id="line2d_35">
      <g>
       <use xlink:href="#md210bd0c6b" x="521.8" y="139.211073" style="fill: #2ca02c; stroke: #2ca02c; stroke-width: 0.8"/>
      </g>
     </g>
     <g id="text_29">
      <!-- 10.0 -->
      <g style="fill: #2ca02c" transform="translate(528.8 143.010292) scale(0.1 -0.1)">
       <use xlink:href="#DejaVuSans-31"/>
       <use xlink:href="#DejaVuSans-30" x="63.623047"/>
       <use xlink:href="#DejaVuSans-2e" x="127.246094"/>
       <use xlink:href="#DejaVuSans-30" x="159.033203"/>
      </g>
     </g>
    </g>
    <g id="ytick_20">
     <g id="line2d_36">
      <g>
       <use xlink:href="#md210bd0c6b" x="521.8" y="114.931568" style="fill: #2ca02c; stroke: #2ca02c; stroke-width: 0.8"/>
      </g>
     </g>
     <g id="text_30">
      <!-- 12.5 -->
      <g style="fill: #2ca02c" transform="translate(528.8 118.730787) scale(0.1 -0.1)">
       <use xlink:href="#DejaVuSans-31"/>
       <use xlink:href="#DejaVuSans-32" x="63.623047"/>
       <use xlink:href="#DejaVuSans-2e" x="127.246094"/>
       <use xlink:href="#DejaVuSans-35" x="159.033203"/>
      </g>
     </g>
    </g>
    <g id="ytick_21">
     <g id="line2d_37">
      <g>
       <use xlink:href="#md210bd0c6b" x="521.8" y="90.652064" style="fill: #2ca02c; stroke: #2ca02c; stroke-width: 0.8"/>
      </g>
     </g>
     <g id="text_31">
      <!-- 15.0 -->
      <g style="fill: #2ca02c" transform="translate(528.8 94.451283) scale(0.1 -0.1)">
       <use xlink:href="#DejaVuSans-31"/>
       <use xlink:href="#DejaVuSans-35" x="63.623047"/>
       <use xlink:href="#DejaVuSans-2e" x="127.246094"/>
       <use xlink:href="#DejaVuSans-30" x="159.033203"/>
      </g>
     </g>
    </g>
    <g id="ytick_22">
     <g id="line2d_38">
      <g>
       <use xlink:href="#md210bd0c6b" x="521.8" y="66.372559" style="fill: #2ca02c; stroke: #2ca02c; stroke-width: 0.8"/>
      </g>
     </g>
     <g id="text_32">
      <!-- 17.5 -->
      <g style="fill: #2ca02c" transform="translate(528.8 70.171778) scale(0.1 -0.1)">
       <use xlink:href="#DejaVuSans-31"/>
       <use xlink:href="#DejaVuSans-37" x="63.623047"/>
       <use xlink:href="#DejaVuSans-2e" x="127.246094"/>
       <use xlink:href="#DejaVuSans-35" x="159.033203"/>
      </g>
     </g>
    </g>
    <g id="ytick_23">
     <g id="line2d_39">
      <g>
       <use xlink:href="#md210bd0c6b" x="521.8" y="42.093055" style="fill: #2ca02c; stroke: #2ca02c; stroke-width: 0.8"/>
      </g>
     </g>
     <g id="text_33">
      <!-- 20.0 -->
      <g style="fill: #2ca02c" transform="translate(528.8 45.892274) scale(0.1 -0.1)">
       <use xlink:href="#DejaVuSans-32"/>
       <use xlink:href="#DejaVuSans-30" x="63.623047"/>
       <use xlink:href="#DejaVuSans-2e" x="127.246094"/>
       <use xlink:href="#DejaVuSans-30" x="159.033203"/>
      </g>
     </g>
    </g>
    <g id="text_34">
     <!-- Water in the pond (m3) -->
     <g style="fill: #2ca02c" transform="translate(562.664062 197.650469) rotate(-90) scale(0.1 -0.1)">
      <defs>
       <path id="DejaVuSans-57" d="M 213 4666 
L 850 4666 
L 1831 722 
L 2809 4666 
L 3519 4666 
L 4500 722 
L 5478 4666 
L 6119 4666 
L 4947 0 
L 4153 0 
L 3169 4050 
L 2175 0 
L 1381 0 
L 213 4666 
z
" transform="scale(0.015625)"/>
       <path id="DejaVuSans-69" d="M 603 3500 
L 1178 3500 
L 1178 0 
L 603 0 
L 603 3500 
z
M 603 4863 
L 1178 4863 
L 1178 4134 
L 603 4134 
L 603 4863 
z
" transform="scale(0.015625)"/>
       <path id="DejaVuSans-6e" d="M 3513 2113 
L 3513 0 
L 2938 0 
L 2938 2094 
Q 2938 2591 2744 2837 
Q 2550 3084 2163 3084 
Q 1697 3084 1428 2787 
Q 1159 2491 1159 1978 
L 1159 0 
L 581 0 
L 581 3500 
L 1159 3500 
L 1159 2956 
Q 1366 3272 1645 3428 
Q 1925 3584 2291 3584 
Q 2894 3584 3203 3211 
Q 3513 2838 3513 2113 
z
" transform="scale(0.015625)"/>
       <path id="DejaVuSans-70" d="M 1159 525 
L 1159 -1331 
L 581 -1331 
L 581 3500 
L 1159 3500 
L 1159 2969 
Q 1341 3281 1617 3432 
Q 1894 3584 2278 3584 
Q 2916 3584 3314 3078 
Q 3713 2572 3713 1747 
Q 3713 922 3314 415 
Q 2916 -91 2278 -91 
Q 1894 -91 1617 61 
Q 1341 213 1159 525 
z
M 3116 1747 
Q 3116 2381 2855 2742 
Q 2594 3103 2138 3103 
Q 1681 3103 1420 2742 
Q 1159 2381 1159 1747 
Q 1159 1113 1420 752 
Q 1681 391 2138 391 
Q 2594 391 2855 752 
Q 3116 1113 3116 1747 
z
" transform="scale(0.015625)"/>
      </defs>
      <use xlink:href="#DejaVuSans-57"/>
      <use xlink:href="#DejaVuSans-61" x="92.501953"/>
      <use xlink:href="#DejaVuSans-74" x="153.78125"/>
      <use xlink:href="#DejaVuSans-65" x="192.990234"/>
      <use xlink:href="#DejaVuSans-72" x="254.513672"/>
      <use xlink:href="#DejaVuSans-20" x="295.626953"/>
      <use xlink:href="#DejaVuSans-69" x="327.414062"/>
      <use xlink:href="#DejaVuSans-6e" x="355.197266"/>
      <use xlink:href="#DejaVuSans-20" x="418.576172"/>
      <use xlink:href="#DejaVuSans-74" x="450.363281"/>
      <use xlink:href="#DejaVuSans-68" x="489.572266"/>
      <use xlink:href="#DejaVuSans-65" x="552.951172"/>
      <use xlink:href="#DejaVuSans-20" x="614.474609"/>
      <use xlink:href="#DejaVuSans-70" x="646.261719"/>
      <use xlink:href="#DejaVuSans-6f" x="709.738281"/>
      <use xlink:href="#DejaVuSans-6e" x="770.919922"/>
      <use xlink:href="#DejaVuSans-64" x="834.298828"/>
      <use xlink:href="#DejaVuSans-20" x="897.775391"/>
      <use xlink:href="#DejaVuSans-28" x="929.5625"/>
      <use xlink:href="#DejaVuSans-6d" x="968.576172"/>
      <use xlink:href="#DejaVuSans-33" x="1065.988281"/>
      <use xlink:href="#DejaVuSans-29" x="1129.611328"/>
     </g>
    </g>
   </g>
   <g id="line2d_40">
    <path d="M 64.075455 236.329091 
L 67.338556 236.329091 
L 70.601658 236.329091 
L 73.864759 236.329091 
L 77.127861 236.329091 
L 80.390963 236.329091 
L 83.654064 236.329091 
L 86.917166 236.329091 
L 90.180267 236.329091 
L 93.443369 236.329091 
L 96.706471 236.329091 
L 99.969572 236.329091 
L 103.232674 236.329091 
L 106.495775 236.329091 
L 109.758877 236.329091 
L 113.021979 236.329091 
L 116.28508 236.329091 
L 119.548182 236.329091 
L 122.811283 236.329091 
L 126.074385 236.329091 
L 129.337487 236.329091 
L 132.600588 236.329091 
L 135.86369 236.329091 
L 139.126791 236.296314 
L 142.389893 236.179954 
L 145.652995 235.921505 
L 148.916096 235.461762 
L 152.179198 234.745369 
L 155.442299 233.723564 
L 158.705401 232.355623 
L 161.968503 230.609407 
L 165.231604 228.461273 
L 168.494706 225.89559 
L 171.757807 222.904009 
L 175.020909 219.484592 
L 178.284011 215.640906 
L 181.547112 211.381109 
L 184.810214 206.71709 
L 188.073316 201.663671 
L 191.336417 196.237887 
L 194.599519 190.458358 
L 197.86262 184.344735 
L 201.125722 177.91724 
L 204.388824 171.229053 
L 207.651925 164.35124 
L 210.915027 157.362181 
L 214.178128 150.340353 
L 217.44123 143.359643 
L 220.704332 136.486489 
L 223.967433 129.778352 
L 227.230535 123.283139 
L 230.493636 117.039256 
L 233.756738 111.076092 
L 237.01984 105.41477 
L 240.282941 100.069031 
L 243.546043 95.046184 
L 246.809144 90.348054 
L 250.072246 85.971893 
L 253.335348 81.91122 
L 256.598449 78.156597 
L 259.861551 74.696305 
L 263.124652 71.516946 
L 266.387754 68.603956 
L 269.650856 65.942039 
L 272.913957 63.515534 
L 276.177059 61.30871 
L 279.44016 59.30601 
L 282.703262 57.492237 
L 285.966364 55.852704 
L 289.229465 54.373339 
L 292.492567 53.040762 
L 295.755668 51.842338 
L 299.01877 50.7662 
L 302.281872 49.801264 
L 305.544973 48.937226 
L 308.808075 48.164542 
L 312.071176 47.474411 
L 315.334278 46.858741 
L 318.59738 46.310117 
L 321.860481 45.821763 
L 325.123583 45.387507 
L 328.386684 45.001735 
L 331.649786 44.659358 
L 334.912888 44.355769 
L 338.175989 44.086806 
L 341.439091 43.84872 
L 344.702193 43.638133 
L 347.965294 43.452013 
L 351.228396 43.28764 
L 354.491497 43.142575 
L 357.754599 43.014638 
L 361.017701 42.901883 
L 364.280802 42.802571 
L 367.543904 42.715152 
L 370.807005 42.63825 
L 374.070107 42.570637 
L 377.333209 42.511225 
L 380.59631 42.459048 
L 383.859412 42.413247 
L 387.122513 42.373065 
L 390.385615 42.337829 
L 393.648717 42.306945 
L 396.911818 42.279888 
L 400.17492 42.256194 
L 403.438021 42.235455 
L 406.701123 42.21731 
L 409.964225 42.20144 
L 413.227326 42.187567 
L 416.490428 42.175443 
L 419.753529 42.164851 
L 423.016631 42.155603 
L 426.279733 42.147529 
L 429.542834 42.140484 
L 432.805936 42.134339 
L 436.069037 42.128979 
L 439.332139 42.124307 
L 442.595241 42.120236 
L 445.858342 42.116689 
L 449.121444 42.113599 
L 452.384545 42.110909 
" clip-path="url(#peac3c944b8)" style="fill: none; stroke: #2ca02c; stroke-width: 1.5; stroke-linecap: square"/>
   </g>
   <g id="patch_11">
    <path d="M 44.66 246.04 
L 44.66 32.4 
" style="fill: none; stroke: #000000; stroke-width: 0.8; stroke-linejoin: miter; stroke-linecap: square"/>
   </g>
   <g id="patch_12">
    <path d="M 521.8 246.04 
L 521.8 32.4 
" style="fill: none; stroke: #000000; stroke-width: 0.8; stroke-linejoin: miter; stroke-linecap: square"/>
   </g>
   <g id="patch_13">
    <path d="M 44.66 246.04 
L 471.8 246.04 
" style="fill: none; stroke: #000000; stroke-width: 0.8; stroke-linejoin: miter; stroke-linecap: square"/>
   </g>
   <g id="patch_14">
    <path d="M 44.66 32.4 
L 471.8 32.4 
" style="fill: none; stroke: #000000; stroke-width: 0.8; stroke-linejoin: miter; stroke-linecap: square"/>
   </g>
  </g>
  <g id="text_35">
   <!-- Delay constant 2 -->
   <g transform="translate(237.079688 14.878125) scale(0.12 -0.12)">
    <defs>
     <path id="DejaVuSans-63" d="M 3122 3366 
L 3122 2828 
Q 2878 2963 2633 3030 
Q 2388 3097 2138 3097 
Q 1578 3097 1268 2742 
Q 959 2388 959 1747 
Q 959 1106 1268 751 
Q 1578 397 2138 397 
Q 2388 397 2633 464 
Q 2878 531 3122 666 
L 3122 134 
Q 2881 22 2623 -34 
Q 2366 -91 2075 -91 
Q 1284 -91 818 406 
Q 353 903 353 1747 
Q 353 2603 823 3093 
Q 1294 3584 2113 3584 
Q 2378 3584 2631 3529 
Q 2884 3475 3122 3366 
z
" transform="scale(0.015625)"/>
    </defs>
    <use xlink:href="#DejaVuSans-44"/>
    <use xlink:href="#DejaVuSans-65" x="77.001953"/>
    <use xlink:href="#DejaVuSans-6c" x="138.525391"/>
    <use xlink:href="#DejaVuSans-61" x="166.308594"/>
    <use xlink:href="#DejaVuSans-79" x="227.587891"/>
    <use xlink:href="#DejaVuSans-20" x="286.767578"/>
    <use xlink:href="#DejaVuSans-63" x="318.554688"/>
    <use xlink:href="#DejaVuSans-6f" x="373.535156"/>
    <use xlink:href="#DejaVuSans-6e" x="434.716797"/>
    <use xlink:href="#DejaVuSans-73" x="498.095703"/>
    <use xlink:href="#DejaVuSans-74" x="550.195312"/>
    <use xlink:href="#DejaVuSans-61" x="589.404297"/>
    <use xlink:href="#DejaVuSans-6e" x="650.683594"/>
    <use xlink:href="#DejaVuSans-74" x="714.0625"/>
    <use xlink:href="#DejaVuSans-20" x="753.271484"/>
    <use xlink:href="#DejaVuSans-32" x="785.058594"/>
   </g>
  </g>
 </g>
 <defs>
  <clipPath id="peac3c944b8">
   <rect x="44.66" y="32.4" width="427.14" height="213.64"/>
  </clipPath>
 </defs>
</svg>
