<?xml version="1.0" encoding="utf-8" standalone="no"?>
<!DOCTYPE svg PUBLIC "-//W3C//DTD SVG 1.1//EN"
  "http://www.w3.org/Graphics/SVG/1.1/DTD/svg11.dtd">
<svg xmlns:xlink="http://www.w3.org/1999/xlink" width="720pt" height="360pt" viewBox="0 0 720 360" xmlns="http://www.w3.org/2000/svg" version="1.1">
 <metadata>
  <rdf:RDF xmlns:dc="http://purl.org/dc/elements/1.1/" xmlns:cc="http://creativecommons.org/ns#" xmlns:rdf="http://www.w3.org/1999/02/22-rdf-syntax-ns#">
   <cc:Work>
    <dc:type rdf:resource="http://purl.org/dc/dcmitype/StillImage"/>
    <dc:date>2024-11-04T18:58:48.616456</dc:date>
    <dc:format>image/svg+xml</dc:format>
    <dc:creator>
     <cc:Agent>
      <dc:title>Matplotlib v3.6.3, https://matplotlib.org/</dc:title>
     </cc:Agent>
    </dc:creator>
   </cc:Work>
  </rdf:RDF>
 </metadata>
 <defs>
  <style type="text/css">*{stroke-linejoin: round; stroke-linecap: butt}</style>
 </defs>
 <g id="figure_1">
  <g id="patch_1">
   <path d="M 0 360 
L 720 360 
L 720 0 
L 0 0 
z
" style="fill: #ffffff"/>
  </g>
  <g id="axes_1">
   <g id="patch_2">
    <path d="M 63.92 318.04 
L 470.8 318.04 
L 470.8 36.36 
L 63.92 36.36 
z
" style="fill: #ffffff"/>
   </g>
   <g id="matplotlib.axis_1">
    <g id="xtick_1">
     <g id="line2d_1">
      <path d="M 82.414545 318.04 
L 82.414545 36.36 
" clip-path="url(#pbf85ac7e46)" style="fill: none; stroke-dasharray: 0.8,1.32; stroke-dashoffset: 0; stroke: #b0b0b0; stroke-width: 0.8"/>
     </g>
     <g id="line2d_2">
      <defs>
       <path id="mb9e577942c" d="M 0 0 
L 0 3.5 
" style="stroke: #000000; stroke-width: 0.8"/>
      </defs>
      <g>
       <use xlink:href="#mb9e577942c" x="82.414545" y="318.04" style="stroke: #000000; stroke-width: 0.8"/>
      </g>
     </g>
     <g id="text_1">
      <!-- 1900 -->
      <g transform="translate(69.689545 332.638438) scale(0.1 -0.1)">
       <defs>
        <path id="DejaVuSans-31" d="M 794 531 
L 1825 531 
L 1825 4091 
L 703 3866 
L 703 4441 
L 1819 4666 
L 2450 4666 
L 2450 531 
L 3481 531 
L 3481 0 
L 794 0 
L 794 531 
z
" transform="scale(0.015625)"/>
        <path id="DejaVuSans-39" d="M 703 97 
L 703 672 
Q 941 559 1184 500 
Q 1428 441 1663 441 
Q 2288 441 2617 861 
Q 2947 1281 2994 2138 
Q 2813 1869 2534 1725 
Q 2256 1581 1919 1581 
Q 1219 1581 811 2004 
Q 403 2428 403 3163 
Q 403 3881 828 4315 
Q 1253 4750 1959 4750 
Q 2769 4750 3195 4129 
Q 3622 3509 3622 2328 
Q 3622 1225 3098 567 
Q 2575 -91 1691 -91 
Q 1453 -91 1209 -44 
Q 966 3 703 97 
z
M 1959 2075 
Q 2384 2075 2632 2365 
Q 2881 2656 2881 3163 
Q 2881 3666 2632 3958 
Q 2384 4250 1959 4250 
Q 1534 4250 1286 3958 
Q 1038 3666 1038 3163 
Q 1038 2656 1286 2365 
Q 1534 2075 1959 2075 
z
" transform="scale(0.015625)"/>
        <path id="DejaVuSans-30" d="M 2034 4250 
Q 1547 4250 1301 3770 
Q 1056 3291 1056 2328 
Q 1056 1369 1301 889 
Q 1547 409 2034 409 
Q 2525 409 2770 889 
Q 3016 1369 3016 2328 
Q 3016 3291 2770 3770 
Q 2525 4250 2034 4250 
z
M 2034 4750 
Q 2819 4750 3233 4129 
Q 3647 3509 3647 2328 
Q 3647 1150 3233 529 
Q 2819 -91 2034 -91 
Q 1250 -91 836 529 
Q 422 1150 422 2328 
Q 422 3509 836 4129 
Q 1250 4750 2034 4750 
z
" transform="scale(0.015625)"/>
       </defs>
       <use xlink:href="#DejaVuSans-31"/>
       <use xlink:href="#DejaVuSans-39" x="63.623047"/>
       <use xlink:href="#DejaVuSans-30" x="127.246094"/>
       <use xlink:href="#DejaVuSans-30" x="190.869141"/>
      </g>
     </g>
    </g>
    <g id="xtick_2">
     <g id="line2d_3">
      <path d="M 128.697192 318.04 
L 128.697192 36.36 
" clip-path="url(#pbf85ac7e46)" style="fill: none; stroke-dasharray: 0.8,1.32; stroke-dashoffset: 0; stroke: #b0b0b0; stroke-width: 0.8"/>
     </g>
     <g id="line2d_4">
      <g>
       <use xlink:href="#mb9e577942c" x="128.697192" y="318.04" style="stroke: #000000; stroke-width: 0.8"/>
      </g>
     </g>
     <g id="text_2">
      <!-- 1925 -->
      <g transform="translate(115.972192 332.638438) scale(0.1 -0.1)">
       <defs>
        <path id="DejaVuSans-32" d="M 1228 531 
L 3431 531 
L 3431 0 
L 469 0 
L 469 531 
Q 828 903 1448 1529 
Q 2069 2156 2228 2338 
Q 2531 2678 2651 2914 
Q 2772 3150 2772 3378 
Q 2772 3750 2511 3984 
Q 2250 4219 1831 4219 
Q 1534 4219 1204 4116 
Q 875 4013 500 3803 
L 500 4441 
Q 881 4594 1212 4672 
Q 1544 4750 1819 4750 
Q 2544 4750 2975 4387 
Q 3406 4025 3406 3419 
Q 3406 3131 3298 2873 
Q 3191 2616 2906 2266 
Q 2828 2175 2409 1742 
Q 1991 1309 1228 531 
z
" transform="scale(0.015625)"/>
        <path id="DejaVuSans-35" d="M 691 4666 
L 3169 4666 
L 3169 4134 
L 1269 4134 
L 1269 2991 
Q 1406 3038 1543 3061 
Q 1681 3084 1819 3084 
Q 2600 3084 3056 2656 
Q 3513 2228 3513 1497 
Q 3513 744 3044 326 
Q 2575 -91 1722 -91 
Q 1428 -91 1123 -41 
Q 819 9 494 109 
L 494 744 
Q 775 591 1075 516 
Q 1375 441 1709 441 
Q 2250 441 2565 725 
Q 2881 1009 2881 1497 
Q 2881 1984 2565 2268 
Q 2250 2553 1709 2553 
Q 1456 2553 1204 2497 
Q 953 2441 691 2322 
L 691 4666 
z
" transform="scale(0.015625)"/>
       </defs>
       <use xlink:href="#DejaVuSans-31"/>
       <use xlink:href="#DejaVuSans-39" x="63.623047"/>
       <use xlink:href="#DejaVuSans-32" x="127.246094"/>
       <use xlink:href="#DejaVuSans-35" x="190.869141"/>
      </g>
     </g>
    </g>
    <g id="xtick_3">
     <g id="line2d_5">
      <path d="M 174.979838 318.04 
L 174.979838 36.36 
" clip-path="url(#pbf85ac7e46)" style="fill: none; stroke-dasharray: 0.8,1.32; stroke-dashoffset: 0; stroke: #b0b0b0; stroke-width: 0.8"/>
     </g>
     <g id="line2d_6">
      <g>
       <use xlink:href="#mb9e577942c" x="174.979838" y="318.04" style="stroke: #000000; stroke-width: 0.8"/>
      </g>
     </g>
     <g id="text_3">
      <!-- 1950 -->
      <g transform="translate(162.254838 332.638438) scale(0.1 -0.1)">
       <use xlink:href="#DejaVuSans-31"/>
       <use xlink:href="#DejaVuSans-39" x="63.623047"/>
       <use xlink:href="#DejaVuSans-35" x="127.246094"/>
       <use xlink:href="#DejaVuSans-30" x="190.869141"/>
      </g>
     </g>
    </g>
    <g id="xtick_4">
     <g id="line2d_7">
      <path d="M 221.262484 318.04 
L 221.262484 36.36 
" clip-path="url(#pbf85ac7e46)" style="fill: none; stroke-dasharray: 0.8,1.32; stroke-dashoffset: 0; stroke: #b0b0b0; stroke-width: 0.8"/>
     </g>
     <g id="line2d_8">
      <g>
       <use xlink:href="#mb9e577942c" x="221.262484" y="318.04" style="stroke: #000000; stroke-width: 0.8"/>
      </g>
     </g>
     <g id="text_4">
      <!-- 1975 -->
      <g transform="translate(208.537484 332.638438) scale(0.1 -0.1)">
       <defs>
        <path id="DejaVuSans-37" d="M 525 4666 
L 3525 4666 
L 3525 4397 
L 1831 0 
L 1172 0 
L 2766 4134 
L 525 4134 
L 525 4666 
z
" transform="scale(0.015625)"/>
       </defs>
       <use xlink:href="#DejaVuSans-31"/>
       <use xlink:href="#DejaVuSans-39" x="63.623047"/>
       <use xlink:href="#DejaVuSans-37" x="127.246094"/>
       <use xlink:href="#DejaVuSans-35" x="190.869141"/>
      </g>
     </g>
    </g>
    <g id="xtick_5">
     <g id="line2d_9">
      <path d="M 267.545131 318.04 
L 267.545131 36.36 
" clip-path="url(#pbf85ac7e46)" style="fill: none; stroke-dasharray: 0.8,1.32; stroke-dashoffset: 0; stroke: #b0b0b0; stroke-width: 0.8"/>
     </g>
     <g id="line2d_10">
      <g>
       <use xlink:href="#mb9e577942c" x="267.545131" y="318.04" style="stroke: #000000; stroke-width: 0.8"/>
      </g>
     </g>
     <g id="text_5">
      <!-- 2000 -->
      <g transform="translate(254.820131 332.638438) scale(0.1 -0.1)">
       <use xlink:href="#DejaVuSans-32"/>
       <use xlink:href="#DejaVuSans-30" x="63.623047"/>
       <use xlink:href="#DejaVuSans-30" x="127.246094"/>
       <use xlink:href="#DejaVuSans-30" x="190.869141"/>
      </g>
     </g>
    </g>
    <g id="xtick_6">
     <g id="line2d_11">
      <path d="M 313.827777 318.04 
L 313.827777 36.36 
" clip-path="url(#pbf85ac7e46)" style="fill: none; stroke-dasharray: 0.8,1.32; stroke-dashoffset: 0; stroke: #b0b0b0; stroke-width: 0.8"/>
     </g>
     <g id="line2d_12">
      <g>
       <use xlink:href="#mb9e577942c" x="313.827777" y="318.04" style="stroke: #000000; stroke-width: 0.8"/>
      </g>
     </g>
     <g id="text_6">
      <!-- 2025 -->
      <g transform="translate(301.102777 332.638438) scale(0.1 -0.1)">
       <use xlink:href="#DejaVuSans-32"/>
       <use xlink:href="#DejaVuSans-30" x="63.623047"/>
       <use xlink:href="#DejaVuSans-32" x="127.246094"/>
       <use xlink:href="#DejaVuSans-35" x="190.869141"/>
      </g>
     </g>
    </g>
    <g id="xtick_7">
     <g id="line2d_13">
      <path d="M 360.110423 318.04 
L 360.110423 36.36 
" clip-path="url(#pbf85ac7e46)" style="fill: none; stroke-dasharray: 0.8,1.32; stroke-dashoffset: 0; stroke: #b0b0b0; stroke-width: 0.8"/>
     </g>
     <g id="line2d_14">
      <g>
       <use xlink:href="#mb9e577942c" x="360.110423" y="318.04" style="stroke: #000000; stroke-width: 0.8"/>
      </g>
     </g>
     <g id="text_7">
      <!-- 2050 -->
      <g transform="translate(347.385423 332.638438) scale(0.1 -0.1)">
       <use xlink:href="#DejaVuSans-32"/>
       <use xlink:href="#DejaVuSans-30" x="63.623047"/>
       <use xlink:href="#DejaVuSans-35" x="127.246094"/>
       <use xlink:href="#DejaVuSans-30" x="190.869141"/>
      </g>
     </g>
    </g>
    <g id="xtick_8">
     <g id="line2d_15">
      <path d="M 406.393069 318.04 
L 406.393069 36.36 
" clip-path="url(#pbf85ac7e46)" style="fill: none; stroke-dasharray: 0.8,1.32; stroke-dashoffset: 0; stroke: #b0b0b0; stroke-width: 0.8"/>
     </g>
     <g id="line2d_16">
      <g>
       <use xlink:href="#mb9e577942c" x="406.393069" y="318.04" style="stroke: #000000; stroke-width: 0.8"/>
      </g>
     </g>
     <g id="text_8">
      <!-- 2075 -->
      <g transform="translate(393.668069 332.638438) scale(0.1 -0.1)">
       <use xlink:href="#DejaVuSans-32"/>
       <use xlink:href="#DejaVuSans-30" x="63.623047"/>
       <use xlink:href="#DejaVuSans-37" x="127.246094"/>
       <use xlink:href="#DejaVuSans-35" x="190.869141"/>
      </g>
     </g>
    </g>
    <g id="xtick_9">
     <g id="line2d_17">
      <path d="M 452.675716 318.04 
L 452.675716 36.36 
" clip-path="url(#pbf85ac7e46)" style="fill: none; stroke-dasharray: 0.8,1.32; stroke-dashoffset: 0; stroke: #b0b0b0; stroke-width: 0.8"/>
     </g>
     <g id="line2d_18">
      <g>
       <use xlink:href="#mb9e577942c" x="452.675716" y="318.04" style="stroke: #000000; stroke-width: 0.8"/>
      </g>
     </g>
     <g id="text_9">
      <!-- 2100 -->
      <g transform="translate(439.950716 332.638438) scale(0.1 -0.1)">
       <use xlink:href="#DejaVuSans-32"/>
       <use xlink:href="#DejaVuSans-31" x="63.623047"/>
       <use xlink:href="#DejaVuSans-30" x="127.246094"/>
       <use xlink:href="#DejaVuSans-30" x="190.869141"/>
      </g>
     </g>
    </g>
    <g id="text_10">
     <!-- Year -->
     <g transform="translate(256.7725 346.316563) scale(0.1 -0.1)">
      <defs>
       <path id="DejaVuSans-59" d="M -13 4666 
L 666 4666 
L 1959 2747 
L 3244 4666 
L 3922 4666 
L 2272 2222 
L 2272 0 
L 1638 0 
L 1638 2222 
L -13 4666 
z
" transform="scale(0.015625)"/>
       <path id="DejaVuSans-65" d="M 3597 1894 
L 3597 1613 
L 953 1613 
Q 991 1019 1311 708 
Q 1631 397 2203 397 
Q 2534 397 2845 478 
Q 3156 559 3463 722 
L 3463 178 
Q 3153 47 2828 -22 
Q 2503 -91 2169 -91 
Q 1331 -91 842 396 
Q 353 884 353 1716 
Q 353 2575 817 3079 
Q 1281 3584 2069 3584 
Q 2775 3584 3186 3129 
Q 3597 2675 3597 1894 
z
M 3022 2063 
Q 3016 2534 2758 2815 
Q 2500 3097 2075 3097 
Q 1594 3097 1305 2825 
Q 1016 2553 972 2059 
L 3022 2063 
z
" transform="scale(0.015625)"/>
       <path id="DejaVuSans-61" d="M 2194 1759 
Q 1497 1759 1228 1600 
Q 959 1441 959 1056 
Q 959 750 1161 570 
Q 1363 391 1709 391 
Q 2188 391 2477 730 
Q 2766 1069 2766 1631 
L 2766 1759 
L 2194 1759 
z
M 3341 1997 
L 3341 0 
L 2766 0 
L 2766 531 
Q 2569 213 2275 61 
Q 1981 -91 1556 -91 
Q 1019 -91 701 211 
Q 384 513 384 1019 
Q 384 1609 779 1909 
Q 1175 2209 1959 2209 
L 2766 2209 
L 2766 2266 
Q 2766 2663 2505 2880 
Q 2244 3097 1772 3097 
Q 1472 3097 1187 3025 
Q 903 2953 641 2809 
L 641 3341 
Q 956 3463 1253 3523 
Q 1550 3584 1831 3584 
Q 2591 3584 2966 3190 
Q 3341 2797 3341 1997 
z
" transform="scale(0.015625)"/>
       <path id="DejaVuSans-72" d="M 2631 2963 
Q 2534 3019 2420 3045 
Q 2306 3072 2169 3072 
Q 1681 3072 1420 2755 
Q 1159 2438 1159 1844 
L 1159 0 
L 581 0 
L 581 3500 
L 1159 3500 
L 1159 2956 
Q 1341 3275 1631 3429 
Q 1922 3584 2338 3584 
Q 2397 3584 2469 3576 
Q 2541 3569 2628 3553 
L 2631 2963 
z
" transform="scale(0.015625)"/>
      </defs>
      <use xlink:href="#DejaVuSans-59"/>
      <use xlink:href="#DejaVuSans-65" x="47.833984"/>
      <use xlink:href="#DejaVuSans-61" x="109.357422"/>
      <use xlink:href="#DejaVuSans-72" x="170.636719"/>
     </g>
    </g>
   </g>
   <g id="matplotlib.axis_2">
    <g id="ytick_1">
     <g id="line2d_19">
      <defs>
       <path id="m2d2f80592c" d="M 0 0 
L -3.5 0 
" style="stroke: #1f77b4; stroke-width: 0.8"/>
      </defs>
      <g>
       <use xlink:href="#m2d2f80592c" x="63.92" y="318.04" style="fill: #1f77b4; stroke: #1f77b4; stroke-width: 0.8"/>
      </g>
     </g>
     <g id="text_11">
      <!-- 0.0 -->
      <g style="fill: #1f77b4" transform="translate(41.016875 321.839219) scale(0.1 -0.1)">
       <defs>
        <path id="DejaVuSans-2e" d="M 684 794 
L 1344 794 
L 1344 0 
L 684 0 
L 684 794 
z
" transform="scale(0.015625)"/>
       </defs>
       <use xlink:href="#DejaVuSans-30"/>
       <use xlink:href="#DejaVuSans-2e" x="63.623047"/>
       <use xlink:href="#DejaVuSans-30" x="95.410156"/>
      </g>
     </g>
    </g>
    <g id="ytick_2">
     <g id="line2d_20">
      <g>
       <use xlink:href="#m2d2f80592c" x="63.92" y="271.093333" style="fill: #1f77b4; stroke: #1f77b4; stroke-width: 0.8"/>
      </g>
     </g>
     <g id="text_12">
      <!-- 2.0 G -->
      <g style="fill: #1f77b4" transform="translate(31.271563 274.892552) scale(0.1 -0.1)">
       <defs>
        <path id="DejaVuSans-2009" transform="scale(0.015625)"/>
        <path id="DejaVuSans-47" d="M 3809 666 
L 3809 1919 
L 2778 1919 
L 2778 2438 
L 4434 2438 
L 4434 434 
Q 4069 175 3628 42 
Q 3188 -91 2688 -91 
Q 1594 -91 976 548 
Q 359 1188 359 2328 
Q 359 3472 976 4111 
Q 1594 4750 2688 4750 
Q 3144 4750 3555 4637 
Q 3966 4525 4313 4306 
L 4313 3634 
Q 3963 3931 3569 4081 
Q 3175 4231 2741 4231 
Q 1884 4231 1454 3753 
Q 1025 3275 1025 2328 
Q 1025 1384 1454 906 
Q 1884 428 2741 428 
Q 3075 428 3337 486 
Q 3600 544 3809 666 
z
" transform="scale(0.015625)"/>
       </defs>
       <use xlink:href="#DejaVuSans-32"/>
       <use xlink:href="#DejaVuSans-2e" x="63.623047"/>
       <use xlink:href="#DejaVuSans-30" x="95.410156"/>
       <use xlink:href="#DejaVuSans-2009" x="159.033203"/>
       <use xlink:href="#DejaVuSans-47" x="179.003906"/>
      </g>
     </g>
    </g>
    <g id="ytick_3">
     <g id="line2d_21">
      <g>
       <use xlink:href="#m2d2f80592c" x="63.92" y="224.146667" style="fill: #1f77b4; stroke: #1f77b4; stroke-width: 0.8"/>
      </g>
     </g>
     <g id="text_13">
      <!-- 4.0 G -->
      <g style="fill: #1f77b4" transform="translate(31.271563 227.945885) scale(0.1 -0.1)">
       <defs>
        <path id="DejaVuSans-34" d="M 2419 4116 
L 825 1625 
L 2419 1625 
L 2419 4116 
z
M 2253 4666 
L 3047 4666 
L 3047 1625 
L 3713 1625 
L 3713 1100 
L 3047 1100 
L 3047 0 
L 2419 0 
L 2419 1100 
L 313 1100 
L 313 1709 
L 2253 4666 
z
" transform="scale(0.015625)"/>
       </defs>
       <use xlink:href="#DejaVuSans-34"/>
       <use xlink:href="#DejaVuSans-2e" x="63.623047"/>
       <use xlink:href="#DejaVuSans-30" x="95.410156"/>
       <use xlink:href="#DejaVuSans-2009" x="159.033203"/>
       <use xlink:href="#DejaVuSans-47" x="179.003906"/>
      </g>
     </g>
    </g>
    <g id="ytick_4">
     <g id="line2d_22">
      <g>
       <use xlink:href="#m2d2f80592c" x="63.92" y="177.2" style="fill: #1f77b4; stroke: #1f77b4; stroke-width: 0.8"/>
      </g>
     </g>
     <g id="text_14">
      <!-- 6.0 G -->
      <g style="fill: #1f77b4" transform="translate(31.271563 180.999219) scale(0.1 -0.1)">
       <defs>
        <path id="DejaVuSans-36" d="M 2113 2584 
Q 1688 2584 1439 2293 
Q 1191 2003 1191 1497 
Q 1191 994 1439 701 
Q 1688 409 2113 409 
Q 2538 409 2786 701 
Q 3034 994 3034 1497 
Q 3034 2003 2786 2293 
Q 2538 2584 2113 2584 
z
M 3366 4563 
L 3366 3988 
Q 3128 4100 2886 4159 
Q 2644 4219 2406 4219 
Q 1781 4219 1451 3797 
Q 1122 3375 1075 2522 
Q 1259 2794 1537 2939 
Q 1816 3084 2150 3084 
Q 2853 3084 3261 2657 
Q 3669 2231 3669 1497 
Q 3669 778 3244 343 
Q 2819 -91 2113 -91 
Q 1303 -91 875 529 
Q 447 1150 447 2328 
Q 447 3434 972 4092 
Q 1497 4750 2381 4750 
Q 2619 4750 2861 4703 
Q 3103 4656 3366 4563 
z
" transform="scale(0.015625)"/>
       </defs>
       <use xlink:href="#DejaVuSans-36"/>
       <use xlink:href="#DejaVuSans-2e" x="63.623047"/>
       <use xlink:href="#DejaVuSans-30" x="95.410156"/>
       <use xlink:href="#DejaVuSans-2009" x="159.033203"/>
       <use xlink:href="#DejaVuSans-47" x="179.003906"/>
      </g>
     </g>
    </g>
    <g id="ytick_5">
     <g id="line2d_23">
      <g>
       <use xlink:href="#m2d2f80592c" x="63.92" y="130.253333" style="fill: #1f77b4; stroke: #1f77b4; stroke-width: 0.8"/>
      </g>
     </g>
     <g id="text_15">
      <!-- 8.0 G -->
      <g style="fill: #1f77b4" transform="translate(31.271563 134.052552) scale(0.1 -0.1)">
       <defs>
        <path id="DejaVuSans-38" d="M 2034 2216 
Q 1584 2216 1326 1975 
Q 1069 1734 1069 1313 
Q 1069 891 1326 650 
Q 1584 409 2034 409 
Q 2484 409 2743 651 
Q 3003 894 3003 1313 
Q 3003 1734 2745 1975 
Q 2488 2216 2034 2216 
z
M 1403 2484 
Q 997 2584 770 2862 
Q 544 3141 544 3541 
Q 544 4100 942 4425 
Q 1341 4750 2034 4750 
Q 2731 4750 3128 4425 
Q 3525 4100 3525 3541 
Q 3525 3141 3298 2862 
Q 3072 2584 2669 2484 
Q 3125 2378 3379 2068 
Q 3634 1759 3634 1313 
Q 3634 634 3220 271 
Q 2806 -91 2034 -91 
Q 1263 -91 848 271 
Q 434 634 434 1313 
Q 434 1759 690 2068 
Q 947 2378 1403 2484 
z
M 1172 3481 
Q 1172 3119 1398 2916 
Q 1625 2713 2034 2713 
Q 2441 2713 2670 2916 
Q 2900 3119 2900 3481 
Q 2900 3844 2670 4047 
Q 2441 4250 2034 4250 
Q 1625 4250 1398 4047 
Q 1172 3844 1172 3481 
z
" transform="scale(0.015625)"/>
       </defs>
       <use xlink:href="#DejaVuSans-38"/>
       <use xlink:href="#DejaVuSans-2e" x="63.623047"/>
       <use xlink:href="#DejaVuSans-30" x="95.410156"/>
       <use xlink:href="#DejaVuSans-2009" x="159.033203"/>
       <use xlink:href="#DejaVuSans-47" x="179.003906"/>
      </g>
     </g>
    </g>
    <g id="ytick_6">
     <g id="line2d_24">
      <g>
       <use xlink:href="#m2d2f80592c" x="63.92" y="83.306667" style="fill: #1f77b4; stroke: #1f77b4; stroke-width: 0.8"/>
      </g>
     </g>
     <g id="text_16">
      <!-- 10.0 G -->
      <g style="fill: #1f77b4" transform="translate(24.909063 87.105885) scale(0.1 -0.1)">
       <use xlink:href="#DejaVuSans-31"/>
       <use xlink:href="#DejaVuSans-30" x="63.623047"/>
       <use xlink:href="#DejaVuSans-2e" x="127.246094"/>
       <use xlink:href="#DejaVuSans-30" x="159.033203"/>
       <use xlink:href="#DejaVuSans-2009" x="222.65625"/>
       <use xlink:href="#DejaVuSans-47" x="242.626953"/>
      </g>
     </g>
    </g>
    <g id="ytick_7">
     <g id="line2d_25">
      <g>
       <use xlink:href="#m2d2f80592c" x="63.92" y="36.36" style="fill: #1f77b4; stroke: #1f77b4; stroke-width: 0.8"/>
      </g>
     </g>
     <g id="text_17">
      <!-- 12.0 G -->
      <g style="fill: #1f77b4" transform="translate(24.909063 40.159219) scale(0.1 -0.1)">
       <use xlink:href="#DejaVuSans-31"/>
       <use xlink:href="#DejaVuSans-32" x="63.623047"/>
       <use xlink:href="#DejaVuSans-2e" x="127.246094"/>
       <use xlink:href="#DejaVuSans-30" x="159.033203"/>
       <use xlink:href="#DejaVuSans-2009" x="222.65625"/>
       <use xlink:href="#DejaVuSans-47" x="242.626953"/>
      </g>
     </g>
    </g>
    <g id="text_18">
     <!-- Total Population (capita) -->
     <g style="fill: #1f77b4" transform="translate(18.829375 237.623438) rotate(-90) scale(0.1 -0.1)">
      <defs>
       <path id="DejaVuSans-54" d="M -19 4666 
L 3928 4666 
L 3928 4134 
L 2272 4134 
L 2272 0 
L 1638 0 
L 1638 4134 
L -19 4134 
L -19 4666 
z
" transform="scale(0.015625)"/>
       <path id="DejaVuSans-6f" d="M 1959 3097 
Q 1497 3097 1228 2736 
Q 959 2375 959 1747 
Q 959 1119 1226 758 
Q 1494 397 1959 397 
Q 2419 397 2687 759 
Q 2956 1122 2956 1747 
Q 2956 2369 2687 2733 
Q 2419 3097 1959 3097 
z
M 1959 3584 
Q 2709 3584 3137 3096 
Q 3566 2609 3566 1747 
Q 3566 888 3137 398 
Q 2709 -91 1959 -91 
Q 1206 -91 779 398 
Q 353 888 353 1747 
Q 353 2609 779 3096 
Q 1206 3584 1959 3584 
z
" transform="scale(0.015625)"/>
       <path id="DejaVuSans-74" d="M 1172 4494 
L 1172 3500 
L 2356 3500 
L 2356 3053 
L 1172 3053 
L 1172 1153 
Q 1172 725 1289 603 
Q 1406 481 1766 481 
L 2356 481 
L 2356 0 
L 1766 0 
Q 1100 0 847 248 
Q 594 497 594 1153 
L 594 3053 
L 172 3053 
L 172 3500 
L 594 3500 
L 594 4494 
L 1172 4494 
z
" transform="scale(0.015625)"/>
       <path id="DejaVuSans-6c" d="M 603 4863 
L 1178 4863 
L 1178 0 
L 603 0 
L 603 4863 
z
" transform="scale(0.015625)"/>
       <path id="DejaVuSans-20" transform="scale(0.015625)"/>
       <path id="DejaVuSans-50" d="M 1259 4147 
L 1259 2394 
L 2053 2394 
Q 2494 2394 2734 2622 
Q 2975 2850 2975 3272 
Q 2975 3691 2734 3919 
Q 2494 4147 2053 4147 
L 1259 4147 
z
M 628 4666 
L 2053 4666 
Q 2838 4666 3239 4311 
Q 3641 3956 3641 3272 
Q 3641 2581 3239 2228 
Q 2838 1875 2053 1875 
L 1259 1875 
L 1259 0 
L 628 0 
L 628 4666 
z
" transform="scale(0.015625)"/>
       <path id="DejaVuSans-70" d="M 1159 525 
L 1159 -1331 
L 581 -1331 
L 581 3500 
L 1159 3500 
L 1159 2969 
Q 1341 3281 1617 3432 
Q 1894 3584 2278 3584 
Q 2916 3584 3314 3078 
Q 3713 2572 3713 1747 
Q 3713 922 3314 415 
Q 2916 -91 2278 -91 
Q 1894 -91 1617 61 
Q 1341 213 1159 525 
z
M 3116 1747 
Q 3116 2381 2855 2742 
Q 2594 3103 2138 3103 
Q 1681 3103 1420 2742 
Q 1159 2381 1159 1747 
Q 1159 1113 1420 752 
Q 1681 391 2138 391 
Q 2594 391 2855 752 
Q 3116 1113 3116 1747 
z
" transform="scale(0.015625)"/>
       <path id="DejaVuSans-75" d="M 544 1381 
L 544 3500 
L 1119 3500 
L 1119 1403 
Q 1119 906 1312 657 
Q 1506 409 1894 409 
Q 2359 409 2629 706 
Q 2900 1003 2900 1516 
L 2900 3500 
L 3475 3500 
L 3475 0 
L 2900 0 
L 2900 538 
Q 2691 219 2414 64 
Q 2138 -91 1772 -91 
Q 1169 -91 856 284 
Q 544 659 544 1381 
z
M 1991 3584 
L 1991 3584 
z
" transform="scale(0.015625)"/>
       <path id="DejaVuSans-69" d="M 603 3500 
L 1178 3500 
L 1178 0 
L 603 0 
L 603 3500 
z
M 603 4863 
L 1178 4863 
L 1178 4134 
L 603 4134 
L 603 4863 
z
" transform="scale(0.015625)"/>
       <path id="DejaVuSans-6e" d="M 3513 2113 
L 3513 0 
L 2938 0 
L 2938 2094 
Q 2938 2591 2744 2837 
Q 2550 3084 2163 3084 
Q 1697 3084 1428 2787 
Q 1159 2491 1159 1978 
L 1159 0 
L 581 0 
L 581 3500 
L 1159 3500 
L 1159 2956 
Q 1366 3272 1645 3428 
Q 1925 3584 2291 3584 
Q 2894 3584 3203 3211 
Q 3513 2838 3513 2113 
z
" transform="scale(0.015625)"/>
       <path id="DejaVuSans-28" d="M 1984 4856 
Q 1566 4138 1362 3434 
Q 1159 2731 1159 2009 
Q 1159 1288 1364 580 
Q 1569 -128 1984 -844 
L 1484 -844 
Q 1016 -109 783 600 
Q 550 1309 550 2009 
Q 550 2706 781 3412 
Q 1013 4119 1484 4856 
L 1984 4856 
z
" transform="scale(0.015625)"/>
       <path id="DejaVuSans-63" d="M 3122 3366 
L 3122 2828 
Q 2878 2963 2633 3030 
Q 2388 3097 2138 3097 
Q 1578 3097 1268 2742 
Q 959 2388 959 1747 
Q 959 1106 1268 751 
Q 1578 397 2138 397 
Q 2388 397 2633 464 
Q 2878 531 3122 666 
L 3122 134 
Q 2881 22 2623 -34 
Q 2366 -91 2075 -91 
Q 1284 -91 818 406 
Q 353 903 353 1747 
Q 353 2603 823 3093 
Q 1294 3584 2113 3584 
Q 2378 3584 2631 3529 
Q 2884 3475 3122 3366 
z
" transform="scale(0.015625)"/>
       <path id="DejaVuSans-29" d="M 513 4856 
L 1013 4856 
Q 1481 4119 1714 3412 
Q 1947 2706 1947 2009 
Q 1947 1309 1714 600 
Q 1481 -109 1013 -844 
L 513 -844 
Q 928 -128 1133 580 
Q 1338 1288 1338 2009 
Q 1338 2731 1133 3434 
Q 928 4138 513 4856 
z
" transform="scale(0.015625)"/>
      </defs>
      <use xlink:href="#DejaVuSans-54"/>
      <use xlink:href="#DejaVuSans-6f" x="44.083984"/>
      <use xlink:href="#DejaVuSans-74" x="105.265625"/>
      <use xlink:href="#DejaVuSans-61" x="144.474609"/>
      <use xlink:href="#DejaVuSans-6c" x="205.753906"/>
      <use xlink:href="#DejaVuSans-20" x="233.537109"/>
      <use xlink:href="#DejaVuSans-50" x="265.324219"/>
      <use xlink:href="#DejaVuSans-6f" x="322.001953"/>
      <use xlink:href="#DejaVuSans-70" x="383.183594"/>
      <use xlink:href="#DejaVuSans-75" x="446.660156"/>
      <use xlink:href="#DejaVuSans-6c" x="510.039062"/>
      <use xlink:href="#DejaVuSans-61" x="537.822266"/>
      <use xlink:href="#DejaVuSans-74" x="599.101562"/>
      <use xlink:href="#DejaVuSans-69" x="638.310547"/>
      <use xlink:href="#DejaVuSans-6f" x="666.09375"/>
      <use xlink:href="#DejaVuSans-6e" x="727.275391"/>
      <use xlink:href="#DejaVuSans-20" x="790.654297"/>
      <use xlink:href="#DejaVuSans-28" x="822.441406"/>
      <use xlink:href="#DejaVuSans-63" x="861.455078"/>
      <use xlink:href="#DejaVuSans-61" x="916.435547"/>
      <use xlink:href="#DejaVuSans-70" x="977.714844"/>
      <use xlink:href="#DejaVuSans-69" x="1041.191406"/>
      <use xlink:href="#DejaVuSans-74" x="1068.974609"/>
      <use xlink:href="#DejaVuSans-61" x="1108.183594"/>
      <use xlink:href="#DejaVuSans-29" x="1169.462891"/>
     </g>
    </g>
   </g>
   <g id="line2d_26">
    <path d="M 82.414545 280.482667 
L 85.376635 280.240177 
L 89.079247 279.691369 
L 96.48447 278.307268 
L 124.99458 272.659058 
L 133.880848 270.706964 
L 140.175288 269.080481 
L 146.469728 267.224433 
L 152.393907 265.245106 
L 157.947824 263.162567 
L 163.501742 260.838242 
L 169.796182 257.937876 
L 175.72036 254.973792 
L 180.533756 252.333826 
L 185.347151 249.434719 
L 190.160546 246.255409 
L 195.714464 242.299644 
L 200.89812 238.331938 
L 205.711515 234.382778 
L 210.52491 230.147926 
L 216.078828 224.964797 
L 221.262484 219.837146 
L 227.186663 213.644959 
L 235.332409 204.770878 
L 244.588938 194.342942 
L 266.434347 169.540371 
L 274.209832 161.20249 
L 283.836622 151.287139 
L 289.39054 145.919047 
L 294.574196 141.21972 
L 300.128114 136.505922 
L 306.052292 131.767606 
L 311.60621 127.615496 
L 316.789866 124.008107 
L 321.973523 120.668097 
L 327.157179 117.59958 
L 331.600313 115.217566 
L 335.673186 113.290344 
L 337.894753 112.472852 
L 340.11632 111.883639 
L 342.337887 111.523789 
L 344.559454 111.390417 
L 346.41076 111.469867 
L 348.262066 111.732179 
L 349.74311 112.170805 
L 351.224155 112.828142 
L 353.075461 113.931969 
L 354.926767 115.335701 
L 356.778073 117.035734 
L 358.629378 119.093977 
L 360.480684 121.497083 
L 362.33199 124.242201 
L 364.183296 127.436041 
L 366.404863 131.81734 
L 368.62643 136.68962 
L 378.25322 158.665646 
L 381.21531 164.657714 
L 384.177399 170.155394 
L 387.139489 175.17254 
L 390.101578 179.740446 
L 393.063667 183.907716 
L 397.13654 189.227848 
L 401.209413 194.18363 
L 405.282286 198.780505 
L 409.355159 203.027829 
L 413.05777 206.578687 
L 416.760382 209.835585 
L 420.462994 212.791274 
L 436.754485 224.915579 
L 440.827358 227.583894 
L 444.52997 229.745104 
L 449.343365 232.231589 
L 452.305455 233.668666 
L 452.305455 233.668666 
" clip-path="url(#pbf85ac7e46)" style="fill: none; stroke: #1f77b4; stroke-width: 1.5; stroke-linecap: square"/>
   </g>
   <g id="line2d_27">
    <path d="M 82.414545 280.482667 
L 85.376635 280.303949 
L 89.079247 279.824348 
L 96.114209 278.62906 
L 111.665178 275.740149 
L 126.105364 272.827084 
L 137.213199 270.357673 
L 146.469728 268.081838 
L 154.615474 265.857008 
L 156.837041 265.133011 
L 169.055659 258.925567 
L 176.090622 255.061121 
L 182.385061 251.358955 
L 188.30924 247.626519 
L 194.233419 243.622735 
L 200.89812 238.814198 
L 207.933082 233.456767 
L 214.597783 228.105696 
L 220.892223 222.761896 
L 227.186663 217.117949 
L 234.962148 209.820313 
L 244.588938 200.488778 
L 256.067034 189.021232 
L 265.693825 179.481084 
L 272.728787 172.827822 
L 284.947406 161.740547 
L 290.131062 157.350107 
L 295.68498 152.963067 
L 300.868636 149.143846 
L 306.052292 145.606338 
L 310.865688 142.583437 
L 315.679083 139.823108 
L 319.751956 137.743503 
L 323.084306 136.248359 
L 326.046395 135.148755 
L 329.008485 134.283472 
L 331.970574 133.664964 
L 334.932664 133.279736 
L 337.524492 133.141953 
L 339.746059 133.227344 
L 341.967626 133.522683 
L 344.189193 134.040721 
L 346.41076 134.796281 
L 348.632327 135.78535 
L 350.853894 137.010781 
L 353.075461 138.484474 
L 354.926767 140.016065 
L 356.778073 141.862243 
L 358.259117 143.639413 
L 360.110423 146.272229 
L 361.961729 149.314779 
L 363.813035 152.743655 
L 366.034602 157.33517 
L 369.737214 165.646063 
L 374.92087 177.145694 
L 378.25322 184.040291 
L 381.21531 189.707056 
L 384.177399 194.896459 
L 387.139489 199.641076 
L 390.101578 203.995993 
L 393.80419 209.046665 
L 397.506801 213.727364 
L 401.209413 218.062001 
L 405.282286 222.479575 
L 408.984898 226.18387 
L 412.687509 229.593256 
L 416.390121 232.705228 
L 426.016911 240.44682 
L 431.94109 244.781919 
L 436.754485 248.052084 
L 440.827358 250.561611 
L 445.270492 253.020606 
L 449.713626 255.240376 
L 452.305455 256.472524 
L 452.305455 256.472524 
" clip-path="url(#pbf85ac7e46)" style="fill: none; stroke-dasharray: 1.85,0.8; stroke-dashoffset: 0; stroke: #1f77b4; stroke-width: 0.5"/>
   </g>
   <g id="patch_3">
    <path d="M 63.92 318.04 
L 63.92 36.36 
" style="fill: none; stroke: #000000; stroke-width: 0.8; stroke-linejoin: miter; stroke-linecap: square"/>
   </g>
   <g id="patch_4">
    <path d="M 470.8 318.04 
L 470.8 36.36 
" style="fill: none; stroke: #000000; stroke-width: 0.8; stroke-linejoin: miter; stroke-linecap: square"/>
   </g>
   <g id="patch_5">
    <path d="M 63.92 318.04 
L 470.8 318.04 
" style="fill: none; stroke: #000000; stroke-width: 0.8; stroke-linejoin: miter; stroke-linecap: square"/>
   </g>
   <g id="patch_6">
    <path d="M 63.92 36.36 
L 470.8 36.36 
" style="fill: none; stroke: #000000; stroke-width: 0.8; stroke-linejoin: miter; stroke-linecap: square"/>
   </g>
  </g>
  <g id="axes_2">
   <g id="matplotlib.axis_3">
    <g id="ytick_8">
     <g id="line2d_28">
      <defs>
       <path id="mcfbba97fc1" d="M 0 0 
L 3.5 0 
" style="stroke: #ff7f0e; stroke-width: 0.8"/>
      </defs>
      <g>
       <use xlink:href="#mcfbba97fc1" x="470.8" y="318.04" style="fill: #ff7f0e; stroke: #ff7f0e; stroke-width: 0.8"/>
      </g>
     </g>
     <g id="text_19">
      <!-- 0.0 -->
      <g style="fill: #ff7f0e" transform="translate(477.8 321.839219) scale(0.1 -0.1)">
       <use xlink:href="#DejaVuSans-30"/>
       <use xlink:href="#DejaVuSans-2e" x="63.623047"/>
       <use xlink:href="#DejaVuSans-30" x="95.410156"/>
      </g>
     </g>
    </g>
    <g id="ytick_9">
     <g id="line2d_29">
      <g>
       <use xlink:href="#mcfbba97fc1" x="470.8" y="282.83" style="fill: #ff7f0e; stroke: #ff7f0e; stroke-width: 0.8"/>
      </g>
     </g>
     <g id="text_20">
      <!-- 250.0 G -->
      <g style="fill: #ff7f0e" transform="translate(477.8 286.629219) scale(0.1 -0.1)">
       <use xlink:href="#DejaVuSans-32"/>
       <use xlink:href="#DejaVuSans-35" x="63.623047"/>
       <use xlink:href="#DejaVuSans-30" x="127.246094"/>
       <use xlink:href="#DejaVuSans-2e" x="190.869141"/>
       <use xlink:href="#DejaVuSans-30" x="222.65625"/>
       <use xlink:href="#DejaVuSans-2009" x="286.279297"/>
       <use xlink:href="#DejaVuSans-47" x="306.25"/>
      </g>
     </g>
    </g>
    <g id="ytick_10">
     <g id="line2d_30">
      <g>
       <use xlink:href="#mcfbba97fc1" x="470.8" y="247.62" style="fill: #ff7f0e; stroke: #ff7f0e; stroke-width: 0.8"/>
      </g>
     </g>
     <g id="text_21">
      <!-- 500.0 G -->
      <g style="fill: #ff7f0e" transform="translate(477.8 251.419219) scale(0.1 -0.1)">
       <use xlink:href="#DejaVuSans-35"/>
       <use xlink:href="#DejaVuSans-30" x="63.623047"/>
       <use xlink:href="#DejaVuSans-30" x="127.246094"/>
       <use xlink:href="#DejaVuSans-2e" x="190.869141"/>
       <use xlink:href="#DejaVuSans-30" x="222.65625"/>
       <use xlink:href="#DejaVuSans-2009" x="286.279297"/>
       <use xlink:href="#DejaVuSans-47" x="306.25"/>
      </g>
     </g>
    </g>
    <g id="ytick_11">
     <g id="line2d_31">
      <g>
       <use xlink:href="#mcfbba97fc1" x="470.8" y="212.41" style="fill: #ff7f0e; stroke: #ff7f0e; stroke-width: 0.8"/>
      </g>
     </g>
     <g id="text_22">
      <!-- 750.0 G -->
      <g style="fill: #ff7f0e" transform="translate(477.8 216.209219) scale(0.1 -0.1)">
       <use xlink:href="#DejaVuSans-37"/>
       <use xlink:href="#DejaVuSans-35" x="63.623047"/>
       <use xlink:href="#DejaVuSans-30" x="127.246094"/>
       <use xlink:href="#DejaVuSans-2e" x="190.869141"/>
       <use xlink:href="#DejaVuSans-30" x="222.65625"/>
       <use xlink:href="#DejaVuSans-2009" x="286.279297"/>
       <use xlink:href="#DejaVuSans-47" x="306.25"/>
      </g>
     </g>
    </g>
    <g id="ytick_12">
     <g id="line2d_32">
      <g>
       <use xlink:href="#mcfbba97fc1" x="470.8" y="177.2" style="fill: #ff7f0e; stroke: #ff7f0e; stroke-width: 0.8"/>
      </g>
     </g>
     <g id="text_23">
      <!-- 1.0 T -->
      <g style="fill: #ff7f0e" transform="translate(477.8 180.999219) scale(0.1 -0.1)">
       <use xlink:href="#DejaVuSans-31"/>
       <use xlink:href="#DejaVuSans-2e" x="63.623047"/>
       <use xlink:href="#DejaVuSans-30" x="95.410156"/>
       <use xlink:href="#DejaVuSans-2009" x="159.033203"/>
       <use xlink:href="#DejaVuSans-54" x="179.003906"/>
      </g>
     </g>
    </g>
    <g id="ytick_13">
     <g id="line2d_33">
      <g>
       <use xlink:href="#mcfbba97fc1" x="470.8" y="141.99" style="fill: #ff7f0e; stroke: #ff7f0e; stroke-width: 0.8"/>
      </g>
     </g>
     <g id="text_24">
      <!-- 1.2 T -->
      <g style="fill: #ff7f0e" transform="translate(477.8 145.789219) scale(0.1 -0.1)">
       <use xlink:href="#DejaVuSans-31"/>
       <use xlink:href="#DejaVuSans-2e" x="63.623047"/>
       <use xlink:href="#DejaVuSans-32" x="95.410156"/>
       <use xlink:href="#DejaVuSans-2009" x="159.033203"/>
       <use xlink:href="#DejaVuSans-54" x="179.003906"/>
      </g>
     </g>
    </g>
    <g id="ytick_14">
     <g id="line2d_34">
      <g>
       <use xlink:href="#mcfbba97fc1" x="470.8" y="106.78" style="fill: #ff7f0e; stroke: #ff7f0e; stroke-width: 0.8"/>
      </g>
     </g>
     <g id="text_25">
      <!-- 1.5 T -->
      <g style="fill: #ff7f0e" transform="translate(477.8 110.579219) scale(0.1 -0.1)">
       <use xlink:href="#DejaVuSans-31"/>
       <use xlink:href="#DejaVuSans-2e" x="63.623047"/>
       <use xlink:href="#DejaVuSans-35" x="95.410156"/>
       <use xlink:href="#DejaVuSans-2009" x="159.033203"/>
       <use xlink:href="#DejaVuSans-54" x="179.003906"/>
      </g>
     </g>
    </g>
    <g id="ytick_15">
     <g id="line2d_35">
      <g>
       <use xlink:href="#mcfbba97fc1" x="470.8" y="71.57" style="fill: #ff7f0e; stroke: #ff7f0e; stroke-width: 0.8"/>
      </g>
     </g>
     <g id="text_26">
      <!-- 1.8 T -->
      <g style="fill: #ff7f0e" transform="translate(477.8 75.369219) scale(0.1 -0.1)">
       <use xlink:href="#DejaVuSans-31"/>
       <use xlink:href="#DejaVuSans-2e" x="63.623047"/>
       <use xlink:href="#DejaVuSans-38" x="95.410156"/>
       <use xlink:href="#DejaVuSans-2009" x="159.033203"/>
       <use xlink:href="#DejaVuSans-54" x="179.003906"/>
      </g>
     </g>
    </g>
    <g id="ytick_16">
     <g id="line2d_36">
      <g>
       <use xlink:href="#mcfbba97fc1" x="470.8" y="36.36" style="fill: #ff7f0e; stroke: #ff7f0e; stroke-width: 0.8"/>
      </g>
     </g>
     <g id="text_27">
      <!-- 2.0 T -->
      <g style="fill: #ff7f0e" transform="translate(477.8 40.159219) scale(0.1 -0.1)">
       <use xlink:href="#DejaVuSans-32"/>
       <use xlink:href="#DejaVuSans-2e" x="63.623047"/>
       <use xlink:href="#DejaVuSans-30" x="95.410156"/>
       <use xlink:href="#DejaVuSans-2009" x="159.033203"/>
       <use xlink:href="#DejaVuSans-54" x="179.003906"/>
      </g>
     </g>
    </g>
    <g id="text_28">
     <!-- Resources -->
     <g style="fill: #ff7f0e" transform="translate(527.771875 202.732031) rotate(-90) scale(0.1 -0.1)">
      <defs>
       <path id="DejaVuSans-52" d="M 2841 2188 
Q 3044 2119 3236 1894 
Q 3428 1669 3622 1275 
L 4263 0 
L 3584 0 
L 2988 1197 
Q 2756 1666 2539 1819 
Q 2322 1972 1947 1972 
L 1259 1972 
L 1259 0 
L 628 0 
L 628 4666 
L 2053 4666 
Q 2853 4666 3247 4331 
Q 3641 3997 3641 3322 
Q 3641 2881 3436 2590 
Q 3231 2300 2841 2188 
z
M 1259 4147 
L 1259 2491 
L 2053 2491 
Q 2509 2491 2742 2702 
Q 2975 2913 2975 3322 
Q 2975 3731 2742 3939 
Q 2509 4147 2053 4147 
L 1259 4147 
z
" transform="scale(0.015625)"/>
       <path id="DejaVuSans-73" d="M 2834 3397 
L 2834 2853 
Q 2591 2978 2328 3040 
Q 2066 3103 1784 3103 
Q 1356 3103 1142 2972 
Q 928 2841 928 2578 
Q 928 2378 1081 2264 
Q 1234 2150 1697 2047 
L 1894 2003 
Q 2506 1872 2764 1633 
Q 3022 1394 3022 966 
Q 3022 478 2636 193 
Q 2250 -91 1575 -91 
Q 1294 -91 989 -36 
Q 684 19 347 128 
L 347 722 
Q 666 556 975 473 
Q 1284 391 1588 391 
Q 1994 391 2212 530 
Q 2431 669 2431 922 
Q 2431 1156 2273 1281 
Q 2116 1406 1581 1522 
L 1381 1569 
Q 847 1681 609 1914 
Q 372 2147 372 2553 
Q 372 3047 722 3315 
Q 1072 3584 1716 3584 
Q 2034 3584 2315 3537 
Q 2597 3491 2834 3397 
z
" transform="scale(0.015625)"/>
      </defs>
      <use xlink:href="#DejaVuSans-52"/>
      <use xlink:href="#DejaVuSans-65" x="64.982422"/>
      <use xlink:href="#DejaVuSans-73" x="126.505859"/>
      <use xlink:href="#DejaVuSans-6f" x="178.605469"/>
      <use xlink:href="#DejaVuSans-75" x="239.787109"/>
      <use xlink:href="#DejaVuSans-72" x="303.166016"/>
      <use xlink:href="#DejaVuSans-63" x="342.029297"/>
      <use xlink:href="#DejaVuSans-65" x="397.009766"/>
      <use xlink:href="#DejaVuSans-73" x="458.533203"/>
     </g>
    </g>
   </g>
   <g id="line2d_37">
    <path d="M 82.414545 36.36 
L 103.519432 36.921944 
L 121.66223 37.617395 
L 137.213199 38.431903 
L 150.542601 39.349372 
L 162.390958 40.386475 
L 172.758271 41.508232 
L 182.385061 42.768225 
L 191.27133 44.154335 
L 199.417075 45.646306 
L 207.19256 47.298738 
L 213.857261 48.930415 
L 219.411178 50.512705 
L 224.965096 52.323721 
L 230.148752 54.239425 
L 235.332409 56.393628 
L 240.145804 58.626827 
L 244.959199 61.103216 
L 249.772594 63.841922 
L 254.215728 66.619694 
L 258.658862 69.65389 
L 263.101997 72.95839 
L 267.545131 76.544791 
L 271.988265 80.424582 
L 276.431399 84.609126 
L 280.874533 89.10936 
L 285.317667 93.934468 
L 289.760801 99.090661 
L 294.203935 104.582766 
L 298.647069 110.414452 
L 303.460464 117.117596 
L 308.273859 124.222333 
L 313.087255 131.72734 
L 319.011433 141.435761 
L 325.305873 152.167128 
L 332.340835 164.622801 
L 342.708148 183.518023 
L 353.815983 203.654039 
L 360.110423 214.602064 
L 365.29408 223.193702 
L 370.107475 230.746164 
L 374.550609 237.324121 
L 379.364004 244.040804 
L 384.177399 250.370028 
L 389.361056 256.801604 
L 394.544712 262.881633 
L 399.728368 268.62371 
L 404.912025 274.046666 
L 410.465942 279.535452 
L 415.649599 284.356201 
L 421.203516 289.20382 
L 424.535867 291.880656 
L 427.497956 293.929174 
L 430.460046 295.703418 
L 433.792396 297.418628 
L 437.124747 298.878444 
L 440.827358 300.244582 
L 444.52997 301.380688 
L 448.973104 302.493753 
L 452.305455 303.222507 
L 452.305455 303.222507 
" clip-path="url(#pbf85ac7e46)" style="fill: none; stroke: #ff7f0e; stroke-width: 1.5; stroke-linecap: square"/>
   </g>
   <g id="line2d_38">
    <path d="M 82.414545 36.36 
L 103.519432 36.922495 
L 121.66223 37.620721 
L 136.842937 38.417947 
L 150.17234 39.336822 
L 161.650436 40.342947 
L 172.017749 41.465171 
L 181.644539 42.726537 
L 190.530807 44.114549 
L 198.676553 45.609338 
L 206.452037 47.266284 
L 212.376216 48.736628 
L 217.930134 50.343111 
L 223.11379 52.061331 
L 228.297447 54.010894 
L 233.110842 56.047231 
L 237.924237 58.32058 
L 242.737632 60.850982 
L 247.180766 63.43276 
L 251.6239 66.267686 
L 256.067034 69.372723 
L 260.510168 72.764167 
L 264.953302 76.454491 
L 269.396436 80.4567 
L 273.83957 84.783658 
L 278.282705 89.448011 
L 282.725839 94.460904 
L 287.168973 99.830134 
L 291.612107 105.561782 
L 296.425502 112.170288 
L 301.979419 120.169363 
L 307.903598 129.106723 
L 313.827777 138.453347 
L 320.122217 148.818671 
L 326.416657 159.613643 
L 333.451619 172.11829 
L 344.189193 191.723368 
L 354.186244 209.8415 
L 360.480684 220.796252 
L 365.664341 229.376371 
L 370.477736 236.898362 
L 374.92087 243.444421 
L 379.734265 250.130759 
L 384.54766 256.435941 
L 389.731317 262.849611 
L 394.544712 268.47048 
L 399.728368 274.187085 
L 405.282286 279.966727 
L 410.836203 285.427071 
L 416.390121 290.599728 
L 419.722472 293.441923 
L 423.054822 296.013227 
L 426.757434 298.584705 
L 429.719523 300.402397 
L 432.681613 301.953133 
L 436.013963 303.42408 
L 439.346314 304.645251 
L 443.048925 305.754754 
L 447.121798 306.726193 
L 451.564932 307.548262 
L 452.305455 307.66926 
L 452.305455 307.66926 
" clip-path="url(#pbf85ac7e46)" style="fill: none; stroke-dasharray: 1.85,0.8; stroke-dashoffset: 0; stroke: #ff7f0e; stroke-width: 0.5"/>
   </g>
   <g id="patch_7">
    <path d="M 63.92 318.04 
L 63.92 36.36 
" style="fill: none; stroke: #000000; stroke-width: 0.8; stroke-linejoin: miter; stroke-linecap: square"/>
   </g>
   <g id="patch_8">
    <path d="M 470.8 318.04 
L 470.8 36.36 
" style="fill: none; stroke: #000000; stroke-width: 0.8; stroke-linejoin: miter; stroke-linecap: square"/>
   </g>
   <g id="patch_9">
    <path d="M 63.92 318.04 
L 470.8 318.04 
" style="fill: none; stroke: #000000; stroke-width: 0.8; stroke-linejoin: miter; stroke-linecap: square"/>
   </g>
   <g id="patch_10">
    <path d="M 63.92 36.36 
L 470.8 36.36 
" style="fill: none; stroke: #000000; stroke-width: 0.8; stroke-linejoin: miter; stroke-linecap: square"/>
   </g>
  </g>
  <g id="axes_3">
   <g id="matplotlib.axis_4">
    <g id="ytick_17">
     <g id="line2d_39">
      <defs>
       <path id="m81c8c49e92" d="M 0 0 
L 3.5 0 
" style="stroke: #2ca02c; stroke-width: 0.8"/>
      </defs>
      <g>
       <use xlink:href="#m81c8c49e92" x="535.8" y="318.04" style="fill: #2ca02c; stroke: #2ca02c; stroke-width: 0.8"/>
      </g>
     </g>
     <g id="text_29">
      <!-- 0.0 -->
      <g style="fill: #2ca02c" transform="translate(542.8 321.839219) scale(0.1 -0.1)">
       <use xlink:href="#DejaVuSans-30"/>
       <use xlink:href="#DejaVuSans-2e" x="63.623047"/>
       <use xlink:href="#DejaVuSans-30" x="95.410156"/>
      </g>
     </g>
    </g>
    <g id="ytick_18">
     <g id="line2d_40">
      <g>
       <use xlink:href="#m81c8c49e92" x="535.8" y="282.83" style="fill: #2ca02c; stroke: #2ca02c; stroke-width: 0.8"/>
      </g>
     </g>
     <g id="text_30">
      <!-- 500.0 G -->
      <g style="fill: #2ca02c" transform="translate(542.8 286.629219) scale(0.1 -0.1)">
       <use xlink:href="#DejaVuSans-35"/>
       <use xlink:href="#DejaVuSans-30" x="63.623047"/>
       <use xlink:href="#DejaVuSans-30" x="127.246094"/>
       <use xlink:href="#DejaVuSans-2e" x="190.869141"/>
       <use xlink:href="#DejaVuSans-30" x="222.65625"/>
       <use xlink:href="#DejaVuSans-2009" x="286.279297"/>
       <use xlink:href="#DejaVuSans-47" x="306.25"/>
      </g>
     </g>
    </g>
    <g id="ytick_19">
     <g id="line2d_41">
      <g>
       <use xlink:href="#m81c8c49e92" x="535.8" y="247.62" style="fill: #2ca02c; stroke: #2ca02c; stroke-width: 0.8"/>
      </g>
     </g>
     <g id="text_31">
      <!-- 1.0 T -->
      <g style="fill: #2ca02c" transform="translate(542.8 251.419219) scale(0.1 -0.1)">
       <use xlink:href="#DejaVuSans-31"/>
       <use xlink:href="#DejaVuSans-2e" x="63.623047"/>
       <use xlink:href="#DejaVuSans-30" x="95.410156"/>
       <use xlink:href="#DejaVuSans-2009" x="159.033203"/>
       <use xlink:href="#DejaVuSans-54" x="179.003906"/>
      </g>
     </g>
    </g>
    <g id="ytick_20">
     <g id="line2d_42">
      <g>
       <use xlink:href="#m81c8c49e92" x="535.8" y="212.41" style="fill: #2ca02c; stroke: #2ca02c; stroke-width: 0.8"/>
      </g>
     </g>
     <g id="text_32">
      <!-- 1.5 T -->
      <g style="fill: #2ca02c" transform="translate(542.8 216.209219) scale(0.1 -0.1)">
       <use xlink:href="#DejaVuSans-31"/>
       <use xlink:href="#DejaVuSans-2e" x="63.623047"/>
       <use xlink:href="#DejaVuSans-35" x="95.410156"/>
       <use xlink:href="#DejaVuSans-2009" x="159.033203"/>
       <use xlink:href="#DejaVuSans-54" x="179.003906"/>
      </g>
     </g>
    </g>
    <g id="ytick_21">
     <g id="line2d_43">
      <g>
       <use xlink:href="#m81c8c49e92" x="535.8" y="177.2" style="fill: #2ca02c; stroke: #2ca02c; stroke-width: 0.8"/>
      </g>
     </g>
     <g id="text_33">
      <!-- 2.0 T -->
      <g style="fill: #2ca02c" transform="translate(542.8 180.999219) scale(0.1 -0.1)">
       <use xlink:href="#DejaVuSans-32"/>
       <use xlink:href="#DejaVuSans-2e" x="63.623047"/>
       <use xlink:href="#DejaVuSans-30" x="95.410156"/>
       <use xlink:href="#DejaVuSans-2009" x="159.033203"/>
       <use xlink:href="#DejaVuSans-54" x="179.003906"/>
      </g>
     </g>
    </g>
    <g id="ytick_22">
     <g id="line2d_44">
      <g>
       <use xlink:href="#m81c8c49e92" x="535.8" y="141.99" style="fill: #2ca02c; stroke: #2ca02c; stroke-width: 0.8"/>
      </g>
     </g>
     <g id="text_34">
      <!-- 2.5 T -->
      <g style="fill: #2ca02c" transform="translate(542.8 145.789219) scale(0.1 -0.1)">
       <use xlink:href="#DejaVuSans-32"/>
       <use xlink:href="#DejaVuSans-2e" x="63.623047"/>
       <use xlink:href="#DejaVuSans-35" x="95.410156"/>
       <use xlink:href="#DejaVuSans-2009" x="159.033203"/>
       <use xlink:href="#DejaVuSans-54" x="179.003906"/>
      </g>
     </g>
    </g>
    <g id="ytick_23">
     <g id="line2d_45">
      <g>
       <use xlink:href="#m81c8c49e92" x="535.8" y="106.78" style="fill: #2ca02c; stroke: #2ca02c; stroke-width: 0.8"/>
      </g>
     </g>
     <g id="text_35">
      <!-- 3.0 T -->
      <g style="fill: #2ca02c" transform="translate(542.8 110.579219) scale(0.1 -0.1)">
       <defs>
        <path id="DejaVuSans-33" d="M 2597 2516 
Q 3050 2419 3304 2112 
Q 3559 1806 3559 1356 
Q 3559 666 3084 287 
Q 2609 -91 1734 -91 
Q 1441 -91 1130 -33 
Q 819 25 488 141 
L 488 750 
Q 750 597 1062 519 
Q 1375 441 1716 441 
Q 2309 441 2620 675 
Q 2931 909 2931 1356 
Q 2931 1769 2642 2001 
Q 2353 2234 1838 2234 
L 1294 2234 
L 1294 2753 
L 1863 2753 
Q 2328 2753 2575 2939 
Q 2822 3125 2822 3475 
Q 2822 3834 2567 4026 
Q 2313 4219 1838 4219 
Q 1578 4219 1281 4162 
Q 984 4106 628 3988 
L 628 4550 
Q 988 4650 1302 4700 
Q 1616 4750 1894 4750 
Q 2613 4750 3031 4423 
Q 3450 4097 3450 3541 
Q 3450 3153 3228 2886 
Q 3006 2619 2597 2516 
z
" transform="scale(0.015625)"/>
       </defs>
       <use xlink:href="#DejaVuSans-33"/>
       <use xlink:href="#DejaVuSans-2e" x="63.623047"/>
       <use xlink:href="#DejaVuSans-30" x="95.410156"/>
       <use xlink:href="#DejaVuSans-2009" x="159.033203"/>
       <use xlink:href="#DejaVuSans-54" x="179.003906"/>
      </g>
     </g>
    </g>
    <g id="ytick_24">
     <g id="line2d_46">
      <g>
       <use xlink:href="#m81c8c49e92" x="535.8" y="71.57" style="fill: #2ca02c; stroke: #2ca02c; stroke-width: 0.8"/>
      </g>
     </g>
     <g id="text_36">
      <!-- 3.5 T -->
      <g style="fill: #2ca02c" transform="translate(542.8 75.369219) scale(0.1 -0.1)">
       <use xlink:href="#DejaVuSans-33"/>
       <use xlink:href="#DejaVuSans-2e" x="63.623047"/>
       <use xlink:href="#DejaVuSans-35" x="95.410156"/>
       <use xlink:href="#DejaVuSans-2009" x="159.033203"/>
       <use xlink:href="#DejaVuSans-54" x="179.003906"/>
      </g>
     </g>
    </g>
    <g id="ytick_25">
     <g id="line2d_47">
      <g>
       <use xlink:href="#m81c8c49e92" x="535.8" y="36.36" style="fill: #2ca02c; stroke: #2ca02c; stroke-width: 0.8"/>
      </g>
     </g>
     <g id="text_37">
      <!-- 4.0 T -->
      <g style="fill: #2ca02c" transform="translate(542.8 40.159219) scale(0.1 -0.1)">
       <use xlink:href="#DejaVuSans-34"/>
       <use xlink:href="#DejaVuSans-2e" x="63.623047"/>
       <use xlink:href="#DejaVuSans-30" x="95.410156"/>
       <use xlink:href="#DejaVuSans-2009" x="159.033203"/>
       <use xlink:href="#DejaVuSans-54" x="179.003906"/>
      </g>
     </g>
    </g>
    <g id="text_38">
     <!-- Industrial Opuput -->
     <g style="fill: #2ca02c" transform="translate(592.771875 220.820313) rotate(-90) scale(0.1 -0.1)">
      <defs>
       <path id="DejaVuSans-49" d="M 628 4666 
L 1259 4666 
L 1259 0 
L 628 0 
L 628 4666 
z
" transform="scale(0.015625)"/>
       <path id="DejaVuSans-64" d="M 2906 2969 
L 2906 4863 
L 3481 4863 
L 3481 0 
L 2906 0 
L 2906 525 
Q 2725 213 2448 61 
Q 2172 -91 1784 -91 
Q 1150 -91 751 415 
Q 353 922 353 1747 
Q 353 2572 751 3078 
Q 1150 3584 1784 3584 
Q 2172 3584 2448 3432 
Q 2725 3281 2906 2969 
z
M 947 1747 
Q 947 1113 1208 752 
Q 1469 391 1925 391 
Q 2381 391 2643 752 
Q 2906 1113 2906 1747 
Q 2906 2381 2643 2742 
Q 2381 3103 1925 3103 
Q 1469 3103 1208 2742 
Q 947 2381 947 1747 
z
" transform="scale(0.015625)"/>
       <path id="DejaVuSans-4f" d="M 2522 4238 
Q 1834 4238 1429 3725 
Q 1025 3213 1025 2328 
Q 1025 1447 1429 934 
Q 1834 422 2522 422 
Q 3209 422 3611 934 
Q 4013 1447 4013 2328 
Q 4013 3213 3611 3725 
Q 3209 4238 2522 4238 
z
M 2522 4750 
Q 3503 4750 4090 4092 
Q 4678 3434 4678 2328 
Q 4678 1225 4090 567 
Q 3503 -91 2522 -91 
Q 1538 -91 948 565 
Q 359 1222 359 2328 
Q 359 3434 948 4092 
Q 1538 4750 2522 4750 
z
" transform="scale(0.015625)"/>
      </defs>
      <use xlink:href="#DejaVuSans-49"/>
      <use xlink:href="#DejaVuSans-6e" x="29.492188"/>
      <use xlink:href="#DejaVuSans-64" x="92.871094"/>
      <use xlink:href="#DejaVuSans-75" x="156.347656"/>
      <use xlink:href="#DejaVuSans-73" x="219.726562"/>
      <use xlink:href="#DejaVuSans-74" x="271.826172"/>
      <use xlink:href="#DejaVuSans-72" x="311.035156"/>
      <use xlink:href="#DejaVuSans-69" x="352.148438"/>
      <use xlink:href="#DejaVuSans-61" x="379.931641"/>
      <use xlink:href="#DejaVuSans-6c" x="441.210938"/>
      <use xlink:href="#DejaVuSans-20" x="468.994141"/>
      <use xlink:href="#DejaVuSans-4f" x="500.78125"/>
      <use xlink:href="#DejaVuSans-70" x="579.492188"/>
      <use xlink:href="#DejaVuSans-75" x="642.96875"/>
      <use xlink:href="#DejaVuSans-70" x="706.347656"/>
      <use xlink:href="#DejaVuSans-75" x="769.824219"/>
      <use xlink:href="#DejaVuSans-74" x="833.203125"/>
     </g>
    </g>
   </g>
   <g id="line2d_48">
    <path d="M 82.414545 313.35707 
L 87.227941 312.870037 
L 103.519432 310.978898 
L 112.775961 309.675633 
L 120.921707 308.316782 
L 128.697192 306.794384 
L 135.732154 305.193888 
L 142.396855 303.455586 
L 148.691295 301.590615 
L 154.615474 299.613965 
L 160.539652 297.39977 
L 166.09357 295.086656 
L 171.277226 292.69923 
L 176.460883 290.068888 
L 181.274278 287.38975 
L 186.087673 284.461162 
L 190.901068 281.258377 
L 195.344202 278.045049 
L 199.787336 274.571249 
L 204.23047 270.825817 
L 208.673605 266.80727 
L 213.116739 262.498488 
L 217.930134 257.516358 
L 222.373268 252.60425 
L 226.816402 247.36591 
L 231.259536 241.783185 
L 235.70267 235.843598 
L 240.145804 229.53662 
L 244.588938 222.854225 
L 249.032072 215.791779 
L 253.845467 207.708186 
L 259.029124 198.529884 
L 264.953302 187.624876 
L 271.247742 175.556943 
L 277.542182 163.01757 
L 285.687928 146.231029 
L 316.049344 83.331504 
L 325.676134 64.307602 
L 328.638224 59.01188 
L 330.48953 56.164088 
L 332.340835 53.766025 
L 333.82188 52.172617 
L 335.302925 50.867181 
L 336.783969 49.848965 
L 338.265014 49.132276 
L 339.746059 48.725105 
L 340.856842 48.624431 
L 341.967626 48.699412 
L 343.078409 48.94945 
L 344.559454 49.552827 
L 345.670238 50.213118 
L 347.151282 51.382369 
L 348.632327 52.866794 
L 350.113372 54.649042 
L 351.964677 57.267128 
L 353.815983 60.301347 
L 355.667289 63.743962 
L 357.888856 68.373516 
L 360.480684 74.366308 
L 363.442774 81.82252 
L 367.515647 92.748125 
L 373.439825 108.70958 
L 377.142437 118.020605 
L 380.474788 125.846988 
L 383.807138 133.144303 
L 387.139489 139.935165 
L 390.471839 146.253807 
L 394.914973 154.519601 
L 398.617585 161.714828 
L 402.320197 168.406548 
L 406.022808 174.65929 
L 410.095681 181.09273 
L 414.168554 187.096799 
L 418.241427 192.710448 
L 421.944039 197.503636 
L 427.127695 218.484856 
L 429.349262 226.002721 
L 431.570829 232.778776 
L 433.792396 238.916009 
L 436.013963 244.486421 
L 438.605791 250.347895 
L 441.197619 255.599064 
L 443.789448 260.308661 
L 446.381276 264.536474 
L 449.343365 268.883913 
L 452.305455 272.897422 
L 452.305455 272.897422 
" clip-path="url(#pbf85ac7e46)" style="fill: none; stroke: #2ca02c; stroke-width: 1.5; stroke-linecap: square"/>
   </g>
   <g id="line2d_49">
    <path d="M 82.414545 313.35707 
L 87.227941 312.869369 
L 103.149171 311.009904 
L 112.4057 309.699628 
L 120.551446 308.333533 
L 128.326931 306.803092 
L 135.361893 305.193423 
L 142.026594 303.439304 
L 148.321034 301.547757 
L 154.245212 299.530831 
L 160.169391 297.26539 
L 165.723309 294.915744 
L 171.277226 292.316967 
L 176.460883 289.641025 
L 181.274278 286.918098 
L 186.087673 283.940467 
L 190.530807 280.941643 
L 194.973941 277.688614 
L 199.417075 274.167083 
L 203.860209 270.363672 
L 208.303343 266.27555 
L 213.116739 261.52951 
L 217.559873 256.836356 
L 222.003007 251.818757 
L 226.446141 246.450859 
L 230.889275 240.713288 
L 235.332409 234.592028 
L 239.775543 228.074175 
L 244.218677 221.15046 
L 248.661811 213.814885 
L 253.104945 206.062728 
L 257.91834 197.205555 
L 263.842519 185.853841 
L 269.766698 174.008647 
L 276.061138 160.902487 
L 283.0961 145.68154 
L 295.314718 118.665052 
L 317.90065 68.641978 
L 324.565351 54.359101 
L 327.897701 47.808145 
L 330.48953 43.138387 
L 332.340835 40.253572 
L 334.192141 37.759131 
L 336.043447 35.651177 
L 337.524492 34.258256 
L 339.005536 33.14077 
L 340.486581 32.314896 
L 341.597365 31.909037 
L 342.708148 31.690892 
L 343.818932 31.681653 
L 344.929715 31.884904 
L 346.040499 32.297052 
L 347.151282 32.914617 
L 348.632327 34.050637 
L 350.113372 35.533172 
L 351.594416 37.347579 
L 353.075461 39.476417 
L 354.926767 42.548325 
L 356.778073 46.033607 
L 358.99964 50.713572 
L 361.221207 55.912252 
L 363.813035 62.543381 
L 367.145385 71.732305 
L 373.439825 89.259402 
L 377.142437 98.846603 
L 380.474788 106.864675 
L 383.807138 114.295596 
L 387.139489 121.161848 
L 389.361056 125.694257 
L 392.323145 132.277448 
L 395.655495 139.130173 
L 398.987846 145.458362 
L 402.690458 151.969508 
L 406.393069 158.000909 
L 410.095681 163.592394 
L 413.798293 168.774207 
L 415.279338 170.736742 
L 415.649599 171.494517 
L 418.241427 185.804383 
L 420.833255 198.827789 
L 423.425083 210.757162 
L 426.016911 221.704374 
L 428.60874 231.693192 
L 430.830307 239.308069 
L 433.051874 246.115941 
L 435.643702 253.251156 
L 437.865269 258.74994 
L 440.086836 263.696625 
L 442.308403 268.133576 
L 444.52997 272.115261 
L 446.751537 275.686044 
L 448.973104 278.887305 
L 451.564932 282.225319 
L 452.305455 283.128798 
L 452.305455 283.128798 
" clip-path="url(#pbf85ac7e46)" style="fill: none; stroke-dasharray: 1.85,0.8; stroke-dashoffset: 0; stroke: #2ca02c; stroke-width: 0.5"/>
   </g>
   <g id="patch_11">
    <path d="M 63.92 318.04 
L 63.92 36.36 
" style="fill: none; stroke: #000000; stroke-width: 0.8; stroke-linejoin: miter; stroke-linecap: square"/>
   </g>
   <g id="patch_12">
    <path d="M 535.8 318.04 
L 535.8 36.36 
" style="fill: none; stroke: #000000; stroke-width: 0.8; stroke-linejoin: miter; stroke-linecap: square"/>
   </g>
   <g id="patch_13">
    <path d="M 63.92 318.04 
L 470.8 318.04 
" style="fill: none; stroke: #000000; stroke-width: 0.8; stroke-linejoin: miter; stroke-linecap: square"/>
   </g>
   <g id="patch_14">
    <path d="M 63.92 36.36 
L 470.8 36.36 
" style="fill: none; stroke: #000000; stroke-width: 0.8; stroke-linejoin: miter; stroke-linecap: square"/>
   </g>
  </g>
  <g id="axes_4">
   <g id="matplotlib.axis_5">
    <g id="ytick_26">
     <g id="line2d_50">
      <defs>
       <path id="m15a8e47f4a" d="M 0 0 
L 3.5 0 
" style="stroke: #d62728; stroke-width: 0.8"/>
      </defs>
      <g>
       <use xlink:href="#m15a8e47f4a" x="600.8" y="318.04" style="fill: #d62728; stroke: #d62728; stroke-width: 0.8"/>
      </g>
     </g>
     <g id="text_39">
      <!-- 0.0 -->
      <g style="fill: #d62728" transform="translate(607.8 321.839219) scale(0.1 -0.1)">
       <use xlink:href="#DejaVuSans-30"/>
       <use xlink:href="#DejaVuSans-2e" x="63.623047"/>
       <use xlink:href="#DejaVuSans-30" x="95.410156"/>
      </g>
     </g>
    </g>
    <g id="ytick_27">
     <g id="line2d_51">
      <g>
       <use xlink:href="#m15a8e47f4a" x="600.8" y="271.093333" style="fill: #d62728; stroke: #d62728; stroke-width: 0.8"/>
      </g>
     </g>
     <g id="text_40">
      <!-- 1.0 T -->
      <g style="fill: #d62728" transform="translate(607.8 274.892552) scale(0.1 -0.1)">
       <use xlink:href="#DejaVuSans-31"/>
       <use xlink:href="#DejaVuSans-2e" x="63.623047"/>
       <use xlink:href="#DejaVuSans-30" x="95.410156"/>
       <use xlink:href="#DejaVuSans-2009" x="159.033203"/>
       <use xlink:href="#DejaVuSans-54" x="179.003906"/>
      </g>
     </g>
    </g>
    <g id="ytick_28">
     <g id="line2d_52">
      <g>
       <use xlink:href="#m15a8e47f4a" x="600.8" y="224.146667" style="fill: #d62728; stroke: #d62728; stroke-width: 0.8"/>
      </g>
     </g>
     <g id="text_41">
      <!-- 2.0 T -->
      <g style="fill: #d62728" transform="translate(607.8 227.945885) scale(0.1 -0.1)">
       <use xlink:href="#DejaVuSans-32"/>
       <use xlink:href="#DejaVuSans-2e" x="63.623047"/>
       <use xlink:href="#DejaVuSans-30" x="95.410156"/>
       <use xlink:href="#DejaVuSans-2009" x="159.033203"/>
       <use xlink:href="#DejaVuSans-54" x="179.003906"/>
      </g>
     </g>
    </g>
    <g id="ytick_29">
     <g id="line2d_53">
      <g>
       <use xlink:href="#m15a8e47f4a" x="600.8" y="177.2" style="fill: #d62728; stroke: #d62728; stroke-width: 0.8"/>
      </g>
     </g>
     <g id="text_42">
      <!-- 3.0 T -->
      <g style="fill: #d62728" transform="translate(607.8 180.999219) scale(0.1 -0.1)">
       <use xlink:href="#DejaVuSans-33"/>
       <use xlink:href="#DejaVuSans-2e" x="63.623047"/>
       <use xlink:href="#DejaVuSans-30" x="95.410156"/>
       <use xlink:href="#DejaVuSans-2009" x="159.033203"/>
       <use xlink:href="#DejaVuSans-54" x="179.003906"/>
      </g>
     </g>
    </g>
    <g id="ytick_30">
     <g id="line2d_54">
      <g>
       <use xlink:href="#m15a8e47f4a" x="600.8" y="130.253333" style="fill: #d62728; stroke: #d62728; stroke-width: 0.8"/>
      </g>
     </g>
     <g id="text_43">
      <!-- 4.0 T -->
      <g style="fill: #d62728" transform="translate(607.8 134.052552) scale(0.1 -0.1)">
       <use xlink:href="#DejaVuSans-34"/>
       <use xlink:href="#DejaVuSans-2e" x="63.623047"/>
       <use xlink:href="#DejaVuSans-30" x="95.410156"/>
       <use xlink:href="#DejaVuSans-2009" x="159.033203"/>
       <use xlink:href="#DejaVuSans-54" x="179.003906"/>
      </g>
     </g>
    </g>
    <g id="ytick_31">
     <g id="line2d_55">
      <g>
       <use xlink:href="#m15a8e47f4a" x="600.8" y="83.306667" style="fill: #d62728; stroke: #d62728; stroke-width: 0.8"/>
      </g>
     </g>
     <g id="text_44">
      <!-- 5.0 T -->
      <g style="fill: #d62728" transform="translate(607.8 87.105885) scale(0.1 -0.1)">
       <use xlink:href="#DejaVuSans-35"/>
       <use xlink:href="#DejaVuSans-2e" x="63.623047"/>
       <use xlink:href="#DejaVuSans-30" x="95.410156"/>
       <use xlink:href="#DejaVuSans-2009" x="159.033203"/>
       <use xlink:href="#DejaVuSans-54" x="179.003906"/>
      </g>
     </g>
    </g>
    <g id="ytick_32">
     <g id="line2d_56">
      <g>
       <use xlink:href="#m15a8e47f4a" x="600.8" y="36.36" style="fill: #d62728; stroke: #d62728; stroke-width: 0.8"/>
      </g>
     </g>
     <g id="text_45">
      <!-- 6.0 T -->
      <g style="fill: #d62728" transform="translate(607.8 40.159219) scale(0.1 -0.1)">
       <use xlink:href="#DejaVuSans-36"/>
       <use xlink:href="#DejaVuSans-2e" x="63.623047"/>
       <use xlink:href="#DejaVuSans-30" x="95.410156"/>
       <use xlink:href="#DejaVuSans-2009" x="159.033203"/>
       <use xlink:href="#DejaVuSans-54" x="179.003906"/>
      </g>
     </g>
    </g>
    <g id="text_46">
     <!-- Food -->
     <g style="fill: #d62728" transform="translate(643.40625 189.1875) rotate(-90) scale(0.1 -0.1)">
      <defs>
       <path id="DejaVuSans-46" d="M 628 4666 
L 3309 4666 
L 3309 4134 
L 1259 4134 
L 1259 2759 
L 3109 2759 
L 3109 2228 
L 1259 2228 
L 1259 0 
L 628 0 
L 628 4666 
z
" transform="scale(0.015625)"/>
      </defs>
      <use xlink:href="#DejaVuSans-46"/>
      <use xlink:href="#DejaVuSans-6f" x="53.894531"/>
      <use xlink:href="#DejaVuSans-6f" x="115.076172"/>
      <use xlink:href="#DejaVuSans-64" x="176.257812"/>
     </g>
    </g>
   </g>
   <g id="line2d_57">
    <path d="M 82.414545 297.809742 
L 84.265851 297.38146 
L 88.708985 296.683821 
L 100.557343 294.84685 
L 108.703089 293.361223 
L 118.329879 291.317688 
L 126.475625 289.382082 
L 133.880848 287.398395 
L 140.545549 285.374433 
L 146.839989 283.22459 
L 152.764168 280.965392 
L 158.688347 278.468441 
L 164.242264 275.884901 
L 169.796182 273.047874 
L 174.979838 270.16177 
L 180.163494 267.025152 
L 183.866106 264.5651 
L 189.420024 260.53353 
L 195.344202 255.94151 
L 200.89812 251.361976 
L 209.414127 243.981681 
L 216.81935 236.916159 
L 222.373268 231.32241 
L 228.667708 224.57862 
L 236.813453 215.519088 
L 249.772594 200.696284 
L 256.437295 193.089425 
L 257.91834 192.013975 
L 261.991213 188.626895 
L 267.545131 184.114713 
L 275.690876 177.860423 
L 279.393488 175.222483 
L 281.244794 174.03686 
L 285.317667 172.357433 
L 289.020278 170.993952 
L 292.352629 170.003722 
L 296.425502 169.054884 
L 300.128114 168.408978 
L 303.830725 167.90929 
L 306.792815 167.714184 
L 309.754904 167.723928 
L 312.716993 167.939294 
L 315.679083 168.365297 
L 318.270911 168.888642 
L 319.011433 168.371131 
L 320.122217 167.517523 
L 320.862739 167.254955 
L 321.973523 167.914603 
L 323.084306 168.887392 
L 324.19509 170.143047 
L 326.046395 172.717636 
L 327.52744 175.080307 
L 329.749007 179.20398 
L 331.970574 183.814029 
L 334.932664 190.444308 
L 340.486581 203.739528 
L 343.818932 212.68975 
L 345.299976 217.034197 
L 357.518595 254.143053 
L 360.110423 261.499989 
L 362.33199 267.255503 
L 364.553557 272.433693 
L 366.775124 277.015968 
L 367.885908 278.993621 
L 368.996691 280.552144 
L 370.107475 281.796181 
L 371.588519 283.136206 
L 373.069564 284.221198 
L 374.92087 285.291699 
L 376.772176 286.113585 
L 378.993743 286.851424 
L 381.585571 287.460576 
L 384.54766 287.923375 
L 388.250272 288.270506 
L 404.912025 289.486345 
L 412.687509 289.988465 
L 424.906128 290.769796 
L 431.94109 292.069556 
L 439.716575 293.948561 
L 445.640753 295.139062 
L 452.305455 296.371898 
L 452.305455 296.371898 
" clip-path="url(#pbf85ac7e46)" style="fill: none; stroke: #d62728; stroke-width: 1.5; stroke-linecap: square"/>
   </g>
   <g id="line2d_58">
    <path d="M 82.414545 297.809742 
L 84.265851 297.382977 
L 88.338724 296.748577 
L 100.557343 294.881462 
L 108.332827 293.477244 
L 117.589357 291.519346 
L 125.735102 289.590699 
L 133.140326 287.614209 
L 140.175288 285.501998 
L 146.469728 283.38792 
L 152.393907 281.177029 
L 157.947824 278.878783 
L 162.761219 276.576711 
L 168.315137 273.695049 
L 173.869055 270.564735 
L 179.422972 267.164599 
L 183.495845 264.438841 
L 189.049762 260.373456 
L 194.973941 255.761554 
L 200.89812 250.854193 
L 210.154649 242.803497 
L 216.449089 236.872239 
L 222.003007 231.343269 
L 228.297447 224.659564 
L 235.332409 216.871309 
L 244.959199 205.855036 
L 256.437295 192.670028 
L 258.288601 191.235682 
L 273.83957 178.312894 
L 277.912443 175.123232 
L 280.504272 173.271922 
L 284.947406 171.226141 
L 288.650017 169.683705 
L 292.352629 168.405173 
L 296.425502 167.248294 
L 299.757852 166.532088 
L 303.090203 166.009229 
L 306.052292 165.775579 
L 309.014382 165.761444 
L 311.976471 165.956527 
L 315.308822 166.412266 
L 317.160127 166.714095 
L 319.381694 165.351001 
L 320.492478 166.021461 
L 321.603261 166.982823 
L 323.084306 168.643923 
L 326.786918 173.540158 
L 328.638224 176.580894 
L 336.043447 189.708529 
L 338.265014 194.458073 
L 340.856842 200.588031 
L 342.708148 205.479301 
L 347.521543 220.033879 
L 354.926767 242.57411 
L 361.961729 262.619465 
L 364.553557 269.285632 
L 366.404863 273.497192 
L 367.515647 275.47419 
L 368.62643 277.082013 
L 370.107475 278.800058 
L 371.588519 280.151045 
L 373.069564 281.222626 
L 374.92087 282.261162 
L 376.772176 283.043738 
L 378.993743 283.729611 
L 381.585571 284.272752 
L 384.54766 284.651776 
L 388.250272 284.877915 
L 393.80419 284.942302 
L 411.946987 284.684575 
L 418.611688 284.429785 
L 421.573777 284.807135 
L 428.60874 286.070328 
L 442.308403 290.124817 
L 447.492059 292.037251 
L 450.82441 293.278217 
L 452.305455 294.330353 
L 452.305455 294.330353 
" clip-path="url(#pbf85ac7e46)" style="fill: none; stroke-dasharray: 1.85,0.8; stroke-dashoffset: 0; stroke: #d62728; stroke-width: 0.5"/>
   </g>
   <g id="patch_15">
    <path d="M 63.92 318.04 
L 63.92 36.36 
" style="fill: none; stroke: #000000; stroke-width: 0.8; stroke-linejoin: miter; stroke-linecap: square"/>
   </g>
   <g id="patch_16">
    <path d="M 600.8 318.04 
L 600.8 36.36 
" style="fill: none; stroke: #000000; stroke-width: 0.8; stroke-linejoin: miter; stroke-linecap: square"/>
   </g>
   <g id="patch_17">
    <path d="M 63.92 318.04 
L 470.8 318.04 
" style="fill: none; stroke: #000000; stroke-width: 0.8; stroke-linejoin: miter; stroke-linecap: square"/>
   </g>
   <g id="patch_18">
    <path d="M 63.92 36.36 
L 470.8 36.36 
" style="fill: none; stroke: #000000; stroke-width: 0.8; stroke-linejoin: miter; stroke-linecap: square"/>
   </g>
  </g>
  <g id="axes_5">
   <g id="matplotlib.axis_6">
    <g id="ytick_33">
     <g id="line2d_59">
      <defs>
       <path id="mae5bba083e" d="M 0 0 
L 3.5 0 
" style="stroke: #9467bd; stroke-width: 0.8"/>
      </defs>
      <g>
       <use xlink:href="#mae5bba083e" x="665.8" y="318.04" style="fill: #9467bd; stroke: #9467bd; stroke-width: 0.8"/>
      </g>
     </g>
     <g id="text_47">
      <!-- 0.0 -->
      <g style="fill: #9467bd" transform="translate(672.8 321.839219) scale(0.1 -0.1)">
       <use xlink:href="#DejaVuSans-30"/>
       <use xlink:href="#DejaVuSans-2e" x="63.623047"/>
       <use xlink:href="#DejaVuSans-30" x="95.410156"/>
      </g>
     </g>
    </g>
    <g id="ytick_34">
     <g id="line2d_60">
      <g>
       <use xlink:href="#mae5bba083e" x="665.8" y="282.83" style="fill: #9467bd; stroke: #9467bd; stroke-width: 0.8"/>
      </g>
     </g>
     <g id="text_48">
      <!-- 5.0 -->
      <g style="fill: #9467bd" transform="translate(672.8 286.629219) scale(0.1 -0.1)">
       <use xlink:href="#DejaVuSans-35"/>
       <use xlink:href="#DejaVuSans-2e" x="63.623047"/>
       <use xlink:href="#DejaVuSans-30" x="95.410156"/>
      </g>
     </g>
    </g>
    <g id="ytick_35">
     <g id="line2d_61">
      <g>
       <use xlink:href="#mae5bba083e" x="665.8" y="247.62" style="fill: #9467bd; stroke: #9467bd; stroke-width: 0.8"/>
      </g>
     </g>
     <g id="text_49">
      <!-- 10.0 -->
      <g style="fill: #9467bd" transform="translate(672.8 251.419219) scale(0.1 -0.1)">
       <use xlink:href="#DejaVuSans-31"/>
       <use xlink:href="#DejaVuSans-30" x="63.623047"/>
       <use xlink:href="#DejaVuSans-2e" x="127.246094"/>
       <use xlink:href="#DejaVuSans-30" x="159.033203"/>
      </g>
     </g>
    </g>
    <g id="ytick_36">
     <g id="line2d_62">
      <g>
       <use xlink:href="#mae5bba083e" x="665.8" y="212.41" style="fill: #9467bd; stroke: #9467bd; stroke-width: 0.8"/>
      </g>
     </g>
     <g id="text_50">
      <!-- 15.0 -->
      <g style="fill: #9467bd" transform="translate(672.8 216.209219) scale(0.1 -0.1)">
       <use xlink:href="#DejaVuSans-31"/>
       <use xlink:href="#DejaVuSans-35" x="63.623047"/>
       <use xlink:href="#DejaVuSans-2e" x="127.246094"/>
       <use xlink:href="#DejaVuSans-30" x="159.033203"/>
      </g>
     </g>
    </g>
    <g id="ytick_37">
     <g id="line2d_63">
      <g>
       <use xlink:href="#mae5bba083e" x="665.8" y="177.2" style="fill: #9467bd; stroke: #9467bd; stroke-width: 0.8"/>
      </g>
     </g>
     <g id="text_51">
      <!-- 20.0 -->
      <g style="fill: #9467bd" transform="translate(672.8 180.999219) scale(0.1 -0.1)">
       <use xlink:href="#DejaVuSans-32"/>
       <use xlink:href="#DejaVuSans-30" x="63.623047"/>
       <use xlink:href="#DejaVuSans-2e" x="127.246094"/>
       <use xlink:href="#DejaVuSans-30" x="159.033203"/>
      </g>
     </g>
    </g>
    <g id="ytick_38">
     <g id="line2d_64">
      <g>
       <use xlink:href="#mae5bba083e" x="665.8" y="141.99" style="fill: #9467bd; stroke: #9467bd; stroke-width: 0.8"/>
      </g>
     </g>
     <g id="text_52">
      <!-- 25.0 -->
      <g style="fill: #9467bd" transform="translate(672.8 145.789219) scale(0.1 -0.1)">
       <use xlink:href="#DejaVuSans-32"/>
       <use xlink:href="#DejaVuSans-35" x="63.623047"/>
       <use xlink:href="#DejaVuSans-2e" x="127.246094"/>
       <use xlink:href="#DejaVuSans-30" x="159.033203"/>
      </g>
     </g>
    </g>
    <g id="ytick_39">
     <g id="line2d_65">
      <g>
       <use xlink:href="#mae5bba083e" x="665.8" y="106.78" style="fill: #9467bd; stroke: #9467bd; stroke-width: 0.8"/>
      </g>
     </g>
     <g id="text_53">
      <!-- 30.0 -->
      <g style="fill: #9467bd" transform="translate(672.8 110.579219) scale(0.1 -0.1)">
       <use xlink:href="#DejaVuSans-33"/>
       <use xlink:href="#DejaVuSans-30" x="63.623047"/>
       <use xlink:href="#DejaVuSans-2e" x="127.246094"/>
       <use xlink:href="#DejaVuSans-30" x="159.033203"/>
      </g>
     </g>
    </g>
    <g id="ytick_40">
     <g id="line2d_66">
      <g>
       <use xlink:href="#mae5bba083e" x="665.8" y="71.57" style="fill: #9467bd; stroke: #9467bd; stroke-width: 0.8"/>
      </g>
     </g>
     <g id="text_54">
      <!-- 35.0 -->
      <g style="fill: #9467bd" transform="translate(672.8 75.369219) scale(0.1 -0.1)">
       <use xlink:href="#DejaVuSans-33"/>
       <use xlink:href="#DejaVuSans-35" x="63.623047"/>
       <use xlink:href="#DejaVuSans-2e" x="127.246094"/>
       <use xlink:href="#DejaVuSans-30" x="159.033203"/>
      </g>
     </g>
    </g>
    <g id="ytick_41">
     <g id="line2d_67">
      <g>
       <use xlink:href="#mae5bba083e" x="665.8" y="36.36" style="fill: #9467bd; stroke: #9467bd; stroke-width: 0.8"/>
      </g>
     </g>
     <g id="text_55">
      <!-- 40.0 -->
      <g style="fill: #9467bd" transform="translate(672.8 40.159219) scale(0.1 -0.1)">
       <use xlink:href="#DejaVuSans-34"/>
       <use xlink:href="#DejaVuSans-30" x="63.623047"/>
       <use xlink:href="#DejaVuSans-2e" x="127.246094"/>
       <use xlink:href="#DejaVuSans-30" x="159.033203"/>
      </g>
     </g>
    </g>
    <g id="text_56">
     <!-- Persistent Pollution (index) -->
     <g style="fill: #9467bd" transform="translate(706.664062 244.107031) rotate(-90) scale(0.1 -0.1)">
      <defs>
       <path id="DejaVuSans-78" d="M 3513 3500 
L 2247 1797 
L 3578 0 
L 2900 0 
L 1881 1375 
L 863 0 
L 184 0 
L 1544 1831 
L 300 3500 
L 978 3500 
L 1906 2253 
L 2834 3500 
L 3513 3500 
z
" transform="scale(0.015625)"/>
      </defs>
      <use xlink:href="#DejaVuSans-50"/>
      <use xlink:href="#DejaVuSans-65" x="56.677734"/>
      <use xlink:href="#DejaVuSans-72" x="118.201172"/>
      <use xlink:href="#DejaVuSans-73" x="159.314453"/>
      <use xlink:href="#DejaVuSans-69" x="211.414062"/>
      <use xlink:href="#DejaVuSans-73" x="239.197266"/>
      <use xlink:href="#DejaVuSans-74" x="291.296875"/>
      <use xlink:href="#DejaVuSans-65" x="330.505859"/>
      <use xlink:href="#DejaVuSans-6e" x="392.029297"/>
      <use xlink:href="#DejaVuSans-74" x="455.408203"/>
      <use xlink:href="#DejaVuSans-20" x="494.617188"/>
      <use xlink:href="#DejaVuSans-50" x="526.404297"/>
      <use xlink:href="#DejaVuSans-6f" x="583.082031"/>
      <use xlink:href="#DejaVuSans-6c" x="644.263672"/>
      <use xlink:href="#DejaVuSans-6c" x="672.046875"/>
      <use xlink:href="#DejaVuSans-75" x="699.830078"/>
      <use xlink:href="#DejaVuSans-74" x="763.208984"/>
      <use xlink:href="#DejaVuSans-69" x="802.417969"/>
      <use xlink:href="#DejaVuSans-6f" x="830.201172"/>
      <use xlink:href="#DejaVuSans-6e" x="891.382812"/>
      <use xlink:href="#DejaVuSans-20" x="954.761719"/>
      <use xlink:href="#DejaVuSans-28" x="986.548828"/>
      <use xlink:href="#DejaVuSans-69" x="1025.5625"/>
      <use xlink:href="#DejaVuSans-6e" x="1053.345703"/>
      <use xlink:href="#DejaVuSans-64" x="1116.724609"/>
      <use xlink:href="#DejaVuSans-65" x="1180.201172"/>
      <use xlink:href="#DejaVuSans-78" x="1239.974609"/>
      <use xlink:href="#DejaVuSans-29" x="1299.154297"/>
     </g>
    </g>
   </g>
   <g id="line2d_68">
    <path d="M 82.414545 316.745515 
L 87.968463 316.86812 
L 101.297865 316.880142 
L 119.440662 316.695899 
L 136.842937 316.297898 
L 153.50469 315.699312 
L 168.315137 314.954695 
L 181.644539 314.069269 
L 193.863158 313.035953 
L 204.600732 311.912393 
L 214.597783 310.64429 
L 222.373268 309.436074 
L 229.40823 308.125328 
L 235.70267 306.735574 
L 241.626849 305.209558 
L 247.551027 303.448255 
L 253.104945 301.564952 
L 258.658862 299.440547 
L 263.842519 297.224729 
L 268.655914 294.943828 
L 273.469309 292.413799 
L 277.912443 289.823131 
L 281.985316 287.205387 
L 286.058189 284.330486 
L 290.131062 281.174719 
L 293.833674 278.04022 
L 297.536285 274.630626 
L 301.238897 270.924251 
L 304.941509 266.899605 
L 308.64412 262.534296 
L 312.346732 257.803867 
L 316.049344 252.682283 
L 319.751956 247.143864 
L 323.454567 241.165063 
L 326.786918 235.368583 
L 330.119268 229.109157 
L 333.081358 223.089911 
L 336.043447 216.581201 
L 339.005536 209.525476 
L 341.967626 201.864123 
L 344.929715 193.537744 
L 347.891805 184.488918 
L 350.853894 174.665684 
L 353.815983 164.024564 
L 356.778073 152.533642 
L 359.740162 140.175947 
L 363.072513 125.239836 
L 366.404863 109.243676 
L 370.107475 90.321068 
L 374.180348 68.314873 
L 379.734265 36.929762 
L 386.369219 -1 
M 449.877843 -1 
L 452.305455 16.151034 
L 452.305455 16.151034 
" clip-path="url(#pbf85ac7e46)" style="fill: none; stroke: #9467bd; stroke-width: 1.5; stroke-linecap: square"/>
   </g>
   <g id="line2d_69">
    <path d="M 82.414545 316.745515 
L 87.968463 316.86812 
L 101.297865 316.880251 
L 119.440662 316.696627 
L 136.842937 316.29803 
L 153.50469 315.695854 
L 168.315137 314.946148 
L 181.644539 314.050569 
L 193.492897 313.034351 
L 204.23047 311.896463 
L 213.857261 310.664618 
L 221.632745 309.442181 
L 228.297447 308.179171 
L 234.591886 306.762261 
L 240.516065 305.198797 
L 246.069983 303.508216 
L 251.6239 301.581046 
L 256.807557 299.552869 
L 261.991213 297.28726 
L 266.804608 294.951554 
L 271.618003 292.360469 
L 276.061138 289.70665 
L 280.13401 287.023182 
L 284.206883 284.072612 
L 288.279756 280.828769 
L 291.982368 277.601756 
L 295.68498 274.08571 
L 299.387591 270.25675 
L 303.090203 266.095549 
L 306.792815 261.59008 
L 310.495426 256.732577 
L 314.198038 251.516481 
L 317.90065 245.935021 
L 321.603261 239.979054 
L 325.305873 233.611616 
L 328.638224 227.452074 
L 331.970574 220.790937 
L 334.932664 214.374083 
L 337.894753 207.427481 
L 340.856842 199.892152 
L 343.818932 191.708939 
L 346.781021 182.818784 
L 349.74311 173.16385 
L 352.7052 162.688887 
L 355.667289 151.343958 
L 358.629378 139.088779 
L 361.591468 125.898058 
L 364.553557 111.766727 
L 367.885908 94.770017 
L 371.588519 74.606398 
L 375.661392 51.077805 
L 380.845049 19.662347 
L 384.185212 -1 
L 384.185212 -1 
" clip-path="url(#pbf85ac7e46)" style="fill: none; stroke-dasharray: 1.85,0.8; stroke-dashoffset: 0; stroke: #9467bd; stroke-width: 0.5"/>
   </g>
   <g id="patch_19">
    <path d="M 63.92 318.04 
L 63.92 36.36 
" style="fill: none; stroke: #000000; stroke-width: 0.8; stroke-linejoin: miter; stroke-linecap: square"/>
   </g>
   <g id="patch_20">
    <path d="M 665.8 318.04 
L 665.8 36.36 
" style="fill: none; stroke: #000000; stroke-width: 0.8; stroke-linejoin: miter; stroke-linecap: square"/>
   </g>
   <g id="patch_21">
    <path d="M 63.92 318.04 
L 470.8 318.04 
" style="fill: none; stroke: #000000; stroke-width: 0.8; stroke-linejoin: miter; stroke-linecap: square"/>
   </g>
   <g id="patch_22">
    <path d="M 63.92 36.36 
L 470.8 36.36 
" style="fill: none; stroke: #000000; stroke-width: 0.8; stroke-linejoin: miter; stroke-linecap: square"/>
   </g>
  </g>
  <g id="text_57">
   <!-- BAU2 -->
   <g transform="translate(343.570312 16.318125) scale(0.12 -0.12)">
    <defs>
     <path id="DejaVuSans-42" d="M 1259 2228 
L 1259 519 
L 2272 519 
Q 2781 519 3026 730 
Q 3272 941 3272 1375 
Q 3272 1813 3026 2020 
Q 2781 2228 2272 2228 
L 1259 2228 
z
M 1259 4147 
L 1259 2741 
L 2194 2741 
Q 2656 2741 2882 2914 
Q 3109 3088 3109 3444 
Q 3109 3797 2882 3972 
Q 2656 4147 2194 4147 
L 1259 4147 
z
M 628 4666 
L 2241 4666 
Q 2963 4666 3353 4366 
Q 3744 4066 3744 3513 
Q 3744 3084 3544 2831 
Q 3344 2578 2956 2516 
Q 3422 2416 3680 2098 
Q 3938 1781 3938 1306 
Q 3938 681 3513 340 
Q 3088 0 2303 0 
L 628 0 
L 628 4666 
z
" transform="scale(0.015625)"/>
     <path id="DejaVuSans-41" d="M 2188 4044 
L 1331 1722 
L 3047 1722 
L 2188 4044 
z
M 1831 4666 
L 2547 4666 
L 4325 0 
L 3669 0 
L 3244 1197 
L 1141 1197 
L 716 0 
L 50 0 
L 1831 4666 
z
" transform="scale(0.015625)"/>
     <path id="DejaVuSans-55" d="M 556 4666 
L 1191 4666 
L 1191 1831 
Q 1191 1081 1462 751 
Q 1734 422 2344 422 
Q 2950 422 3222 751 
Q 3494 1081 3494 1831 
L 3494 4666 
L 4128 4666 
L 4128 1753 
Q 4128 841 3676 375 
Q 3225 -91 2344 -91 
Q 1459 -91 1007 375 
Q 556 841 556 1753 
L 556 4666 
z
" transform="scale(0.015625)"/>
    </defs>
    <use xlink:href="#DejaVuSans-42"/>
    <use xlink:href="#DejaVuSans-41" x="68.603516"/>
    <use xlink:href="#DejaVuSans-55" x="137.011719"/>
    <use xlink:href="#DejaVuSans-32" x="210.205078"/>
   </g>
  </g>
 </g>
 <defs>
  <clipPath id="pbf85ac7e46">
   <rect x="63.92" y="36.36" width="406.88" height="281.68"/>
  </clipPath>
 </defs>
</svg>
