<?xml version="1.0" encoding="utf-8" standalone="no"?>
<!DOCTYPE svg PUBLIC "-//W3C//DTD SVG 1.1//EN"
  "http://www.w3.org/Graphics/SVG/1.1/DTD/svg11.dtd">
<svg xmlns:xlink="http://www.w3.org/1999/xlink" width="720pt" height="360pt" viewBox="0 0 720 360" xmlns="http://www.w3.org/2000/svg" version="1.1">
 <metadata>
  <rdf:RDF xmlns:dc="http://purl.org/dc/elements/1.1/" xmlns:cc="http://creativecommons.org/ns#" xmlns:rdf="http://www.w3.org/1999/02/22-rdf-syntax-ns#">
   <cc:Work>
    <dc:type rdf:resource="http://purl.org/dc/dcmitype/StillImage"/>
    <dc:date>2024-11-03T09:39:26.321784</dc:date>
    <dc:format>image/svg+xml</dc:format>
    <dc:creator>
     <cc:Agent>
      <dc:title>Matplotlib v3.6.3, https://matplotlib.org/</dc:title>
     </cc:Agent>
    </dc:creator>
   </cc:Work>
  </rdf:RDF>
 </metadata>
 <defs>
  <style type="text/css">*{stroke-linejoin: round; stroke-linecap: butt}</style>
 </defs>
 <g id="figure_1">
  <g id="patch_1">
   <path d="M 0 360 
L 720 360 
L 720 0 
L 0 0 
z
" style="fill: #ffffff"/>
  </g>
  <g id="axes_1">
   <g id="patch_2">
    <path d="M 63.92 318.04 
L 470.8 318.04 
L 470.8 36.36 
L 63.92 36.36 
z
" style="fill: #ffffff"/>
   </g>
   <g id="matplotlib.axis_1">
    <g id="xtick_1">
     <g id="line2d_1">
      <path d="M 82.414545 318.04 
L 82.414545 36.36 
" clip-path="url(#p221cecf35a)" style="fill: none; stroke-dasharray: 0.8,1.32; stroke-dashoffset: 0; stroke: #b0b0b0; stroke-width: 0.8"/>
     </g>
     <g id="line2d_2">
      <defs>
       <path id="m9373ae7904" d="M 0 0 
L 0 3.5 
" style="stroke: #000000; stroke-width: 0.8"/>
      </defs>
      <g>
       <use xlink:href="#m9373ae7904" x="82.414545" y="318.04" style="stroke: #000000; stroke-width: 0.8"/>
      </g>
     </g>
     <g id="text_1">
      <!-- 1900 -->
      <g transform="translate(69.689545 332.638438) scale(0.1 -0.1)">
       <defs>
        <path id="DejaVuSans-31" d="M 794 531 
L 1825 531 
L 1825 4091 
L 703 3866 
L 703 4441 
L 1819 4666 
L 2450 4666 
L 2450 531 
L 3481 531 
L 3481 0 
L 794 0 
L 794 531 
z
" transform="scale(0.015625)"/>
        <path id="DejaVuSans-39" d="M 703 97 
L 703 672 
Q 941 559 1184 500 
Q 1428 441 1663 441 
Q 2288 441 2617 861 
Q 2947 1281 2994 2138 
Q 2813 1869 2534 1725 
Q 2256 1581 1919 1581 
Q 1219 1581 811 2004 
Q 403 2428 403 3163 
Q 403 3881 828 4315 
Q 1253 4750 1959 4750 
Q 2769 4750 3195 4129 
Q 3622 3509 3622 2328 
Q 3622 1225 3098 567 
Q 2575 -91 1691 -91 
Q 1453 -91 1209 -44 
Q 966 3 703 97 
z
M 1959 2075 
Q 2384 2075 2632 2365 
Q 2881 2656 2881 3163 
Q 2881 3666 2632 3958 
Q 2384 4250 1959 4250 
Q 1534 4250 1286 3958 
Q 1038 3666 1038 3163 
Q 1038 2656 1286 2365 
Q 1534 2075 1959 2075 
z
" transform="scale(0.015625)"/>
        <path id="DejaVuSans-30" d="M 2034 4250 
Q 1547 4250 1301 3770 
Q 1056 3291 1056 2328 
Q 1056 1369 1301 889 
Q 1547 409 2034 409 
Q 2525 409 2770 889 
Q 3016 1369 3016 2328 
Q 3016 3291 2770 3770 
Q 2525 4250 2034 4250 
z
M 2034 4750 
Q 2819 4750 3233 4129 
Q 3647 3509 3647 2328 
Q 3647 1150 3233 529 
Q 2819 -91 2034 -91 
Q 1250 -91 836 529 
Q 422 1150 422 2328 
Q 422 3509 836 4129 
Q 1250 4750 2034 4750 
z
" transform="scale(0.015625)"/>
       </defs>
       <use xlink:href="#DejaVuSans-31"/>
       <use xlink:href="#DejaVuSans-39" x="63.623047"/>
       <use xlink:href="#DejaVuSans-30" x="127.246094"/>
       <use xlink:href="#DejaVuSans-30" x="190.869141"/>
      </g>
     </g>
    </g>
    <g id="xtick_2">
     <g id="line2d_3">
      <path d="M 128.76679 318.04 
L 128.76679 36.36 
" clip-path="url(#p221cecf35a)" style="fill: none; stroke-dasharray: 0.8,1.32; stroke-dashoffset: 0; stroke: #b0b0b0; stroke-width: 0.8"/>
     </g>
     <g id="line2d_4">
      <g>
       <use xlink:href="#m9373ae7904" x="128.76679" y="318.04" style="stroke: #000000; stroke-width: 0.8"/>
      </g>
     </g>
     <g id="text_2">
      <!-- 1925 -->
      <g transform="translate(116.04179 332.638438) scale(0.1 -0.1)">
       <defs>
        <path id="DejaVuSans-32" d="M 1228 531 
L 3431 531 
L 3431 0 
L 469 0 
L 469 531 
Q 828 903 1448 1529 
Q 2069 2156 2228 2338 
Q 2531 2678 2651 2914 
Q 2772 3150 2772 3378 
Q 2772 3750 2511 3984 
Q 2250 4219 1831 4219 
Q 1534 4219 1204 4116 
Q 875 4013 500 3803 
L 500 4441 
Q 881 4594 1212 4672 
Q 1544 4750 1819 4750 
Q 2544 4750 2975 4387 
Q 3406 4025 3406 3419 
Q 3406 3131 3298 2873 
Q 3191 2616 2906 2266 
Q 2828 2175 2409 1742 
Q 1991 1309 1228 531 
z
" transform="scale(0.015625)"/>
        <path id="DejaVuSans-35" d="M 691 4666 
L 3169 4666 
L 3169 4134 
L 1269 4134 
L 1269 2991 
Q 1406 3038 1543 3061 
Q 1681 3084 1819 3084 
Q 2600 3084 3056 2656 
Q 3513 2228 3513 1497 
Q 3513 744 3044 326 
Q 2575 -91 1722 -91 
Q 1428 -91 1123 -41 
Q 819 9 494 109 
L 494 744 
Q 775 591 1075 516 
Q 1375 441 1709 441 
Q 2250 441 2565 725 
Q 2881 1009 2881 1497 
Q 2881 1984 2565 2268 
Q 2250 2553 1709 2553 
Q 1456 2553 1204 2497 
Q 953 2441 691 2322 
L 691 4666 
z
" transform="scale(0.015625)"/>
       </defs>
       <use xlink:href="#DejaVuSans-31"/>
       <use xlink:href="#DejaVuSans-39" x="63.623047"/>
       <use xlink:href="#DejaVuSans-32" x="127.246094"/>
       <use xlink:href="#DejaVuSans-35" x="190.869141"/>
      </g>
     </g>
    </g>
    <g id="xtick_3">
     <g id="line2d_5">
      <path d="M 175.119034 318.04 
L 175.119034 36.36 
" clip-path="url(#p221cecf35a)" style="fill: none; stroke-dasharray: 0.8,1.32; stroke-dashoffset: 0; stroke: #b0b0b0; stroke-width: 0.8"/>
     </g>
     <g id="line2d_6">
      <g>
       <use xlink:href="#m9373ae7904" x="175.119034" y="318.04" style="stroke: #000000; stroke-width: 0.8"/>
      </g>
     </g>
     <g id="text_3">
      <!-- 1950 -->
      <g transform="translate(162.394034 332.638438) scale(0.1 -0.1)">
       <use xlink:href="#DejaVuSans-31"/>
       <use xlink:href="#DejaVuSans-39" x="63.623047"/>
       <use xlink:href="#DejaVuSans-35" x="127.246094"/>
       <use xlink:href="#DejaVuSans-30" x="190.869141"/>
      </g>
     </g>
    </g>
    <g id="xtick_4">
     <g id="line2d_7">
      <path d="M 221.471278 318.04 
L 221.471278 36.36 
" clip-path="url(#p221cecf35a)" style="fill: none; stroke-dasharray: 0.8,1.32; stroke-dashoffset: 0; stroke: #b0b0b0; stroke-width: 0.8"/>
     </g>
     <g id="line2d_8">
      <g>
       <use xlink:href="#m9373ae7904" x="221.471278" y="318.04" style="stroke: #000000; stroke-width: 0.8"/>
      </g>
     </g>
     <g id="text_4">
      <!-- 1975 -->
      <g transform="translate(208.746278 332.638438) scale(0.1 -0.1)">
       <defs>
        <path id="DejaVuSans-37" d="M 525 4666 
L 3525 4666 
L 3525 4397 
L 1831 0 
L 1172 0 
L 2766 4134 
L 525 4134 
L 525 4666 
z
" transform="scale(0.015625)"/>
       </defs>
       <use xlink:href="#DejaVuSans-31"/>
       <use xlink:href="#DejaVuSans-39" x="63.623047"/>
       <use xlink:href="#DejaVuSans-37" x="127.246094"/>
       <use xlink:href="#DejaVuSans-35" x="190.869141"/>
      </g>
     </g>
    </g>
    <g id="xtick_5">
     <g id="line2d_9">
      <path d="M 267.823522 318.04 
L 267.823522 36.36 
" clip-path="url(#p221cecf35a)" style="fill: none; stroke-dasharray: 0.8,1.32; stroke-dashoffset: 0; stroke: #b0b0b0; stroke-width: 0.8"/>
     </g>
     <g id="line2d_10">
      <g>
       <use xlink:href="#m9373ae7904" x="267.823522" y="318.04" style="stroke: #000000; stroke-width: 0.8"/>
      </g>
     </g>
     <g id="text_5">
      <!-- 2000 -->
      <g transform="translate(255.098522 332.638438) scale(0.1 -0.1)">
       <use xlink:href="#DejaVuSans-32"/>
       <use xlink:href="#DejaVuSans-30" x="63.623047"/>
       <use xlink:href="#DejaVuSans-30" x="127.246094"/>
       <use xlink:href="#DejaVuSans-30" x="190.869141"/>
      </g>
     </g>
    </g>
    <g id="xtick_6">
     <g id="line2d_11">
      <path d="M 314.175767 318.04 
L 314.175767 36.36 
" clip-path="url(#p221cecf35a)" style="fill: none; stroke-dasharray: 0.8,1.32; stroke-dashoffset: 0; stroke: #b0b0b0; stroke-width: 0.8"/>
     </g>
     <g id="line2d_12">
      <g>
       <use xlink:href="#m9373ae7904" x="314.175767" y="318.04" style="stroke: #000000; stroke-width: 0.8"/>
      </g>
     </g>
     <g id="text_6">
      <!-- 2025 -->
      <g transform="translate(301.450767 332.638438) scale(0.1 -0.1)">
       <use xlink:href="#DejaVuSans-32"/>
       <use xlink:href="#DejaVuSans-30" x="63.623047"/>
       <use xlink:href="#DejaVuSans-32" x="127.246094"/>
       <use xlink:href="#DejaVuSans-35" x="190.869141"/>
      </g>
     </g>
    </g>
    <g id="xtick_7">
     <g id="line2d_13">
      <path d="M 360.528011 318.04 
L 360.528011 36.36 
" clip-path="url(#p221cecf35a)" style="fill: none; stroke-dasharray: 0.8,1.32; stroke-dashoffset: 0; stroke: #b0b0b0; stroke-width: 0.8"/>
     </g>
     <g id="line2d_14">
      <g>
       <use xlink:href="#m9373ae7904" x="360.528011" y="318.04" style="stroke: #000000; stroke-width: 0.8"/>
      </g>
     </g>
     <g id="text_7">
      <!-- 2050 -->
      <g transform="translate(347.803011 332.638438) scale(0.1 -0.1)">
       <use xlink:href="#DejaVuSans-32"/>
       <use xlink:href="#DejaVuSans-30" x="63.623047"/>
       <use xlink:href="#DejaVuSans-35" x="127.246094"/>
       <use xlink:href="#DejaVuSans-30" x="190.869141"/>
      </g>
     </g>
    </g>
    <g id="xtick_8">
     <g id="line2d_15">
      <path d="M 406.880255 318.04 
L 406.880255 36.36 
" clip-path="url(#p221cecf35a)" style="fill: none; stroke-dasharray: 0.8,1.32; stroke-dashoffset: 0; stroke: #b0b0b0; stroke-width: 0.8"/>
     </g>
     <g id="line2d_16">
      <g>
       <use xlink:href="#m9373ae7904" x="406.880255" y="318.04" style="stroke: #000000; stroke-width: 0.8"/>
      </g>
     </g>
     <g id="text_8">
      <!-- 2075 -->
      <g transform="translate(394.155255 332.638438) scale(0.1 -0.1)">
       <use xlink:href="#DejaVuSans-32"/>
       <use xlink:href="#DejaVuSans-30" x="63.623047"/>
       <use xlink:href="#DejaVuSans-37" x="127.246094"/>
       <use xlink:href="#DejaVuSans-35" x="190.869141"/>
      </g>
     </g>
    </g>
    <g id="xtick_9">
     <g id="line2d_17">
      <path d="M 453.232499 318.04 
L 453.232499 36.36 
" clip-path="url(#p221cecf35a)" style="fill: none; stroke-dasharray: 0.8,1.32; stroke-dashoffset: 0; stroke: #b0b0b0; stroke-width: 0.8"/>
     </g>
     <g id="line2d_18">
      <g>
       <use xlink:href="#m9373ae7904" x="453.232499" y="318.04" style="stroke: #000000; stroke-width: 0.8"/>
      </g>
     </g>
     <g id="text_9">
      <!-- 2100 -->
      <g transform="translate(440.507499 332.638438) scale(0.1 -0.1)">
       <use xlink:href="#DejaVuSans-32"/>
       <use xlink:href="#DejaVuSans-31" x="63.623047"/>
       <use xlink:href="#DejaVuSans-30" x="127.246094"/>
       <use xlink:href="#DejaVuSans-30" x="190.869141"/>
      </g>
     </g>
    </g>
    <g id="text_10">
     <!-- Year -->
     <g transform="translate(256.7725 346.316563) scale(0.1 -0.1)">
      <defs>
       <path id="DejaVuSans-59" d="M -13 4666 
L 666 4666 
L 1959 2747 
L 3244 4666 
L 3922 4666 
L 2272 2222 
L 2272 0 
L 1638 0 
L 1638 2222 
L -13 4666 
z
" transform="scale(0.015625)"/>
       <path id="DejaVuSans-65" d="M 3597 1894 
L 3597 1613 
L 953 1613 
Q 991 1019 1311 708 
Q 1631 397 2203 397 
Q 2534 397 2845 478 
Q 3156 559 3463 722 
L 3463 178 
Q 3153 47 2828 -22 
Q 2503 -91 2169 -91 
Q 1331 -91 842 396 
Q 353 884 353 1716 
Q 353 2575 817 3079 
Q 1281 3584 2069 3584 
Q 2775 3584 3186 3129 
Q 3597 2675 3597 1894 
z
M 3022 2063 
Q 3016 2534 2758 2815 
Q 2500 3097 2075 3097 
Q 1594 3097 1305 2825 
Q 1016 2553 972 2059 
L 3022 2063 
z
" transform="scale(0.015625)"/>
       <path id="DejaVuSans-61" d="M 2194 1759 
Q 1497 1759 1228 1600 
Q 959 1441 959 1056 
Q 959 750 1161 570 
Q 1363 391 1709 391 
Q 2188 391 2477 730 
Q 2766 1069 2766 1631 
L 2766 1759 
L 2194 1759 
z
M 3341 1997 
L 3341 0 
L 2766 0 
L 2766 531 
Q 2569 213 2275 61 
Q 1981 -91 1556 -91 
Q 1019 -91 701 211 
Q 384 513 384 1019 
Q 384 1609 779 1909 
Q 1175 2209 1959 2209 
L 2766 2209 
L 2766 2266 
Q 2766 2663 2505 2880 
Q 2244 3097 1772 3097 
Q 1472 3097 1187 3025 
Q 903 2953 641 2809 
L 641 3341 
Q 956 3463 1253 3523 
Q 1550 3584 1831 3584 
Q 2591 3584 2966 3190 
Q 3341 2797 3341 1997 
z
" transform="scale(0.015625)"/>
       <path id="DejaVuSans-72" d="M 2631 2963 
Q 2534 3019 2420 3045 
Q 2306 3072 2169 3072 
Q 1681 3072 1420 2755 
Q 1159 2438 1159 1844 
L 1159 0 
L 581 0 
L 581 3500 
L 1159 3500 
L 1159 2956 
Q 1341 3275 1631 3429 
Q 1922 3584 2338 3584 
Q 2397 3584 2469 3576 
Q 2541 3569 2628 3553 
L 2631 2963 
z
" transform="scale(0.015625)"/>
      </defs>
      <use xlink:href="#DejaVuSans-59"/>
      <use xlink:href="#DejaVuSans-65" x="47.833984"/>
      <use xlink:href="#DejaVuSans-61" x="109.357422"/>
      <use xlink:href="#DejaVuSans-72" x="170.636719"/>
     </g>
    </g>
   </g>
   <g id="matplotlib.axis_2">
    <g id="ytick_1">
     <g id="line2d_19">
      <defs>
       <path id="m25d15efb50" d="M 0 0 
L -3.5 0 
" style="stroke: #1f77b4; stroke-width: 0.8"/>
      </defs>
      <g>
       <use xlink:href="#m25d15efb50" x="63.92" y="318.04" style="fill: #1f77b4; stroke: #1f77b4; stroke-width: 0.8"/>
      </g>
     </g>
     <g id="text_11">
      <!-- 0.0 -->
      <g style="fill: #1f77b4" transform="translate(41.016875 321.839219) scale(0.1 -0.1)">
       <defs>
        <path id="DejaVuSans-2e" d="M 684 794 
L 1344 794 
L 1344 0 
L 684 0 
L 684 794 
z
" transform="scale(0.015625)"/>
       </defs>
       <use xlink:href="#DejaVuSans-30"/>
       <use xlink:href="#DejaVuSans-2e" x="63.623047"/>
       <use xlink:href="#DejaVuSans-30" x="95.410156"/>
      </g>
     </g>
    </g>
    <g id="ytick_2">
     <g id="line2d_20">
      <g>
       <use xlink:href="#m25d15efb50" x="63.92" y="261.704" style="fill: #1f77b4; stroke: #1f77b4; stroke-width: 0.8"/>
      </g>
     </g>
     <g id="text_12">
      <!-- 2.0 G -->
      <g style="fill: #1f77b4" transform="translate(31.271563 265.503219) scale(0.1 -0.1)">
       <defs>
        <path id="DejaVuSans-2009" transform="scale(0.015625)"/>
        <path id="DejaVuSans-47" d="M 3809 666 
L 3809 1919 
L 2778 1919 
L 2778 2438 
L 4434 2438 
L 4434 434 
Q 4069 175 3628 42 
Q 3188 -91 2688 -91 
Q 1594 -91 976 548 
Q 359 1188 359 2328 
Q 359 3472 976 4111 
Q 1594 4750 2688 4750 
Q 3144 4750 3555 4637 
Q 3966 4525 4313 4306 
L 4313 3634 
Q 3963 3931 3569 4081 
Q 3175 4231 2741 4231 
Q 1884 4231 1454 3753 
Q 1025 3275 1025 2328 
Q 1025 1384 1454 906 
Q 1884 428 2741 428 
Q 3075 428 3337 486 
Q 3600 544 3809 666 
z
" transform="scale(0.015625)"/>
       </defs>
       <use xlink:href="#DejaVuSans-32"/>
       <use xlink:href="#DejaVuSans-2e" x="63.623047"/>
       <use xlink:href="#DejaVuSans-30" x="95.410156"/>
       <use xlink:href="#DejaVuSans-2009" x="159.033203"/>
       <use xlink:href="#DejaVuSans-47" x="179.003906"/>
      </g>
     </g>
    </g>
    <g id="ytick_3">
     <g id="line2d_21">
      <g>
       <use xlink:href="#m25d15efb50" x="63.92" y="205.368" style="fill: #1f77b4; stroke: #1f77b4; stroke-width: 0.8"/>
      </g>
     </g>
     <g id="text_13">
      <!-- 4.0 G -->
      <g style="fill: #1f77b4" transform="translate(31.271563 209.167219) scale(0.1 -0.1)">
       <defs>
        <path id="DejaVuSans-34" d="M 2419 4116 
L 825 1625 
L 2419 1625 
L 2419 4116 
z
M 2253 4666 
L 3047 4666 
L 3047 1625 
L 3713 1625 
L 3713 1100 
L 3047 1100 
L 3047 0 
L 2419 0 
L 2419 1100 
L 313 1100 
L 313 1709 
L 2253 4666 
z
" transform="scale(0.015625)"/>
       </defs>
       <use xlink:href="#DejaVuSans-34"/>
       <use xlink:href="#DejaVuSans-2e" x="63.623047"/>
       <use xlink:href="#DejaVuSans-30" x="95.410156"/>
       <use xlink:href="#DejaVuSans-2009" x="159.033203"/>
       <use xlink:href="#DejaVuSans-47" x="179.003906"/>
      </g>
     </g>
    </g>
    <g id="ytick_4">
     <g id="line2d_22">
      <g>
       <use xlink:href="#m25d15efb50" x="63.92" y="149.032" style="fill: #1f77b4; stroke: #1f77b4; stroke-width: 0.8"/>
      </g>
     </g>
     <g id="text_14">
      <!-- 6.0 G -->
      <g style="fill: #1f77b4" transform="translate(31.271563 152.831219) scale(0.1 -0.1)">
       <defs>
        <path id="DejaVuSans-36" d="M 2113 2584 
Q 1688 2584 1439 2293 
Q 1191 2003 1191 1497 
Q 1191 994 1439 701 
Q 1688 409 2113 409 
Q 2538 409 2786 701 
Q 3034 994 3034 1497 
Q 3034 2003 2786 2293 
Q 2538 2584 2113 2584 
z
M 3366 4563 
L 3366 3988 
Q 3128 4100 2886 4159 
Q 2644 4219 2406 4219 
Q 1781 4219 1451 3797 
Q 1122 3375 1075 2522 
Q 1259 2794 1537 2939 
Q 1816 3084 2150 3084 
Q 2853 3084 3261 2657 
Q 3669 2231 3669 1497 
Q 3669 778 3244 343 
Q 2819 -91 2113 -91 
Q 1303 -91 875 529 
Q 447 1150 447 2328 
Q 447 3434 972 4092 
Q 1497 4750 2381 4750 
Q 2619 4750 2861 4703 
Q 3103 4656 3366 4563 
z
" transform="scale(0.015625)"/>
       </defs>
       <use xlink:href="#DejaVuSans-36"/>
       <use xlink:href="#DejaVuSans-2e" x="63.623047"/>
       <use xlink:href="#DejaVuSans-30" x="95.410156"/>
       <use xlink:href="#DejaVuSans-2009" x="159.033203"/>
       <use xlink:href="#DejaVuSans-47" x="179.003906"/>
      </g>
     </g>
    </g>
    <g id="ytick_5">
     <g id="line2d_23">
      <g>
       <use xlink:href="#m25d15efb50" x="63.92" y="92.696" style="fill: #1f77b4; stroke: #1f77b4; stroke-width: 0.8"/>
      </g>
     </g>
     <g id="text_15">
      <!-- 8.0 G -->
      <g style="fill: #1f77b4" transform="translate(31.271563 96.495219) scale(0.1 -0.1)">
       <defs>
        <path id="DejaVuSans-38" d="M 2034 2216 
Q 1584 2216 1326 1975 
Q 1069 1734 1069 1313 
Q 1069 891 1326 650 
Q 1584 409 2034 409 
Q 2484 409 2743 651 
Q 3003 894 3003 1313 
Q 3003 1734 2745 1975 
Q 2488 2216 2034 2216 
z
M 1403 2484 
Q 997 2584 770 2862 
Q 544 3141 544 3541 
Q 544 4100 942 4425 
Q 1341 4750 2034 4750 
Q 2731 4750 3128 4425 
Q 3525 4100 3525 3541 
Q 3525 3141 3298 2862 
Q 3072 2584 2669 2484 
Q 3125 2378 3379 2068 
Q 3634 1759 3634 1313 
Q 3634 634 3220 271 
Q 2806 -91 2034 -91 
Q 1263 -91 848 271 
Q 434 634 434 1313 
Q 434 1759 690 2068 
Q 947 2378 1403 2484 
z
M 1172 3481 
Q 1172 3119 1398 2916 
Q 1625 2713 2034 2713 
Q 2441 2713 2670 2916 
Q 2900 3119 2900 3481 
Q 2900 3844 2670 4047 
Q 2441 4250 2034 4250 
Q 1625 4250 1398 4047 
Q 1172 3844 1172 3481 
z
" transform="scale(0.015625)"/>
       </defs>
       <use xlink:href="#DejaVuSans-38"/>
       <use xlink:href="#DejaVuSans-2e" x="63.623047"/>
       <use xlink:href="#DejaVuSans-30" x="95.410156"/>
       <use xlink:href="#DejaVuSans-2009" x="159.033203"/>
       <use xlink:href="#DejaVuSans-47" x="179.003906"/>
      </g>
     </g>
    </g>
    <g id="ytick_6">
     <g id="line2d_24">
      <g>
       <use xlink:href="#m25d15efb50" x="63.92" y="36.36" style="fill: #1f77b4; stroke: #1f77b4; stroke-width: 0.8"/>
      </g>
     </g>
     <g id="text_16">
      <!-- 10.0 G -->
      <g style="fill: #1f77b4" transform="translate(24.909063 40.159219) scale(0.1 -0.1)">
       <use xlink:href="#DejaVuSans-31"/>
       <use xlink:href="#DejaVuSans-30" x="63.623047"/>
       <use xlink:href="#DejaVuSans-2e" x="127.246094"/>
       <use xlink:href="#DejaVuSans-30" x="159.033203"/>
       <use xlink:href="#DejaVuSans-2009" x="222.65625"/>
       <use xlink:href="#DejaVuSans-47" x="242.626953"/>
      </g>
     </g>
    </g>
    <g id="text_17">
     <!-- Total Population (capita) -->
     <g style="fill: #1f77b4" transform="translate(18.829375 237.623438) rotate(-90) scale(0.1 -0.1)">
      <defs>
       <path id="DejaVuSans-54" d="M -19 4666 
L 3928 4666 
L 3928 4134 
L 2272 4134 
L 2272 0 
L 1638 0 
L 1638 4134 
L -19 4134 
L -19 4666 
z
" transform="scale(0.015625)"/>
       <path id="DejaVuSans-6f" d="M 1959 3097 
Q 1497 3097 1228 2736 
Q 959 2375 959 1747 
Q 959 1119 1226 758 
Q 1494 397 1959 397 
Q 2419 397 2687 759 
Q 2956 1122 2956 1747 
Q 2956 2369 2687 2733 
Q 2419 3097 1959 3097 
z
M 1959 3584 
Q 2709 3584 3137 3096 
Q 3566 2609 3566 1747 
Q 3566 888 3137 398 
Q 2709 -91 1959 -91 
Q 1206 -91 779 398 
Q 353 888 353 1747 
Q 353 2609 779 3096 
Q 1206 3584 1959 3584 
z
" transform="scale(0.015625)"/>
       <path id="DejaVuSans-74" d="M 1172 4494 
L 1172 3500 
L 2356 3500 
L 2356 3053 
L 1172 3053 
L 1172 1153 
Q 1172 725 1289 603 
Q 1406 481 1766 481 
L 2356 481 
L 2356 0 
L 1766 0 
Q 1100 0 847 248 
Q 594 497 594 1153 
L 594 3053 
L 172 3053 
L 172 3500 
L 594 3500 
L 594 4494 
L 1172 4494 
z
" transform="scale(0.015625)"/>
       <path id="DejaVuSans-6c" d="M 603 4863 
L 1178 4863 
L 1178 0 
L 603 0 
L 603 4863 
z
" transform="scale(0.015625)"/>
       <path id="DejaVuSans-20" transform="scale(0.015625)"/>
       <path id="DejaVuSans-50" d="M 1259 4147 
L 1259 2394 
L 2053 2394 
Q 2494 2394 2734 2622 
Q 2975 2850 2975 3272 
Q 2975 3691 2734 3919 
Q 2494 4147 2053 4147 
L 1259 4147 
z
M 628 4666 
L 2053 4666 
Q 2838 4666 3239 4311 
Q 3641 3956 3641 3272 
Q 3641 2581 3239 2228 
Q 2838 1875 2053 1875 
L 1259 1875 
L 1259 0 
L 628 0 
L 628 4666 
z
" transform="scale(0.015625)"/>
       <path id="DejaVuSans-70" d="M 1159 525 
L 1159 -1331 
L 581 -1331 
L 581 3500 
L 1159 3500 
L 1159 2969 
Q 1341 3281 1617 3432 
Q 1894 3584 2278 3584 
Q 2916 3584 3314 3078 
Q 3713 2572 3713 1747 
Q 3713 922 3314 415 
Q 2916 -91 2278 -91 
Q 1894 -91 1617 61 
Q 1341 213 1159 525 
z
M 3116 1747 
Q 3116 2381 2855 2742 
Q 2594 3103 2138 3103 
Q 1681 3103 1420 2742 
Q 1159 2381 1159 1747 
Q 1159 1113 1420 752 
Q 1681 391 2138 391 
Q 2594 391 2855 752 
Q 3116 1113 3116 1747 
z
" transform="scale(0.015625)"/>
       <path id="DejaVuSans-75" d="M 544 1381 
L 544 3500 
L 1119 3500 
L 1119 1403 
Q 1119 906 1312 657 
Q 1506 409 1894 409 
Q 2359 409 2629 706 
Q 2900 1003 2900 1516 
L 2900 3500 
L 3475 3500 
L 3475 0 
L 2900 0 
L 2900 538 
Q 2691 219 2414 64 
Q 2138 -91 1772 -91 
Q 1169 -91 856 284 
Q 544 659 544 1381 
z
M 1991 3584 
L 1991 3584 
z
" transform="scale(0.015625)"/>
       <path id="DejaVuSans-69" d="M 603 3500 
L 1178 3500 
L 1178 0 
L 603 0 
L 603 3500 
z
M 603 4863 
L 1178 4863 
L 1178 4134 
L 603 4134 
L 603 4863 
z
" transform="scale(0.015625)"/>
       <path id="DejaVuSans-6e" d="M 3513 2113 
L 3513 0 
L 2938 0 
L 2938 2094 
Q 2938 2591 2744 2837 
Q 2550 3084 2163 3084 
Q 1697 3084 1428 2787 
Q 1159 2491 1159 1978 
L 1159 0 
L 581 0 
L 581 3500 
L 1159 3500 
L 1159 2956 
Q 1366 3272 1645 3428 
Q 1925 3584 2291 3584 
Q 2894 3584 3203 3211 
Q 3513 2838 3513 2113 
z
" transform="scale(0.015625)"/>
       <path id="DejaVuSans-28" d="M 1984 4856 
Q 1566 4138 1362 3434 
Q 1159 2731 1159 2009 
Q 1159 1288 1364 580 
Q 1569 -128 1984 -844 
L 1484 -844 
Q 1016 -109 783 600 
Q 550 1309 550 2009 
Q 550 2706 781 3412 
Q 1013 4119 1484 4856 
L 1984 4856 
z
" transform="scale(0.015625)"/>
       <path id="DejaVuSans-63" d="M 3122 3366 
L 3122 2828 
Q 2878 2963 2633 3030 
Q 2388 3097 2138 3097 
Q 1578 3097 1268 2742 
Q 959 2388 959 1747 
Q 959 1106 1268 751 
Q 1578 397 2138 397 
Q 2388 397 2633 464 
Q 2878 531 3122 666 
L 3122 134 
Q 2881 22 2623 -34 
Q 2366 -91 2075 -91 
Q 1284 -91 818 406 
Q 353 903 353 1747 
Q 353 2603 823 3093 
Q 1294 3584 2113 3584 
Q 2378 3584 2631 3529 
Q 2884 3475 3122 3366 
z
" transform="scale(0.015625)"/>
       <path id="DejaVuSans-29" d="M 513 4856 
L 1013 4856 
Q 1481 4119 1714 3412 
Q 1947 2706 1947 2009 
Q 1947 1309 1714 600 
Q 1481 -109 1013 -844 
L 513 -844 
Q 928 -128 1133 580 
Q 1338 1288 1338 2009 
Q 1338 2731 1133 3434 
Q 928 4138 513 4856 
z
" transform="scale(0.015625)"/>
      </defs>
      <use xlink:href="#DejaVuSans-54"/>
      <use xlink:href="#DejaVuSans-6f" x="44.083984"/>
      <use xlink:href="#DejaVuSans-74" x="105.265625"/>
      <use xlink:href="#DejaVuSans-61" x="144.474609"/>
      <use xlink:href="#DejaVuSans-6c" x="205.753906"/>
      <use xlink:href="#DejaVuSans-20" x="233.537109"/>
      <use xlink:href="#DejaVuSans-50" x="265.324219"/>
      <use xlink:href="#DejaVuSans-6f" x="322.001953"/>
      <use xlink:href="#DejaVuSans-70" x="383.183594"/>
      <use xlink:href="#DejaVuSans-75" x="446.660156"/>
      <use xlink:href="#DejaVuSans-6c" x="510.039062"/>
      <use xlink:href="#DejaVuSans-61" x="537.822266"/>
      <use xlink:href="#DejaVuSans-74" x="599.101562"/>
      <use xlink:href="#DejaVuSans-69" x="638.310547"/>
      <use xlink:href="#DejaVuSans-6f" x="666.09375"/>
      <use xlink:href="#DejaVuSans-6e" x="727.275391"/>
      <use xlink:href="#DejaVuSans-20" x="790.654297"/>
      <use xlink:href="#DejaVuSans-28" x="822.441406"/>
      <use xlink:href="#DejaVuSans-63" x="861.455078"/>
      <use xlink:href="#DejaVuSans-61" x="916.435547"/>
      <use xlink:href="#DejaVuSans-70" x="977.714844"/>
      <use xlink:href="#DejaVuSans-69" x="1041.191406"/>
      <use xlink:href="#DejaVuSans-74" x="1068.974609"/>
      <use xlink:href="#DejaVuSans-61" x="1108.183594"/>
      <use xlink:href="#DejaVuSans-29" x="1169.462891"/>
     </g>
    </g>
   </g>
   <g id="line2d_25">
    <path d="M 82.414545 272.9712 
L 85.19568 272.629832 
L 88.90386 271.879864 
L 96.320219 270.033814 
L 117.642251 264.476295 
L 128.76679 261.327738 
L 138.037239 258.484253 
L 146.380643 255.702572 
L 153.797002 253.009754 
L 157.505181 251.569219 
L 170.48381 242.9787 
L 176.973124 238.377766 
L 183.462438 233.497223 
L 189.024707 229.056085 
L 194.586977 224.345732 
L 200.149246 219.349305 
L 206.63856 213.207792 
L 213.127874 206.761617 
L 218.690144 200.95395 
L 224.252413 194.823281 
L 229.814682 188.393945 
L 235.376951 181.659544 
L 243.720355 171.124173 
L 252.063759 160.217541 
L 262.261253 146.49227 
L 273.385792 131.598133 
L 279.875106 123.270709 
L 286.36442 115.255659 
L 292.853734 107.646434 
L 300.270093 99.279454 
L 304.905318 94.320673 
L 309.540542 89.733508 
L 314.175767 85.422985 
L 318.810991 81.38921 
L 323.446216 77.65696 
L 328.08144 74.163546 
L 330.862575 72.331759 
L 333.643709 70.760227 
L 336.424844 69.486029 
L 339.205979 68.536055 
L 341.060068 68.097585 
L 342.914158 67.838511 
L 344.768248 67.761466 
L 346.622338 67.86795 
L 348.476427 68.157827 
L 350.330517 68.629974 
L 352.184607 69.311194 
L 354.038697 70.408944 
L 355.892787 71.952904 
L 357.746876 73.91894 
L 359.600966 76.470073 
L 361.455056 79.63123 
L 363.309146 83.324383 
L 365.163235 87.580191 
L 367.017325 92.377627 
L 369.79846 100.326778 
L 372.579594 108.928389 
L 379.068909 129.539853 
L 381.850043 137.635867 
L 384.631178 145.128971 
L 387.412313 152.005619 
L 390.193447 158.284493 
L 392.974582 163.998652 
L 395.755717 169.209262 
L 398.536851 173.999937 
L 402.245031 179.927872 
L 405.95321 185.443609 
L 409.66139 190.563499 
L 413.369569 195.26894 
L 417.077749 199.580392 
L 420.785928 203.508974 
L 424.494108 207.049075 
L 428.202288 210.197682 
L 430.983422 212.296673 
L 442.107961 219.957928 
L 448.597275 224.198009 
L 452.305455 226.537759 
L 452.305455 226.537759 
" clip-path="url(#p221cecf35a)" style="fill: none; stroke: #1f77b4; stroke-width: 1.5; stroke-linecap: square"/>
   </g>
   <g id="patch_3">
    <path d="M 63.92 318.04 
L 63.92 36.36 
" style="fill: none; stroke: #000000; stroke-width: 0.8; stroke-linejoin: miter; stroke-linecap: square"/>
   </g>
   <g id="patch_4">
    <path d="M 470.8 318.04 
L 470.8 36.36 
" style="fill: none; stroke: #000000; stroke-width: 0.8; stroke-linejoin: miter; stroke-linecap: square"/>
   </g>
   <g id="patch_5">
    <path d="M 63.92 318.04 
L 470.8 318.04 
" style="fill: none; stroke: #000000; stroke-width: 0.8; stroke-linejoin: miter; stroke-linecap: square"/>
   </g>
   <g id="patch_6">
    <path d="M 63.92 36.36 
L 470.8 36.36 
" style="fill: none; stroke: #000000; stroke-width: 0.8; stroke-linejoin: miter; stroke-linecap: square"/>
   </g>
  </g>
  <g id="axes_2">
   <g id="matplotlib.axis_3">
    <g id="ytick_7">
     <g id="line2d_26">
      <defs>
       <path id="m127d134ab9" d="M 0 0 
L 3.5 0 
" style="stroke: #ff7f0e; stroke-width: 0.8"/>
      </defs>
      <g>
       <use xlink:href="#m127d134ab9" x="470.8" y="318.04" style="fill: #ff7f0e; stroke: #ff7f0e; stroke-width: 0.8"/>
      </g>
     </g>
     <g id="text_18">
      <!-- 0.0 -->
      <g style="fill: #ff7f0e" transform="translate(477.8 321.839219) scale(0.1 -0.1)">
       <use xlink:href="#DejaVuSans-30"/>
       <use xlink:href="#DejaVuSans-2e" x="63.623047"/>
       <use xlink:href="#DejaVuSans-30" x="95.410156"/>
      </g>
     </g>
    </g>
    <g id="ytick_8">
     <g id="line2d_27">
      <g>
       <use xlink:href="#m127d134ab9" x="470.8" y="282.83" style="fill: #ff7f0e; stroke: #ff7f0e; stroke-width: 0.8"/>
      </g>
     </g>
     <g id="text_19">
      <!-- 250.0 G -->
      <g style="fill: #ff7f0e" transform="translate(477.8 286.629219) scale(0.1 -0.1)">
       <use xlink:href="#DejaVuSans-32"/>
       <use xlink:href="#DejaVuSans-35" x="63.623047"/>
       <use xlink:href="#DejaVuSans-30" x="127.246094"/>
       <use xlink:href="#DejaVuSans-2e" x="190.869141"/>
       <use xlink:href="#DejaVuSans-30" x="222.65625"/>
       <use xlink:href="#DejaVuSans-2009" x="286.279297"/>
       <use xlink:href="#DejaVuSans-47" x="306.25"/>
      </g>
     </g>
    </g>
    <g id="ytick_9">
     <g id="line2d_28">
      <g>
       <use xlink:href="#m127d134ab9" x="470.8" y="247.62" style="fill: #ff7f0e; stroke: #ff7f0e; stroke-width: 0.8"/>
      </g>
     </g>
     <g id="text_20">
      <!-- 500.0 G -->
      <g style="fill: #ff7f0e" transform="translate(477.8 251.419219) scale(0.1 -0.1)">
       <use xlink:href="#DejaVuSans-35"/>
       <use xlink:href="#DejaVuSans-30" x="63.623047"/>
       <use xlink:href="#DejaVuSans-30" x="127.246094"/>
       <use xlink:href="#DejaVuSans-2e" x="190.869141"/>
       <use xlink:href="#DejaVuSans-30" x="222.65625"/>
       <use xlink:href="#DejaVuSans-2009" x="286.279297"/>
       <use xlink:href="#DejaVuSans-47" x="306.25"/>
      </g>
     </g>
    </g>
    <g id="ytick_10">
     <g id="line2d_29">
      <g>
       <use xlink:href="#m127d134ab9" x="470.8" y="212.41" style="fill: #ff7f0e; stroke: #ff7f0e; stroke-width: 0.8"/>
      </g>
     </g>
     <g id="text_21">
      <!-- 750.0 G -->
      <g style="fill: #ff7f0e" transform="translate(477.8 216.209219) scale(0.1 -0.1)">
       <use xlink:href="#DejaVuSans-37"/>
       <use xlink:href="#DejaVuSans-35" x="63.623047"/>
       <use xlink:href="#DejaVuSans-30" x="127.246094"/>
       <use xlink:href="#DejaVuSans-2e" x="190.869141"/>
       <use xlink:href="#DejaVuSans-30" x="222.65625"/>
       <use xlink:href="#DejaVuSans-2009" x="286.279297"/>
       <use xlink:href="#DejaVuSans-47" x="306.25"/>
      </g>
     </g>
    </g>
    <g id="ytick_11">
     <g id="line2d_30">
      <g>
       <use xlink:href="#m127d134ab9" x="470.8" y="177.2" style="fill: #ff7f0e; stroke: #ff7f0e; stroke-width: 0.8"/>
      </g>
     </g>
     <g id="text_22">
      <!-- 1.0 T -->
      <g style="fill: #ff7f0e" transform="translate(477.8 180.999219) scale(0.1 -0.1)">
       <use xlink:href="#DejaVuSans-31"/>
       <use xlink:href="#DejaVuSans-2e" x="63.623047"/>
       <use xlink:href="#DejaVuSans-30" x="95.410156"/>
       <use xlink:href="#DejaVuSans-2009" x="159.033203"/>
       <use xlink:href="#DejaVuSans-54" x="179.003906"/>
      </g>
     </g>
    </g>
    <g id="ytick_12">
     <g id="line2d_31">
      <g>
       <use xlink:href="#m127d134ab9" x="470.8" y="141.99" style="fill: #ff7f0e; stroke: #ff7f0e; stroke-width: 0.8"/>
      </g>
     </g>
     <g id="text_23">
      <!-- 1.2 T -->
      <g style="fill: #ff7f0e" transform="translate(477.8 145.789219) scale(0.1 -0.1)">
       <use xlink:href="#DejaVuSans-31"/>
       <use xlink:href="#DejaVuSans-2e" x="63.623047"/>
       <use xlink:href="#DejaVuSans-32" x="95.410156"/>
       <use xlink:href="#DejaVuSans-2009" x="159.033203"/>
       <use xlink:href="#DejaVuSans-54" x="179.003906"/>
      </g>
     </g>
    </g>
    <g id="ytick_13">
     <g id="line2d_32">
      <g>
       <use xlink:href="#m127d134ab9" x="470.8" y="106.78" style="fill: #ff7f0e; stroke: #ff7f0e; stroke-width: 0.8"/>
      </g>
     </g>
     <g id="text_24">
      <!-- 1.5 T -->
      <g style="fill: #ff7f0e" transform="translate(477.8 110.579219) scale(0.1 -0.1)">
       <use xlink:href="#DejaVuSans-31"/>
       <use xlink:href="#DejaVuSans-2e" x="63.623047"/>
       <use xlink:href="#DejaVuSans-35" x="95.410156"/>
       <use xlink:href="#DejaVuSans-2009" x="159.033203"/>
       <use xlink:href="#DejaVuSans-54" x="179.003906"/>
      </g>
     </g>
    </g>
    <g id="ytick_14">
     <g id="line2d_33">
      <g>
       <use xlink:href="#m127d134ab9" x="470.8" y="71.57" style="fill: #ff7f0e; stroke: #ff7f0e; stroke-width: 0.8"/>
      </g>
     </g>
     <g id="text_25">
      <!-- 1.8 T -->
      <g style="fill: #ff7f0e" transform="translate(477.8 75.369219) scale(0.1 -0.1)">
       <use xlink:href="#DejaVuSans-31"/>
       <use xlink:href="#DejaVuSans-2e" x="63.623047"/>
       <use xlink:href="#DejaVuSans-38" x="95.410156"/>
       <use xlink:href="#DejaVuSans-2009" x="159.033203"/>
       <use xlink:href="#DejaVuSans-54" x="179.003906"/>
      </g>
     </g>
    </g>
    <g id="ytick_15">
     <g id="line2d_34">
      <g>
       <use xlink:href="#m127d134ab9" x="470.8" y="36.36" style="fill: #ff7f0e; stroke: #ff7f0e; stroke-width: 0.8"/>
      </g>
     </g>
     <g id="text_26">
      <!-- 2.0 T -->
      <g style="fill: #ff7f0e" transform="translate(477.8 40.159219) scale(0.1 -0.1)">
       <use xlink:href="#DejaVuSans-32"/>
       <use xlink:href="#DejaVuSans-2e" x="63.623047"/>
       <use xlink:href="#DejaVuSans-30" x="95.410156"/>
       <use xlink:href="#DejaVuSans-2009" x="159.033203"/>
       <use xlink:href="#DejaVuSans-54" x="179.003906"/>
      </g>
     </g>
    </g>
    <g id="text_27">
     <!-- Resources (?) -->
     <g style="fill: #ff7f0e" transform="translate(527.771875 210.876563) rotate(-90) scale(0.1 -0.1)">
      <defs>
       <path id="DejaVuSans-52" d="M 2841 2188 
Q 3044 2119 3236 1894 
Q 3428 1669 3622 1275 
L 4263 0 
L 3584 0 
L 2988 1197 
Q 2756 1666 2539 1819 
Q 2322 1972 1947 1972 
L 1259 1972 
L 1259 0 
L 628 0 
L 628 4666 
L 2053 4666 
Q 2853 4666 3247 4331 
Q 3641 3997 3641 3322 
Q 3641 2881 3436 2590 
Q 3231 2300 2841 2188 
z
M 1259 4147 
L 1259 2491 
L 2053 2491 
Q 2509 2491 2742 2702 
Q 2975 2913 2975 3322 
Q 2975 3731 2742 3939 
Q 2509 4147 2053 4147 
L 1259 4147 
z
" transform="scale(0.015625)"/>
       <path id="DejaVuSans-73" d="M 2834 3397 
L 2834 2853 
Q 2591 2978 2328 3040 
Q 2066 3103 1784 3103 
Q 1356 3103 1142 2972 
Q 928 2841 928 2578 
Q 928 2378 1081 2264 
Q 1234 2150 1697 2047 
L 1894 2003 
Q 2506 1872 2764 1633 
Q 3022 1394 3022 966 
Q 3022 478 2636 193 
Q 2250 -91 1575 -91 
Q 1294 -91 989 -36 
Q 684 19 347 128 
L 347 722 
Q 666 556 975 473 
Q 1284 391 1588 391 
Q 1994 391 2212 530 
Q 2431 669 2431 922 
Q 2431 1156 2273 1281 
Q 2116 1406 1581 1522 
L 1381 1569 
Q 847 1681 609 1914 
Q 372 2147 372 2553 
Q 372 3047 722 3315 
Q 1072 3584 1716 3584 
Q 2034 3584 2315 3537 
Q 2597 3491 2834 3397 
z
" transform="scale(0.015625)"/>
       <path id="DejaVuSans-3f" d="M 1222 794 
L 1856 794 
L 1856 0 
L 1222 0 
L 1222 794 
z
M 1838 1253 
L 1241 1253 
L 1241 1734 
Q 1241 2050 1328 2253 
Q 1416 2456 1697 2725 
L 1978 3003 
Q 2156 3169 2236 3316 
Q 2316 3463 2316 3616 
Q 2316 3894 2111 4066 
Q 1906 4238 1569 4238 
Q 1322 4238 1042 4128 
Q 763 4019 459 3809 
L 459 4397 
Q 753 4575 1054 4662 
Q 1356 4750 1678 4750 
Q 2253 4750 2601 4447 
Q 2950 4144 2950 3647 
Q 2950 3409 2837 3195 
Q 2725 2981 2444 2713 
L 2169 2444 
Q 2022 2297 1961 2214 
Q 1900 2131 1875 2053 
Q 1856 1988 1847 1894 
Q 1838 1800 1838 1638 
L 1838 1253 
z
" transform="scale(0.015625)"/>
      </defs>
      <use xlink:href="#DejaVuSans-52"/>
      <use xlink:href="#DejaVuSans-65" x="64.982422"/>
      <use xlink:href="#DejaVuSans-73" x="126.505859"/>
      <use xlink:href="#DejaVuSans-6f" x="178.605469"/>
      <use xlink:href="#DejaVuSans-75" x="239.787109"/>
      <use xlink:href="#DejaVuSans-72" x="303.166016"/>
      <use xlink:href="#DejaVuSans-63" x="342.029297"/>
      <use xlink:href="#DejaVuSans-65" x="397.009766"/>
      <use xlink:href="#DejaVuSans-73" x="458.533203"/>
      <use xlink:href="#DejaVuSans-20" x="510.632812"/>
      <use xlink:href="#DejaVuSans-28" x="542.419922"/>
      <use xlink:href="#DejaVuSans-3f" x="581.433594"/>
      <use xlink:href="#DejaVuSans-29" x="634.509766"/>
     </g>
    </g>
   </g>
   <g id="line2d_35">
    <path d="M 82.414545 36.36 
L 103.736578 36.923582 
L 122.277476 37.62839 
L 138.037239 38.444876 
L 151.942912 39.391769 
L 163.994495 40.437621 
L 175.119034 41.635175 
L 185.316528 42.970348 
L 194.586977 44.420313 
L 202.93038 45.952335 
L 210.34674 47.522415 
L 217.763099 49.31471 
L 224.252413 51.100446 
L 229.814682 52.873714 
L 235.376951 54.902927 
L 240.012176 56.806398 
L 244.6474 58.919062 
L 249.282625 61.256868 
L 253.917849 63.836214 
L 258.553074 66.673892 
L 263.188298 69.786702 
L 267.823522 73.187539 
L 272.458747 76.888398 
L 277.093971 80.901676 
L 281.729196 85.239945 
L 286.36442 89.915378 
L 290.999645 94.93768 
L 295.634869 100.312347 
L 300.270093 106.042474 
L 304.905318 112.129775 
L 309.540542 118.576128 
L 314.175767 125.382626 
L 318.810991 132.547491 
L 323.446216 140.066752 
L 329.008485 149.517529 
L 336.424844 162.593084 
L 348.476427 184.426365 
L 357.746876 201.046631 
L 364.23619 212.203973 
L 368.871415 219.780094 
L 373.506639 226.95566 
L 378.141864 233.702644 
L 382.777088 240.038099 
L 387.412313 246.001296 
L 392.047537 251.634634 
L 397.609806 258.015031 
L 403.172076 264.031953 
L 408.734345 269.697703 
L 414.296614 275.04044 
L 419.858884 280.095146 
L 426.348198 285.670442 
L 432.837512 290.938395 
L 436.545692 293.69957 
L 439.326826 295.53617 
L 442.107961 297.150675 
L 445.81614 299.002791 
L 449.52432 300.558773 
L 452.305455 301.558311 
L 452.305455 301.558311 
" clip-path="url(#p221cecf35a)" style="fill: none; stroke: #ff7f0e; stroke-width: 1.5; stroke-linecap: square"/>
   </g>
   <g id="patch_7">
    <path d="M 63.92 318.04 
L 63.92 36.36 
" style="fill: none; stroke: #000000; stroke-width: 0.8; stroke-linejoin: miter; stroke-linecap: square"/>
   </g>
   <g id="patch_8">
    <path d="M 470.8 318.04 
L 470.8 36.36 
" style="fill: none; stroke: #000000; stroke-width: 0.8; stroke-linejoin: miter; stroke-linecap: square"/>
   </g>
   <g id="patch_9">
    <path d="M 63.92 318.04 
L 470.8 318.04 
" style="fill: none; stroke: #000000; stroke-width: 0.8; stroke-linejoin: miter; stroke-linecap: square"/>
   </g>
   <g id="patch_10">
    <path d="M 63.92 36.36 
L 470.8 36.36 
" style="fill: none; stroke: #000000; stroke-width: 0.8; stroke-linejoin: miter; stroke-linecap: square"/>
   </g>
  </g>
  <g id="axes_3">
   <g id="matplotlib.axis_4">
    <g id="ytick_16">
     <g id="line2d_36">
      <defs>
       <path id="me77a7e4d85" d="M 0 0 
L 3.5 0 
" style="stroke: #2ca02c; stroke-width: 0.8"/>
      </defs>
      <g>
       <use xlink:href="#me77a7e4d85" x="535.8" y="318.04" style="fill: #2ca02c; stroke: #2ca02c; stroke-width: 0.8"/>
      </g>
     </g>
     <g id="text_28">
      <!-- 0.0 -->
      <g style="fill: #2ca02c" transform="translate(542.8 321.839219) scale(0.1 -0.1)">
       <use xlink:href="#DejaVuSans-30"/>
       <use xlink:href="#DejaVuSans-2e" x="63.623047"/>
       <use xlink:href="#DejaVuSans-30" x="95.410156"/>
      </g>
     </g>
    </g>
    <g id="ytick_17">
     <g id="line2d_37">
      <g>
       <use xlink:href="#me77a7e4d85" x="535.8" y="282.83" style="fill: #2ca02c; stroke: #2ca02c; stroke-width: 0.8"/>
      </g>
     </g>
     <g id="text_29">
      <!-- 500.0 G -->
      <g style="fill: #2ca02c" transform="translate(542.8 286.629219) scale(0.1 -0.1)">
       <use xlink:href="#DejaVuSans-35"/>
       <use xlink:href="#DejaVuSans-30" x="63.623047"/>
       <use xlink:href="#DejaVuSans-30" x="127.246094"/>
       <use xlink:href="#DejaVuSans-2e" x="190.869141"/>
       <use xlink:href="#DejaVuSans-30" x="222.65625"/>
       <use xlink:href="#DejaVuSans-2009" x="286.279297"/>
       <use xlink:href="#DejaVuSans-47" x="306.25"/>
      </g>
     </g>
    </g>
    <g id="ytick_18">
     <g id="line2d_38">
      <g>
       <use xlink:href="#me77a7e4d85" x="535.8" y="247.62" style="fill: #2ca02c; stroke: #2ca02c; stroke-width: 0.8"/>
      </g>
     </g>
     <g id="text_30">
      <!-- 1.0 T -->
      <g style="fill: #2ca02c" transform="translate(542.8 251.419219) scale(0.1 -0.1)">
       <use xlink:href="#DejaVuSans-31"/>
       <use xlink:href="#DejaVuSans-2e" x="63.623047"/>
       <use xlink:href="#DejaVuSans-30" x="95.410156"/>
       <use xlink:href="#DejaVuSans-2009" x="159.033203"/>
       <use xlink:href="#DejaVuSans-54" x="179.003906"/>
      </g>
     </g>
    </g>
    <g id="ytick_19">
     <g id="line2d_39">
      <g>
       <use xlink:href="#me77a7e4d85" x="535.8" y="212.41" style="fill: #2ca02c; stroke: #2ca02c; stroke-width: 0.8"/>
      </g>
     </g>
     <g id="text_31">
      <!-- 1.5 T -->
      <g style="fill: #2ca02c" transform="translate(542.8 216.209219) scale(0.1 -0.1)">
       <use xlink:href="#DejaVuSans-31"/>
       <use xlink:href="#DejaVuSans-2e" x="63.623047"/>
       <use xlink:href="#DejaVuSans-35" x="95.410156"/>
       <use xlink:href="#DejaVuSans-2009" x="159.033203"/>
       <use xlink:href="#DejaVuSans-54" x="179.003906"/>
      </g>
     </g>
    </g>
    <g id="ytick_20">
     <g id="line2d_40">
      <g>
       <use xlink:href="#me77a7e4d85" x="535.8" y="177.2" style="fill: #2ca02c; stroke: #2ca02c; stroke-width: 0.8"/>
      </g>
     </g>
     <g id="text_32">
      <!-- 2.0 T -->
      <g style="fill: #2ca02c" transform="translate(542.8 180.999219) scale(0.1 -0.1)">
       <use xlink:href="#DejaVuSans-32"/>
       <use xlink:href="#DejaVuSans-2e" x="63.623047"/>
       <use xlink:href="#DejaVuSans-30" x="95.410156"/>
       <use xlink:href="#DejaVuSans-2009" x="159.033203"/>
       <use xlink:href="#DejaVuSans-54" x="179.003906"/>
      </g>
     </g>
    </g>
    <g id="ytick_21">
     <g id="line2d_41">
      <g>
       <use xlink:href="#me77a7e4d85" x="535.8" y="141.99" style="fill: #2ca02c; stroke: #2ca02c; stroke-width: 0.8"/>
      </g>
     </g>
     <g id="text_33">
      <!-- 2.5 T -->
      <g style="fill: #2ca02c" transform="translate(542.8 145.789219) scale(0.1 -0.1)">
       <use xlink:href="#DejaVuSans-32"/>
       <use xlink:href="#DejaVuSans-2e" x="63.623047"/>
       <use xlink:href="#DejaVuSans-35" x="95.410156"/>
       <use xlink:href="#DejaVuSans-2009" x="159.033203"/>
       <use xlink:href="#DejaVuSans-54" x="179.003906"/>
      </g>
     </g>
    </g>
    <g id="ytick_22">
     <g id="line2d_42">
      <g>
       <use xlink:href="#me77a7e4d85" x="535.8" y="106.78" style="fill: #2ca02c; stroke: #2ca02c; stroke-width: 0.8"/>
      </g>
     </g>
     <g id="text_34">
      <!-- 3.0 T -->
      <g style="fill: #2ca02c" transform="translate(542.8 110.579219) scale(0.1 -0.1)">
       <defs>
        <path id="DejaVuSans-33" d="M 2597 2516 
Q 3050 2419 3304 2112 
Q 3559 1806 3559 1356 
Q 3559 666 3084 287 
Q 2609 -91 1734 -91 
Q 1441 -91 1130 -33 
Q 819 25 488 141 
L 488 750 
Q 750 597 1062 519 
Q 1375 441 1716 441 
Q 2309 441 2620 675 
Q 2931 909 2931 1356 
Q 2931 1769 2642 2001 
Q 2353 2234 1838 2234 
L 1294 2234 
L 1294 2753 
L 1863 2753 
Q 2328 2753 2575 2939 
Q 2822 3125 2822 3475 
Q 2822 3834 2567 4026 
Q 2313 4219 1838 4219 
Q 1578 4219 1281 4162 
Q 984 4106 628 3988 
L 628 4550 
Q 988 4650 1302 4700 
Q 1616 4750 1894 4750 
Q 2613 4750 3031 4423 
Q 3450 4097 3450 3541 
Q 3450 3153 3228 2886 
Q 3006 2619 2597 2516 
z
" transform="scale(0.015625)"/>
       </defs>
       <use xlink:href="#DejaVuSans-33"/>
       <use xlink:href="#DejaVuSans-2e" x="63.623047"/>
       <use xlink:href="#DejaVuSans-30" x="95.410156"/>
       <use xlink:href="#DejaVuSans-2009" x="159.033203"/>
       <use xlink:href="#DejaVuSans-54" x="179.003906"/>
      </g>
     </g>
    </g>
    <g id="ytick_23">
     <g id="line2d_43">
      <g>
       <use xlink:href="#me77a7e4d85" x="535.8" y="71.57" style="fill: #2ca02c; stroke: #2ca02c; stroke-width: 0.8"/>
      </g>
     </g>
     <g id="text_35">
      <!-- 3.5 T -->
      <g style="fill: #2ca02c" transform="translate(542.8 75.369219) scale(0.1 -0.1)">
       <use xlink:href="#DejaVuSans-33"/>
       <use xlink:href="#DejaVuSans-2e" x="63.623047"/>
       <use xlink:href="#DejaVuSans-35" x="95.410156"/>
       <use xlink:href="#DejaVuSans-2009" x="159.033203"/>
       <use xlink:href="#DejaVuSans-54" x="179.003906"/>
      </g>
     </g>
    </g>
    <g id="ytick_24">
     <g id="line2d_44">
      <g>
       <use xlink:href="#me77a7e4d85" x="535.8" y="36.36" style="fill: #2ca02c; stroke: #2ca02c; stroke-width: 0.8"/>
      </g>
     </g>
     <g id="text_36">
      <!-- 4.0 T -->
      <g style="fill: #2ca02c" transform="translate(542.8 40.159219) scale(0.1 -0.1)">
       <use xlink:href="#DejaVuSans-34"/>
       <use xlink:href="#DejaVuSans-2e" x="63.623047"/>
       <use xlink:href="#DejaVuSans-30" x="95.410156"/>
       <use xlink:href="#DejaVuSans-2009" x="159.033203"/>
       <use xlink:href="#DejaVuSans-54" x="179.003906"/>
      </g>
     </g>
    </g>
    <g id="text_37">
     <!-- Industrial Opuput (?) -->
     <g style="fill: #2ca02c" transform="translate(592.771875 228.964844) rotate(-90) scale(0.1 -0.1)">
      <defs>
       <path id="DejaVuSans-49" d="M 628 4666 
L 1259 4666 
L 1259 0 
L 628 0 
L 628 4666 
z
" transform="scale(0.015625)"/>
       <path id="DejaVuSans-64" d="M 2906 2969 
L 2906 4863 
L 3481 4863 
L 3481 0 
L 2906 0 
L 2906 525 
Q 2725 213 2448 61 
Q 2172 -91 1784 -91 
Q 1150 -91 751 415 
Q 353 922 353 1747 
Q 353 2572 751 3078 
Q 1150 3584 1784 3584 
Q 2172 3584 2448 3432 
Q 2725 3281 2906 2969 
z
M 947 1747 
Q 947 1113 1208 752 
Q 1469 391 1925 391 
Q 2381 391 2643 752 
Q 2906 1113 2906 1747 
Q 2906 2381 2643 2742 
Q 2381 3103 1925 3103 
Q 1469 3103 1208 2742 
Q 947 2381 947 1747 
z
" transform="scale(0.015625)"/>
       <path id="DejaVuSans-4f" d="M 2522 4238 
Q 1834 4238 1429 3725 
Q 1025 3213 1025 2328 
Q 1025 1447 1429 934 
Q 1834 422 2522 422 
Q 3209 422 3611 934 
Q 4013 1447 4013 2328 
Q 4013 3213 3611 3725 
Q 3209 4238 2522 4238 
z
M 2522 4750 
Q 3503 4750 4090 4092 
Q 4678 3434 4678 2328 
Q 4678 1225 4090 567 
Q 3503 -91 2522 -91 
Q 1538 -91 948 565 
Q 359 1222 359 2328 
Q 359 3434 948 4092 
Q 1538 4750 2522 4750 
z
" transform="scale(0.015625)"/>
      </defs>
      <use xlink:href="#DejaVuSans-49"/>
      <use xlink:href="#DejaVuSans-6e" x="29.492188"/>
      <use xlink:href="#DejaVuSans-64" x="92.871094"/>
      <use xlink:href="#DejaVuSans-75" x="156.347656"/>
      <use xlink:href="#DejaVuSans-73" x="219.726562"/>
      <use xlink:href="#DejaVuSans-74" x="271.826172"/>
      <use xlink:href="#DejaVuSans-72" x="311.035156"/>
      <use xlink:href="#DejaVuSans-69" x="352.148438"/>
      <use xlink:href="#DejaVuSans-61" x="379.931641"/>
      <use xlink:href="#DejaVuSans-6c" x="441.210938"/>
      <use xlink:href="#DejaVuSans-20" x="468.994141"/>
      <use xlink:href="#DejaVuSans-4f" x="500.78125"/>
      <use xlink:href="#DejaVuSans-70" x="579.492188"/>
      <use xlink:href="#DejaVuSans-75" x="642.96875"/>
      <use xlink:href="#DejaVuSans-70" x="706.347656"/>
      <use xlink:href="#DejaVuSans-75" x="769.824219"/>
      <use xlink:href="#DejaVuSans-74" x="833.203125"/>
      <use xlink:href="#DejaVuSans-20" x="872.412109"/>
      <use xlink:href="#DejaVuSans-28" x="904.199219"/>
      <use xlink:href="#DejaVuSans-3f" x="943.212891"/>
      <use xlink:href="#DejaVuSans-29" x="996.289062"/>
     </g>
    </g>
   </g>
   <g id="line2d_45">
    <path d="M 82.414545 313.35707 
L 87.04977 312.895206 
L 104.663623 310.873246 
L 113.934072 309.579562 
L 122.277476 308.204387 
L 129.693835 306.780848 
L 137.110194 305.134885 
L 143.599508 303.483978 
L 150.088822 301.607924 
L 156.578136 299.476169 
L 163.06745 297.074931 
L 168.62972 294.797233 
L 174.191989 292.287504 
L 179.754258 289.519748 
L 185.316528 286.466021 
L 189.951752 283.673065 
L 194.586977 280.636697 
L 199.222201 277.342957 
L 203.857425 273.777362 
L 208.49265 269.93452 
L 213.127874 265.791672 
L 217.763099 261.323464 
L 222.398323 256.514863 
L 227.033548 251.388889 
L 231.668772 245.923212 
L 236.303996 240.094518 
L 240.939221 233.886016 
L 245.574445 227.284458 
L 250.20967 220.281045 
L 254.844894 212.870985 
L 259.480118 205.04652 
L 265.969433 193.568167 
L 272.458747 181.581412 
L 278.948061 169.109092 
L 286.36442 154.295813 
L 302.124183 122.130144 
L 315.102812 95.871809 
L 322.519171 81.334741 
L 330.862575 65.556735 
L 332.716664 62.482999 
L 334.570754 59.822363 
L 336.424844 57.587019 
L 338.278934 55.781705 
L 340.133023 54.407826 
L 341.987113 53.488112 
L 343.841203 53.022079 
L 344.768248 52.961974 
L 345.695293 53.017627 
L 346.622338 53.18895 
L 348.476427 53.876654 
L 350.330517 55.020216 
L 352.184607 56.643003 
L 354.038697 58.724371 
L 355.892787 61.229427 
L 357.746876 64.139336 
L 359.600966 67.449597 
L 361.455056 71.13223 
L 364.23619 77.263108 
L 367.017325 83.973563 
L 370.725505 93.521102 
L 378.141864 112.89759 
L 381.850043 121.803949 
L 385.558223 130.026399 
L 389.266402 137.568507 
L 392.974582 144.465158 
L 396.682761 150.786605 
L 404.099121 162.992075 
L 407.8073 169.062669 
L 411.51548 174.708805 
L 415.223659 179.964281 
L 418.931839 184.863444 
L 422.640018 189.435793 
L 426.348198 193.704982 
L 430.056377 197.693403 
L 430.983422 198.649277 
L 431.910467 200.921444 
L 434.691602 211.98752 
L 437.472736 222.084741 
L 440.253871 231.02688 
L 443.035006 238.964057 
L 445.81614 246.03175 
L 448.597275 252.335556 
L 451.37841 257.962432 
L 452.305455 259.700806 
L 452.305455 259.700806 
" clip-path="url(#p221cecf35a)" style="fill: none; stroke: #2ca02c; stroke-width: 1.5; stroke-linecap: square"/>
   </g>
   <g id="patch_11">
    <path d="M 63.92 318.04 
L 63.92 36.36 
" style="fill: none; stroke: #000000; stroke-width: 0.8; stroke-linejoin: miter; stroke-linecap: square"/>
   </g>
   <g id="patch_12">
    <path d="M 535.8 318.04 
L 535.8 36.36 
" style="fill: none; stroke: #000000; stroke-width: 0.8; stroke-linejoin: miter; stroke-linecap: square"/>
   </g>
   <g id="patch_13">
    <path d="M 63.92 318.04 
L 470.8 318.04 
" style="fill: none; stroke: #000000; stroke-width: 0.8; stroke-linejoin: miter; stroke-linecap: square"/>
   </g>
   <g id="patch_14">
    <path d="M 63.92 36.36 
L 470.8 36.36 
" style="fill: none; stroke: #000000; stroke-width: 0.8; stroke-linejoin: miter; stroke-linecap: square"/>
   </g>
  </g>
  <g id="axes_4">
   <g id="matplotlib.axis_5">
    <g id="ytick_25">
     <g id="line2d_46">
      <defs>
       <path id="m10a2749a7f" d="M 0 0 
L 3.5 0 
" style="stroke: #d62728; stroke-width: 0.8"/>
      </defs>
      <g>
       <use xlink:href="#m10a2749a7f" x="600.8" y="318.04" style="fill: #d62728; stroke: #d62728; stroke-width: 0.8"/>
      </g>
     </g>
     <g id="text_38">
      <!-- 0.0 -->
      <g style="fill: #d62728" transform="translate(607.8 321.839219) scale(0.1 -0.1)">
       <use xlink:href="#DejaVuSans-30"/>
       <use xlink:href="#DejaVuSans-2e" x="63.623047"/>
       <use xlink:href="#DejaVuSans-30" x="95.410156"/>
      </g>
     </g>
    </g>
    <g id="ytick_26">
     <g id="line2d_47">
      <g>
       <use xlink:href="#m10a2749a7f" x="600.8" y="271.093333" style="fill: #d62728; stroke: #d62728; stroke-width: 0.8"/>
      </g>
     </g>
     <g id="text_39">
      <!-- 1.0 T -->
      <g style="fill: #d62728" transform="translate(607.8 274.892552) scale(0.1 -0.1)">
       <use xlink:href="#DejaVuSans-31"/>
       <use xlink:href="#DejaVuSans-2e" x="63.623047"/>
       <use xlink:href="#DejaVuSans-30" x="95.410156"/>
       <use xlink:href="#DejaVuSans-2009" x="159.033203"/>
       <use xlink:href="#DejaVuSans-54" x="179.003906"/>
      </g>
     </g>
    </g>
    <g id="ytick_27">
     <g id="line2d_48">
      <g>
       <use xlink:href="#m10a2749a7f" x="600.8" y="224.146667" style="fill: #d62728; stroke: #d62728; stroke-width: 0.8"/>
      </g>
     </g>
     <g id="text_40">
      <!-- 2.0 T -->
      <g style="fill: #d62728" transform="translate(607.8 227.945885) scale(0.1 -0.1)">
       <use xlink:href="#DejaVuSans-32"/>
       <use xlink:href="#DejaVuSans-2e" x="63.623047"/>
       <use xlink:href="#DejaVuSans-30" x="95.410156"/>
       <use xlink:href="#DejaVuSans-2009" x="159.033203"/>
       <use xlink:href="#DejaVuSans-54" x="179.003906"/>
      </g>
     </g>
    </g>
    <g id="ytick_28">
     <g id="line2d_49">
      <g>
       <use xlink:href="#m10a2749a7f" x="600.8" y="177.2" style="fill: #d62728; stroke: #d62728; stroke-width: 0.8"/>
      </g>
     </g>
     <g id="text_41">
      <!-- 3.0 T -->
      <g style="fill: #d62728" transform="translate(607.8 180.999219) scale(0.1 -0.1)">
       <use xlink:href="#DejaVuSans-33"/>
       <use xlink:href="#DejaVuSans-2e" x="63.623047"/>
       <use xlink:href="#DejaVuSans-30" x="95.410156"/>
       <use xlink:href="#DejaVuSans-2009" x="159.033203"/>
       <use xlink:href="#DejaVuSans-54" x="179.003906"/>
      </g>
     </g>
    </g>
    <g id="ytick_29">
     <g id="line2d_50">
      <g>
       <use xlink:href="#m10a2749a7f" x="600.8" y="130.253333" style="fill: #d62728; stroke: #d62728; stroke-width: 0.8"/>
      </g>
     </g>
     <g id="text_42">
      <!-- 4.0 T -->
      <g style="fill: #d62728" transform="translate(607.8 134.052552) scale(0.1 -0.1)">
       <use xlink:href="#DejaVuSans-34"/>
       <use xlink:href="#DejaVuSans-2e" x="63.623047"/>
       <use xlink:href="#DejaVuSans-30" x="95.410156"/>
       <use xlink:href="#DejaVuSans-2009" x="159.033203"/>
       <use xlink:href="#DejaVuSans-54" x="179.003906"/>
      </g>
     </g>
    </g>
    <g id="ytick_30">
     <g id="line2d_51">
      <g>
       <use xlink:href="#m10a2749a7f" x="600.8" y="83.306667" style="fill: #d62728; stroke: #d62728; stroke-width: 0.8"/>
      </g>
     </g>
     <g id="text_43">
      <!-- 5.0 T -->
      <g style="fill: #d62728" transform="translate(607.8 87.105885) scale(0.1 -0.1)">
       <use xlink:href="#DejaVuSans-35"/>
       <use xlink:href="#DejaVuSans-2e" x="63.623047"/>
       <use xlink:href="#DejaVuSans-30" x="95.410156"/>
       <use xlink:href="#DejaVuSans-2009" x="159.033203"/>
       <use xlink:href="#DejaVuSans-54" x="179.003906"/>
      </g>
     </g>
    </g>
    <g id="ytick_31">
     <g id="line2d_52">
      <g>
       <use xlink:href="#m10a2749a7f" x="600.8" y="36.36" style="fill: #d62728; stroke: #d62728; stroke-width: 0.8"/>
      </g>
     </g>
     <g id="text_44">
      <!-- 6.0 T -->
      <g style="fill: #d62728" transform="translate(607.8 40.159219) scale(0.1 -0.1)">
       <use xlink:href="#DejaVuSans-36"/>
       <use xlink:href="#DejaVuSans-2e" x="63.623047"/>
       <use xlink:href="#DejaVuSans-30" x="95.410156"/>
       <use xlink:href="#DejaVuSans-2009" x="159.033203"/>
       <use xlink:href="#DejaVuSans-54" x="179.003906"/>
      </g>
     </g>
    </g>
    <g id="text_45">
     <!-- Food (?) -->
     <g style="fill: #d62728" transform="translate(643.40625 197.332031) rotate(-90) scale(0.1 -0.1)">
      <defs>
       <path id="DejaVuSans-46" d="M 628 4666 
L 3309 4666 
L 3309 4134 
L 1259 4134 
L 1259 2759 
L 3109 2759 
L 3109 2228 
L 1259 2228 
L 1259 0 
L 628 0 
L 628 4666 
z
" transform="scale(0.015625)"/>
      </defs>
      <use xlink:href="#DejaVuSans-46"/>
      <use xlink:href="#DejaVuSans-6f" x="53.894531"/>
      <use xlink:href="#DejaVuSans-6f" x="115.076172"/>
      <use xlink:href="#DejaVuSans-64" x="176.257812"/>
      <use xlink:href="#DejaVuSans-20" x="239.734375"/>
      <use xlink:href="#DejaVuSans-28" x="271.521484"/>
      <use xlink:href="#DejaVuSans-3f" x="310.535156"/>
      <use xlink:href="#DejaVuSans-29" x="363.611328"/>
     </g>
    </g>
   </g>
   <g id="line2d_53">
    <path d="M 82.414545 297.809742 
L 84.268635 297.359948 
L 89.830905 296.508715 
L 100.955443 294.756633 
L 109.298847 293.21601 
L 119.496341 291.026603 
L 127.839745 289.015252 
L 135.256104 287.006192 
L 142.672463 284.750671 
L 149.161777 282.544135 
L 155.651091 280.089612 
L 160.286316 278.130909 
L 165.848585 275.466415 
L 171.410854 272.590402 
L 176.973124 269.481479 
L 182.535393 266.121096 
L 187.170617 262.977813 
L 193.659932 258.29053 
L 200.149246 253.287987 
L 209.419695 245.778106 
L 214.981964 240.797487 
L 220.544233 235.534518 
L 227.033548 229.063622 
L 234.449907 221.303598 
L 242.793311 212.230531 
L 254.844894 198.761816 
L 259.480118 193.556262 
L 261.334208 192.299469 
L 273.385792 182.743371 
L 282.656241 176.015561 
L 284.51033 174.834795 
L 288.21851 173.31684 
L 291.926689 171.947703 
L 295.634869 170.857436 
L 299.343049 170.015285 
L 303.051228 169.376919 
L 307.686452 168.812436 
L 310.467587 168.670238 
L 313.248722 168.706481 
L 316.029856 168.920139 
L 318.810991 169.309604 
L 320.665081 169.695601 
L 322.519171 170.258347 
L 323.446216 169.343587 
L 324.37326 168.644963 
L 325.300305 168.730548 
L 326.22735 169.421274 
L 327.154395 170.340193 
L 328.08144 171.46272 
L 329.93553 174.142466 
L 331.78962 177.179509 
L 333.643709 180.588852 
L 336.424844 186.374975 
L 340.133023 194.718551 
L 342.914158 201.230057 
L 345.695293 208.315445 
L 349.403472 218.383008 
L 361.455056 254.463478 
L 364.23619 262.216541 
L 367.017325 269.151405 
L 368.871415 273.265547 
L 370.725505 276.966848 
L 371.65255 278.666955 
L 372.579594 280.079644 
L 373.506639 281.214749 
L 375.360729 282.918435 
L 377.214819 284.159906 
L 379.068909 285.105255 
L 380.922998 285.812809 
L 382.777088 286.333808 
L 385.558223 286.851621 
L 388.339357 287.137617 
L 392.047537 287.269948 
L 396.682761 287.447633 
L 413.369569 288.059078 
L 421.712973 288.036114 
L 430.983422 287.752033 
L 433.764557 287.671088 
L 437.472736 287.910896 
L 442.107961 288.962988 
L 452.305455 291.568037 
L 452.305455 291.568037 
" clip-path="url(#p221cecf35a)" style="fill: none; stroke: #d62728; stroke-width: 1.5; stroke-linecap: square"/>
   </g>
   <g id="patch_15">
    <path d="M 63.92 318.04 
L 63.92 36.36 
" style="fill: none; stroke: #000000; stroke-width: 0.8; stroke-linejoin: miter; stroke-linecap: square"/>
   </g>
   <g id="patch_16">
    <path d="M 600.8 318.04 
L 600.8 36.36 
" style="fill: none; stroke: #000000; stroke-width: 0.8; stroke-linejoin: miter; stroke-linecap: square"/>
   </g>
   <g id="patch_17">
    <path d="M 63.92 318.04 
L 470.8 318.04 
" style="fill: none; stroke: #000000; stroke-width: 0.8; stroke-linejoin: miter; stroke-linecap: square"/>
   </g>
   <g id="patch_18">
    <path d="M 63.92 36.36 
L 470.8 36.36 
" style="fill: none; stroke: #000000; stroke-width: 0.8; stroke-linejoin: miter; stroke-linecap: square"/>
   </g>
  </g>
  <g id="axes_5">
   <g id="matplotlib.axis_6">
    <g id="ytick_32">
     <g id="line2d_54">
      <defs>
       <path id="m2a1d736324" d="M 0 0 
L 3.5 0 
" style="stroke: #9467bd; stroke-width: 0.8"/>
      </defs>
      <g>
       <use xlink:href="#m2a1d736324" x="665.8" y="318.04" style="fill: #9467bd; stroke: #9467bd; stroke-width: 0.8"/>
      </g>
     </g>
     <g id="text_46">
      <!-- 0.0 -->
      <g style="fill: #9467bd" transform="translate(672.8 321.839219) scale(0.1 -0.1)">
       <use xlink:href="#DejaVuSans-30"/>
       <use xlink:href="#DejaVuSans-2e" x="63.623047"/>
       <use xlink:href="#DejaVuSans-30" x="95.410156"/>
      </g>
     </g>
    </g>
    <g id="ytick_33">
     <g id="line2d_55">
      <g>
       <use xlink:href="#m2a1d736324" x="665.8" y="282.83" style="fill: #9467bd; stroke: #9467bd; stroke-width: 0.8"/>
      </g>
     </g>
     <g id="text_47">
      <!-- 5.0 -->
      <g style="fill: #9467bd" transform="translate(672.8 286.629219) scale(0.1 -0.1)">
       <use xlink:href="#DejaVuSans-35"/>
       <use xlink:href="#DejaVuSans-2e" x="63.623047"/>
       <use xlink:href="#DejaVuSans-30" x="95.410156"/>
      </g>
     </g>
    </g>
    <g id="ytick_34">
     <g id="line2d_56">
      <g>
       <use xlink:href="#m2a1d736324" x="665.8" y="247.62" style="fill: #9467bd; stroke: #9467bd; stroke-width: 0.8"/>
      </g>
     </g>
     <g id="text_48">
      <!-- 10.0 -->
      <g style="fill: #9467bd" transform="translate(672.8 251.419219) scale(0.1 -0.1)">
       <use xlink:href="#DejaVuSans-31"/>
       <use xlink:href="#DejaVuSans-30" x="63.623047"/>
       <use xlink:href="#DejaVuSans-2e" x="127.246094"/>
       <use xlink:href="#DejaVuSans-30" x="159.033203"/>
      </g>
     </g>
    </g>
    <g id="ytick_35">
     <g id="line2d_57">
      <g>
       <use xlink:href="#m2a1d736324" x="665.8" y="212.41" style="fill: #9467bd; stroke: #9467bd; stroke-width: 0.8"/>
      </g>
     </g>
     <g id="text_49">
      <!-- 15.0 -->
      <g style="fill: #9467bd" transform="translate(672.8 216.209219) scale(0.1 -0.1)">
       <use xlink:href="#DejaVuSans-31"/>
       <use xlink:href="#DejaVuSans-35" x="63.623047"/>
       <use xlink:href="#DejaVuSans-2e" x="127.246094"/>
       <use xlink:href="#DejaVuSans-30" x="159.033203"/>
      </g>
     </g>
    </g>
    <g id="ytick_36">
     <g id="line2d_58">
      <g>
       <use xlink:href="#m2a1d736324" x="665.8" y="177.2" style="fill: #9467bd; stroke: #9467bd; stroke-width: 0.8"/>
      </g>
     </g>
     <g id="text_50">
      <!-- 20.0 -->
      <g style="fill: #9467bd" transform="translate(672.8 180.999219) scale(0.1 -0.1)">
       <use xlink:href="#DejaVuSans-32"/>
       <use xlink:href="#DejaVuSans-30" x="63.623047"/>
       <use xlink:href="#DejaVuSans-2e" x="127.246094"/>
       <use xlink:href="#DejaVuSans-30" x="159.033203"/>
      </g>
     </g>
    </g>
    <g id="ytick_37">
     <g id="line2d_59">
      <g>
       <use xlink:href="#m2a1d736324" x="665.8" y="141.99" style="fill: #9467bd; stroke: #9467bd; stroke-width: 0.8"/>
      </g>
     </g>
     <g id="text_51">
      <!-- 25.0 -->
      <g style="fill: #9467bd" transform="translate(672.8 145.789219) scale(0.1 -0.1)">
       <use xlink:href="#DejaVuSans-32"/>
       <use xlink:href="#DejaVuSans-35" x="63.623047"/>
       <use xlink:href="#DejaVuSans-2e" x="127.246094"/>
       <use xlink:href="#DejaVuSans-30" x="159.033203"/>
      </g>
     </g>
    </g>
    <g id="ytick_38">
     <g id="line2d_60">
      <g>
       <use xlink:href="#m2a1d736324" x="665.8" y="106.78" style="fill: #9467bd; stroke: #9467bd; stroke-width: 0.8"/>
      </g>
     </g>
     <g id="text_52">
      <!-- 30.0 -->
      <g style="fill: #9467bd" transform="translate(672.8 110.579219) scale(0.1 -0.1)">
       <use xlink:href="#DejaVuSans-33"/>
       <use xlink:href="#DejaVuSans-30" x="63.623047"/>
       <use xlink:href="#DejaVuSans-2e" x="127.246094"/>
       <use xlink:href="#DejaVuSans-30" x="159.033203"/>
      </g>
     </g>
    </g>
    <g id="ytick_39">
     <g id="line2d_61">
      <g>
       <use xlink:href="#m2a1d736324" x="665.8" y="71.57" style="fill: #9467bd; stroke: #9467bd; stroke-width: 0.8"/>
      </g>
     </g>
     <g id="text_53">
      <!-- 35.0 -->
      <g style="fill: #9467bd" transform="translate(672.8 75.369219) scale(0.1 -0.1)">
       <use xlink:href="#DejaVuSans-33"/>
       <use xlink:href="#DejaVuSans-35" x="63.623047"/>
       <use xlink:href="#DejaVuSans-2e" x="127.246094"/>
       <use xlink:href="#DejaVuSans-30" x="159.033203"/>
      </g>
     </g>
    </g>
    <g id="ytick_40">
     <g id="line2d_62">
      <g>
       <use xlink:href="#m2a1d736324" x="665.8" y="36.36" style="fill: #9467bd; stroke: #9467bd; stroke-width: 0.8"/>
      </g>
     </g>
     <g id="text_54">
      <!-- 40.0 -->
      <g style="fill: #9467bd" transform="translate(672.8 40.159219) scale(0.1 -0.1)">
       <use xlink:href="#DejaVuSans-34"/>
       <use xlink:href="#DejaVuSans-30" x="63.623047"/>
       <use xlink:href="#DejaVuSans-2e" x="127.246094"/>
       <use xlink:href="#DejaVuSans-30" x="159.033203"/>
      </g>
     </g>
    </g>
    <g id="text_55">
     <!-- Persistent Pollution (index) -->
     <g style="fill: #9467bd" transform="translate(706.664062 244.107031) rotate(-90) scale(0.1 -0.1)">
      <defs>
       <path id="DejaVuSans-78" d="M 3513 3500 
L 2247 1797 
L 3578 0 
L 2900 0 
L 1881 1375 
L 863 0 
L 184 0 
L 1544 1831 
L 300 3500 
L 978 3500 
L 1906 2253 
L 2834 3500 
L 3513 3500 
z
" transform="scale(0.015625)"/>
      </defs>
      <use xlink:href="#DejaVuSans-50"/>
      <use xlink:href="#DejaVuSans-65" x="56.677734"/>
      <use xlink:href="#DejaVuSans-72" x="118.201172"/>
      <use xlink:href="#DejaVuSans-73" x="159.314453"/>
      <use xlink:href="#DejaVuSans-69" x="211.414062"/>
      <use xlink:href="#DejaVuSans-73" x="239.197266"/>
      <use xlink:href="#DejaVuSans-74" x="291.296875"/>
      <use xlink:href="#DejaVuSans-65" x="330.505859"/>
      <use xlink:href="#DejaVuSans-6e" x="392.029297"/>
      <use xlink:href="#DejaVuSans-74" x="455.408203"/>
      <use xlink:href="#DejaVuSans-20" x="494.617188"/>
      <use xlink:href="#DejaVuSans-50" x="526.404297"/>
      <use xlink:href="#DejaVuSans-6f" x="583.082031"/>
      <use xlink:href="#DejaVuSans-6c" x="644.263672"/>
      <use xlink:href="#DejaVuSans-6c" x="672.046875"/>
      <use xlink:href="#DejaVuSans-75" x="699.830078"/>
      <use xlink:href="#DejaVuSans-74" x="763.208984"/>
      <use xlink:href="#DejaVuSans-69" x="802.417969"/>
      <use xlink:href="#DejaVuSans-6f" x="830.201172"/>
      <use xlink:href="#DejaVuSans-6e" x="891.382812"/>
      <use xlink:href="#DejaVuSans-20" x="954.761719"/>
      <use xlink:href="#DejaVuSans-28" x="986.548828"/>
      <use xlink:href="#DejaVuSans-69" x="1025.5625"/>
      <use xlink:href="#DejaVuSans-6e" x="1053.345703"/>
      <use xlink:href="#DejaVuSans-64" x="1116.724609"/>
      <use xlink:href="#DejaVuSans-65" x="1180.201172"/>
      <use xlink:href="#DejaVuSans-78" x="1239.974609"/>
      <use xlink:href="#DejaVuSans-29" x="1299.154297"/>
     </g>
    </g>
   </g>
   <g id="line2d_63">
    <path d="M 82.414545 316.745515 
L 87.976815 316.872469 
L 101.882488 316.878564 
L 119.496341 316.693394 
L 137.110194 316.286724 
L 153.797002 315.688513 
L 169.556765 314.90169 
L 183.462438 313.978416 
L 195.514021 312.960481 
L 206.63856 311.804032 
L 216.836054 310.522439 
L 225.179458 309.243966 
L 232.595817 307.902756 
L 239.085131 306.524661 
L 245.574445 304.906674 
L 251.136715 303.298516 
L 256.698984 301.464511 
L 262.261253 299.387214 
L 267.823522 297.049292 
L 272.458747 294.881068 
L 277.093971 292.481615 
L 281.729196 289.81627 
L 286.36442 286.850509 
L 290.0726 284.238806 
L 293.780779 281.396342 
L 297.488959 278.304538 
L 301.197138 274.942772 
L 304.905318 271.290184 
L 308.613497 267.326431 
L 312.321677 263.030709 
L 316.029856 258.380084 
L 319.738036 253.349653 
L 323.446216 247.913938 
L 327.154395 242.0471 
L 330.862575 235.697928 
L 333.643709 230.556101 
L 336.424844 225.027212 
L 339.205979 219.057252 
L 341.987113 212.596488 
L 344.768248 205.598148 
L 347.549383 198.016865 
L 350.330517 189.809361 
L 353.111652 180.936392 
L 355.892787 171.364924 
L 358.673921 161.069886 
L 361.455056 150.035909 
L 364.23619 138.259451 
L 367.94437 121.423261 
L 371.65255 103.360951 
L 375.360729 84.210967 
L 379.995954 59.077856 
L 390.789842 -1 
M 452.110173 -1 
L 452.305455 0.133503 
L 452.305455 0.133503 
" clip-path="url(#p221cecf35a)" style="fill: none; stroke: #9467bd; stroke-width: 1.5; stroke-linecap: square"/>
   </g>
   <g id="patch_19">
    <path d="M 63.92 318.04 
L 63.92 36.36 
" style="fill: none; stroke: #000000; stroke-width: 0.8; stroke-linejoin: miter; stroke-linecap: square"/>
   </g>
   <g id="patch_20">
    <path d="M 665.8 318.04 
L 665.8 36.36 
" style="fill: none; stroke: #000000; stroke-width: 0.8; stroke-linejoin: miter; stroke-linecap: square"/>
   </g>
   <g id="patch_21">
    <path d="M 63.92 318.04 
L 470.8 318.04 
" style="fill: none; stroke: #000000; stroke-width: 0.8; stroke-linejoin: miter; stroke-linecap: square"/>
   </g>
   <g id="patch_22">
    <path d="M 63.92 36.36 
L 470.8 36.36 
" style="fill: none; stroke: #000000; stroke-width: 0.8; stroke-linejoin: miter; stroke-linecap: square"/>
   </g>
  </g>
  <g id="text_56">
   <!-- State Of The World -->
   <g transform="translate(303.209063 16.318125) scale(0.12 -0.12)">
    <defs>
     <path id="DejaVuSans-53" d="M 3425 4513 
L 3425 3897 
Q 3066 4069 2747 4153 
Q 2428 4238 2131 4238 
Q 1616 4238 1336 4038 
Q 1056 3838 1056 3469 
Q 1056 3159 1242 3001 
Q 1428 2844 1947 2747 
L 2328 2669 
Q 3034 2534 3370 2195 
Q 3706 1856 3706 1288 
Q 3706 609 3251 259 
Q 2797 -91 1919 -91 
Q 1588 -91 1214 -16 
Q 841 59 441 206 
L 441 856 
Q 825 641 1194 531 
Q 1563 422 1919 422 
Q 2459 422 2753 634 
Q 3047 847 3047 1241 
Q 3047 1584 2836 1778 
Q 2625 1972 2144 2069 
L 1759 2144 
Q 1053 2284 737 2584 
Q 422 2884 422 3419 
Q 422 4038 858 4394 
Q 1294 4750 2059 4750 
Q 2388 4750 2728 4690 
Q 3069 4631 3425 4513 
z
" transform="scale(0.015625)"/>
     <path id="DejaVuSans-66" d="M 2375 4863 
L 2375 4384 
L 1825 4384 
Q 1516 4384 1395 4259 
Q 1275 4134 1275 3809 
L 1275 3500 
L 2222 3500 
L 2222 3053 
L 1275 3053 
L 1275 0 
L 697 0 
L 697 3053 
L 147 3053 
L 147 3500 
L 697 3500 
L 697 3744 
Q 697 4328 969 4595 
Q 1241 4863 1831 4863 
L 2375 4863 
z
" transform="scale(0.015625)"/>
     <path id="DejaVuSans-68" d="M 3513 2113 
L 3513 0 
L 2938 0 
L 2938 2094 
Q 2938 2591 2744 2837 
Q 2550 3084 2163 3084 
Q 1697 3084 1428 2787 
Q 1159 2491 1159 1978 
L 1159 0 
L 581 0 
L 581 4863 
L 1159 4863 
L 1159 2956 
Q 1366 3272 1645 3428 
Q 1925 3584 2291 3584 
Q 2894 3584 3203 3211 
Q 3513 2838 3513 2113 
z
" transform="scale(0.015625)"/>
     <path id="DejaVuSans-57" d="M 213 4666 
L 850 4666 
L 1831 722 
L 2809 4666 
L 3519 4666 
L 4500 722 
L 5478 4666 
L 6119 4666 
L 4947 0 
L 4153 0 
L 3169 4050 
L 2175 0 
L 1381 0 
L 213 4666 
z
" transform="scale(0.015625)"/>
    </defs>
    <use xlink:href="#DejaVuSans-53"/>
    <use xlink:href="#DejaVuSans-74" x="63.476562"/>
    <use xlink:href="#DejaVuSans-61" x="102.685547"/>
    <use xlink:href="#DejaVuSans-74" x="163.964844"/>
    <use xlink:href="#DejaVuSans-65" x="203.173828"/>
    <use xlink:href="#DejaVuSans-20" x="264.697266"/>
    <use xlink:href="#DejaVuSans-4f" x="296.484375"/>
    <use xlink:href="#DejaVuSans-66" x="375.195312"/>
    <use xlink:href="#DejaVuSans-20" x="410.400391"/>
    <use xlink:href="#DejaVuSans-54" x="442.1875"/>
    <use xlink:href="#DejaVuSans-68" x="503.271484"/>
    <use xlink:href="#DejaVuSans-65" x="566.650391"/>
    <use xlink:href="#DejaVuSans-20" x="628.173828"/>
    <use xlink:href="#DejaVuSans-57" x="659.960938"/>
    <use xlink:href="#DejaVuSans-6f" x="752.962891"/>
    <use xlink:href="#DejaVuSans-72" x="814.144531"/>
    <use xlink:href="#DejaVuSans-6c" x="855.257812"/>
    <use xlink:href="#DejaVuSans-64" x="883.041016"/>
   </g>
  </g>
 </g>
 <defs>
  <clipPath id="p221cecf35a">
   <rect x="63.92" y="36.36" width="406.88" height="281.68"/>
  </clipPath>
 </defs>
</svg>
