<?xml version="1.0" encoding="utf-8" standalone="no"?>
<!DOCTYPE svg PUBLIC "-//W3C//DTD SVG 1.1//EN"
  "http://www.w3.org/Graphics/SVG/1.1/DTD/svg11.dtd">
<svg xmlns:xlink="http://www.w3.org/1999/xlink" width="720pt" height="360pt" viewBox="0 0 720 360" xmlns="http://www.w3.org/2000/svg" version="1.1">
 <metadata>
  <rdf:RDF xmlns:dc="http://purl.org/dc/elements/1.1/" xmlns:cc="http://creativecommons.org/ns#" xmlns:rdf="http://www.w3.org/1999/02/22-rdf-syntax-ns#">
   <cc:Work>
    <dc:type rdf:resource="http://purl.org/dc/dcmitype/StillImage"/>
    <dc:date>2024-11-07T16:14:08.899642</dc:date>
    <dc:format>image/svg+xml</dc:format>
    <dc:creator>
     <cc:Agent>
      <dc:title>Matplotlib v3.6.3, https://matplotlib.org/</dc:title>
     </cc:Agent>
    </dc:creator>
   </cc:Work>
  </rdf:RDF>
 </metadata>
 <defs>
  <style type="text/css">*{stroke-linejoin: round; stroke-linecap: butt}</style>
 </defs>
 <g id="figure_1">
  <g id="patch_1">
   <path d="M 0 360 
L 720 360 
L 720 0 
L 0 0 
z
" style="fill: #ffffff"/>
  </g>
  <g id="axes_1">
   <g id="patch_2">
    <path d="M 54.2 318.04 
L 535.8 318.04 
L 535.8 36.36 
L 54.2 36.36 
z
" style="fill: #ffffff"/>
   </g>
   <g id="matplotlib.axis_1">
    <g id="xtick_1">
     <g id="line2d_1">
      <path d="M 76.090909 318.04 
L 76.090909 36.36 
" clip-path="url(#p737dfa5528)" style="fill: none; stroke-dasharray: 0.8,1.32; stroke-dashoffset: 0; stroke: #b0b0b0; stroke-width: 0.8"/>
     </g>
     <g id="line2d_2">
      <defs>
       <path id="m6b95f01935" d="M 0 0 
L 0 3.5 
" style="stroke: #000000; stroke-width: 0.8"/>
      </defs>
      <g>
       <use xlink:href="#m6b95f01935" x="76.090909" y="318.04" style="stroke: #000000; stroke-width: 0.8"/>
      </g>
     </g>
     <g id="text_1">
      <!-- 1900 -->
      <g transform="translate(63.365909 332.638438) scale(0.1 -0.1)">
       <defs>
        <path id="DejaVuSans-31" d="M 794 531 
L 1825 531 
L 1825 4091 
L 703 3866 
L 703 4441 
L 1819 4666 
L 2450 4666 
L 2450 531 
L 3481 531 
L 3481 0 
L 794 0 
L 794 531 
z
" transform="scale(0.015625)"/>
        <path id="DejaVuSans-39" d="M 703 97 
L 703 672 
Q 941 559 1184 500 
Q 1428 441 1663 441 
Q 2288 441 2617 861 
Q 2947 1281 2994 2138 
Q 2813 1869 2534 1725 
Q 2256 1581 1919 1581 
Q 1219 1581 811 2004 
Q 403 2428 403 3163 
Q 403 3881 828 4315 
Q 1253 4750 1959 4750 
Q 2769 4750 3195 4129 
Q 3622 3509 3622 2328 
Q 3622 1225 3098 567 
Q 2575 -91 1691 -91 
Q 1453 -91 1209 -44 
Q 966 3 703 97 
z
M 1959 2075 
Q 2384 2075 2632 2365 
Q 2881 2656 2881 3163 
Q 2881 3666 2632 3958 
Q 2384 4250 1959 4250 
Q 1534 4250 1286 3958 
Q 1038 3666 1038 3163 
Q 1038 2656 1286 2365 
Q 1534 2075 1959 2075 
z
" transform="scale(0.015625)"/>
        <path id="DejaVuSans-30" d="M 2034 4250 
Q 1547 4250 1301 3770 
Q 1056 3291 1056 2328 
Q 1056 1369 1301 889 
Q 1547 409 2034 409 
Q 2525 409 2770 889 
Q 3016 1369 3016 2328 
Q 3016 3291 2770 3770 
Q 2525 4250 2034 4250 
z
M 2034 4750 
Q 2819 4750 3233 4129 
Q 3647 3509 3647 2328 
Q 3647 1150 3233 529 
Q 2819 -91 2034 -91 
Q 1250 -91 836 529 
Q 422 1150 422 2328 
Q 422 3509 836 4129 
Q 1250 4750 2034 4750 
z
" transform="scale(0.015625)"/>
       </defs>
       <use xlink:href="#DejaVuSans-31"/>
       <use xlink:href="#DejaVuSans-39" x="63.623047"/>
       <use xlink:href="#DejaVuSans-30" x="127.246094"/>
       <use xlink:href="#DejaVuSans-30" x="190.869141"/>
      </g>
     </g>
    </g>
    <g id="xtick_2">
     <g id="line2d_3">
      <path d="M 130.955343 318.04 
L 130.955343 36.36 
" clip-path="url(#p737dfa5528)" style="fill: none; stroke-dasharray: 0.8,1.32; stroke-dashoffset: 0; stroke: #b0b0b0; stroke-width: 0.8"/>
     </g>
     <g id="line2d_4">
      <g>
       <use xlink:href="#m6b95f01935" x="130.955343" y="318.04" style="stroke: #000000; stroke-width: 0.8"/>
      </g>
     </g>
     <g id="text_2">
      <!-- 1925 -->
      <g transform="translate(118.230343 332.638438) scale(0.1 -0.1)">
       <defs>
        <path id="DejaVuSans-32" d="M 1228 531 
L 3431 531 
L 3431 0 
L 469 0 
L 469 531 
Q 828 903 1448 1529 
Q 2069 2156 2228 2338 
Q 2531 2678 2651 2914 
Q 2772 3150 2772 3378 
Q 2772 3750 2511 3984 
Q 2250 4219 1831 4219 
Q 1534 4219 1204 4116 
Q 875 4013 500 3803 
L 500 4441 
Q 881 4594 1212 4672 
Q 1544 4750 1819 4750 
Q 2544 4750 2975 4387 
Q 3406 4025 3406 3419 
Q 3406 3131 3298 2873 
Q 3191 2616 2906 2266 
Q 2828 2175 2409 1742 
Q 1991 1309 1228 531 
z
" transform="scale(0.015625)"/>
        <path id="DejaVuSans-35" d="M 691 4666 
L 3169 4666 
L 3169 4134 
L 1269 4134 
L 1269 2991 
Q 1406 3038 1543 3061 
Q 1681 3084 1819 3084 
Q 2600 3084 3056 2656 
Q 3513 2228 3513 1497 
Q 3513 744 3044 326 
Q 2575 -91 1722 -91 
Q 1428 -91 1123 -41 
Q 819 9 494 109 
L 494 744 
Q 775 591 1075 516 
Q 1375 441 1709 441 
Q 2250 441 2565 725 
Q 2881 1009 2881 1497 
Q 2881 1984 2565 2268 
Q 2250 2553 1709 2553 
Q 1456 2553 1204 2497 
Q 953 2441 691 2322 
L 691 4666 
z
" transform="scale(0.015625)"/>
       </defs>
       <use xlink:href="#DejaVuSans-31"/>
       <use xlink:href="#DejaVuSans-39" x="63.623047"/>
       <use xlink:href="#DejaVuSans-32" x="127.246094"/>
       <use xlink:href="#DejaVuSans-35" x="190.869141"/>
      </g>
     </g>
    </g>
    <g id="xtick_3">
     <g id="line2d_5">
      <path d="M 185.819777 318.04 
L 185.819777 36.36 
" clip-path="url(#p737dfa5528)" style="fill: none; stroke-dasharray: 0.8,1.32; stroke-dashoffset: 0; stroke: #b0b0b0; stroke-width: 0.8"/>
     </g>
     <g id="line2d_6">
      <g>
       <use xlink:href="#m6b95f01935" x="185.819777" y="318.04" style="stroke: #000000; stroke-width: 0.8"/>
      </g>
     </g>
     <g id="text_3">
      <!-- 1950 -->
      <g transform="translate(173.094777 332.638438) scale(0.1 -0.1)">
       <use xlink:href="#DejaVuSans-31"/>
       <use xlink:href="#DejaVuSans-39" x="63.623047"/>
       <use xlink:href="#DejaVuSans-35" x="127.246094"/>
       <use xlink:href="#DejaVuSans-30" x="190.869141"/>
      </g>
     </g>
    </g>
    <g id="xtick_4">
     <g id="line2d_7">
      <path d="M 240.684211 318.04 
L 240.684211 36.36 
" clip-path="url(#p737dfa5528)" style="fill: none; stroke-dasharray: 0.8,1.32; stroke-dashoffset: 0; stroke: #b0b0b0; stroke-width: 0.8"/>
     </g>
     <g id="line2d_8">
      <g>
       <use xlink:href="#m6b95f01935" x="240.684211" y="318.04" style="stroke: #000000; stroke-width: 0.8"/>
      </g>
     </g>
     <g id="text_4">
      <!-- 1975 -->
      <g transform="translate(227.959211 332.638438) scale(0.1 -0.1)">
       <defs>
        <path id="DejaVuSans-37" d="M 525 4666 
L 3525 4666 
L 3525 4397 
L 1831 0 
L 1172 0 
L 2766 4134 
L 525 4134 
L 525 4666 
z
" transform="scale(0.015625)"/>
       </defs>
       <use xlink:href="#DejaVuSans-31"/>
       <use xlink:href="#DejaVuSans-39" x="63.623047"/>
       <use xlink:href="#DejaVuSans-37" x="127.246094"/>
       <use xlink:href="#DejaVuSans-35" x="190.869141"/>
      </g>
     </g>
    </g>
    <g id="xtick_5">
     <g id="line2d_9">
      <path d="M 295.548644 318.04 
L 295.548644 36.36 
" clip-path="url(#p737dfa5528)" style="fill: none; stroke-dasharray: 0.8,1.32; stroke-dashoffset: 0; stroke: #b0b0b0; stroke-width: 0.8"/>
     </g>
     <g id="line2d_10">
      <g>
       <use xlink:href="#m6b95f01935" x="295.548644" y="318.04" style="stroke: #000000; stroke-width: 0.8"/>
      </g>
     </g>
     <g id="text_5">
      <!-- 2000 -->
      <g transform="translate(282.823644 332.638438) scale(0.1 -0.1)">
       <use xlink:href="#DejaVuSans-32"/>
       <use xlink:href="#DejaVuSans-30" x="63.623047"/>
       <use xlink:href="#DejaVuSans-30" x="127.246094"/>
       <use xlink:href="#DejaVuSans-30" x="190.869141"/>
      </g>
     </g>
    </g>
    <g id="xtick_6">
     <g id="line2d_11">
      <path d="M 350.413078 318.04 
L 350.413078 36.36 
" clip-path="url(#p737dfa5528)" style="fill: none; stroke-dasharray: 0.8,1.32; stroke-dashoffset: 0; stroke: #b0b0b0; stroke-width: 0.8"/>
     </g>
     <g id="line2d_12">
      <g>
       <use xlink:href="#m6b95f01935" x="350.413078" y="318.04" style="stroke: #000000; stroke-width: 0.8"/>
      </g>
     </g>
     <g id="text_6">
      <!-- 2025 -->
      <g transform="translate(337.688078 332.638438) scale(0.1 -0.1)">
       <use xlink:href="#DejaVuSans-32"/>
       <use xlink:href="#DejaVuSans-30" x="63.623047"/>
       <use xlink:href="#DejaVuSans-32" x="127.246094"/>
       <use xlink:href="#DejaVuSans-35" x="190.869141"/>
      </g>
     </g>
    </g>
    <g id="xtick_7">
     <g id="line2d_13">
      <path d="M 405.277512 318.04 
L 405.277512 36.36 
" clip-path="url(#p737dfa5528)" style="fill: none; stroke-dasharray: 0.8,1.32; stroke-dashoffset: 0; stroke: #b0b0b0; stroke-width: 0.8"/>
     </g>
     <g id="line2d_14">
      <g>
       <use xlink:href="#m6b95f01935" x="405.277512" y="318.04" style="stroke: #000000; stroke-width: 0.8"/>
      </g>
     </g>
     <g id="text_7">
      <!-- 2050 -->
      <g transform="translate(392.552512 332.638438) scale(0.1 -0.1)">
       <use xlink:href="#DejaVuSans-32"/>
       <use xlink:href="#DejaVuSans-30" x="63.623047"/>
       <use xlink:href="#DejaVuSans-35" x="127.246094"/>
       <use xlink:href="#DejaVuSans-30" x="190.869141"/>
      </g>
     </g>
    </g>
    <g id="xtick_8">
     <g id="line2d_15">
      <path d="M 460.141946 318.04 
L 460.141946 36.36 
" clip-path="url(#p737dfa5528)" style="fill: none; stroke-dasharray: 0.8,1.32; stroke-dashoffset: 0; stroke: #b0b0b0; stroke-width: 0.8"/>
     </g>
     <g id="line2d_16">
      <g>
       <use xlink:href="#m6b95f01935" x="460.141946" y="318.04" style="stroke: #000000; stroke-width: 0.8"/>
      </g>
     </g>
     <g id="text_8">
      <!-- 2075 -->
      <g transform="translate(447.416946 332.638438) scale(0.1 -0.1)">
       <use xlink:href="#DejaVuSans-32"/>
       <use xlink:href="#DejaVuSans-30" x="63.623047"/>
       <use xlink:href="#DejaVuSans-37" x="127.246094"/>
       <use xlink:href="#DejaVuSans-35" x="190.869141"/>
      </g>
     </g>
    </g>
    <g id="xtick_9">
     <g id="line2d_17">
      <path d="M 515.00638 318.04 
L 515.00638 36.36 
" clip-path="url(#p737dfa5528)" style="fill: none; stroke-dasharray: 0.8,1.32; stroke-dashoffset: 0; stroke: #b0b0b0; stroke-width: 0.8"/>
     </g>
     <g id="line2d_18">
      <g>
       <use xlink:href="#m6b95f01935" x="515.00638" y="318.04" style="stroke: #000000; stroke-width: 0.8"/>
      </g>
     </g>
     <g id="text_9">
      <!-- 2100 -->
      <g transform="translate(502.28138 332.638438) scale(0.1 -0.1)">
       <use xlink:href="#DejaVuSans-32"/>
       <use xlink:href="#DejaVuSans-31" x="63.623047"/>
       <use xlink:href="#DejaVuSans-30" x="127.246094"/>
       <use xlink:href="#DejaVuSans-30" x="190.869141"/>
      </g>
     </g>
    </g>
    <g id="text_10">
     <!-- Year -->
     <g transform="translate(284.4125 346.316563) scale(0.1 -0.1)">
      <defs>
       <path id="DejaVuSans-59" d="M -13 4666 
L 666 4666 
L 1959 2747 
L 3244 4666 
L 3922 4666 
L 2272 2222 
L 2272 0 
L 1638 0 
L 1638 2222 
L -13 4666 
z
" transform="scale(0.015625)"/>
       <path id="DejaVuSans-65" d="M 3597 1894 
L 3597 1613 
L 953 1613 
Q 991 1019 1311 708 
Q 1631 397 2203 397 
Q 2534 397 2845 478 
Q 3156 559 3463 722 
L 3463 178 
Q 3153 47 2828 -22 
Q 2503 -91 2169 -91 
Q 1331 -91 842 396 
Q 353 884 353 1716 
Q 353 2575 817 3079 
Q 1281 3584 2069 3584 
Q 2775 3584 3186 3129 
Q 3597 2675 3597 1894 
z
M 3022 2063 
Q 3016 2534 2758 2815 
Q 2500 3097 2075 3097 
Q 1594 3097 1305 2825 
Q 1016 2553 972 2059 
L 3022 2063 
z
" transform="scale(0.015625)"/>
       <path id="DejaVuSans-61" d="M 2194 1759 
Q 1497 1759 1228 1600 
Q 959 1441 959 1056 
Q 959 750 1161 570 
Q 1363 391 1709 391 
Q 2188 391 2477 730 
Q 2766 1069 2766 1631 
L 2766 1759 
L 2194 1759 
z
M 3341 1997 
L 3341 0 
L 2766 0 
L 2766 531 
Q 2569 213 2275 61 
Q 1981 -91 1556 -91 
Q 1019 -91 701 211 
Q 384 513 384 1019 
Q 384 1609 779 1909 
Q 1175 2209 1959 2209 
L 2766 2209 
L 2766 2266 
Q 2766 2663 2505 2880 
Q 2244 3097 1772 3097 
Q 1472 3097 1187 3025 
Q 903 2953 641 2809 
L 641 3341 
Q 956 3463 1253 3523 
Q 1550 3584 1831 3584 
Q 2591 3584 2966 3190 
Q 3341 2797 3341 1997 
z
" transform="scale(0.015625)"/>
       <path id="DejaVuSans-72" d="M 2631 2963 
Q 2534 3019 2420 3045 
Q 2306 3072 2169 3072 
Q 1681 3072 1420 2755 
Q 1159 2438 1159 1844 
L 1159 0 
L 581 0 
L 581 3500 
L 1159 3500 
L 1159 2956 
Q 1341 3275 1631 3429 
Q 1922 3584 2338 3584 
Q 2397 3584 2469 3576 
Q 2541 3569 2628 3553 
L 2631 2963 
z
" transform="scale(0.015625)"/>
      </defs>
      <use xlink:href="#DejaVuSans-59"/>
      <use xlink:href="#DejaVuSans-65" x="47.833984"/>
      <use xlink:href="#DejaVuSans-61" x="109.357422"/>
      <use xlink:href="#DejaVuSans-72" x="170.636719"/>
     </g>
    </g>
   </g>
   <g id="matplotlib.axis_2">
    <g id="ytick_1">
     <g id="line2d_19">
      <defs>
       <path id="m1a3023e813" d="M 0 0 
L -3.5 0 
" style="stroke: #1f77b4; stroke-width: 0.8"/>
      </defs>
      <g>
       <use xlink:href="#m1a3023e813" x="54.2" y="318.04" style="fill: #1f77b4; stroke: #1f77b4; stroke-width: 0.8"/>
      </g>
     </g>
     <g id="text_11">
      <!-- 0.0 -->
      <g style="fill: #1f77b4" transform="translate(31.296875 321.839219) scale(0.1 -0.1)">
       <defs>
        <path id="DejaVuSans-2e" d="M 684 794 
L 1344 794 
L 1344 0 
L 684 0 
L 684 794 
z
" transform="scale(0.015625)"/>
       </defs>
       <use xlink:href="#DejaVuSans-30"/>
       <use xlink:href="#DejaVuSans-2e" x="63.623047"/>
       <use xlink:href="#DejaVuSans-30" x="95.410156"/>
      </g>
     </g>
    </g>
    <g id="ytick_2">
     <g id="line2d_20">
      <g>
       <use xlink:href="#m1a3023e813" x="54.2" y="261.704" style="fill: #1f77b4; stroke: #1f77b4; stroke-width: 0.8"/>
      </g>
     </g>
     <g id="text_12">
      <!-- 10.0 -->
      <g style="fill: #1f77b4" transform="translate(24.934375 265.503219) scale(0.1 -0.1)">
       <use xlink:href="#DejaVuSans-31"/>
       <use xlink:href="#DejaVuSans-30" x="63.623047"/>
       <use xlink:href="#DejaVuSans-2e" x="127.246094"/>
       <use xlink:href="#DejaVuSans-30" x="159.033203"/>
      </g>
     </g>
    </g>
    <g id="ytick_3">
     <g id="line2d_21">
      <g>
       <use xlink:href="#m1a3023e813" x="54.2" y="205.368" style="fill: #1f77b4; stroke: #1f77b4; stroke-width: 0.8"/>
      </g>
     </g>
     <g id="text_13">
      <!-- 20.0 -->
      <g style="fill: #1f77b4" transform="translate(24.934375 209.167219) scale(0.1 -0.1)">
       <use xlink:href="#DejaVuSans-32"/>
       <use xlink:href="#DejaVuSans-30" x="63.623047"/>
       <use xlink:href="#DejaVuSans-2e" x="127.246094"/>
       <use xlink:href="#DejaVuSans-30" x="159.033203"/>
      </g>
     </g>
    </g>
    <g id="ytick_4">
     <g id="line2d_22">
      <g>
       <use xlink:href="#m1a3023e813" x="54.2" y="149.032" style="fill: #1f77b4; stroke: #1f77b4; stroke-width: 0.8"/>
      </g>
     </g>
     <g id="text_14">
      <!-- 30.0 -->
      <g style="fill: #1f77b4" transform="translate(24.934375 152.831219) scale(0.1 -0.1)">
       <defs>
        <path id="DejaVuSans-33" d="M 2597 2516 
Q 3050 2419 3304 2112 
Q 3559 1806 3559 1356 
Q 3559 666 3084 287 
Q 2609 -91 1734 -91 
Q 1441 -91 1130 -33 
Q 819 25 488 141 
L 488 750 
Q 750 597 1062 519 
Q 1375 441 1716 441 
Q 2309 441 2620 675 
Q 2931 909 2931 1356 
Q 2931 1769 2642 2001 
Q 2353 2234 1838 2234 
L 1294 2234 
L 1294 2753 
L 1863 2753 
Q 2328 2753 2575 2939 
Q 2822 3125 2822 3475 
Q 2822 3834 2567 4026 
Q 2313 4219 1838 4219 
Q 1578 4219 1281 4162 
Q 984 4106 628 3988 
L 628 4550 
Q 988 4650 1302 4700 
Q 1616 4750 1894 4750 
Q 2613 4750 3031 4423 
Q 3450 4097 3450 3541 
Q 3450 3153 3228 2886 
Q 3006 2619 2597 2516 
z
" transform="scale(0.015625)"/>
       </defs>
       <use xlink:href="#DejaVuSans-33"/>
       <use xlink:href="#DejaVuSans-30" x="63.623047"/>
       <use xlink:href="#DejaVuSans-2e" x="127.246094"/>
       <use xlink:href="#DejaVuSans-30" x="159.033203"/>
      </g>
     </g>
    </g>
    <g id="ytick_5">
     <g id="line2d_23">
      <g>
       <use xlink:href="#m1a3023e813" x="54.2" y="92.696" style="fill: #1f77b4; stroke: #1f77b4; stroke-width: 0.8"/>
      </g>
     </g>
     <g id="text_15">
      <!-- 40.0 -->
      <g style="fill: #1f77b4" transform="translate(24.934375 96.495219) scale(0.1 -0.1)">
       <defs>
        <path id="DejaVuSans-34" d="M 2419 4116 
L 825 1625 
L 2419 1625 
L 2419 4116 
z
M 2253 4666 
L 3047 4666 
L 3047 1625 
L 3713 1625 
L 3713 1100 
L 3047 1100 
L 3047 0 
L 2419 0 
L 2419 1100 
L 313 1100 
L 313 1709 
L 2253 4666 
z
" transform="scale(0.015625)"/>
       </defs>
       <use xlink:href="#DejaVuSans-34"/>
       <use xlink:href="#DejaVuSans-30" x="63.623047"/>
       <use xlink:href="#DejaVuSans-2e" x="127.246094"/>
       <use xlink:href="#DejaVuSans-30" x="159.033203"/>
      </g>
     </g>
    </g>
    <g id="ytick_6">
     <g id="line2d_24">
      <g>
       <use xlink:href="#m1a3023e813" x="54.2" y="36.36" style="fill: #1f77b4; stroke: #1f77b4; stroke-width: 0.8"/>
      </g>
     </g>
     <g id="text_16">
      <!-- 50.0 -->
      <g style="fill: #1f77b4" transform="translate(24.934375 40.159219) scale(0.1 -0.1)">
       <use xlink:href="#DejaVuSans-35"/>
       <use xlink:href="#DejaVuSans-30" x="63.623047"/>
       <use xlink:href="#DejaVuSans-2e" x="127.246094"/>
       <use xlink:href="#DejaVuSans-30" x="159.033203"/>
      </g>
     </g>
    </g>
    <g id="text_17">
     <!-- Crude Birth Rate (births/1000people) -->
     <g style="fill: #1f77b4" transform="translate(18.854688 270.013281) rotate(-90) scale(0.1 -0.1)">
      <defs>
       <path id="DejaVuSans-43" d="M 4122 4306 
L 4122 3641 
Q 3803 3938 3442 4084 
Q 3081 4231 2675 4231 
Q 1875 4231 1450 3742 
Q 1025 3253 1025 2328 
Q 1025 1406 1450 917 
Q 1875 428 2675 428 
Q 3081 428 3442 575 
Q 3803 722 4122 1019 
L 4122 359 
Q 3791 134 3420 21 
Q 3050 -91 2638 -91 
Q 1578 -91 968 557 
Q 359 1206 359 2328 
Q 359 3453 968 4101 
Q 1578 4750 2638 4750 
Q 3056 4750 3426 4639 
Q 3797 4528 4122 4306 
z
" transform="scale(0.015625)"/>
       <path id="DejaVuSans-75" d="M 544 1381 
L 544 3500 
L 1119 3500 
L 1119 1403 
Q 1119 906 1312 657 
Q 1506 409 1894 409 
Q 2359 409 2629 706 
Q 2900 1003 2900 1516 
L 2900 3500 
L 3475 3500 
L 3475 0 
L 2900 0 
L 2900 538 
Q 2691 219 2414 64 
Q 2138 -91 1772 -91 
Q 1169 -91 856 284 
Q 544 659 544 1381 
z
M 1991 3584 
L 1991 3584 
z
" transform="scale(0.015625)"/>
       <path id="DejaVuSans-64" d="M 2906 2969 
L 2906 4863 
L 3481 4863 
L 3481 0 
L 2906 0 
L 2906 525 
Q 2725 213 2448 61 
Q 2172 -91 1784 -91 
Q 1150 -91 751 415 
Q 353 922 353 1747 
Q 353 2572 751 3078 
Q 1150 3584 1784 3584 
Q 2172 3584 2448 3432 
Q 2725 3281 2906 2969 
z
M 947 1747 
Q 947 1113 1208 752 
Q 1469 391 1925 391 
Q 2381 391 2643 752 
Q 2906 1113 2906 1747 
Q 2906 2381 2643 2742 
Q 2381 3103 1925 3103 
Q 1469 3103 1208 2742 
Q 947 2381 947 1747 
z
" transform="scale(0.015625)"/>
       <path id="DejaVuSans-20" transform="scale(0.015625)"/>
       <path id="DejaVuSans-42" d="M 1259 2228 
L 1259 519 
L 2272 519 
Q 2781 519 3026 730 
Q 3272 941 3272 1375 
Q 3272 1813 3026 2020 
Q 2781 2228 2272 2228 
L 1259 2228 
z
M 1259 4147 
L 1259 2741 
L 2194 2741 
Q 2656 2741 2882 2914 
Q 3109 3088 3109 3444 
Q 3109 3797 2882 3972 
Q 2656 4147 2194 4147 
L 1259 4147 
z
M 628 4666 
L 2241 4666 
Q 2963 4666 3353 4366 
Q 3744 4066 3744 3513 
Q 3744 3084 3544 2831 
Q 3344 2578 2956 2516 
Q 3422 2416 3680 2098 
Q 3938 1781 3938 1306 
Q 3938 681 3513 340 
Q 3088 0 2303 0 
L 628 0 
L 628 4666 
z
" transform="scale(0.015625)"/>
       <path id="DejaVuSans-69" d="M 603 3500 
L 1178 3500 
L 1178 0 
L 603 0 
L 603 3500 
z
M 603 4863 
L 1178 4863 
L 1178 4134 
L 603 4134 
L 603 4863 
z
" transform="scale(0.015625)"/>
       <path id="DejaVuSans-74" d="M 1172 4494 
L 1172 3500 
L 2356 3500 
L 2356 3053 
L 1172 3053 
L 1172 1153 
Q 1172 725 1289 603 
Q 1406 481 1766 481 
L 2356 481 
L 2356 0 
L 1766 0 
Q 1100 0 847 248 
Q 594 497 594 1153 
L 594 3053 
L 172 3053 
L 172 3500 
L 594 3500 
L 594 4494 
L 1172 4494 
z
" transform="scale(0.015625)"/>
       <path id="DejaVuSans-68" d="M 3513 2113 
L 3513 0 
L 2938 0 
L 2938 2094 
Q 2938 2591 2744 2837 
Q 2550 3084 2163 3084 
Q 1697 3084 1428 2787 
Q 1159 2491 1159 1978 
L 1159 0 
L 581 0 
L 581 4863 
L 1159 4863 
L 1159 2956 
Q 1366 3272 1645 3428 
Q 1925 3584 2291 3584 
Q 2894 3584 3203 3211 
Q 3513 2838 3513 2113 
z
" transform="scale(0.015625)"/>
       <path id="DejaVuSans-52" d="M 2841 2188 
Q 3044 2119 3236 1894 
Q 3428 1669 3622 1275 
L 4263 0 
L 3584 0 
L 2988 1197 
Q 2756 1666 2539 1819 
Q 2322 1972 1947 1972 
L 1259 1972 
L 1259 0 
L 628 0 
L 628 4666 
L 2053 4666 
Q 2853 4666 3247 4331 
Q 3641 3997 3641 3322 
Q 3641 2881 3436 2590 
Q 3231 2300 2841 2188 
z
M 1259 4147 
L 1259 2491 
L 2053 2491 
Q 2509 2491 2742 2702 
Q 2975 2913 2975 3322 
Q 2975 3731 2742 3939 
Q 2509 4147 2053 4147 
L 1259 4147 
z
" transform="scale(0.015625)"/>
       <path id="DejaVuSans-28" d="M 1984 4856 
Q 1566 4138 1362 3434 
Q 1159 2731 1159 2009 
Q 1159 1288 1364 580 
Q 1569 -128 1984 -844 
L 1484 -844 
Q 1016 -109 783 600 
Q 550 1309 550 2009 
Q 550 2706 781 3412 
Q 1013 4119 1484 4856 
L 1984 4856 
z
" transform="scale(0.015625)"/>
       <path id="DejaVuSans-62" d="M 3116 1747 
Q 3116 2381 2855 2742 
Q 2594 3103 2138 3103 
Q 1681 3103 1420 2742 
Q 1159 2381 1159 1747 
Q 1159 1113 1420 752 
Q 1681 391 2138 391 
Q 2594 391 2855 752 
Q 3116 1113 3116 1747 
z
M 1159 2969 
Q 1341 3281 1617 3432 
Q 1894 3584 2278 3584 
Q 2916 3584 3314 3078 
Q 3713 2572 3713 1747 
Q 3713 922 3314 415 
Q 2916 -91 2278 -91 
Q 1894 -91 1617 61 
Q 1341 213 1159 525 
L 1159 0 
L 581 0 
L 581 4863 
L 1159 4863 
L 1159 2969 
z
" transform="scale(0.015625)"/>
       <path id="DejaVuSans-73" d="M 2834 3397 
L 2834 2853 
Q 2591 2978 2328 3040 
Q 2066 3103 1784 3103 
Q 1356 3103 1142 2972 
Q 928 2841 928 2578 
Q 928 2378 1081 2264 
Q 1234 2150 1697 2047 
L 1894 2003 
Q 2506 1872 2764 1633 
Q 3022 1394 3022 966 
Q 3022 478 2636 193 
Q 2250 -91 1575 -91 
Q 1294 -91 989 -36 
Q 684 19 347 128 
L 347 722 
Q 666 556 975 473 
Q 1284 391 1588 391 
Q 1994 391 2212 530 
Q 2431 669 2431 922 
Q 2431 1156 2273 1281 
Q 2116 1406 1581 1522 
L 1381 1569 
Q 847 1681 609 1914 
Q 372 2147 372 2553 
Q 372 3047 722 3315 
Q 1072 3584 1716 3584 
Q 2034 3584 2315 3537 
Q 2597 3491 2834 3397 
z
" transform="scale(0.015625)"/>
       <path id="DejaVuSans-2f" d="M 1625 4666 
L 2156 4666 
L 531 -594 
L 0 -594 
L 1625 4666 
z
" transform="scale(0.015625)"/>
       <path id="DejaVuSans-70" d="M 1159 525 
L 1159 -1331 
L 581 -1331 
L 581 3500 
L 1159 3500 
L 1159 2969 
Q 1341 3281 1617 3432 
Q 1894 3584 2278 3584 
Q 2916 3584 3314 3078 
Q 3713 2572 3713 1747 
Q 3713 922 3314 415 
Q 2916 -91 2278 -91 
Q 1894 -91 1617 61 
Q 1341 213 1159 525 
z
M 3116 1747 
Q 3116 2381 2855 2742 
Q 2594 3103 2138 3103 
Q 1681 3103 1420 2742 
Q 1159 2381 1159 1747 
Q 1159 1113 1420 752 
Q 1681 391 2138 391 
Q 2594 391 2855 752 
Q 3116 1113 3116 1747 
z
" transform="scale(0.015625)"/>
       <path id="DejaVuSans-6f" d="M 1959 3097 
Q 1497 3097 1228 2736 
Q 959 2375 959 1747 
Q 959 1119 1226 758 
Q 1494 397 1959 397 
Q 2419 397 2687 759 
Q 2956 1122 2956 1747 
Q 2956 2369 2687 2733 
Q 2419 3097 1959 3097 
z
M 1959 3584 
Q 2709 3584 3137 3096 
Q 3566 2609 3566 1747 
Q 3566 888 3137 398 
Q 2709 -91 1959 -91 
Q 1206 -91 779 398 
Q 353 888 353 1747 
Q 353 2609 779 3096 
Q 1206 3584 1959 3584 
z
" transform="scale(0.015625)"/>
       <path id="DejaVuSans-6c" d="M 603 4863 
L 1178 4863 
L 1178 0 
L 603 0 
L 603 4863 
z
" transform="scale(0.015625)"/>
       <path id="DejaVuSans-29" d="M 513 4856 
L 1013 4856 
Q 1481 4119 1714 3412 
Q 1947 2706 1947 2009 
Q 1947 1309 1714 600 
Q 1481 -109 1013 -844 
L 513 -844 
Q 928 -128 1133 580 
Q 1338 1288 1338 2009 
Q 1338 2731 1133 3434 
Q 928 4138 513 4856 
z
" transform="scale(0.015625)"/>
      </defs>
      <use xlink:href="#DejaVuSans-43"/>
      <use xlink:href="#DejaVuSans-72" x="69.824219"/>
      <use xlink:href="#DejaVuSans-75" x="110.9375"/>
      <use xlink:href="#DejaVuSans-64" x="174.316406"/>
      <use xlink:href="#DejaVuSans-65" x="237.792969"/>
      <use xlink:href="#DejaVuSans-20" x="299.316406"/>
      <use xlink:href="#DejaVuSans-42" x="331.103516"/>
      <use xlink:href="#DejaVuSans-69" x="399.707031"/>
      <use xlink:href="#DejaVuSans-72" x="427.490234"/>
      <use xlink:href="#DejaVuSans-74" x="468.603516"/>
      <use xlink:href="#DejaVuSans-68" x="507.8125"/>
      <use xlink:href="#DejaVuSans-20" x="571.191406"/>
      <use xlink:href="#DejaVuSans-52" x="602.978516"/>
      <use xlink:href="#DejaVuSans-61" x="670.210938"/>
      <use xlink:href="#DejaVuSans-74" x="731.490234"/>
      <use xlink:href="#DejaVuSans-65" x="770.699219"/>
      <use xlink:href="#DejaVuSans-20" x="832.222656"/>
      <use xlink:href="#DejaVuSans-28" x="864.009766"/>
      <use xlink:href="#DejaVuSans-62" x="903.023438"/>
      <use xlink:href="#DejaVuSans-69" x="966.5"/>
      <use xlink:href="#DejaVuSans-72" x="994.283203"/>
      <use xlink:href="#DejaVuSans-74" x="1035.396484"/>
      <use xlink:href="#DejaVuSans-68" x="1074.605469"/>
      <use xlink:href="#DejaVuSans-73" x="1137.984375"/>
      <use xlink:href="#DejaVuSans-2f" x="1190.083984"/>
      <use xlink:href="#DejaVuSans-31" x="1223.775391"/>
      <use xlink:href="#DejaVuSans-30" x="1287.398438"/>
      <use xlink:href="#DejaVuSans-30" x="1351.021484"/>
      <use xlink:href="#DejaVuSans-30" x="1414.644531"/>
      <use xlink:href="#DejaVuSans-70" x="1478.267578"/>
      <use xlink:href="#DejaVuSans-65" x="1541.744141"/>
      <use xlink:href="#DejaVuSans-6f" x="1603.267578"/>
      <use xlink:href="#DejaVuSans-70" x="1664.449219"/>
      <use xlink:href="#DejaVuSans-6c" x="1727.925781"/>
      <use xlink:href="#DejaVuSans-65" x="1755.708984"/>
      <use xlink:href="#DejaVuSans-29" x="1817.232422"/>
     </g>
    </g>
   </g>
   <g id="line2d_25">
    <path d="M 76.090909 120.278232 
L 80.480064 99.896314 
L 81.577352 96.200482 
L 82.674641 93.432661 
L 83.77193 91.401574 
L 84.869219 89.947213 
L 85.966507 89.071391 
L 87.063796 88.528354 
L 88.161085 88.203891 
L 89.258373 88.04384 
L 91.452951 88.056899 
L 93.647528 88.331044 
L 99.133971 89.376743 
L 104.620415 90.362145 
L 110.106858 91.121173 
L 122.177033 92.469728 
L 133.14992 93.751407 
L 136.441786 94.396992 
L 138.636364 95.02005 
L 144.122807 96.90666 
L 150.706539 99.406156 
L 157.290271 102.141374 
L 163.874003 105.1168 
L 170.457735 108.348467 
L 182.527911 114.654031 
L 188.014354 117.70606 
L 192.403509 120.46072 
L 196.792663 123.488419 
L 202.279107 127.584248 
L 215.446571 137.991449 
L 218.738437 140.671221 
L 224.22488 144.583895 
L 235.197767 152.780214 
L 253.851675 167.230418 
L 261.532695 173.430437 
L 268.116427 179.052664 
L 277.992026 187.918698 
L 283.478469 193.282139 
L 286.770335 196.669772 
L 290.062201 199.247104 
L 294.451356 202.808015 
L 299.937799 207.573108 
L 304.326954 211.408403 
L 308.716108 214.028314 
L 321.883573 222.39411 
L 328.467305 226.667491 
L 330.661882 227.620336 
L 359.191388 239.164774 
L 364.677831 241.202604 
L 370.164274 243.528119 
L 374.553429 245.830451 
L 378.942584 248.201829 
L 382.23445 249.736305 
L 385.526316 251.06975 
L 387.720893 251.783957 
L 392.110048 252.830165 
L 394.304625 253.145021 
L 396.499203 253.218873 
L 399.791069 252.965082 
L 403.082935 252.49656 
L 406.374801 251.719992 
L 408.569378 251.036714 
L 410.763955 250.113528 
L 412.958533 248.947426 
L 416.250399 246.865309 
L 422.834131 242.212386 
L 425.028708 240.282977 
L 428.320574 237.353351 
L 431.61244 234.659836 
L 434.904306 232.204156 
L 438.196172 229.983221 
L 441.488038 227.990933 
L 445.877193 225.63543 
L 450.266348 224.145545 
L 462.336523 219.673245 
L 466.725678 218.361889 
L 471.114833 217.293402 
L 475.503987 216.453826 
L 478.795853 215.975719 
L 479.893142 215.92071 
L 480.990431 219.623272 
L 482.087719 222.484221 
L 483.185008 224.700214 
L 484.282297 226.384172 
L 485.379585 227.614357 
L 486.476874 228.544644 
L 487.574163 229.235712 
L 488.671451 229.734989 
L 489.76874 230.079916 
L 491.963317 230.407121 
L 494.157895 230.382429 
L 496.352472 230.123692 
L 498.547049 229.638038 
L 501.838915 228.466626 
L 506.22807 226.63352 
L 510.617225 224.577007 
L 513.909091 223.073936 
L 513.909091 223.073936 
" clip-path="url(#p737dfa5528)" style="fill: none; stroke: #1f77b4; stroke-width: 1.5; stroke-linecap: square"/>
   </g>
   <g id="line2d_26">
    <path d="M 76.090909 119.711402 
L 80.480064 97.993433 
L 81.577352 94.118467 
L 82.674641 91.22365 
L 83.77193 89.105678 
L 84.869219 87.594806 
L 85.966507 86.643755 
L 87.063796 86.088228 
L 88.161085 85.76265 
L 89.258373 85.610058 
L 91.452951 85.656056 
L 93.647528 85.978882 
L 98.036683 86.940347 
L 105.717703 88.64372 
L 110.106858 89.577494 
L 116.69059 90.930958 
L 139.733652 95.465491 
L 152.901116 98.233235 
L 160.582137 99.933466 
L 163.874003 100.740392 
L 164.971292 95.032945 
L 166.068581 96.803886 
L 167.165869 98.30947 
L 169.360447 100.748825 
L 171.555024 102.687444 
L 173.749601 104.33149 
L 177.041467 106.507447 
L 184.722488 111.179828 
L 193.500797 116.613645 
L 203.376396 123.04363 
L 209.960128 127.638386 
L 219.835726 135.05046 
L 227.516746 140.968191 
L 233.00319 144.718032 
L 239.586922 149.45702 
L 246.170654 154.462513 
L 254.948963 161.493129 
L 261.532695 167.053473 
L 273.602871 177.709334 
L 277.992026 182.010971 
L 282.38118 186.681195 
L 285.673046 190.512858 
L 287.867624 193.137215 
L 298.84051 203.935693 
L 301.035088 206.291533 
L 302.132376 207.221004 
L 306.521531 210.14485 
L 310.910686 213.343679 
L 315.299841 216.801512 
L 321.883573 222.01996 
L 348.218501 234.516659 
L 356.99681 238.329848 
L 367.969697 242.54161 
L 369.066986 242.94596 
L 373.45614 244.146221 
L 383.331738 247.090492 
L 392.110048 249.382212 
L 396.499203 250.336324 
L 398.69378 250.653077 
L 400.888357 250.728943 
L 403.082935 250.643791 
L 405.277512 250.323658 
L 407.472089 249.794545 
L 409.666667 249.100318 
L 411.861244 248.124644 
L 415.15311 246.317959 
L 421.736842 242.589141 
L 426.125997 240.359493 
L 428.320574 239.307036 
L 431.61244 237.095716 
L 434.904306 235.134809 
L 438.196172 233.389666 
L 440.39075 232.385509 
L 442.585327 232.076847 
L 445.877193 231.274999 
L 456.85008 228.237626 
L 461.239234 227.325174 
L 465.628389 226.673665 
L 470.017544 226.3023 
L 471.114833 226.255321 
L 472.212121 227.664946 
L 473.30941 231.129502 
L 474.406699 233.916289 
L 475.503987 236.18608 
L 476.601276 238.056259 
L 477.698565 239.61417 
L 478.795853 240.925833 
L 480.990431 243.001715 
L 483.185008 244.571781 
L 485.379585 245.819349 
L 487.574163 246.808802 
L 489.76874 247.355319 
L 491.963317 247.544288 
L 494.157895 247.560423 
L 497.449761 247.330209 
L 500.741627 246.814635 
L 504.033493 246.039013 
L 507.325359 244.995671 
L 511.714514 243.296444 
L 513.909091 242.357977 
L 513.909091 242.357977 
" clip-path="url(#p737dfa5528)" style="fill: none; stroke-dasharray: 1.85,0.8; stroke-dashoffset: 0; stroke: #1f77b4; stroke-width: 0.5"/>
   </g>
   <g id="patch_3">
    <path d="M 54.2 318.04 
L 54.2 36.36 
" style="fill: none; stroke: #000000; stroke-width: 0.8; stroke-linejoin: miter; stroke-linecap: square"/>
   </g>
   <g id="patch_4">
    <path d="M 535.8 318.04 
L 535.8 36.36 
" style="fill: none; stroke: #000000; stroke-width: 0.8; stroke-linejoin: miter; stroke-linecap: square"/>
   </g>
   <g id="patch_5">
    <path d="M 54.2 318.04 
L 535.8 318.04 
" style="fill: none; stroke: #000000; stroke-width: 0.8; stroke-linejoin: miter; stroke-linecap: square"/>
   </g>
   <g id="patch_6">
    <path d="M 54.2 36.36 
L 535.8 36.36 
" style="fill: none; stroke: #000000; stroke-width: 0.8; stroke-linejoin: miter; stroke-linecap: square"/>
   </g>
  </g>
  <g id="axes_2">
   <g id="matplotlib.axis_3">
    <g id="ytick_7">
     <g id="line2d_27">
      <defs>
       <path id="mb6e1222355" d="M 0 0 
L 3.5 0 
" style="stroke: #ff7f0e; stroke-width: 0.8"/>
      </defs>
      <g>
       <use xlink:href="#mb6e1222355" x="535.8" y="318.04" style="fill: #ff7f0e; stroke: #ff7f0e; stroke-width: 0.8"/>
      </g>
     </g>
     <g id="text_18">
      <!-- 0.0 -->
      <g style="fill: #ff7f0e" transform="translate(542.8 321.839219) scale(0.1 -0.1)">
       <use xlink:href="#DejaVuSans-30"/>
       <use xlink:href="#DejaVuSans-2e" x="63.623047"/>
       <use xlink:href="#DejaVuSans-30" x="95.410156"/>
      </g>
     </g>
    </g>
    <g id="ytick_8">
     <g id="line2d_28">
      <g>
       <use xlink:href="#mb6e1222355" x="535.8" y="261.704" style="fill: #ff7f0e; stroke: #ff7f0e; stroke-width: 0.8"/>
      </g>
     </g>
     <g id="text_19">
      <!-- 10.0 -->
      <g style="fill: #ff7f0e" transform="translate(542.8 265.503219) scale(0.1 -0.1)">
       <use xlink:href="#DejaVuSans-31"/>
       <use xlink:href="#DejaVuSans-30" x="63.623047"/>
       <use xlink:href="#DejaVuSans-2e" x="127.246094"/>
       <use xlink:href="#DejaVuSans-30" x="159.033203"/>
      </g>
     </g>
    </g>
    <g id="ytick_9">
     <g id="line2d_29">
      <g>
       <use xlink:href="#mb6e1222355" x="535.8" y="205.368" style="fill: #ff7f0e; stroke: #ff7f0e; stroke-width: 0.8"/>
      </g>
     </g>
     <g id="text_20">
      <!-- 20.0 -->
      <g style="fill: #ff7f0e" transform="translate(542.8 209.167219) scale(0.1 -0.1)">
       <use xlink:href="#DejaVuSans-32"/>
       <use xlink:href="#DejaVuSans-30" x="63.623047"/>
       <use xlink:href="#DejaVuSans-2e" x="127.246094"/>
       <use xlink:href="#DejaVuSans-30" x="159.033203"/>
      </g>
     </g>
    </g>
    <g id="ytick_10">
     <g id="line2d_30">
      <g>
       <use xlink:href="#mb6e1222355" x="535.8" y="149.032" style="fill: #ff7f0e; stroke: #ff7f0e; stroke-width: 0.8"/>
      </g>
     </g>
     <g id="text_21">
      <!-- 30.0 -->
      <g style="fill: #ff7f0e" transform="translate(542.8 152.831219) scale(0.1 -0.1)">
       <use xlink:href="#DejaVuSans-33"/>
       <use xlink:href="#DejaVuSans-30" x="63.623047"/>
       <use xlink:href="#DejaVuSans-2e" x="127.246094"/>
       <use xlink:href="#DejaVuSans-30" x="159.033203"/>
      </g>
     </g>
    </g>
    <g id="ytick_11">
     <g id="line2d_31">
      <g>
       <use xlink:href="#mb6e1222355" x="535.8" y="92.696" style="fill: #ff7f0e; stroke: #ff7f0e; stroke-width: 0.8"/>
      </g>
     </g>
     <g id="text_22">
      <!-- 40.0 -->
      <g style="fill: #ff7f0e" transform="translate(542.8 96.495219) scale(0.1 -0.1)">
       <use xlink:href="#DejaVuSans-34"/>
       <use xlink:href="#DejaVuSans-30" x="63.623047"/>
       <use xlink:href="#DejaVuSans-2e" x="127.246094"/>
       <use xlink:href="#DejaVuSans-30" x="159.033203"/>
      </g>
     </g>
    </g>
    <g id="ytick_12">
     <g id="line2d_32">
      <g>
       <use xlink:href="#mb6e1222355" x="535.8" y="36.36" style="fill: #ff7f0e; stroke: #ff7f0e; stroke-width: 0.8"/>
      </g>
     </g>
     <g id="text_23">
      <!-- 50.0 -->
      <g style="fill: #ff7f0e" transform="translate(542.8 40.159219) scale(0.1 -0.1)">
       <use xlink:href="#DejaVuSans-35"/>
       <use xlink:href="#DejaVuSans-30" x="63.623047"/>
       <use xlink:href="#DejaVuSans-2e" x="127.246094"/>
       <use xlink:href="#DejaVuSans-30" x="159.033203"/>
      </g>
     </g>
    </g>
    <g id="text_24">
     <!-- Crude Death Rate (deaths/1000people) -->
     <g style="fill: #ff7f0e" transform="translate(576.664062 275.825) rotate(-90) scale(0.1 -0.1)">
      <defs>
       <path id="DejaVuSans-44" d="M 1259 4147 
L 1259 519 
L 2022 519 
Q 2988 519 3436 956 
Q 3884 1394 3884 2338 
Q 3884 3275 3436 3711 
Q 2988 4147 2022 4147 
L 1259 4147 
z
M 628 4666 
L 1925 4666 
Q 3281 4666 3915 4102 
Q 4550 3538 4550 2338 
Q 4550 1131 3912 565 
Q 3275 0 1925 0 
L 628 0 
L 628 4666 
z
" transform="scale(0.015625)"/>
      </defs>
      <use xlink:href="#DejaVuSans-43"/>
      <use xlink:href="#DejaVuSans-72" x="69.824219"/>
      <use xlink:href="#DejaVuSans-75" x="110.9375"/>
      <use xlink:href="#DejaVuSans-64" x="174.316406"/>
      <use xlink:href="#DejaVuSans-65" x="237.792969"/>
      <use xlink:href="#DejaVuSans-20" x="299.316406"/>
      <use xlink:href="#DejaVuSans-44" x="331.103516"/>
      <use xlink:href="#DejaVuSans-65" x="408.105469"/>
      <use xlink:href="#DejaVuSans-61" x="469.628906"/>
      <use xlink:href="#DejaVuSans-74" x="530.908203"/>
      <use xlink:href="#DejaVuSans-68" x="570.117188"/>
      <use xlink:href="#DejaVuSans-20" x="633.496094"/>
      <use xlink:href="#DejaVuSans-52" x="665.283203"/>
      <use xlink:href="#DejaVuSans-61" x="732.515625"/>
      <use xlink:href="#DejaVuSans-74" x="793.794922"/>
      <use xlink:href="#DejaVuSans-65" x="833.003906"/>
      <use xlink:href="#DejaVuSans-20" x="894.527344"/>
      <use xlink:href="#DejaVuSans-28" x="926.314453"/>
      <use xlink:href="#DejaVuSans-64" x="965.328125"/>
      <use xlink:href="#DejaVuSans-65" x="1028.804688"/>
      <use xlink:href="#DejaVuSans-61" x="1090.328125"/>
      <use xlink:href="#DejaVuSans-74" x="1151.607422"/>
      <use xlink:href="#DejaVuSans-68" x="1190.816406"/>
      <use xlink:href="#DejaVuSans-73" x="1254.195312"/>
      <use xlink:href="#DejaVuSans-2f" x="1306.294922"/>
      <use xlink:href="#DejaVuSans-31" x="1339.986328"/>
      <use xlink:href="#DejaVuSans-30" x="1403.609375"/>
      <use xlink:href="#DejaVuSans-30" x="1467.232422"/>
      <use xlink:href="#DejaVuSans-30" x="1530.855469"/>
      <use xlink:href="#DejaVuSans-70" x="1594.478516"/>
      <use xlink:href="#DejaVuSans-65" x="1657.955078"/>
      <use xlink:href="#DejaVuSans-6f" x="1719.478516"/>
      <use xlink:href="#DejaVuSans-70" x="1780.660156"/>
      <use xlink:href="#DejaVuSans-6c" x="1844.136719"/>
      <use xlink:href="#DejaVuSans-65" x="1871.919922"/>
      <use xlink:href="#DejaVuSans-29" x="1933.443359"/>
     </g>
    </g>
   </g>
   <g id="line2d_33">
    <path d="M 76.090909 134.456834 
L 77.188198 136.033759 
L 78.285486 137.088062 
L 79.382775 137.823296 
L 80.480064 138.330372 
L 82.674641 138.929532 
L 84.869219 139.209757 
L 88.161085 139.346967 
L 94.744817 139.339794 
L 103.523126 138.87928 
L 107.912281 138.935995 
L 114.496013 139.277876 
L 121.079745 139.828083 
L 126.566188 140.500014 
L 130.955343 141.191707 
L 138.636364 149.245785 
L 145.220096 156.476533 
L 151.803828 164.044609 
L 158.38756 171.9548 
L 166.068581 181.578698 
L 172.652313 190.079266 
L 179.236045 195.876371 
L 185.819777 202.008602 
L 193.500797 213.139877 
L 196.792663 218.137332 
L 202.279107 226.755479 
L 215.446571 241.182197 
L 225.322169 252.473001 
L 229.711324 256.130653 
L 237.392344 262.281025 
L 240.684211 265.043458 
L 245.073365 267.783966 
L 247.267943 269.081089 
L 249.46252 269.775558 
L 259.338118 272.690943 
L 268.116427 275.497678 
L 277.992026 278.7155 
L 283.478469 279.209212 
L 286.770335 279.235014 
L 294.451356 279.692809 
L 301.035088 280.299632 
L 305.424242 280.876287 
L 308.716108 281.373774 
L 309.813397 281.344535 
L 325.175439 278.342324 
L 341.634769 275.330418 
L 359.191388 272.37061 
L 375.650718 269.762167 
L 376.748006 268.870017 
L 382.23445 260.354693 
L 387.720893 251.51777 
L 388.818182 248.918895 
L 391.012759 245.806357 
L 394.304625 231.447291 
L 396.499203 222.641854 
L 400.888357 205.108929 
L 401.985646 199.815015 
L 405.277512 182.743475 
L 406.374801 177.477602 
L 407.472089 171.53711 
L 411.861244 139.023402 
L 414.055821 125.163488 
L 415.15311 116.974497 
L 416.250399 111.15349 
L 417.347687 107.019438 
L 418.444976 104.133359 
L 419.542265 101.969905 
L 420.639553 100.422515 
L 421.736842 99.410651 
L 422.834131 98.85956 
L 423.931419 98.701763 
L 425.028708 98.876358 
L 426.125997 99.329287 
L 427.223285 100.015761 
L 428.320574 100.896913 
L 430.515152 103.113837 
L 432.709729 105.765218 
L 436.001595 110.22809 
L 442.585327 119.714235 
L 443.682616 120.721942 
L 446.974482 121.652791 
L 455.752791 124.385447 
L 461.239234 126.593268 
L 462.336523 127.188291 
L 465.628389 129.500777 
L 467.822967 131.301779 
L 472.212121 135.400223 
L 474.406699 137.785922 
L 476.601276 140.45452 
L 479.893142 144.934664 
L 480.990431 145.831343 
L 482.087719 146.420581 
L 484.282297 147.366753 
L 487.574163 149.591343 
L 488.671451 150.428936 
L 489.76874 150.948365 
L 491.963317 151.443683 
L 494.157895 152.312847 
L 496.352472 153.511215 
L 498.547049 155.056251 
L 500.741627 156.954455 
L 502.936204 159.203423 
L 505.130781 161.798178 
L 507.325359 164.588375 
L 509.519936 165.183649 
L 512.811802 165.294418 
L 513.909091 164.842927 
L 513.909091 164.842927 
" clip-path="url(#p737dfa5528)" style="fill: none; stroke: #ff7f0e; stroke-width: 1.5; stroke-linecap: square"/>
   </g>
   <g id="line2d_34">
    <path d="M 76.090909 127.529706 
L 77.188198 129.041824 
L 78.285486 130.055829 
L 79.382775 130.769218 
L 80.480064 131.271027 
L 82.674641 131.907903 
L 85.966507 132.436348 
L 94.744817 133.558517 
L 99.133971 134.368268 
L 103.523126 135.399867 
L 106.814992 136.413889 
L 107.912281 136.79405 
L 114.496013 138.094495 
L 119.982456 139.406224 
L 125.4689 140.956735 
L 130.955343 142.753571 
L 136.441786 144.797609 
L 141.92823 147.090574 
L 147.414673 149.635686 
L 152.901116 152.428581 
L 158.38756 155.470854 
L 163.874003 158.763564 
L 164.971292 194.000524 
L 167.165869 194.881344 
L 170.457735 196.527077 
L 174.84689 198.963945 
L 180.333333 202.302293 
L 185.819777 205.937195 
L 191.30622 209.854769 
L 195.695375 213.238176 
L 203.376396 219.862985 
L 211.057416 226.510336 
L 215.446571 229.163218 
L 237.392344 243.221008 
L 241.781499 246.334786 
L 243.976077 247.951614 
L 249.46252 251.436517 
L 251.657097 252.570202 
L 258.240829 255.322273 
L 264.824561 258.321103 
L 271.408293 261.559297 
L 277.992026 265.033816 
L 286.770335 269.842665 
L 304.326954 273.529143 
L 309.813397 275.060874 
L 313.105263 276.08165 
L 318.591707 275.867219 
L 319.688995 275.826957 
L 322.980861 275.073093 
L 337.245614 271.706011 
L 353.704944 268.064892 
L 355.899522 266.876389 
L 356.99681 266.938525 
L 358.094099 266.721122 
L 360.288676 265.117735 
L 363.580542 262.221729 
L 366.872408 259.105768 
L 378.942584 246.85186 
L 382.23445 241.177294 
L 384.429027 237.206894 
L 386.623604 232.731151 
L 393.207337 218.923476 
L 396.499203 211.199037 
L 397.596491 208.076233 
L 401.985646 185.97263 
L 407.472089 145.68606 
L 408.569378 138.085369 
L 410.763955 120.940011 
L 412.958533 105.498353 
L 414.055821 99.257308 
L 415.15311 94.60211 
L 416.250399 91.108671 
L 417.347687 88.510096 
L 418.444976 86.625753 
L 419.542265 85.325016 
L 421.736842 83.409502 
L 422.834131 82.990522 
L 423.931419 82.976331 
L 425.028708 83.305449 
L 426.125997 83.933009 
L 427.223285 84.813472 
L 428.320574 85.908003 
L 430.515152 88.603161 
L 432.709729 91.792502 
L 433.807018 93.472443 
L 437.098884 97.864186 
L 439.293461 100.913271 
L 440.39075 102.184075 
L 448.07177 106.860232 
L 452.460925 109.806132 
L 454.655502 110.919419 
L 456.85008 112.231612 
L 459.044657 113.733687 
L 462.336523 116.364639 
L 464.5311 118.426913 
L 466.725678 120.804529 
L 468.920255 123.531824 
L 471.114833 126.725633 
L 473.30941 130.569016 
L 475.503987 133.583999 
L 478.795853 137.290817 
L 480.990431 139.710095 
L 485.379585 146.255155 
L 486.476874 146.86601 
L 488.671451 147.562746 
L 490.866029 148.562151 
L 493.060606 149.884437 
L 495.255183 151.568227 
L 497.449761 153.66709 
L 499.644338 156.226013 
L 501.838915 159.20817 
L 504.033493 160.151762 
L 506.22807 161.387963 
L 508.422648 162.856373 
L 510.617225 164.545406 
L 511.714514 165.477919 
L 512.811802 165.344405 
L 513.909091 161.875224 
L 513.909091 161.875224 
" clip-path="url(#p737dfa5528)" style="fill: none; stroke-dasharray: 1.85,0.8; stroke-dashoffset: 0; stroke: #ff7f0e; stroke-width: 0.5"/>
   </g>
   <g id="patch_7">
    <path d="M 54.2 318.04 
L 54.2 36.36 
" style="fill: none; stroke: #000000; stroke-width: 0.8; stroke-linejoin: miter; stroke-linecap: square"/>
   </g>
   <g id="patch_8">
    <path d="M 535.8 318.04 
L 535.8 36.36 
" style="fill: none; stroke: #000000; stroke-width: 0.8; stroke-linejoin: miter; stroke-linecap: square"/>
   </g>
   <g id="patch_9">
    <path d="M 54.2 318.04 
L 535.8 318.04 
" style="fill: none; stroke: #000000; stroke-width: 0.8; stroke-linejoin: miter; stroke-linecap: square"/>
   </g>
   <g id="patch_10">
    <path d="M 54.2 36.36 
L 535.8 36.36 
" style="fill: none; stroke: #000000; stroke-width: 0.8; stroke-linejoin: miter; stroke-linecap: square"/>
   </g>
  </g>
  <g id="axes_3">
   <g id="matplotlib.axis_4">
    <g id="ytick_13">
     <g id="line2d_35">
      <defs>
       <path id="m7581c171a0" d="M 0 0 
L 3.5 0 
" style="stroke: #2ca02c; stroke-width: 0.8"/>
      </defs>
      <g>
       <use xlink:href="#m7581c171a0" x="600.8" y="318.04" style="fill: #2ca02c; stroke: #2ca02c; stroke-width: 0.8"/>
      </g>
     </g>
     <g id="text_25">
      <!-- 0.0 -->
      <g style="fill: #2ca02c" transform="translate(607.8 321.839219) scale(0.1 -0.1)">
       <use xlink:href="#DejaVuSans-30"/>
       <use xlink:href="#DejaVuSans-2e" x="63.623047"/>
       <use xlink:href="#DejaVuSans-30" x="95.410156"/>
      </g>
     </g>
    </g>
    <g id="ytick_14">
     <g id="line2d_36">
      <g>
       <use xlink:href="#m7581c171a0" x="600.8" y="261.704" style="fill: #2ca02c; stroke: #2ca02c; stroke-width: 0.8"/>
      </g>
     </g>
     <g id="text_26">
      <!-- 10.0 -->
      <g style="fill: #2ca02c" transform="translate(607.8 265.503219) scale(0.1 -0.1)">
       <use xlink:href="#DejaVuSans-31"/>
       <use xlink:href="#DejaVuSans-30" x="63.623047"/>
       <use xlink:href="#DejaVuSans-2e" x="127.246094"/>
       <use xlink:href="#DejaVuSans-30" x="159.033203"/>
      </g>
     </g>
    </g>
    <g id="ytick_15">
     <g id="line2d_37">
      <g>
       <use xlink:href="#m7581c171a0" x="600.8" y="205.368" style="fill: #2ca02c; stroke: #2ca02c; stroke-width: 0.8"/>
      </g>
     </g>
     <g id="text_27">
      <!-- 20.0 -->
      <g style="fill: #2ca02c" transform="translate(607.8 209.167219) scale(0.1 -0.1)">
       <use xlink:href="#DejaVuSans-32"/>
       <use xlink:href="#DejaVuSans-30" x="63.623047"/>
       <use xlink:href="#DejaVuSans-2e" x="127.246094"/>
       <use xlink:href="#DejaVuSans-30" x="159.033203"/>
      </g>
     </g>
    </g>
    <g id="ytick_16">
     <g id="line2d_38">
      <g>
       <use xlink:href="#m7581c171a0" x="600.8" y="149.032" style="fill: #2ca02c; stroke: #2ca02c; stroke-width: 0.8"/>
      </g>
     </g>
     <g id="text_28">
      <!-- 30.0 -->
      <g style="fill: #2ca02c" transform="translate(607.8 152.831219) scale(0.1 -0.1)">
       <use xlink:href="#DejaVuSans-33"/>
       <use xlink:href="#DejaVuSans-30" x="63.623047"/>
       <use xlink:href="#DejaVuSans-2e" x="127.246094"/>
       <use xlink:href="#DejaVuSans-30" x="159.033203"/>
      </g>
     </g>
    </g>
    <g id="ytick_17">
     <g id="line2d_39">
      <g>
       <use xlink:href="#m7581c171a0" x="600.8" y="92.696" style="fill: #2ca02c; stroke: #2ca02c; stroke-width: 0.8"/>
      </g>
     </g>
     <g id="text_29">
      <!-- 40.0 -->
      <g style="fill: #2ca02c" transform="translate(607.8 96.495219) scale(0.1 -0.1)">
       <use xlink:href="#DejaVuSans-34"/>
       <use xlink:href="#DejaVuSans-30" x="63.623047"/>
       <use xlink:href="#DejaVuSans-2e" x="127.246094"/>
       <use xlink:href="#DejaVuSans-30" x="159.033203"/>
      </g>
     </g>
    </g>
    <g id="ytick_18">
     <g id="line2d_40">
      <g>
       <use xlink:href="#m7581c171a0" x="600.8" y="36.36" style="fill: #2ca02c; stroke: #2ca02c; stroke-width: 0.8"/>
      </g>
     </g>
     <g id="text_30">
      <!-- 50.0 -->
      <g style="fill: #2ca02c" transform="translate(607.8 40.159219) scale(0.1 -0.1)">
       <use xlink:href="#DejaVuSans-35"/>
       <use xlink:href="#DejaVuSans-30" x="63.623047"/>
       <use xlink:href="#DejaVuSans-2e" x="127.246094"/>
       <use xlink:href="#DejaVuSans-30" x="159.033203"/>
      </g>
     </g>
    </g>
    <g id="text_31">
     <!-- Crude birth rate, empirical data (births/1000persons) -->
     <g style="fill: #2ca02c" transform="translate(641.664062 310.43125) rotate(-90) scale(0.1 -0.1)">
      <defs>
       <path id="DejaVuSans-2c" d="M 750 794 
L 1409 794 
L 1409 256 
L 897 -744 
L 494 -744 
L 750 256 
L 750 794 
z
" transform="scale(0.015625)"/>
       <path id="DejaVuSans-6d" d="M 3328 2828 
Q 3544 3216 3844 3400 
Q 4144 3584 4550 3584 
Q 5097 3584 5394 3201 
Q 5691 2819 5691 2113 
L 5691 0 
L 5113 0 
L 5113 2094 
Q 5113 2597 4934 2840 
Q 4756 3084 4391 3084 
Q 3944 3084 3684 2787 
Q 3425 2491 3425 1978 
L 3425 0 
L 2847 0 
L 2847 2094 
Q 2847 2600 2669 2842 
Q 2491 3084 2119 3084 
Q 1678 3084 1418 2786 
Q 1159 2488 1159 1978 
L 1159 0 
L 581 0 
L 581 3500 
L 1159 3500 
L 1159 2956 
Q 1356 3278 1631 3431 
Q 1906 3584 2284 3584 
Q 2666 3584 2933 3390 
Q 3200 3197 3328 2828 
z
" transform="scale(0.015625)"/>
       <path id="DejaVuSans-63" d="M 3122 3366 
L 3122 2828 
Q 2878 2963 2633 3030 
Q 2388 3097 2138 3097 
Q 1578 3097 1268 2742 
Q 959 2388 959 1747 
Q 959 1106 1268 751 
Q 1578 397 2138 397 
Q 2388 397 2633 464 
Q 2878 531 3122 666 
L 3122 134 
Q 2881 22 2623 -34 
Q 2366 -91 2075 -91 
Q 1284 -91 818 406 
Q 353 903 353 1747 
Q 353 2603 823 3093 
Q 1294 3584 2113 3584 
Q 2378 3584 2631 3529 
Q 2884 3475 3122 3366 
z
" transform="scale(0.015625)"/>
       <path id="DejaVuSans-6e" d="M 3513 2113 
L 3513 0 
L 2938 0 
L 2938 2094 
Q 2938 2591 2744 2837 
Q 2550 3084 2163 3084 
Q 1697 3084 1428 2787 
Q 1159 2491 1159 1978 
L 1159 0 
L 581 0 
L 581 3500 
L 1159 3500 
L 1159 2956 
Q 1366 3272 1645 3428 
Q 1925 3584 2291 3584 
Q 2894 3584 3203 3211 
Q 3513 2838 3513 2113 
z
" transform="scale(0.015625)"/>
      </defs>
      <use xlink:href="#DejaVuSans-43"/>
      <use xlink:href="#DejaVuSans-72" x="69.824219"/>
      <use xlink:href="#DejaVuSans-75" x="110.9375"/>
      <use xlink:href="#DejaVuSans-64" x="174.316406"/>
      <use xlink:href="#DejaVuSans-65" x="237.792969"/>
      <use xlink:href="#DejaVuSans-20" x="299.316406"/>
      <use xlink:href="#DejaVuSans-62" x="331.103516"/>
      <use xlink:href="#DejaVuSans-69" x="394.580078"/>
      <use xlink:href="#DejaVuSans-72" x="422.363281"/>
      <use xlink:href="#DejaVuSans-74" x="463.476562"/>
      <use xlink:href="#DejaVuSans-68" x="502.685547"/>
      <use xlink:href="#DejaVuSans-20" x="566.064453"/>
      <use xlink:href="#DejaVuSans-72" x="597.851562"/>
      <use xlink:href="#DejaVuSans-61" x="638.964844"/>
      <use xlink:href="#DejaVuSans-74" x="700.244141"/>
      <use xlink:href="#DejaVuSans-65" x="739.453125"/>
      <use xlink:href="#DejaVuSans-2c" x="800.976562"/>
      <use xlink:href="#DejaVuSans-20" x="832.763672"/>
      <use xlink:href="#DejaVuSans-65" x="864.550781"/>
      <use xlink:href="#DejaVuSans-6d" x="926.074219"/>
      <use xlink:href="#DejaVuSans-70" x="1023.486328"/>
      <use xlink:href="#DejaVuSans-69" x="1086.962891"/>
      <use xlink:href="#DejaVuSans-72" x="1114.746094"/>
      <use xlink:href="#DejaVuSans-69" x="1155.859375"/>
      <use xlink:href="#DejaVuSans-63" x="1183.642578"/>
      <use xlink:href="#DejaVuSans-61" x="1238.623047"/>
      <use xlink:href="#DejaVuSans-6c" x="1299.902344"/>
      <use xlink:href="#DejaVuSans-20" x="1327.685547"/>
      <use xlink:href="#DejaVuSans-64" x="1359.472656"/>
      <use xlink:href="#DejaVuSans-61" x="1422.949219"/>
      <use xlink:href="#DejaVuSans-74" x="1484.228516"/>
      <use xlink:href="#DejaVuSans-61" x="1523.4375"/>
      <use xlink:href="#DejaVuSans-20" x="1584.716797"/>
      <use xlink:href="#DejaVuSans-28" x="1616.503906"/>
      <use xlink:href="#DejaVuSans-62" x="1655.517578"/>
      <use xlink:href="#DejaVuSans-69" x="1718.994141"/>
      <use xlink:href="#DejaVuSans-72" x="1746.777344"/>
      <use xlink:href="#DejaVuSans-74" x="1787.890625"/>
      <use xlink:href="#DejaVuSans-68" x="1827.099609"/>
      <use xlink:href="#DejaVuSans-73" x="1890.478516"/>
      <use xlink:href="#DejaVuSans-2f" x="1942.578125"/>
      <use xlink:href="#DejaVuSans-31" x="1976.269531"/>
      <use xlink:href="#DejaVuSans-30" x="2039.892578"/>
      <use xlink:href="#DejaVuSans-30" x="2103.515625"/>
      <use xlink:href="#DejaVuSans-30" x="2167.138672"/>
      <use xlink:href="#DejaVuSans-70" x="2230.761719"/>
      <use xlink:href="#DejaVuSans-65" x="2294.238281"/>
      <use xlink:href="#DejaVuSans-72" x="2355.761719"/>
      <use xlink:href="#DejaVuSans-73" x="2396.875"/>
      <use xlink:href="#DejaVuSans-6f" x="2448.974609"/>
      <use xlink:href="#DejaVuSans-6e" x="2510.15625"/>
      <use xlink:href="#DejaVuSans-73" x="2573.535156"/>
      <use xlink:href="#DejaVuSans-29" x="2625.634766"/>
     </g>
    </g>
   </g>
   <g id="line2d_41">
    <path d="M 207.76555 138.280213 
L 209.960128 142.466057 
L 212.154705 120.281535 
L 214.349282 113.683056 
L 216.54386 120.121197 
L 218.738437 123.825838 
L 220.933014 129.83872 
L 223.127592 131.426853 
L 225.322169 130.784166 
L 227.516746 133.5535 
L 229.711324 134.991497 
L 231.905901 139.117832 
L 234.100478 141.773088 
L 236.295056 145.342861 
L 238.489633 150.18863 
L 240.684211 154.01566 
L 242.878788 158.659313 
L 245.073365 160.90241 
L 247.267943 162.432422 
L 249.46252 162.91759 
L 251.657097 162.616078 
L 253.851675 159.899447 
L 256.046252 158.739202 
L 258.240829 162.10505 
L 260.435407 163.462569 
L 262.629984 163.449953 
L 264.824561 162.798526 
L 267.019139 163.32742 
L 274.700159 172.920182 
L 276.894737 176.404817 
L 277.992026 178.237681 
L 281.283892 181.544116 
L 282.38118 182.574524 
L 284.575758 184.953302 
L 287.867624 187.775678 
L 288.964912 188.777952 
L 293.354067 193.699304 
L 295.548644 194.992963 
L 302.132376 199.973186 
L 308.716108 202.883291 
L 312.007974 203.267429 
L 313.105263 203.445334 
L 317.494418 205.341762 
L 321.883573 204.049249 
L 324.07815 206.900409 
L 326.272727 207.380356 
L 328.467305 210.367424 
L 330.661882 210.024336 
L 333.953748 214.166289 
L 335.051037 215.637941 
L 337.245614 217.667643 
L 339.440191 220.997857 
L 343.829346 224.245776 
L 343.829346 224.245776 
" clip-path="url(#p737dfa5528)" style="fill: none; stroke: #2ca02c; stroke-width: 1.5; stroke-linecap: square"/>
   </g>
   <g id="line2d_42">
    <path d="M 207.76555 138.280213 
L 209.960128 142.466057 
L 212.154705 120.281535 
L 214.349282 113.683056 
L 216.54386 120.121197 
L 218.738437 123.825838 
L 220.933014 129.83872 
L 223.127592 131.426853 
L 225.322169 130.784166 
L 227.516746 133.5535 
L 229.711324 134.991497 
L 231.905901 139.117832 
L 234.100478 141.773088 
L 236.295056 145.342861 
L 238.489633 150.18863 
L 240.684211 154.01566 
L 242.878788 158.659313 
L 245.073365 160.90241 
L 247.267943 162.432422 
L 249.46252 162.91759 
L 251.657097 162.616078 
L 253.851675 159.899447 
L 256.046252 158.739202 
L 258.240829 162.10505 
L 260.435407 163.462569 
L 262.629984 163.449953 
L 264.824561 162.798526 
L 267.019139 163.32742 
L 274.700159 172.920182 
L 276.894737 176.404817 
L 277.992026 178.237681 
L 281.283892 181.544116 
L 282.38118 182.574524 
L 284.575758 184.953302 
L 287.867624 187.775678 
L 288.964912 188.777952 
L 293.354067 193.699304 
L 295.548644 194.992963 
L 302.132376 199.973186 
L 308.716108 202.883291 
L 312.007974 203.267429 
L 313.105263 203.445334 
L 317.494418 205.341762 
L 321.883573 204.049249 
L 324.07815 206.900409 
L 326.272727 207.380356 
L 328.467305 210.367424 
L 330.661882 210.024336 
L 333.953748 214.166289 
L 335.051037 215.637941 
L 337.245614 217.667643 
L 339.440191 220.997857 
L 343.829346 224.245776 
L 343.829346 224.245776 
" clip-path="url(#p737dfa5528)" style="fill: none; stroke-dasharray: 1.85,0.8; stroke-dashoffset: 0; stroke: #2ca02c; stroke-width: 0.5"/>
   </g>
   <g id="patch_11">
    <path d="M 54.2 318.04 
L 54.2 36.36 
" style="fill: none; stroke: #000000; stroke-width: 0.8; stroke-linejoin: miter; stroke-linecap: square"/>
   </g>
   <g id="patch_12">
    <path d="M 600.8 318.04 
L 600.8 36.36 
" style="fill: none; stroke: #000000; stroke-width: 0.8; stroke-linejoin: miter; stroke-linecap: square"/>
   </g>
   <g id="patch_13">
    <path d="M 54.2 318.04 
L 535.8 318.04 
" style="fill: none; stroke: #000000; stroke-width: 0.8; stroke-linejoin: miter; stroke-linecap: square"/>
   </g>
   <g id="patch_14">
    <path d="M 54.2 36.36 
L 535.8 36.36 
" style="fill: none; stroke: #000000; stroke-width: 0.8; stroke-linejoin: miter; stroke-linecap: square"/>
   </g>
  </g>
  <g id="axes_4">
   <g id="matplotlib.axis_5">
    <g id="ytick_19">
     <g id="line2d_43">
      <defs>
       <path id="md285d77242" d="M 0 0 
L 3.5 0 
" style="stroke: #d62728; stroke-width: 0.8"/>
      </defs>
      <g>
       <use xlink:href="#md285d77242" x="665.8" y="318.04" style="fill: #d62728; stroke: #d62728; stroke-width: 0.8"/>
      </g>
     </g>
     <g id="text_32">
      <!-- 0.0 -->
      <g style="fill: #d62728" transform="translate(672.8 321.839219) scale(0.1 -0.1)">
       <use xlink:href="#DejaVuSans-30"/>
       <use xlink:href="#DejaVuSans-2e" x="63.623047"/>
       <use xlink:href="#DejaVuSans-30" x="95.410156"/>
      </g>
     </g>
    </g>
    <g id="ytick_20">
     <g id="line2d_44">
      <g>
       <use xlink:href="#md285d77242" x="665.8" y="261.704" style="fill: #d62728; stroke: #d62728; stroke-width: 0.8"/>
      </g>
     </g>
     <g id="text_33">
      <!-- 10.0 -->
      <g style="fill: #d62728" transform="translate(672.8 265.503219) scale(0.1 -0.1)">
       <use xlink:href="#DejaVuSans-31"/>
       <use xlink:href="#DejaVuSans-30" x="63.623047"/>
       <use xlink:href="#DejaVuSans-2e" x="127.246094"/>
       <use xlink:href="#DejaVuSans-30" x="159.033203"/>
      </g>
     </g>
    </g>
    <g id="ytick_21">
     <g id="line2d_45">
      <g>
       <use xlink:href="#md285d77242" x="665.8" y="205.368" style="fill: #d62728; stroke: #d62728; stroke-width: 0.8"/>
      </g>
     </g>
     <g id="text_34">
      <!-- 20.0 -->
      <g style="fill: #d62728" transform="translate(672.8 209.167219) scale(0.1 -0.1)">
       <use xlink:href="#DejaVuSans-32"/>
       <use xlink:href="#DejaVuSans-30" x="63.623047"/>
       <use xlink:href="#DejaVuSans-2e" x="127.246094"/>
       <use xlink:href="#DejaVuSans-30" x="159.033203"/>
      </g>
     </g>
    </g>
    <g id="ytick_22">
     <g id="line2d_46">
      <g>
       <use xlink:href="#md285d77242" x="665.8" y="149.032" style="fill: #d62728; stroke: #d62728; stroke-width: 0.8"/>
      </g>
     </g>
     <g id="text_35">
      <!-- 30.0 -->
      <g style="fill: #d62728" transform="translate(672.8 152.831219) scale(0.1 -0.1)">
       <use xlink:href="#DejaVuSans-33"/>
       <use xlink:href="#DejaVuSans-30" x="63.623047"/>
       <use xlink:href="#DejaVuSans-2e" x="127.246094"/>
       <use xlink:href="#DejaVuSans-30" x="159.033203"/>
      </g>
     </g>
    </g>
    <g id="ytick_23">
     <g id="line2d_47">
      <g>
       <use xlink:href="#md285d77242" x="665.8" y="92.696" style="fill: #d62728; stroke: #d62728; stroke-width: 0.8"/>
      </g>
     </g>
     <g id="text_36">
      <!-- 40.0 -->
      <g style="fill: #d62728" transform="translate(672.8 96.495219) scale(0.1 -0.1)">
       <use xlink:href="#DejaVuSans-34"/>
       <use xlink:href="#DejaVuSans-30" x="63.623047"/>
       <use xlink:href="#DejaVuSans-2e" x="127.246094"/>
       <use xlink:href="#DejaVuSans-30" x="159.033203"/>
      </g>
     </g>
    </g>
    <g id="ytick_24">
     <g id="line2d_48">
      <g>
       <use xlink:href="#md285d77242" x="665.8" y="36.36" style="fill: #d62728; stroke: #d62728; stroke-width: 0.8"/>
      </g>
     </g>
     <g id="text_37">
      <!-- 50.0 -->
      <g style="fill: #d62728" transform="translate(672.8 40.159219) scale(0.1 -0.1)">
       <use xlink:href="#DejaVuSans-35"/>
       <use xlink:href="#DejaVuSans-30" x="63.623047"/>
       <use xlink:href="#DejaVuSans-2e" x="127.246094"/>
       <use xlink:href="#DejaVuSans-30" x="159.033203"/>
      </g>
     </g>
    </g>
    <g id="text_38">
     <!-- Crude death rate, empirical data (deaths/1000persons) -->
     <g style="fill: #d62728" transform="translate(706.664062 315.823438) rotate(-90) scale(0.1 -0.1)">
      <use xlink:href="#DejaVuSans-43"/>
      <use xlink:href="#DejaVuSans-72" x="69.824219"/>
      <use xlink:href="#DejaVuSans-75" x="110.9375"/>
      <use xlink:href="#DejaVuSans-64" x="174.316406"/>
      <use xlink:href="#DejaVuSans-65" x="237.792969"/>
      <use xlink:href="#DejaVuSans-20" x="299.316406"/>
      <use xlink:href="#DejaVuSans-64" x="331.103516"/>
      <use xlink:href="#DejaVuSans-65" x="394.580078"/>
      <use xlink:href="#DejaVuSans-61" x="456.103516"/>
      <use xlink:href="#DejaVuSans-74" x="517.382812"/>
      <use xlink:href="#DejaVuSans-68" x="556.591797"/>
      <use xlink:href="#DejaVuSans-20" x="619.970703"/>
      <use xlink:href="#DejaVuSans-72" x="651.757812"/>
      <use xlink:href="#DejaVuSans-61" x="692.871094"/>
      <use xlink:href="#DejaVuSans-74" x="754.150391"/>
      <use xlink:href="#DejaVuSans-65" x="793.359375"/>
      <use xlink:href="#DejaVuSans-2c" x="854.882812"/>
      <use xlink:href="#DejaVuSans-20" x="886.669922"/>
      <use xlink:href="#DejaVuSans-65" x="918.457031"/>
      <use xlink:href="#DejaVuSans-6d" x="979.980469"/>
      <use xlink:href="#DejaVuSans-70" x="1077.392578"/>
      <use xlink:href="#DejaVuSans-69" x="1140.869141"/>
      <use xlink:href="#DejaVuSans-72" x="1168.652344"/>
      <use xlink:href="#DejaVuSans-69" x="1209.765625"/>
      <use xlink:href="#DejaVuSans-63" x="1237.548828"/>
      <use xlink:href="#DejaVuSans-61" x="1292.529297"/>
      <use xlink:href="#DejaVuSans-6c" x="1353.808594"/>
      <use xlink:href="#DejaVuSans-20" x="1381.591797"/>
      <use xlink:href="#DejaVuSans-64" x="1413.378906"/>
      <use xlink:href="#DejaVuSans-61" x="1476.855469"/>
      <use xlink:href="#DejaVuSans-74" x="1538.134766"/>
      <use xlink:href="#DejaVuSans-61" x="1577.34375"/>
      <use xlink:href="#DejaVuSans-20" x="1638.623047"/>
      <use xlink:href="#DejaVuSans-28" x="1670.410156"/>
      <use xlink:href="#DejaVuSans-64" x="1709.423828"/>
      <use xlink:href="#DejaVuSans-65" x="1772.900391"/>
      <use xlink:href="#DejaVuSans-61" x="1834.423828"/>
      <use xlink:href="#DejaVuSans-74" x="1895.703125"/>
      <use xlink:href="#DejaVuSans-68" x="1934.912109"/>
      <use xlink:href="#DejaVuSans-73" x="1998.291016"/>
      <use xlink:href="#DejaVuSans-2f" x="2050.390625"/>
      <use xlink:href="#DejaVuSans-31" x="2084.082031"/>
      <use xlink:href="#DejaVuSans-30" x="2147.705078"/>
      <use xlink:href="#DejaVuSans-30" x="2211.328125"/>
      <use xlink:href="#DejaVuSans-30" x="2274.951172"/>
      <use xlink:href="#DejaVuSans-70" x="2338.574219"/>
      <use xlink:href="#DejaVuSans-65" x="2402.050781"/>
      <use xlink:href="#DejaVuSans-72" x="2463.574219"/>
      <use xlink:href="#DejaVuSans-73" x="2504.6875"/>
      <use xlink:href="#DejaVuSans-6f" x="2556.787109"/>
      <use xlink:href="#DejaVuSans-6e" x="2617.96875"/>
      <use xlink:href="#DejaVuSans-73" x="2681.347656"/>
      <use xlink:href="#DejaVuSans-29" x="2733.447266"/>
     </g>
    </g>
   </g>
   <g id="line2d_49">
    <path d="M 207.76555 220.949831 
L 209.960128 235.883555 
L 212.154705 241.330094 
L 214.349282 242.21665 
L 216.54386 241.821476 
L 218.738437 242.790368 
L 220.933014 245.14203 
L 225.322169 247.954134 
L 229.711324 249.648697 
L 231.905901 248.953821 
L 234.100478 251.778911 
L 236.295056 253.428912 
L 240.684211 254.339746 
L 242.878788 255.222044 
L 245.073365 257.266624 
L 247.267943 258.610805 
L 249.46252 259.548139 
L 251.657097 259.731147 
L 253.851675 260.58443 
L 256.046252 261.044105 
L 258.240829 260.767466 
L 262.629984 262.140748 
L 267.019139 264.161433 
L 269.213716 264.357221 
L 271.408293 265.642327 
L 275.797448 266.077024 
L 277.992026 266.548788 
L 280.186603 266.533335 
L 282.38118 266.74096 
L 285.673046 267.695258 
L 287.867624 268.343002 
L 288.964912 268.711715 
L 291.15949 269.038311 
L 294.451356 269.932473 
L 297.743222 270.61238 
L 302.132376 271.286454 
L 304.326954 271.828349 
L 307.61882 272.329734 
L 308.716108 272.554741 
L 312.007974 272.76129 
L 313.105263 272.770394 
L 315.299841 273.429679 
L 317.494418 273.67403 
L 320.786284 274.329217 
L 324.07815 274.890455 
L 326.272727 275.326758 
L 328.467305 275.38282 
L 330.661882 275.70922 
L 337.245614 275.944618 
L 339.440191 272.782898 
L 341.634769 268.870303 
L 343.829346 270.835953 
L 343.829346 270.835953 
" clip-path="url(#p737dfa5528)" style="fill: none; stroke: #d62728; stroke-width: 1.5; stroke-linecap: square"/>
   </g>
   <g id="line2d_50">
    <path d="M 207.76555 220.949831 
L 209.960128 235.883555 
L 212.154705 241.330094 
L 214.349282 242.21665 
L 216.54386 241.821476 
L 218.738437 242.790368 
L 220.933014 245.14203 
L 225.322169 247.954134 
L 229.711324 249.648697 
L 231.905901 248.953821 
L 234.100478 251.778911 
L 236.295056 253.428912 
L 240.684211 254.339746 
L 242.878788 255.222044 
L 245.073365 257.266624 
L 247.267943 258.610805 
L 249.46252 259.548139 
L 251.657097 259.731147 
L 253.851675 260.58443 
L 256.046252 261.044105 
L 258.240829 260.767466 
L 262.629984 262.140748 
L 267.019139 264.161433 
L 269.213716 264.357221 
L 271.408293 265.642327 
L 275.797448 266.077024 
L 277.992026 266.548788 
L 280.186603 266.533335 
L 282.38118 266.74096 
L 285.673046 267.695258 
L 287.867624 268.343002 
L 288.964912 268.711715 
L 291.15949 269.038311 
L 294.451356 269.932473 
L 297.743222 270.61238 
L 302.132376 271.286454 
L 304.326954 271.828349 
L 307.61882 272.329734 
L 308.716108 272.554741 
L 312.007974 272.76129 
L 313.105263 272.770394 
L 315.299841 273.429679 
L 317.494418 273.67403 
L 320.786284 274.329217 
L 324.07815 274.890455 
L 326.272727 275.326758 
L 328.467305 275.38282 
L 330.661882 275.70922 
L 337.245614 275.944618 
L 339.440191 272.782898 
L 341.634769 268.870303 
L 343.829346 270.835953 
L 343.829346 270.835953 
" clip-path="url(#p737dfa5528)" style="fill: none; stroke-dasharray: 1.85,0.8; stroke-dashoffset: 0; stroke: #d62728; stroke-width: 0.5"/>
   </g>
   <g id="patch_15">
    <path d="M 54.2 318.04 
L 54.2 36.36 
" style="fill: none; stroke: #000000; stroke-width: 0.8; stroke-linejoin: miter; stroke-linecap: square"/>
   </g>
   <g id="patch_16">
    <path d="M 665.8 318.04 
L 665.8 36.36 
" style="fill: none; stroke: #000000; stroke-width: 0.8; stroke-linejoin: miter; stroke-linecap: square"/>
   </g>
   <g id="patch_17">
    <path d="M 54.2 318.04 
L 535.8 318.04 
" style="fill: none; stroke: #000000; stroke-width: 0.8; stroke-linejoin: miter; stroke-linecap: square"/>
   </g>
   <g id="patch_18">
    <path d="M 54.2 36.36 
L 535.8 36.36 
" style="fill: none; stroke: #000000; stroke-width: 0.8; stroke-linejoin: miter; stroke-linecap: square"/>
   </g>
  </g>
  <g id="text_39">
   <!-- BAU2 -->
   <g transform="translate(343.570312 16.318125) scale(0.12 -0.12)">
    <defs>
     <path id="DejaVuSans-41" d="M 2188 4044 
L 1331 1722 
L 3047 1722 
L 2188 4044 
z
M 1831 4666 
L 2547 4666 
L 4325 0 
L 3669 0 
L 3244 1197 
L 1141 1197 
L 716 0 
L 50 0 
L 1831 4666 
z
" transform="scale(0.015625)"/>
     <path id="DejaVuSans-55" d="M 556 4666 
L 1191 4666 
L 1191 1831 
Q 1191 1081 1462 751 
Q 1734 422 2344 422 
Q 2950 422 3222 751 
Q 3494 1081 3494 1831 
L 3494 4666 
L 4128 4666 
L 4128 1753 
Q 4128 841 3676 375 
Q 3225 -91 2344 -91 
Q 1459 -91 1007 375 
Q 556 841 556 1753 
L 556 4666 
z
" transform="scale(0.015625)"/>
    </defs>
    <use xlink:href="#DejaVuSans-42"/>
    <use xlink:href="#DejaVuSans-41" x="68.603516"/>
    <use xlink:href="#DejaVuSans-55" x="137.011719"/>
    <use xlink:href="#DejaVuSans-32" x="210.205078"/>
   </g>
  </g>
 </g>
 <defs>
  <clipPath id="p737dfa5528">
   <rect x="54.2" y="36.36" width="481.6" height="281.68"/>
  </clipPath>
 </defs>
</svg>
