<?xml version="1.0" encoding="UTF-8" standalone="no"?>
<!DOCTYPE svg PUBLIC "-//W3C//DTD SVG 1.1//EN"
 "http://www.w3.org/Graphics/SVG/1.1/DTD/svg11.dtd">
<!-- Generated by graphviz version 2.43.0 (0)
 -->
<!-- Title: grass+sheep Pages: 1 -->
<svg width="431pt" height="405pt"
 viewBox="0.00 0.00 430.50 405.50" xmlns="http://www.w3.org/2000/svg" xmlns:xlink="http://www.w3.org/1999/xlink">
<g id="graph0" class="graph" transform="scale(1 1) rotate(0) translate(4 401.5)">
<title>grass+sheep</title>
<polygon fill="white" stroke="transparent" points="-4,4 -4,-401.5 426.5,-401.5 426.5,4 -4,4"/>
<g id="clust1" class="cluster">
<title>cluster_sheep</title>
<polygon fill="none" stroke="lightgrey" points="8,-88.5 8,-389.5 141,-389.5 141,-88.5 8,-88.5"/>
<text text-anchor="middle" x="74.5" y="-374.3" font-family="Times,serif" font-size="14.00">sheep</text>
</g>
<g id="clust2" class="cluster">
<title>cluster_grass</title>
<polygon fill="none" stroke="lightgrey" points="240,-175.5 240,-389.5 344,-389.5 344,-175.5 240,-175.5"/>
<text text-anchor="middle" x="292" y="-374.3" font-family="Times,serif" font-size="14.00">grass</text>
</g>
<!-- graze -->
<g id="node1" class="node">
<title>graze</title>
<g id="a_node1"><a xlink:title="Grass grazed (kg/year)">
<ellipse fill="none" stroke="black" cx="329" cy="-114.5" rx="36.29" ry="18"/>
<text text-anchor="middle" x="329" y="-110.8" font-family="Times,serif" font-size="14.00">graze</text>
</a>
</g>
</g>
<!-- grass -->
<g id="node12" class="node">
<title>grass</title>
<g id="a_node12"><a xlink:title="Ammount of grass (kg)">
<polygon fill="none" stroke="black" points="320,-219.5 264,-219.5 264,-183.5 320,-183.5 320,-219.5"/>
<text text-anchor="middle" x="292" y="-197.8" font-family="Times,serif" font-size="14.00">grass</text>
</a>
</g>
</g>
<!-- graze&#45;&gt;grass -->
<g id="edge15" class="edge">
<title>graze&#45;&gt;grass</title>
<path fill="none" stroke="black" d="M321.65,-132.38C316.48,-144.25 309.46,-160.37 303.55,-173.95"/>
<polygon fill="black" stroke="black" points="300.27,-172.73 299.49,-183.29 306.69,-175.52 300.27,-172.73"/>
<text text-anchor="middle" x="315.5" y="-154.3" font-family="Times,serif" font-size="14.00">&#45;</text>
</g>
<!-- graze_c -->
<g id="node2" class="node">
<title>graze_c</title>
<g id="a_node2"><a xlink:title="How much a sheep eats = 900 kg/year&#10;">
<text text-anchor="middle" x="372" y="-197.8" font-family="Times,serif" font-size="14.00">const</text>
</a>
</g>
</g>
<!-- graze_c&#45;&gt;graze -->
<g id="edge1" class="edge">
<title>graze_c&#45;&gt;graze</title>
<path fill="none" stroke="black" d="M368.63,-193.83C361.97,-180.68 346.99,-151.05 337.47,-132.24"/>
</g>
<!-- starvation -->
<g id="node3" class="node">
<title>starvation</title>
<g id="a_node3"><a xlink:title="Sheep starving (n)">
<ellipse fill="none" stroke="black" cx="217" cy="-114.5" rx="57.69" ry="18"/>
<text text-anchor="middle" x="217" y="-110.8" font-family="Times,serif" font-size="14.00">starvation</text>
</a>
</g>
</g>
<!-- dd -->
<g id="node5" class="node">
<title>dd</title>
<g id="a_node5"><a xlink:title="Delay for death by starvation (n)">
<ellipse fill="none" stroke="black" cx="217" cy="-22.75" rx="23" ry="23"/>
<polyline fill="none" stroke="black" points="232.05,-39.81 201.95,-39.81 "/>
<polyline fill="none" stroke="black" points="232.05,-5.69 201.95,-5.69 "/>
<text text-anchor="middle" x="217" y="-19.05" font-family="Times,serif" font-size="14.00">dd</text>
</a>
</g>
</g>
<!-- starvation&#45;&gt;dd -->
<g id="edge16" class="edge">
<title>starvation&#45;&gt;dd</title>
<path fill="none" stroke="black" d="M217,-96.19C217,-84.86 217,-69.69 217,-56.17"/>
<polygon fill="black" stroke="black" points="220.5,-55.77 217,-45.77 213.5,-55.77 220.5,-55.77"/>
<text text-anchor="middle" x="219.5" y="-67.3" font-family="Times,serif" font-size="14.00">&#45;</text>
</g>
<!-- starvation_c -->
<g id="node4" class="node">
<title>starvation_c</title>
<g id="a_node4"><a xlink:title="How much a sheep eats = 900 kg/year&#10;">
<text text-anchor="middle" x="212" y="-197.8" font-family="Times,serif" font-size="14.00">const</text>
</a>
</g>
</g>
<!-- starvation_c&#45;&gt;starvation -->
<g id="edge2" class="edge">
<title>starvation_c&#45;&gt;starvation</title>
<path fill="none" stroke="black" d="M212.39,-193.83C213.16,-180.75 214.89,-151.4 216,-132.58"/>
</g>
<!-- sheep -->
<g id="node11" class="node">
<title>sheep</title>
<g id="a_node11"><a xlink:title="Number of sheep (n)">
<polygon fill="none" stroke="black" points="132.5,-219.5 73.5,-219.5 73.5,-183.5 132.5,-183.5 132.5,-219.5"/>
<text text-anchor="middle" x="103" y="-197.8" font-family="Times,serif" font-size="14.00">sheep</text>
</a>
</g>
</g>
<!-- dd&#45;&gt;sheep -->
<g id="edge17" class="edge">
<title>dd&#45;&gt;sheep</title>
<path fill="none" stroke="black" d="M198.45,-36.44C182.38,-48.27 159.49,-67.25 145,-88.5 127.06,-114.8 115.54,-149.77 109.19,-173.59"/>
<polygon fill="black" stroke="black" points="105.78,-172.81 106.71,-183.37 112.56,-174.54 105.78,-172.81"/>
<text text-anchor="middle" x="147.5" y="-110.8" font-family="Times,serif" font-size="14.00">&#45;</text>
</g>
<!-- dd_c -->
<g id="node6" class="node">
<title>dd_c</title>
<g id="a_node6"><a xlink:title="Delay constant = 0 years&#10;">
<text text-anchor="middle" x="403" y="-110.8" font-family="Times,serif" font-size="14.00">const</text>
</a>
</g>
</g>
<!-- dd_c&#45;&gt;dd -->
<g id="edge3" class="edge">
<title>dd_c&#45;&gt;dd</title>
<path fill="none" stroke="black" d="M396.35,-106.65C390.76,-101.2 382.38,-93.65 374,-88.5 328.92,-60.77 269.87,-40.1 238.6,-30.21"/>
</g>
<!-- births -->
<g id="node7" class="node">
<title>births</title>
<g id="a_node7"><a xlink:title="Sheep born (n/year)">
<ellipse fill="none" stroke="black" cx="88" cy="-288.5" rx="38.19" ry="18"/>
<text text-anchor="middle" x="88" y="-284.8" font-family="Times,serif" font-size="14.00">births</text>
</a>
</g>
</g>
<!-- births&#45;&gt;sheep -->
<g id="edge9" class="edge">
<title>births&#45;&gt;sheep</title>
<path fill="none" stroke="black" d="M78.65,-270.62C74.45,-260.83 71.2,-248.33 75,-237.5 76.17,-234.16 77.8,-230.91 79.7,-227.82"/>
<polygon fill="black" stroke="black" points="82.62,-229.76 85.58,-219.58 76.92,-225.69 82.62,-229.76"/>
<text text-anchor="middle" x="81.5" y="-241.3" font-family="Times,serif" font-size="14.00">+</text>
</g>
<!-- births_c -->
<g id="node8" class="node">
<title>births_c</title>
<g id="a_node8"><a xlink:title="Birth rate = 0.5 n/year/sheep&#10;">
<text text-anchor="middle" x="88" y="-347.3" font-family="Times,serif" font-size="14.00">const</text>
</a>
</g>
</g>
<!-- births_c&#45;&gt;births -->
<g id="edge4" class="edge">
<title>births_c&#45;&gt;births</title>
<path fill="none" stroke="black" d="M88,-343.06C88,-334.24 88,-318.73 88,-306.66"/>
</g>
<!-- deaths -->
<g id="node9" class="node">
<title>deaths</title>
<g id="a_node9"><a xlink:title="Sheep died (n/year)">
<ellipse fill="none" stroke="black" cx="58" cy="-114.5" rx="42.49" ry="18"/>
<text text-anchor="middle" x="58" y="-110.8" font-family="Times,serif" font-size="14.00">deaths</text>
</a>
</g>
</g>
<!-- deaths&#45;&gt;sheep -->
<g id="edge10" class="edge">
<title>deaths&#45;&gt;sheep</title>
<path fill="none" stroke="black" d="M67.75,-132.13C71.07,-137.9 74.76,-144.45 78,-150.5 82.06,-158.08 86.3,-166.4 90.11,-174.04"/>
<polygon fill="black" stroke="black" points="87.1,-175.84 94.67,-183.25 93.37,-172.74 87.1,-175.84"/>
<text text-anchor="middle" x="88.5" y="-154.3" font-family="Times,serif" font-size="14.00">&#45;</text>
</g>
<!-- deaths_c -->
<g id="node10" class="node">
<title>deaths_c</title>
<g id="a_node10"><a xlink:title="Death rate = 0.1 n/year/sheep&#10;">
<text text-anchor="middle" x="36" y="-197.8" font-family="Times,serif" font-size="14.00">const</text>
</a>
</g>
</g>
<!-- deaths_c&#45;&gt;deaths -->
<g id="edge5" class="edge">
<title>deaths_c&#45;&gt;deaths</title>
<path fill="none" stroke="black" d="M36.15,-193.9C36.5,-184.21 37.74,-165.65 42,-150.5 43.74,-144.32 46.42,-137.86 49.1,-132.19"/>
</g>
<!-- sheep&#45;&gt;graze -->
<g id="edge12" class="edge">
<title>sheep&#45;&gt;graze</title>
<path fill="none" stroke="black" d="M132.79,-189.32C168.67,-175.86 230.76,-152.56 284,-132.5 286.39,-131.59 288.86,-130.67 291.34,-129.73"/>
<polygon fill="black" stroke="black" points="292.8,-132.92 300.92,-126.11 290.33,-126.37 292.8,-132.92"/>
<text text-anchor="middle" x="241.5" y="-154.3" font-family="Times,serif" font-size="14.00">+</text>
</g>
<!-- sheep&#45;&gt;starvation -->
<g id="edge14" class="edge">
<title>sheep&#45;&gt;starvation</title>
<path fill="none" stroke="black" d="M125.95,-183.41C133.6,-177.71 142.17,-171.33 150,-165.5 162.36,-156.28 176,-146.11 187.73,-137.35"/>
<polygon fill="black" stroke="black" points="189.96,-140.05 195.88,-131.26 185.77,-134.44 189.96,-140.05"/>
<text text-anchor="middle" x="175.5" y="-154.3" font-family="Times,serif" font-size="14.00">+</text>
</g>
<!-- sheep&#45;&gt;births -->
<g id="edge11" class="edge">
<title>sheep&#45;&gt;births</title>
<path fill="none" stroke="black" d="M99.97,-219.67C97.92,-231.3 95.16,-246.92 92.81,-260.23"/>
<polygon fill="black" stroke="black" points="89.33,-259.84 91.04,-270.29 96.22,-261.06 89.33,-259.84"/>
<text text-anchor="middle" x="103.5" y="-241.3" font-family="Times,serif" font-size="14.00">+</text>
</g>
<!-- sheep&#45;&gt;deaths -->
<g id="edge13" class="edge">
<title>sheep&#45;&gt;deaths</title>
<path fill="none" stroke="black" d="M75.6,-183.22C69.81,-178.23 64.43,-172.27 61,-165.5 57.49,-158.56 56.07,-150.37 55.7,-142.65"/>
<polygon fill="black" stroke="black" points="59.2,-142.6 55.76,-132.58 52.2,-142.56 59.2,-142.6"/>
<text text-anchor="middle" x="67.5" y="-154.3" font-family="Times,serif" font-size="14.00">+</text>
</g>
<!-- grass&#45;&gt;starvation -->
<g id="edge7" class="edge">
<title>grass&#45;&gt;starvation</title>
<path fill="none" stroke="black" d="M284.95,-183.1C280.27,-172.9 273.44,-160.16 265,-150.5 260.81,-145.7 255.86,-141.19 250.75,-137.1"/>
<polygon fill="black" stroke="black" points="252.77,-134.24 242.68,-131.03 248.57,-139.84 252.77,-134.24"/>
<text text-anchor="middle" x="278.5" y="-154.3" font-family="Times,serif" font-size="14.00">&#45;</text>
</g>
<!-- growth -->
<g id="node13" class="node">
<title>growth</title>
<g id="a_node13"><a xlink:title="Grass growth (kg)">
<ellipse fill="none" stroke="black" cx="292" cy="-288.5" rx="44.39" ry="18"/>
<text text-anchor="middle" x="292" y="-284.8" font-family="Times,serif" font-size="14.00">growth</text>
</a>
</g>
</g>
<!-- growth&#45;&gt;grass -->
<g id="edge8" class="edge">
<title>growth&#45;&gt;grass</title>
<path fill="none" stroke="black" d="M292,-270.29C292,-258.66 292,-243.04 292,-229.73"/>
<polygon fill="black" stroke="black" points="295.5,-229.67 292,-219.67 288.5,-229.67 295.5,-229.67"/>
<text text-anchor="middle" x="298.5" y="-241.3" font-family="Times,serif" font-size="14.00">+</text>
</g>
<!-- growth_c -->
<g id="node14" class="node">
<title>growth_c</title>
<g id="a_node14"><a xlink:title="Area where grass grows = 100 ha&#10;Grass growth rate = 5500 kg/ha/year&#10;">
<text text-anchor="middle" x="292" y="-347.3" font-family="Times,serif" font-size="14.00">const</text>
</a>
</g>
</g>
<!-- growth_c&#45;&gt;growth -->
<g id="edge6" class="edge">
<title>growth_c&#45;&gt;growth</title>
<path fill="none" stroke="black" d="M292,-343.06C292,-334.24 292,-318.73 292,-306.66"/>
</g>
</g>
</svg>
