<?xml version="1.0" encoding="UTF-8" standalone="no"?>
<!DOCTYPE svg PUBLIC "-//W3C//DTD SVG 1.1//EN"
 "http://www.w3.org/Graphics/SVG/1.1/DTD/svg11.dtd">
<!-- Generated by graphviz version 2.43.0 (0)
 -->
<!-- Title: grass+sheep Pages: 1 -->
<svg width="431pt" height="391pt"
 viewBox="0.00 0.00 430.50 391.50" xmlns="http://www.w3.org/2000/svg" xmlns:xlink="http://www.w3.org/1999/xlink">
<g id="graph0" class="graph" transform="scale(1 1) rotate(0) translate(4 387.5)">
<title>grass+sheep</title>
<polygon fill="white" stroke="transparent" points="-4,4 -4,-387.5 426.5,-387.5 426.5,4 -4,4"/>
<g id="clust1" class="cluster">
<title>cluster_sheep</title>
<polygon fill="none" stroke="lightgrey" points="8,-74.5 8,-375.5 141,-375.5 141,-74.5 8,-74.5"/>
<text text-anchor="middle" x="74.5" y="-360.3" font-family="Times,serif" font-size="14.00">sheep</text>
</g>
<g id="clust2" class="cluster">
<title>cluster_grass</title>
<polygon fill="none" stroke="lightgrey" points="240,-161.5 240,-375.5 344,-375.5 344,-161.5 240,-161.5"/>
<text text-anchor="middle" x="292" y="-360.3" font-family="Times,serif" font-size="14.00">grass</text>
</g>
<!-- graze -->
<g id="node1" class="node">
<title>graze</title>
<g id="a_node1"><a xlink:title="Grass grazed (kg/year) ">
<ellipse fill="none" stroke="black" cx="329" cy="-100.5" rx="36.29" ry="18"/>
<text text-anchor="middle" x="329" y="-96.8" font-family="Times,serif" font-size="14.00">graze</text>
</a>
</g>
</g>
<!-- grass -->
<g id="node12" class="node">
<title>grass</title>
<g id="a_node12"><a xlink:title="Ammount of grass (kg) ">
<polygon fill="none" stroke="black" points="320,-205.5 264,-205.5 264,-169.5 320,-169.5 320,-205.5"/>
<text text-anchor="middle" x="292" y="-183.8" font-family="Times,serif" font-size="14.00">grass</text>
</a>
</g>
</g>
<!-- graze&#45;&gt;grass -->
<g id="edge8" class="edge">
<title>graze&#45;&gt;grass</title>
<path fill="none" stroke="black" d="M321.65,-118.38C316.48,-130.25 309.46,-146.37 303.55,-159.95"/>
<polygon fill="black" stroke="black" points="300.27,-158.73 299.49,-169.29 306.69,-161.52 300.27,-158.73"/>
<text text-anchor="middle" x="314.5" y="-140.3" font-family="Times,serif" font-size="14.00">&#45;</text>
</g>
<!-- graze_c -->
<g id="node2" class="node">
<title>graze_c</title>
<g id="a_node2"><a xlink:title="How much a sheep eats = 900 (kg/year)&#10;">
<text text-anchor="middle" x="372" y="-183.8" font-family="Times,serif" font-size="14.00">const</text>
</a>
</g>
</g>
<!-- graze_c&#45;&gt;graze -->
<g id="edge1" class="edge">
<title>graze_c&#45;&gt;graze</title>
<path fill="none" stroke="black" d="M368.63,-179.83C361.97,-166.68 346.99,-137.05 337.47,-118.24"/>
</g>
<!-- starvation -->
<g id="node3" class="node">
<title>starvation</title>
<g id="a_node3"><a xlink:title="Sheep starving (n) ">
<ellipse fill="none" stroke="black" cx="217" cy="-100.5" rx="57.69" ry="18"/>
<text text-anchor="middle" x="217" y="-96.8" font-family="Times,serif" font-size="14.00">starvation</text>
</a>
</g>
</g>
<!-- dd -->
<g id="node5" class="node">
<title>dd</title>
<g id="a_node5"><a xlink:title="Delay for death by starvation (n) ">
<ellipse fill="none" stroke="black" cx="217" cy="-22.75" rx="23" ry="23"/>
<polyline fill="none" stroke="black" points="232.05,-39.81 201.95,-39.81 "/>
<polyline fill="none" stroke="black" points="232.05,-5.69 201.95,-5.69 "/>
<text text-anchor="middle" x="217" y="-19.05" font-family="Times,serif" font-size="14.00">dd</text>
</a>
</g>
</g>
<!-- starvation&#45;&gt;dd -->
<g id="edge17" class="edge">
<title>starvation&#45;&gt;dd</title>
<path fill="none" stroke="black" d="M217,-82.31C217,-74.53 217,-65.07 217,-56.04"/>
<polygon fill="black" stroke="black" points="220.5,-55.77 217,-45.77 213.5,-55.77 220.5,-55.77"/>
</g>
<!-- starvation_c -->
<g id="node4" class="node">
<title>starvation_c</title>
<g id="a_node4"><a xlink:title="How much a sheep eats = 900 (kg/year)&#10;">
<text text-anchor="middle" x="212" y="-183.8" font-family="Times,serif" font-size="14.00">const</text>
</a>
</g>
</g>
<!-- starvation_c&#45;&gt;starvation -->
<g id="edge2" class="edge">
<title>starvation_c&#45;&gt;starvation</title>
<path fill="none" stroke="black" d="M212.39,-179.83C213.16,-166.75 214.89,-137.4 216,-118.58"/>
</g>
<!-- sheep -->
<g id="node11" class="node">
<title>sheep</title>
<g id="a_node11"><a xlink:title="Number of sheep (n) ">
<polygon fill="none" stroke="black" points="132.5,-205.5 73.5,-205.5 73.5,-169.5 132.5,-169.5 132.5,-205.5"/>
<text text-anchor="middle" x="103" y="-183.8" font-family="Times,serif" font-size="14.00">sheep</text>
</a>
</g>
</g>
<!-- dd&#45;&gt;sheep -->
<g id="edge13" class="edge">
<title>dd&#45;&gt;sheep</title>
<path fill="none" stroke="black" d="M196.76,-33.66C180.74,-42.42 158.84,-56.59 145,-74.5 125.42,-99.83 114.19,-135.28 108.36,-159.46"/>
<polygon fill="black" stroke="black" points="104.9,-158.87 106.11,-169.39 111.73,-160.41 104.9,-158.87"/>
<text text-anchor="middle" x="147.5" y="-96.8" font-family="Times,serif" font-size="14.00">&#45;</text>
</g>
<!-- dd_c -->
<g id="node6" class="node">
<title>dd_c</title>
<g id="a_node6"><a xlink:title="Delay constant = 0 (years)&#10;">
<text text-anchor="middle" x="403" y="-96.8" font-family="Times,serif" font-size="14.00">const</text>
</a>
</g>
</g>
<!-- dd_c&#45;&gt;dd -->
<g id="edge3" class="edge">
<title>dd_c&#45;&gt;dd</title>
<path fill="none" stroke="black" d="M396.89,-92.92C391.38,-87.33 382.81,-79.45 374,-74.5 329.43,-49.44 270.68,-34.65 239.2,-28"/>
</g>
<!-- births -->
<g id="node7" class="node">
<title>births</title>
<g id="a_node7"><a xlink:title="Sheep born (n/year) ">
<ellipse fill="none" stroke="black" cx="92" cy="-274.5" rx="38.19" ry="18"/>
<text text-anchor="middle" x="92" y="-270.8" font-family="Times,serif" font-size="14.00">births</text>
</a>
</g>
</g>
<!-- births&#45;&gt;sheep -->
<g id="edge11" class="edge">
<title>births&#45;&gt;sheep</title>
<path fill="none" stroke="black" d="M87.02,-256.22C84.95,-246.51 83.53,-234.23 86,-223.5 86.65,-220.66 87.57,-217.78 88.64,-214.96"/>
<polygon fill="black" stroke="black" points="91.88,-216.29 92.72,-205.73 85.48,-213.46 91.88,-216.29"/>
<text text-anchor="middle" x="92.5" y="-227.3" font-family="Times,serif" font-size="14.00">+</text>
</g>
<!-- births_c -->
<g id="node8" class="node">
<title>births_c</title>
<g id="a_node8"><a xlink:title="Birth rate = 0.5 (n/year/sheep)&#10;">
<text text-anchor="middle" x="92" y="-333.3" font-family="Times,serif" font-size="14.00">const</text>
</a>
</g>
</g>
<!-- births_c&#45;&gt;births -->
<g id="edge4" class="edge">
<title>births_c&#45;&gt;births</title>
<path fill="none" stroke="black" d="M92,-329.06C92,-320.24 92,-304.73 92,-292.66"/>
</g>
<!-- deaths -->
<g id="node9" class="node">
<title>deaths</title>
<g id="a_node9"><a xlink:title="Sheep died (n/year) ">
<ellipse fill="none" stroke="black" cx="58" cy="-100.5" rx="42.49" ry="18"/>
<text text-anchor="middle" x="58" y="-96.8" font-family="Times,serif" font-size="14.00">deaths</text>
</a>
</g>
</g>
<!-- deaths&#45;&gt;sheep -->
<g id="edge12" class="edge">
<title>deaths&#45;&gt;sheep</title>
<path fill="none" stroke="black" d="M66.94,-118.38C73.28,-130.37 81.92,-146.69 89.16,-160.35"/>
<polygon fill="black" stroke="black" points="86.12,-162.09 93.89,-169.29 92.31,-158.82 86.12,-162.09"/>
<text text-anchor="middle" x="86.5" y="-140.3" font-family="Times,serif" font-size="14.00">&#45;</text>
</g>
<!-- deaths_c -->
<g id="node10" class="node">
<title>deaths_c</title>
<g id="a_node10"><a xlink:title="Death rate = 0.1 (n/year/sheep)&#10;">
<text text-anchor="middle" x="36" y="-183.8" font-family="Times,serif" font-size="14.00">const</text>
</a>
</g>
</g>
<!-- deaths_c&#45;&gt;deaths -->
<g id="edge5" class="edge">
<title>deaths_c&#45;&gt;deaths</title>
<path fill="none" stroke="black" d="M37.73,-179.83C41.11,-166.75 48.71,-137.4 53.58,-118.58"/>
</g>
<!-- sheep&#45;&gt;graze -->
<g id="edge14" class="edge">
<title>sheep&#45;&gt;graze</title>
<path fill="none" stroke="black" d="M132.79,-175.32C168.67,-161.86 230.76,-138.56 284,-118.5 286.39,-117.59 288.86,-116.67 291.34,-115.73"/>
<polygon fill="black" stroke="black" points="292.8,-118.92 300.92,-112.11 290.33,-112.37 292.8,-118.92"/>
</g>
<!-- sheep&#45;&gt;starvation -->
<g id="edge16" class="edge">
<title>sheep&#45;&gt;starvation</title>
<path fill="none" stroke="black" d="M125.95,-169.41C133.6,-163.71 142.17,-157.33 150,-151.5 162.36,-142.28 176,-132.11 187.73,-123.35"/>
<polygon fill="black" stroke="black" points="189.96,-126.05 195.88,-117.26 185.77,-120.44 189.96,-126.05"/>
<text text-anchor="middle" x="175.5" y="-140.3" font-family="Times,serif" font-size="14.00">+</text>
</g>
<!-- sheep&#45;&gt;births -->
<g id="edge9" class="edge">
<title>sheep&#45;&gt;births</title>
<path fill="none" stroke="black" d="M104.28,-205.72C104.68,-215.4 104.66,-227.68 103,-238.5 102.58,-241.23 101.98,-244.05 101.29,-246.85"/>
<polygon fill="black" stroke="black" points="97.87,-246.07 98.43,-256.65 104.59,-248.03 97.87,-246.07"/>
</g>
<!-- sheep&#45;&gt;deaths -->
<g id="edge10" class="edge">
<title>sheep&#45;&gt;deaths</title>
<path fill="none" stroke="black" d="M84.21,-169.29C79.32,-163.99 74.46,-157.86 71,-151.5 67.23,-144.56 64.52,-136.48 62.58,-128.87"/>
<polygon fill="black" stroke="black" points="65.96,-127.94 60.39,-118.93 59.12,-129.45 65.96,-127.94"/>
</g>
<!-- grass&#45;&gt;starvation -->
<g id="edge15" class="edge">
<title>grass&#45;&gt;starvation</title>
<path fill="none" stroke="black" d="M276.82,-169.29C265.8,-156.81 250.74,-139.73 238.48,-125.84"/>
<polygon fill="black" stroke="black" points="240.89,-123.28 231.64,-118.09 235.64,-127.91 240.89,-123.28"/>
<text text-anchor="middle" x="261.5" y="-140.3" font-family="Times,serif" font-size="14.00">&#45;</text>
</g>
<!-- growth -->
<g id="node13" class="node">
<title>growth</title>
<g id="a_node13"><a xlink:title="Grass growth (kg) ">
<ellipse fill="none" stroke="black" cx="292" cy="-274.5" rx="44.39" ry="18"/>
<text text-anchor="middle" x="292" y="-270.8" font-family="Times,serif" font-size="14.00">growth</text>
</a>
</g>
</g>
<!-- growth&#45;&gt;grass -->
<g id="edge7" class="edge">
<title>growth&#45;&gt;grass</title>
<path fill="none" stroke="black" d="M292,-256.29C292,-244.66 292,-229.04 292,-215.73"/>
<polygon fill="black" stroke="black" points="295.5,-215.67 292,-205.67 288.5,-215.67 295.5,-215.67"/>
<text text-anchor="middle" x="298.5" y="-227.3" font-family="Times,serif" font-size="14.00">+</text>
</g>
<!-- growth_c -->
<g id="node14" class="node">
<title>growth_c</title>
<g id="a_node14"><a xlink:title="Area where grass grows = 100 (ha)&#10;Grass growth rate = 5500 (kg/ha/year)&#10;">
<text text-anchor="middle" x="292" y="-333.3" font-family="Times,serif" font-size="14.00">const</text>
</a>
</g>
</g>
<!-- growth_c&#45;&gt;growth -->
<g id="edge6" class="edge">
<title>growth_c&#45;&gt;growth</title>
<path fill="none" stroke="black" d="M292,-329.06C292,-320.24 292,-304.73 292,-292.66"/>
</g>
</g>
</svg>
