<?xml version="1.0" encoding="utf-8" standalone="no"?>
<!DOCTYPE svg PUBLIC "-//W3C//DTD SVG 1.1//EN"
  "http://www.w3.org/Graphics/SVG/1.1/DTD/svg11.dtd">
<svg xmlns:xlink="http://www.w3.org/1999/xlink" width="720pt" height="360pt" viewBox="0 0 720 360" xmlns="http://www.w3.org/2000/svg" version="1.1">
 <metadata>
  <rdf:RDF xmlns:dc="http://purl.org/dc/elements/1.1/" xmlns:cc="http://creativecommons.org/ns#" xmlns:rdf="http://www.w3.org/1999/02/22-rdf-syntax-ns#">
   <cc:Work>
    <dc:type rdf:resource="http://purl.org/dc/dcmitype/StillImage"/>
    <dc:date>2024-11-07T16:20:14.354653</dc:date>
    <dc:format>image/svg+xml</dc:format>
    <dc:creator>
     <cc:Agent>
      <dc:title>Matplotlib v3.6.3, https://matplotlib.org/</dc:title>
     </cc:Agent>
    </dc:creator>
   </cc:Work>
  </rdf:RDF>
 </metadata>
 <defs>
  <style type="text/css">*{stroke-linejoin: round; stroke-linecap: butt}</style>
 </defs>
 <g id="figure_1">
  <g id="patch_1">
   <path d="M 0 360 
L 720 360 
L 720 0 
L 0 0 
z
" style="fill: #ffffff"/>
  </g>
  <g id="axes_1">
   <g id="patch_2">
    <path d="M 63.92 318.04 
L 526.08 318.04 
L 526.08 36.36 
L 63.92 36.36 
z
" style="fill: #ffffff"/>
   </g>
   <g id="matplotlib.axis_1">
    <g id="xtick_1">
     <g id="line2d_1">
      <path d="M 84.927273 318.04 
L 84.927273 36.36 
" clip-path="url(#p3d2faae4db)" style="fill: none; stroke-dasharray: 0.8,1.32; stroke-dashoffset: 0; stroke: #b0b0b0; stroke-width: 0.8"/>
     </g>
     <g id="line2d_2">
      <defs>
       <path id="mfd0f7070fe" d="M 0 0 
L 0 3.5 
" style="stroke: #000000; stroke-width: 0.8"/>
      </defs>
      <g>
       <use xlink:href="#mfd0f7070fe" x="84.927273" y="318.04" style="stroke: #000000; stroke-width: 0.8"/>
      </g>
     </g>
     <g id="text_1">
      <!-- 1900 -->
      <g transform="translate(72.202273 332.638438) scale(0.1 -0.1)">
       <defs>
        <path id="DejaVuSans-31" d="M 794 531 
L 1825 531 
L 1825 4091 
L 703 3866 
L 703 4441 
L 1819 4666 
L 2450 4666 
L 2450 531 
L 3481 531 
L 3481 0 
L 794 0 
L 794 531 
z
" transform="scale(0.015625)"/>
        <path id="DejaVuSans-39" d="M 703 97 
L 703 672 
Q 941 559 1184 500 
Q 1428 441 1663 441 
Q 2288 441 2617 861 
Q 2947 1281 2994 2138 
Q 2813 1869 2534 1725 
Q 2256 1581 1919 1581 
Q 1219 1581 811 2004 
Q 403 2428 403 3163 
Q 403 3881 828 4315 
Q 1253 4750 1959 4750 
Q 2769 4750 3195 4129 
Q 3622 3509 3622 2328 
Q 3622 1225 3098 567 
Q 2575 -91 1691 -91 
Q 1453 -91 1209 -44 
Q 966 3 703 97 
z
M 1959 2075 
Q 2384 2075 2632 2365 
Q 2881 2656 2881 3163 
Q 2881 3666 2632 3958 
Q 2384 4250 1959 4250 
Q 1534 4250 1286 3958 
Q 1038 3666 1038 3163 
Q 1038 2656 1286 2365 
Q 1534 2075 1959 2075 
z
" transform="scale(0.015625)"/>
        <path id="DejaVuSans-30" d="M 2034 4250 
Q 1547 4250 1301 3770 
Q 1056 3291 1056 2328 
Q 1056 1369 1301 889 
Q 1547 409 2034 409 
Q 2525 409 2770 889 
Q 3016 1369 3016 2328 
Q 3016 3291 2770 3770 
Q 2525 4250 2034 4250 
z
M 2034 4750 
Q 2819 4750 3233 4129 
Q 3647 3509 3647 2328 
Q 3647 1150 3233 529 
Q 2819 -91 2034 -91 
Q 1250 -91 836 529 
Q 422 1150 422 2328 
Q 422 3509 836 4129 
Q 1250 4750 2034 4750 
z
" transform="scale(0.015625)"/>
       </defs>
       <use xlink:href="#DejaVuSans-31"/>
       <use xlink:href="#DejaVuSans-39" x="63.623047"/>
       <use xlink:href="#DejaVuSans-30" x="127.246094"/>
       <use xlink:href="#DejaVuSans-30" x="190.869141"/>
      </g>
     </g>
    </g>
    <g id="xtick_2">
     <g id="line2d_3">
      <path d="M 137.577079 318.04 
L 137.577079 36.36 
" clip-path="url(#p3d2faae4db)" style="fill: none; stroke-dasharray: 0.8,1.32; stroke-dashoffset: 0; stroke: #b0b0b0; stroke-width: 0.8"/>
     </g>
     <g id="line2d_4">
      <g>
       <use xlink:href="#mfd0f7070fe" x="137.577079" y="318.04" style="stroke: #000000; stroke-width: 0.8"/>
      </g>
     </g>
     <g id="text_2">
      <!-- 1925 -->
      <g transform="translate(124.852079 332.638438) scale(0.1 -0.1)">
       <defs>
        <path id="DejaVuSans-32" d="M 1228 531 
L 3431 531 
L 3431 0 
L 469 0 
L 469 531 
Q 828 903 1448 1529 
Q 2069 2156 2228 2338 
Q 2531 2678 2651 2914 
Q 2772 3150 2772 3378 
Q 2772 3750 2511 3984 
Q 2250 4219 1831 4219 
Q 1534 4219 1204 4116 
Q 875 4013 500 3803 
L 500 4441 
Q 881 4594 1212 4672 
Q 1544 4750 1819 4750 
Q 2544 4750 2975 4387 
Q 3406 4025 3406 3419 
Q 3406 3131 3298 2873 
Q 3191 2616 2906 2266 
Q 2828 2175 2409 1742 
Q 1991 1309 1228 531 
z
" transform="scale(0.015625)"/>
        <path id="DejaVuSans-35" d="M 691 4666 
L 3169 4666 
L 3169 4134 
L 1269 4134 
L 1269 2991 
Q 1406 3038 1543 3061 
Q 1681 3084 1819 3084 
Q 2600 3084 3056 2656 
Q 3513 2228 3513 1497 
Q 3513 744 3044 326 
Q 2575 -91 1722 -91 
Q 1428 -91 1123 -41 
Q 819 9 494 109 
L 494 744 
Q 775 591 1075 516 
Q 1375 441 1709 441 
Q 2250 441 2565 725 
Q 2881 1009 2881 1497 
Q 2881 1984 2565 2268 
Q 2250 2553 1709 2553 
Q 1456 2553 1204 2497 
Q 953 2441 691 2322 
L 691 4666 
z
" transform="scale(0.015625)"/>
       </defs>
       <use xlink:href="#DejaVuSans-31"/>
       <use xlink:href="#DejaVuSans-39" x="63.623047"/>
       <use xlink:href="#DejaVuSans-32" x="127.246094"/>
       <use xlink:href="#DejaVuSans-35" x="190.869141"/>
      </g>
     </g>
    </g>
    <g id="xtick_3">
     <g id="line2d_5">
      <path d="M 190.226885 318.04 
L 190.226885 36.36 
" clip-path="url(#p3d2faae4db)" style="fill: none; stroke-dasharray: 0.8,1.32; stroke-dashoffset: 0; stroke: #b0b0b0; stroke-width: 0.8"/>
     </g>
     <g id="line2d_6">
      <g>
       <use xlink:href="#mfd0f7070fe" x="190.226885" y="318.04" style="stroke: #000000; stroke-width: 0.8"/>
      </g>
     </g>
     <g id="text_3">
      <!-- 1950 -->
      <g transform="translate(177.501885 332.638438) scale(0.1 -0.1)">
       <use xlink:href="#DejaVuSans-31"/>
       <use xlink:href="#DejaVuSans-39" x="63.623047"/>
       <use xlink:href="#DejaVuSans-35" x="127.246094"/>
       <use xlink:href="#DejaVuSans-30" x="190.869141"/>
      </g>
     </g>
    </g>
    <g id="xtick_4">
     <g id="line2d_7">
      <path d="M 242.876692 318.04 
L 242.876692 36.36 
" clip-path="url(#p3d2faae4db)" style="fill: none; stroke-dasharray: 0.8,1.32; stroke-dashoffset: 0; stroke: #b0b0b0; stroke-width: 0.8"/>
     </g>
     <g id="line2d_8">
      <g>
       <use xlink:href="#mfd0f7070fe" x="242.876692" y="318.04" style="stroke: #000000; stroke-width: 0.8"/>
      </g>
     </g>
     <g id="text_4">
      <!-- 1975 -->
      <g transform="translate(230.151692 332.638438) scale(0.1 -0.1)">
       <defs>
        <path id="DejaVuSans-37" d="M 525 4666 
L 3525 4666 
L 3525 4397 
L 1831 0 
L 1172 0 
L 2766 4134 
L 525 4134 
L 525 4666 
z
" transform="scale(0.015625)"/>
       </defs>
       <use xlink:href="#DejaVuSans-31"/>
       <use xlink:href="#DejaVuSans-39" x="63.623047"/>
       <use xlink:href="#DejaVuSans-37" x="127.246094"/>
       <use xlink:href="#DejaVuSans-35" x="190.869141"/>
      </g>
     </g>
    </g>
    <g id="xtick_5">
     <g id="line2d_9">
      <path d="M 295.526498 318.04 
L 295.526498 36.36 
" clip-path="url(#p3d2faae4db)" style="fill: none; stroke-dasharray: 0.8,1.32; stroke-dashoffset: 0; stroke: #b0b0b0; stroke-width: 0.8"/>
     </g>
     <g id="line2d_10">
      <g>
       <use xlink:href="#mfd0f7070fe" x="295.526498" y="318.04" style="stroke: #000000; stroke-width: 0.8"/>
      </g>
     </g>
     <g id="text_5">
      <!-- 2000 -->
      <g transform="translate(282.801498 332.638438) scale(0.1 -0.1)">
       <use xlink:href="#DejaVuSans-32"/>
       <use xlink:href="#DejaVuSans-30" x="63.623047"/>
       <use xlink:href="#DejaVuSans-30" x="127.246094"/>
       <use xlink:href="#DejaVuSans-30" x="190.869141"/>
      </g>
     </g>
    </g>
    <g id="xtick_6">
     <g id="line2d_11">
      <path d="M 348.176304 318.04 
L 348.176304 36.36 
" clip-path="url(#p3d2faae4db)" style="fill: none; stroke-dasharray: 0.8,1.32; stroke-dashoffset: 0; stroke: #b0b0b0; stroke-width: 0.8"/>
     </g>
     <g id="line2d_12">
      <g>
       <use xlink:href="#mfd0f7070fe" x="348.176304" y="318.04" style="stroke: #000000; stroke-width: 0.8"/>
      </g>
     </g>
     <g id="text_6">
      <!-- 2025 -->
      <g transform="translate(335.451304 332.638438) scale(0.1 -0.1)">
       <use xlink:href="#DejaVuSans-32"/>
       <use xlink:href="#DejaVuSans-30" x="63.623047"/>
       <use xlink:href="#DejaVuSans-32" x="127.246094"/>
       <use xlink:href="#DejaVuSans-35" x="190.869141"/>
      </g>
     </g>
    </g>
    <g id="xtick_7">
     <g id="line2d_13">
      <path d="M 400.826111 318.04 
L 400.826111 36.36 
" clip-path="url(#p3d2faae4db)" style="fill: none; stroke-dasharray: 0.8,1.32; stroke-dashoffset: 0; stroke: #b0b0b0; stroke-width: 0.8"/>
     </g>
     <g id="line2d_14">
      <g>
       <use xlink:href="#mfd0f7070fe" x="400.826111" y="318.04" style="stroke: #000000; stroke-width: 0.8"/>
      </g>
     </g>
     <g id="text_7">
      <!-- 2050 -->
      <g transform="translate(388.101111 332.638438) scale(0.1 -0.1)">
       <use xlink:href="#DejaVuSans-32"/>
       <use xlink:href="#DejaVuSans-30" x="63.623047"/>
       <use xlink:href="#DejaVuSans-35" x="127.246094"/>
       <use xlink:href="#DejaVuSans-30" x="190.869141"/>
      </g>
     </g>
    </g>
    <g id="xtick_8">
     <g id="line2d_15">
      <path d="M 453.475917 318.04 
L 453.475917 36.36 
" clip-path="url(#p3d2faae4db)" style="fill: none; stroke-dasharray: 0.8,1.32; stroke-dashoffset: 0; stroke: #b0b0b0; stroke-width: 0.8"/>
     </g>
     <g id="line2d_16">
      <g>
       <use xlink:href="#mfd0f7070fe" x="453.475917" y="318.04" style="stroke: #000000; stroke-width: 0.8"/>
      </g>
     </g>
     <g id="text_8">
      <!-- 2075 -->
      <g transform="translate(440.750917 332.638438) scale(0.1 -0.1)">
       <use xlink:href="#DejaVuSans-32"/>
       <use xlink:href="#DejaVuSans-30" x="63.623047"/>
       <use xlink:href="#DejaVuSans-37" x="127.246094"/>
       <use xlink:href="#DejaVuSans-35" x="190.869141"/>
      </g>
     </g>
    </g>
    <g id="xtick_9">
     <g id="line2d_17">
      <path d="M 506.125723 318.04 
L 506.125723 36.36 
" clip-path="url(#p3d2faae4db)" style="fill: none; stroke-dasharray: 0.8,1.32; stroke-dashoffset: 0; stroke: #b0b0b0; stroke-width: 0.8"/>
     </g>
     <g id="line2d_18">
      <g>
       <use xlink:href="#mfd0f7070fe" x="506.125723" y="318.04" style="stroke: #000000; stroke-width: 0.8"/>
      </g>
     </g>
     <g id="text_9">
      <!-- 2100 -->
      <g transform="translate(493.400723 332.638438) scale(0.1 -0.1)">
       <use xlink:href="#DejaVuSans-32"/>
       <use xlink:href="#DejaVuSans-31" x="63.623047"/>
       <use xlink:href="#DejaVuSans-30" x="127.246094"/>
       <use xlink:href="#DejaVuSans-30" x="190.869141"/>
      </g>
     </g>
    </g>
    <g id="text_10">
     <!-- Year -->
     <g transform="translate(284.4125 346.316563) scale(0.1 -0.1)">
      <defs>
       <path id="DejaVuSans-59" d="M -13 4666 
L 666 4666 
L 1959 2747 
L 3244 4666 
L 3922 4666 
L 2272 2222 
L 2272 0 
L 1638 0 
L 1638 2222 
L -13 4666 
z
" transform="scale(0.015625)"/>
       <path id="DejaVuSans-65" d="M 3597 1894 
L 3597 1613 
L 953 1613 
Q 991 1019 1311 708 
Q 1631 397 2203 397 
Q 2534 397 2845 478 
Q 3156 559 3463 722 
L 3463 178 
Q 3153 47 2828 -22 
Q 2503 -91 2169 -91 
Q 1331 -91 842 396 
Q 353 884 353 1716 
Q 353 2575 817 3079 
Q 1281 3584 2069 3584 
Q 2775 3584 3186 3129 
Q 3597 2675 3597 1894 
z
M 3022 2063 
Q 3016 2534 2758 2815 
Q 2500 3097 2075 3097 
Q 1594 3097 1305 2825 
Q 1016 2553 972 2059 
L 3022 2063 
z
" transform="scale(0.015625)"/>
       <path id="DejaVuSans-61" d="M 2194 1759 
Q 1497 1759 1228 1600 
Q 959 1441 959 1056 
Q 959 750 1161 570 
Q 1363 391 1709 391 
Q 2188 391 2477 730 
Q 2766 1069 2766 1631 
L 2766 1759 
L 2194 1759 
z
M 3341 1997 
L 3341 0 
L 2766 0 
L 2766 531 
Q 2569 213 2275 61 
Q 1981 -91 1556 -91 
Q 1019 -91 701 211 
Q 384 513 384 1019 
Q 384 1609 779 1909 
Q 1175 2209 1959 2209 
L 2766 2209 
L 2766 2266 
Q 2766 2663 2505 2880 
Q 2244 3097 1772 3097 
Q 1472 3097 1187 3025 
Q 903 2953 641 2809 
L 641 3341 
Q 956 3463 1253 3523 
Q 1550 3584 1831 3584 
Q 2591 3584 2966 3190 
Q 3341 2797 3341 1997 
z
" transform="scale(0.015625)"/>
       <path id="DejaVuSans-72" d="M 2631 2963 
Q 2534 3019 2420 3045 
Q 2306 3072 2169 3072 
Q 1681 3072 1420 2755 
Q 1159 2438 1159 1844 
L 1159 0 
L 581 0 
L 581 3500 
L 1159 3500 
L 1159 2956 
Q 1341 3275 1631 3429 
Q 1922 3584 2338 3584 
Q 2397 3584 2469 3576 
Q 2541 3569 2628 3553 
L 2631 2963 
z
" transform="scale(0.015625)"/>
      </defs>
      <use xlink:href="#DejaVuSans-59"/>
      <use xlink:href="#DejaVuSans-65" x="47.833984"/>
      <use xlink:href="#DejaVuSans-61" x="109.357422"/>
      <use xlink:href="#DejaVuSans-72" x="170.636719"/>
     </g>
    </g>
   </g>
   <g id="matplotlib.axis_2">
    <g id="ytick_1">
     <g id="line2d_19">
      <defs>
       <path id="mef75943f9a" d="M 0 0 
L -3.5 0 
" style="stroke: #1f77b4; stroke-width: 0.8"/>
      </defs>
      <g>
       <use xlink:href="#mef75943f9a" x="63.92" y="318.04" style="fill: #1f77b4; stroke: #1f77b4; stroke-width: 0.8"/>
      </g>
     </g>
     <g id="text_11">
      <!-- 0.0 -->
      <g style="fill: #1f77b4" transform="translate(41.016875 321.839219) scale(0.1 -0.1)">
       <defs>
        <path id="DejaVuSans-2e" d="M 684 794 
L 1344 794 
L 1344 0 
L 684 0 
L 684 794 
z
" transform="scale(0.015625)"/>
       </defs>
       <use xlink:href="#DejaVuSans-30"/>
       <use xlink:href="#DejaVuSans-2e" x="63.623047"/>
       <use xlink:href="#DejaVuSans-30" x="95.410156"/>
      </g>
     </g>
    </g>
    <g id="ytick_2">
     <g id="line2d_20">
      <g>
       <use xlink:href="#mef75943f9a" x="63.92" y="261.704" style="fill: #1f77b4; stroke: #1f77b4; stroke-width: 0.8"/>
      </g>
     </g>
     <g id="text_12">
      <!-- 5.0 G -->
      <g style="fill: #1f77b4" transform="translate(31.271563 265.503219) scale(0.1 -0.1)">
       <defs>
        <path id="DejaVuSans-2009" transform="scale(0.015625)"/>
        <path id="DejaVuSans-47" d="M 3809 666 
L 3809 1919 
L 2778 1919 
L 2778 2438 
L 4434 2438 
L 4434 434 
Q 4069 175 3628 42 
Q 3188 -91 2688 -91 
Q 1594 -91 976 548 
Q 359 1188 359 2328 
Q 359 3472 976 4111 
Q 1594 4750 2688 4750 
Q 3144 4750 3555 4637 
Q 3966 4525 4313 4306 
L 4313 3634 
Q 3963 3931 3569 4081 
Q 3175 4231 2741 4231 
Q 1884 4231 1454 3753 
Q 1025 3275 1025 2328 
Q 1025 1384 1454 906 
Q 1884 428 2741 428 
Q 3075 428 3337 486 
Q 3600 544 3809 666 
z
" transform="scale(0.015625)"/>
       </defs>
       <use xlink:href="#DejaVuSans-35"/>
       <use xlink:href="#DejaVuSans-2e" x="63.623047"/>
       <use xlink:href="#DejaVuSans-30" x="95.410156"/>
       <use xlink:href="#DejaVuSans-2009" x="159.033203"/>
       <use xlink:href="#DejaVuSans-47" x="179.003906"/>
      </g>
     </g>
    </g>
    <g id="ytick_3">
     <g id="line2d_21">
      <g>
       <use xlink:href="#mef75943f9a" x="63.92" y="205.368" style="fill: #1f77b4; stroke: #1f77b4; stroke-width: 0.8"/>
      </g>
     </g>
     <g id="text_13">
      <!-- 10.0 G -->
      <g style="fill: #1f77b4" transform="translate(24.909063 209.167219) scale(0.1 -0.1)">
       <use xlink:href="#DejaVuSans-31"/>
       <use xlink:href="#DejaVuSans-30" x="63.623047"/>
       <use xlink:href="#DejaVuSans-2e" x="127.246094"/>
       <use xlink:href="#DejaVuSans-30" x="159.033203"/>
       <use xlink:href="#DejaVuSans-2009" x="222.65625"/>
       <use xlink:href="#DejaVuSans-47" x="242.626953"/>
      </g>
     </g>
    </g>
    <g id="ytick_4">
     <g id="line2d_22">
      <g>
       <use xlink:href="#mef75943f9a" x="63.92" y="149.032" style="fill: #1f77b4; stroke: #1f77b4; stroke-width: 0.8"/>
      </g>
     </g>
     <g id="text_14">
      <!-- 15.0 G -->
      <g style="fill: #1f77b4" transform="translate(24.909063 152.831219) scale(0.1 -0.1)">
       <use xlink:href="#DejaVuSans-31"/>
       <use xlink:href="#DejaVuSans-35" x="63.623047"/>
       <use xlink:href="#DejaVuSans-2e" x="127.246094"/>
       <use xlink:href="#DejaVuSans-30" x="159.033203"/>
       <use xlink:href="#DejaVuSans-2009" x="222.65625"/>
       <use xlink:href="#DejaVuSans-47" x="242.626953"/>
      </g>
     </g>
    </g>
    <g id="ytick_5">
     <g id="line2d_23">
      <g>
       <use xlink:href="#mef75943f9a" x="63.92" y="92.696" style="fill: #1f77b4; stroke: #1f77b4; stroke-width: 0.8"/>
      </g>
     </g>
     <g id="text_15">
      <!-- 20.0 G -->
      <g style="fill: #1f77b4" transform="translate(24.909063 96.495219) scale(0.1 -0.1)">
       <use xlink:href="#DejaVuSans-32"/>
       <use xlink:href="#DejaVuSans-30" x="63.623047"/>
       <use xlink:href="#DejaVuSans-2e" x="127.246094"/>
       <use xlink:href="#DejaVuSans-30" x="159.033203"/>
       <use xlink:href="#DejaVuSans-2009" x="222.65625"/>
       <use xlink:href="#DejaVuSans-47" x="242.626953"/>
      </g>
     </g>
    </g>
    <g id="ytick_6">
     <g id="line2d_24">
      <g>
       <use xlink:href="#mef75943f9a" x="63.92" y="36.36" style="fill: #1f77b4; stroke: #1f77b4; stroke-width: 0.8"/>
      </g>
     </g>
     <g id="text_16">
      <!-- 25.0 G -->
      <g style="fill: #1f77b4" transform="translate(24.909063 40.159219) scale(0.1 -0.1)">
       <use xlink:href="#DejaVuSans-32"/>
       <use xlink:href="#DejaVuSans-35" x="63.623047"/>
       <use xlink:href="#DejaVuSans-2e" x="127.246094"/>
       <use xlink:href="#DejaVuSans-30" x="159.033203"/>
       <use xlink:href="#DejaVuSans-2009" x="222.65625"/>
       <use xlink:href="#DejaVuSans-47" x="242.626953"/>
      </g>
     </g>
    </g>
    <g id="text_17">
     <!-- Human Ecological Footprint (Ggha) -->
     <g style="fill: #1f77b4" transform="translate(18.829375 264.885156) rotate(-90) scale(0.1 -0.1)">
      <defs>
       <path id="DejaVuSans-48" d="M 628 4666 
L 1259 4666 
L 1259 2753 
L 3553 2753 
L 3553 4666 
L 4184 4666 
L 4184 0 
L 3553 0 
L 3553 2222 
L 1259 2222 
L 1259 0 
L 628 0 
L 628 4666 
z
" transform="scale(0.015625)"/>
       <path id="DejaVuSans-75" d="M 544 1381 
L 544 3500 
L 1119 3500 
L 1119 1403 
Q 1119 906 1312 657 
Q 1506 409 1894 409 
Q 2359 409 2629 706 
Q 2900 1003 2900 1516 
L 2900 3500 
L 3475 3500 
L 3475 0 
L 2900 0 
L 2900 538 
Q 2691 219 2414 64 
Q 2138 -91 1772 -91 
Q 1169 -91 856 284 
Q 544 659 544 1381 
z
M 1991 3584 
L 1991 3584 
z
" transform="scale(0.015625)"/>
       <path id="DejaVuSans-6d" d="M 3328 2828 
Q 3544 3216 3844 3400 
Q 4144 3584 4550 3584 
Q 5097 3584 5394 3201 
Q 5691 2819 5691 2113 
L 5691 0 
L 5113 0 
L 5113 2094 
Q 5113 2597 4934 2840 
Q 4756 3084 4391 3084 
Q 3944 3084 3684 2787 
Q 3425 2491 3425 1978 
L 3425 0 
L 2847 0 
L 2847 2094 
Q 2847 2600 2669 2842 
Q 2491 3084 2119 3084 
Q 1678 3084 1418 2786 
Q 1159 2488 1159 1978 
L 1159 0 
L 581 0 
L 581 3500 
L 1159 3500 
L 1159 2956 
Q 1356 3278 1631 3431 
Q 1906 3584 2284 3584 
Q 2666 3584 2933 3390 
Q 3200 3197 3328 2828 
z
" transform="scale(0.015625)"/>
       <path id="DejaVuSans-6e" d="M 3513 2113 
L 3513 0 
L 2938 0 
L 2938 2094 
Q 2938 2591 2744 2837 
Q 2550 3084 2163 3084 
Q 1697 3084 1428 2787 
Q 1159 2491 1159 1978 
L 1159 0 
L 581 0 
L 581 3500 
L 1159 3500 
L 1159 2956 
Q 1366 3272 1645 3428 
Q 1925 3584 2291 3584 
Q 2894 3584 3203 3211 
Q 3513 2838 3513 2113 
z
" transform="scale(0.015625)"/>
       <path id="DejaVuSans-20" transform="scale(0.015625)"/>
       <path id="DejaVuSans-45" d="M 628 4666 
L 3578 4666 
L 3578 4134 
L 1259 4134 
L 1259 2753 
L 3481 2753 
L 3481 2222 
L 1259 2222 
L 1259 531 
L 3634 531 
L 3634 0 
L 628 0 
L 628 4666 
z
" transform="scale(0.015625)"/>
       <path id="DejaVuSans-63" d="M 3122 3366 
L 3122 2828 
Q 2878 2963 2633 3030 
Q 2388 3097 2138 3097 
Q 1578 3097 1268 2742 
Q 959 2388 959 1747 
Q 959 1106 1268 751 
Q 1578 397 2138 397 
Q 2388 397 2633 464 
Q 2878 531 3122 666 
L 3122 134 
Q 2881 22 2623 -34 
Q 2366 -91 2075 -91 
Q 1284 -91 818 406 
Q 353 903 353 1747 
Q 353 2603 823 3093 
Q 1294 3584 2113 3584 
Q 2378 3584 2631 3529 
Q 2884 3475 3122 3366 
z
" transform="scale(0.015625)"/>
       <path id="DejaVuSans-6f" d="M 1959 3097 
Q 1497 3097 1228 2736 
Q 959 2375 959 1747 
Q 959 1119 1226 758 
Q 1494 397 1959 397 
Q 2419 397 2687 759 
Q 2956 1122 2956 1747 
Q 2956 2369 2687 2733 
Q 2419 3097 1959 3097 
z
M 1959 3584 
Q 2709 3584 3137 3096 
Q 3566 2609 3566 1747 
Q 3566 888 3137 398 
Q 2709 -91 1959 -91 
Q 1206 -91 779 398 
Q 353 888 353 1747 
Q 353 2609 779 3096 
Q 1206 3584 1959 3584 
z
" transform="scale(0.015625)"/>
       <path id="DejaVuSans-6c" d="M 603 4863 
L 1178 4863 
L 1178 0 
L 603 0 
L 603 4863 
z
" transform="scale(0.015625)"/>
       <path id="DejaVuSans-67" d="M 2906 1791 
Q 2906 2416 2648 2759 
Q 2391 3103 1925 3103 
Q 1463 3103 1205 2759 
Q 947 2416 947 1791 
Q 947 1169 1205 825 
Q 1463 481 1925 481 
Q 2391 481 2648 825 
Q 2906 1169 2906 1791 
z
M 3481 434 
Q 3481 -459 3084 -895 
Q 2688 -1331 1869 -1331 
Q 1566 -1331 1297 -1286 
Q 1028 -1241 775 -1147 
L 775 -588 
Q 1028 -725 1275 -790 
Q 1522 -856 1778 -856 
Q 2344 -856 2625 -561 
Q 2906 -266 2906 331 
L 2906 616 
Q 2728 306 2450 153 
Q 2172 0 1784 0 
Q 1141 0 747 490 
Q 353 981 353 1791 
Q 353 2603 747 3093 
Q 1141 3584 1784 3584 
Q 2172 3584 2450 3431 
Q 2728 3278 2906 2969 
L 2906 3500 
L 3481 3500 
L 3481 434 
z
" transform="scale(0.015625)"/>
       <path id="DejaVuSans-69" d="M 603 3500 
L 1178 3500 
L 1178 0 
L 603 0 
L 603 3500 
z
M 603 4863 
L 1178 4863 
L 1178 4134 
L 603 4134 
L 603 4863 
z
" transform="scale(0.015625)"/>
       <path id="DejaVuSans-46" d="M 628 4666 
L 3309 4666 
L 3309 4134 
L 1259 4134 
L 1259 2759 
L 3109 2759 
L 3109 2228 
L 1259 2228 
L 1259 0 
L 628 0 
L 628 4666 
z
" transform="scale(0.015625)"/>
       <path id="DejaVuSans-74" d="M 1172 4494 
L 1172 3500 
L 2356 3500 
L 2356 3053 
L 1172 3053 
L 1172 1153 
Q 1172 725 1289 603 
Q 1406 481 1766 481 
L 2356 481 
L 2356 0 
L 1766 0 
Q 1100 0 847 248 
Q 594 497 594 1153 
L 594 3053 
L 172 3053 
L 172 3500 
L 594 3500 
L 594 4494 
L 1172 4494 
z
" transform="scale(0.015625)"/>
       <path id="DejaVuSans-70" d="M 1159 525 
L 1159 -1331 
L 581 -1331 
L 581 3500 
L 1159 3500 
L 1159 2969 
Q 1341 3281 1617 3432 
Q 1894 3584 2278 3584 
Q 2916 3584 3314 3078 
Q 3713 2572 3713 1747 
Q 3713 922 3314 415 
Q 2916 -91 2278 -91 
Q 1894 -91 1617 61 
Q 1341 213 1159 525 
z
M 3116 1747 
Q 3116 2381 2855 2742 
Q 2594 3103 2138 3103 
Q 1681 3103 1420 2742 
Q 1159 2381 1159 1747 
Q 1159 1113 1420 752 
Q 1681 391 2138 391 
Q 2594 391 2855 752 
Q 3116 1113 3116 1747 
z
" transform="scale(0.015625)"/>
       <path id="DejaVuSans-28" d="M 1984 4856 
Q 1566 4138 1362 3434 
Q 1159 2731 1159 2009 
Q 1159 1288 1364 580 
Q 1569 -128 1984 -844 
L 1484 -844 
Q 1016 -109 783 600 
Q 550 1309 550 2009 
Q 550 2706 781 3412 
Q 1013 4119 1484 4856 
L 1984 4856 
z
" transform="scale(0.015625)"/>
       <path id="DejaVuSans-68" d="M 3513 2113 
L 3513 0 
L 2938 0 
L 2938 2094 
Q 2938 2591 2744 2837 
Q 2550 3084 2163 3084 
Q 1697 3084 1428 2787 
Q 1159 2491 1159 1978 
L 1159 0 
L 581 0 
L 581 4863 
L 1159 4863 
L 1159 2956 
Q 1366 3272 1645 3428 
Q 1925 3584 2291 3584 
Q 2894 3584 3203 3211 
Q 3513 2838 3513 2113 
z
" transform="scale(0.015625)"/>
       <path id="DejaVuSans-29" d="M 513 4856 
L 1013 4856 
Q 1481 4119 1714 3412 
Q 1947 2706 1947 2009 
Q 1947 1309 1714 600 
Q 1481 -109 1013 -844 
L 513 -844 
Q 928 -128 1133 580 
Q 1338 1288 1338 2009 
Q 1338 2731 1133 3434 
Q 928 4138 513 4856 
z
" transform="scale(0.015625)"/>
      </defs>
      <use xlink:href="#DejaVuSans-48"/>
      <use xlink:href="#DejaVuSans-75" x="75.195312"/>
      <use xlink:href="#DejaVuSans-6d" x="138.574219"/>
      <use xlink:href="#DejaVuSans-61" x="235.986328"/>
      <use xlink:href="#DejaVuSans-6e" x="297.265625"/>
      <use xlink:href="#DejaVuSans-20" x="360.644531"/>
      <use xlink:href="#DejaVuSans-45" x="392.431641"/>
      <use xlink:href="#DejaVuSans-63" x="455.615234"/>
      <use xlink:href="#DejaVuSans-6f" x="510.595703"/>
      <use xlink:href="#DejaVuSans-6c" x="571.777344"/>
      <use xlink:href="#DejaVuSans-6f" x="599.560547"/>
      <use xlink:href="#DejaVuSans-67" x="660.742188"/>
      <use xlink:href="#DejaVuSans-69" x="724.21875"/>
      <use xlink:href="#DejaVuSans-63" x="752.001953"/>
      <use xlink:href="#DejaVuSans-61" x="806.982422"/>
      <use xlink:href="#DejaVuSans-6c" x="868.261719"/>
      <use xlink:href="#DejaVuSans-20" x="896.044922"/>
      <use xlink:href="#DejaVuSans-46" x="927.832031"/>
      <use xlink:href="#DejaVuSans-6f" x="981.726562"/>
      <use xlink:href="#DejaVuSans-6f" x="1042.908203"/>
      <use xlink:href="#DejaVuSans-74" x="1104.089844"/>
      <use xlink:href="#DejaVuSans-70" x="1143.298828"/>
      <use xlink:href="#DejaVuSans-72" x="1206.775391"/>
      <use xlink:href="#DejaVuSans-69" x="1247.888672"/>
      <use xlink:href="#DejaVuSans-6e" x="1275.671875"/>
      <use xlink:href="#DejaVuSans-74" x="1339.050781"/>
      <use xlink:href="#DejaVuSans-20" x="1378.259766"/>
      <use xlink:href="#DejaVuSans-28" x="1410.046875"/>
      <use xlink:href="#DejaVuSans-47" x="1449.060547"/>
      <use xlink:href="#DejaVuSans-67" x="1526.550781"/>
      <use xlink:href="#DejaVuSans-68" x="1590.027344"/>
      <use xlink:href="#DejaVuSans-61" x="1653.40625"/>
      <use xlink:href="#DejaVuSans-29" x="1714.685547"/>
     </g>
    </g>
   </g>
   <g id="line2d_25">
    <path d="M 84.927273 282.071098 
L 91.245249 281.255416 
L 102.828207 279.697222 
L 112.305172 278.202287 
L 128.100114 275.421541 
L 138.630075 273.343298 
L 147.054044 271.480759 
L 155.478013 269.386659 
L 162.848986 267.329212 
L 170.219959 265.029365 
L 176.537936 262.834131 
L 182.855913 260.40421 
L 189.173889 257.720376 
L 195.491866 254.75924 
L 200.756847 252.053661 
L 207.074823 248.555956 
L 213.3928 244.794207 
L 218.657781 241.425669 
L 223.922761 237.811113 
L 229.187742 233.764125 
L 231.293734 232.012383 
L 236.558715 226.990471 
L 241.823696 221.656136 
L 247.088676 215.963774 
L 252.353657 209.91794 
L 257.618638 203.51319 
L 262.883618 196.735649 
L 268.148599 189.579694 
L 273.413579 182.048918 
L 278.67856 174.124833 
L 283.943541 165.789225 
L 286.049533 162.124695 
L 290.261517 153.982486 
L 297.63249 139.137019 
L 302.897471 128.16632 
L 312.374436 107.22424 
L 314.480428 102.364251 
L 320.798405 86.805771 
L 331.328366 60.356207 
L 335.540351 49.299553 
L 349.229301 12.340663 
L 354.494281 0.032898 
L 354.680536 -1 
M 463.450887 -1 
L 467.164867 7.28147 
L 471.376851 16.022403 
L 472.429847 18.156238 
L 473.482843 22.153819 
L 475.588836 32.186658 
L 482.959809 70.535957 
L 485.065801 80.330574 
L 487.171793 89.394895 
L 489.277785 97.765273 
L 491.383778 105.487662 
L 493.48977 112.611478 
L 495.595762 119.183652 
L 497.701754 125.241628 
L 499.807747 130.833018 
L 500.860743 133.465393 
L 502.966735 137.852197 
L 505.072727 141.885671 
L 505.072727 141.885671 
" clip-path="url(#p3d2faae4db)" style="fill: none; stroke: #1f77b4; stroke-width: 1.5; stroke-linecap: square"/>
   </g>
   <g id="line2d_26">
    <path d="M 84.927273 282.071098 
L 91.245249 281.25952 
L 102.828207 279.715204 
L 112.305172 278.231153 
L 127.047118 275.64603 
L 137.577079 273.580575 
L 147.054044 271.486155 
L 155.478013 269.389592 
L 162.848986 267.338228 
L 170.219959 265.051656 
L 175.48494 263.213438 
L 181.802916 260.764276 
L 188.120893 258.053195 
L 194.43887 255.06128 
L 199.703851 252.33436 
L 206.021827 248.807149 
L 212.339804 245.032045 
L 217.604785 241.659688 
L 222.869765 238.058706 
L 226.028754 235.677841 
L 228.134746 233.835943 
L 233.399727 228.845715 
L 238.664707 223.534644 
L 243.929688 217.867712 
L 249.194668 211.809706 
L 254.459649 205.382959 
L 259.72463 198.561046 
L 264.98961 191.330288 
L 270.254591 183.68851 
L 275.519572 175.639374 
L 279.731556 168.872171 
L 283.943541 161.838169 
L 286.049533 157.942957 
L 290.261517 149.410547 
L 296.579494 136.111065 
L 302.897471 122.308786 
L 312.374436 100.344749 
L 315.533424 92.411848 
L 326.063386 65.239551 
L 331.328366 53.271774 
L 335.540351 43.211046 
L 353.441285 -0.602323 
L 353.500848 -1 
M 467.199637 -1 
L 469.270859 10.285073 
L 476.641832 52.975706 
L 478.747824 64.656943 
L 481.906812 82.864838 
L 484.012805 93.832097 
L 486.118797 103.885748 
L 488.224789 113.079105 
L 490.330781 121.456021 
L 492.436774 129.073957 
L 494.542766 135.986726 
L 496.648758 142.140629 
L 498.754751 147.633776 
L 500.860743 152.556453 
L 502.966735 156.977467 
L 504.019731 158.986626 
L 505.072727 160.60203 
L 505.072727 160.60203 
" clip-path="url(#p3d2faae4db)" style="fill: none; stroke-dasharray: 1.85,0.8; stroke-dashoffset: 0; stroke: #1f77b4; stroke-width: 0.5"/>
   </g>
   <g id="patch_3">
    <path d="M 63.92 318.04 
L 63.92 36.36 
" style="fill: none; stroke: #000000; stroke-width: 0.8; stroke-linejoin: miter; stroke-linecap: square"/>
   </g>
   <g id="patch_4">
    <path d="M 526.08 318.04 
L 526.08 36.36 
" style="fill: none; stroke: #000000; stroke-width: 0.8; stroke-linejoin: miter; stroke-linecap: square"/>
   </g>
   <g id="patch_5">
    <path d="M 63.92 318.04 
L 526.08 318.04 
" style="fill: none; stroke: #000000; stroke-width: 0.8; stroke-linejoin: miter; stroke-linecap: square"/>
   </g>
   <g id="patch_6">
    <path d="M 63.92 36.36 
L 526.08 36.36 
" style="fill: none; stroke: #000000; stroke-width: 0.8; stroke-linejoin: miter; stroke-linecap: square"/>
   </g>
  </g>
  <g id="axes_2">
   <g id="matplotlib.axis_3">
    <g id="ytick_7">
     <g id="line2d_27">
      <defs>
       <path id="m1be80b482b" d="M 0 0 
L 3.5 0 
" style="stroke: #ff7f0e; stroke-width: 0.8"/>
      </defs>
      <g>
       <use xlink:href="#m1be80b482b" x="526.08" y="318.04" style="fill: #ff7f0e; stroke: #ff7f0e; stroke-width: 0.8"/>
      </g>
     </g>
     <g id="text_18">
      <!-- 0.0 -->
      <g style="fill: #ff7f0e" transform="translate(533.08 321.839219) scale(0.1 -0.1)">
       <use xlink:href="#DejaVuSans-30"/>
       <use xlink:href="#DejaVuSans-2e" x="63.623047"/>
       <use xlink:href="#DejaVuSans-30" x="95.410156"/>
      </g>
     </g>
    </g>
    <g id="ytick_8">
     <g id="line2d_28">
      <g>
       <use xlink:href="#m1be80b482b" x="526.08" y="261.704" style="fill: #ff7f0e; stroke: #ff7f0e; stroke-width: 0.8"/>
      </g>
     </g>
     <g id="text_19">
      <!-- 5.0 G -->
      <g style="fill: #ff7f0e" transform="translate(533.08 265.503219) scale(0.1 -0.1)">
       <use xlink:href="#DejaVuSans-35"/>
       <use xlink:href="#DejaVuSans-2e" x="63.623047"/>
       <use xlink:href="#DejaVuSans-30" x="95.410156"/>
       <use xlink:href="#DejaVuSans-2009" x="159.033203"/>
       <use xlink:href="#DejaVuSans-47" x="179.003906"/>
      </g>
     </g>
    </g>
    <g id="ytick_9">
     <g id="line2d_29">
      <g>
       <use xlink:href="#m1be80b482b" x="526.08" y="205.368" style="fill: #ff7f0e; stroke: #ff7f0e; stroke-width: 0.8"/>
      </g>
     </g>
     <g id="text_20">
      <!-- 10.0 G -->
      <g style="fill: #ff7f0e" transform="translate(533.08 209.167219) scale(0.1 -0.1)">
       <use xlink:href="#DejaVuSans-31"/>
       <use xlink:href="#DejaVuSans-30" x="63.623047"/>
       <use xlink:href="#DejaVuSans-2e" x="127.246094"/>
       <use xlink:href="#DejaVuSans-30" x="159.033203"/>
       <use xlink:href="#DejaVuSans-2009" x="222.65625"/>
       <use xlink:href="#DejaVuSans-47" x="242.626953"/>
      </g>
     </g>
    </g>
    <g id="ytick_10">
     <g id="line2d_30">
      <g>
       <use xlink:href="#m1be80b482b" x="526.08" y="149.032" style="fill: #ff7f0e; stroke: #ff7f0e; stroke-width: 0.8"/>
      </g>
     </g>
     <g id="text_21">
      <!-- 15.0 G -->
      <g style="fill: #ff7f0e" transform="translate(533.08 152.831219) scale(0.1 -0.1)">
       <use xlink:href="#DejaVuSans-31"/>
       <use xlink:href="#DejaVuSans-35" x="63.623047"/>
       <use xlink:href="#DejaVuSans-2e" x="127.246094"/>
       <use xlink:href="#DejaVuSans-30" x="159.033203"/>
       <use xlink:href="#DejaVuSans-2009" x="222.65625"/>
       <use xlink:href="#DejaVuSans-47" x="242.626953"/>
      </g>
     </g>
    </g>
    <g id="ytick_11">
     <g id="line2d_31">
      <g>
       <use xlink:href="#m1be80b482b" x="526.08" y="92.696" style="fill: #ff7f0e; stroke: #ff7f0e; stroke-width: 0.8"/>
      </g>
     </g>
     <g id="text_22">
      <!-- 20.0 G -->
      <g style="fill: #ff7f0e" transform="translate(533.08 96.495219) scale(0.1 -0.1)">
       <use xlink:href="#DejaVuSans-32"/>
       <use xlink:href="#DejaVuSans-30" x="63.623047"/>
       <use xlink:href="#DejaVuSans-2e" x="127.246094"/>
       <use xlink:href="#DejaVuSans-30" x="159.033203"/>
       <use xlink:href="#DejaVuSans-2009" x="222.65625"/>
       <use xlink:href="#DejaVuSans-47" x="242.626953"/>
      </g>
     </g>
    </g>
    <g id="ytick_12">
     <g id="line2d_32">
      <g>
       <use xlink:href="#m1be80b482b" x="526.08" y="36.36" style="fill: #ff7f0e; stroke: #ff7f0e; stroke-width: 0.8"/>
      </g>
     </g>
     <g id="text_23">
      <!-- 25.0 G -->
      <g style="fill: #ff7f0e" transform="translate(533.08 40.159219) scale(0.1 -0.1)">
       <use xlink:href="#DejaVuSans-32"/>
       <use xlink:href="#DejaVuSans-35" x="63.623047"/>
       <use xlink:href="#DejaVuSans-2e" x="127.246094"/>
       <use xlink:href="#DejaVuSans-30" x="159.033203"/>
       <use xlink:href="#DejaVuSans-2009" x="222.65625"/>
       <use xlink:href="#DejaVuSans-47" x="242.626953"/>
      </g>
     </g>
    </g>
    <g id="text_24">
     <!-- Absorption Land (Gha) -->
     <g style="fill: #ff7f0e" transform="translate(576.689375 233.645313) rotate(-90) scale(0.1 -0.1)">
      <defs>
       <path id="DejaVuSans-41" d="M 2188 4044 
L 1331 1722 
L 3047 1722 
L 2188 4044 
z
M 1831 4666 
L 2547 4666 
L 4325 0 
L 3669 0 
L 3244 1197 
L 1141 1197 
L 716 0 
L 50 0 
L 1831 4666 
z
" transform="scale(0.015625)"/>
       <path id="DejaVuSans-62" d="M 3116 1747 
Q 3116 2381 2855 2742 
Q 2594 3103 2138 3103 
Q 1681 3103 1420 2742 
Q 1159 2381 1159 1747 
Q 1159 1113 1420 752 
Q 1681 391 2138 391 
Q 2594 391 2855 752 
Q 3116 1113 3116 1747 
z
M 1159 2969 
Q 1341 3281 1617 3432 
Q 1894 3584 2278 3584 
Q 2916 3584 3314 3078 
Q 3713 2572 3713 1747 
Q 3713 922 3314 415 
Q 2916 -91 2278 -91 
Q 1894 -91 1617 61 
Q 1341 213 1159 525 
L 1159 0 
L 581 0 
L 581 4863 
L 1159 4863 
L 1159 2969 
z
" transform="scale(0.015625)"/>
       <path id="DejaVuSans-73" d="M 2834 3397 
L 2834 2853 
Q 2591 2978 2328 3040 
Q 2066 3103 1784 3103 
Q 1356 3103 1142 2972 
Q 928 2841 928 2578 
Q 928 2378 1081 2264 
Q 1234 2150 1697 2047 
L 1894 2003 
Q 2506 1872 2764 1633 
Q 3022 1394 3022 966 
Q 3022 478 2636 193 
Q 2250 -91 1575 -91 
Q 1294 -91 989 -36 
Q 684 19 347 128 
L 347 722 
Q 666 556 975 473 
Q 1284 391 1588 391 
Q 1994 391 2212 530 
Q 2431 669 2431 922 
Q 2431 1156 2273 1281 
Q 2116 1406 1581 1522 
L 1381 1569 
Q 847 1681 609 1914 
Q 372 2147 372 2553 
Q 372 3047 722 3315 
Q 1072 3584 1716 3584 
Q 2034 3584 2315 3537 
Q 2597 3491 2834 3397 
z
" transform="scale(0.015625)"/>
       <path id="DejaVuSans-4c" d="M 628 4666 
L 1259 4666 
L 1259 531 
L 3531 531 
L 3531 0 
L 628 0 
L 628 4666 
z
" transform="scale(0.015625)"/>
       <path id="DejaVuSans-64" d="M 2906 2969 
L 2906 4863 
L 3481 4863 
L 3481 0 
L 2906 0 
L 2906 525 
Q 2725 213 2448 61 
Q 2172 -91 1784 -91 
Q 1150 -91 751 415 
Q 353 922 353 1747 
Q 353 2572 751 3078 
Q 1150 3584 1784 3584 
Q 2172 3584 2448 3432 
Q 2725 3281 2906 2969 
z
M 947 1747 
Q 947 1113 1208 752 
Q 1469 391 1925 391 
Q 2381 391 2643 752 
Q 2906 1113 2906 1747 
Q 2906 2381 2643 2742 
Q 2381 3103 1925 3103 
Q 1469 3103 1208 2742 
Q 947 2381 947 1747 
z
" transform="scale(0.015625)"/>
      </defs>
      <use xlink:href="#DejaVuSans-41"/>
      <use xlink:href="#DejaVuSans-62" x="68.408203"/>
      <use xlink:href="#DejaVuSans-73" x="131.884766"/>
      <use xlink:href="#DejaVuSans-6f" x="183.984375"/>
      <use xlink:href="#DejaVuSans-72" x="245.166016"/>
      <use xlink:href="#DejaVuSans-70" x="286.279297"/>
      <use xlink:href="#DejaVuSans-74" x="349.755859"/>
      <use xlink:href="#DejaVuSans-69" x="388.964844"/>
      <use xlink:href="#DejaVuSans-6f" x="416.748047"/>
      <use xlink:href="#DejaVuSans-6e" x="477.929688"/>
      <use xlink:href="#DejaVuSans-20" x="541.308594"/>
      <use xlink:href="#DejaVuSans-4c" x="573.095703"/>
      <use xlink:href="#DejaVuSans-61" x="628.808594"/>
      <use xlink:href="#DejaVuSans-6e" x="690.087891"/>
      <use xlink:href="#DejaVuSans-64" x="753.466797"/>
      <use xlink:href="#DejaVuSans-20" x="816.943359"/>
      <use xlink:href="#DejaVuSans-28" x="848.730469"/>
      <use xlink:href="#DejaVuSans-47" x="887.744141"/>
      <use xlink:href="#DejaVuSans-68" x="965.234375"/>
      <use xlink:href="#DejaVuSans-61" x="1028.613281"/>
      <use xlink:href="#DejaVuSans-29" x="1089.892578"/>
     </g>
    </g>
   </g>
   <g id="line2d_33">
    <path d="M 84.927273 315.449051 
L 90.192253 315.076607 
L 115.46416 313.459017 
L 129.15311 312.288614 
L 140.736067 311.077427 
L 151.266029 309.744796 
L 160.742994 308.318657 
L 169.166963 306.845762 
L 177.590932 305.162365 
L 186.014901 303.241212 
L 193.385874 301.346753 
L 199.703851 299.539975 
L 206.021827 297.493659 
L 213.3928 294.866744 
L 220.763773 291.977629 
L 224.975758 290.155621 
L 230.240738 287.52871 
L 232.34673 286.23913 
L 238.664707 282.002896 
L 243.929688 278.221008 
L 249.194668 274.139906 
L 254.459649 269.783204 
L 259.72463 265.141824 
L 264.98961 260.211034 
L 270.254591 254.98957 
L 275.519572 249.481519 
L 279.731556 244.855666 
L 284.996537 238.756514 
L 287.102529 235.806416 
L 292.36751 227.816724 
L 299.738483 216.164795 
L 303.950467 209.179513 
L 313.427432 192.406086 
L 316.586421 186.175086 
L 328.169378 162.466216 
L 334.487355 148.948632 
L 342.911324 129.748813 
L 349.229301 115.54726 
L 354.494281 105.605796 
L 357.65327 88.944007 
L 359.759262 80.036172 
L 361.865254 72.376766 
L 363.971246 65.511078 
L 368.183231 52.402383 
L 370.289223 45.304227 
L 373.448211 33.479236 
L 376.6072 21.582119 
L 379.766188 10.464161 
L 382.925177 0.244892 
L 383.337362 -1 
M 422.751973 -1 
L 433.468991 32.0791 
L 437.680975 44.286646 
L 449.263933 76.247808 
L 453.475917 87.117169 
L 457.687902 97.303667 
L 462.952882 109.30848 
L 467.164867 118.642929 
L 471.376851 127.296041 
L 472.429847 129.40733 
L 473.482843 133.38215 
L 475.588836 143.368236 
L 482.959809 181.54231 
L 485.065801 191.284569 
L 487.171793 200.295913 
L 489.277785 208.612838 
L 491.383778 216.281411 
L 493.48977 223.351132 
L 495.595762 229.868989 
L 497.701754 235.872421 
L 499.807747 241.409087 
L 500.860743 244.01405 
L 502.966735 248.345953 
L 505.072727 252.324448 
L 505.072727 252.324448 
" clip-path="url(#p3d2faae4db)" style="fill: none; stroke: #ff7f0e; stroke-width: 1.5; stroke-linecap: square"/>
   </g>
   <g id="line2d_34">
    <path d="M 84.927273 315.449051 
L 90.192253 315.078431 
L 115.46416 313.461894 
L 128.100114 312.381393 
L 139.683071 311.177986 
L 150.213033 309.859846 
L 159.689998 308.454052 
L 168.113967 306.999589 
L 175.48494 305.525994 
L 183.908909 303.604352 
L 192.332878 301.435729 
L 199.703851 299.300565 
L 207.074823 296.85489 
L 214.445796 294.15332 
L 221.816769 291.185172 
L 224.975758 289.752679 
L 227.08175 288.653827 
L 233.399727 284.517976 
L 238.664707 280.813351 
L 243.929688 276.842761 
L 249.194668 272.548314 
L 254.459649 267.955592 
L 259.72463 263.050313 
L 264.98961 257.825459 
L 270.254591 252.280777 
L 275.519572 246.423017 
L 279.731556 241.495007 
L 283.943541 236.366686 
L 286.049533 233.433858 
L 290.261517 226.813036 
L 296.579494 216.41608 
L 302.897471 205.589127 
L 311.32144 189.932407 
L 313.427432 185.85701 
L 317.639417 176.943703 
L 326.063386 158.978542 
L 331.328366 149.425714 
L 334.487355 143.391595 
L 353.441285 106.278981 
L 355.547277 93.515639 
L 357.65327 83.507409 
L 359.759262 75.119177 
L 361.865254 67.78624 
L 363.971246 61.209025 
L 369.236227 45.52222 
L 373.448211 30.274743 
L 380.819184 3.996217 
L 382.28099 -1 
M 427.662894 -1 
L 432.415995 13.91081 
L 437.680975 30.431421 
L 443.998952 50.581842 
L 448.210936 63.127807 
L 451.369925 71.88158 
L 455.581909 82.8292 
L 459.793894 93.062189 
L 465.058874 105.315782 
L 466.111871 109.121876 
L 467.164867 113.957323 
L 469.270859 125.37918 
L 476.641832 167.894018 
L 478.747824 179.521418 
L 481.906812 197.647145 
L 484.012805 208.55906 
L 486.118797 218.557138 
L 488.224789 227.6948 
L 490.330781 236.015799 
L 492.436774 243.577658 
L 494.542766 250.434271 
L 496.648758 256.53202 
L 498.754751 261.969085 
L 500.860743 266.835801 
L 502.966735 271.201009 
L 504.019731 273.182328 
L 505.072727 274.769955 
L 505.072727 274.769955 
" clip-path="url(#p3d2faae4db)" style="fill: none; stroke-dasharray: 1.85,0.8; stroke-dashoffset: 0; stroke: #ff7f0e; stroke-width: 0.5"/>
   </g>
   <g id="patch_7">
    <path d="M 63.92 318.04 
L 63.92 36.36 
" style="fill: none; stroke: #000000; stroke-width: 0.8; stroke-linejoin: miter; stroke-linecap: square"/>
   </g>
   <g id="patch_8">
    <path d="M 526.08 318.04 
L 526.08 36.36 
" style="fill: none; stroke: #000000; stroke-width: 0.8; stroke-linejoin: miter; stroke-linecap: square"/>
   </g>
   <g id="patch_9">
    <path d="M 63.92 318.04 
L 526.08 318.04 
" style="fill: none; stroke: #000000; stroke-width: 0.8; stroke-linejoin: miter; stroke-linecap: square"/>
   </g>
   <g id="patch_10">
    <path d="M 63.92 36.36 
L 526.08 36.36 
" style="fill: none; stroke: #000000; stroke-width: 0.8; stroke-linejoin: miter; stroke-linecap: square"/>
   </g>
  </g>
  <g id="axes_3">
   <g id="matplotlib.axis_4">
    <g id="ytick_13">
     <g id="line2d_35">
      <defs>
       <path id="m3688f34f6a" d="M 0 0 
L 3.5 0 
" style="stroke: #2ca02c; stroke-width: 0.8"/>
      </defs>
      <g>
       <use xlink:href="#m3688f34f6a" x="591.08" y="318.04" style="fill: #2ca02c; stroke: #2ca02c; stroke-width: 0.8"/>
      </g>
     </g>
     <g id="text_25">
      <!-- 0.0 -->
      <g style="fill: #2ca02c" transform="translate(598.08 321.839219) scale(0.1 -0.1)">
       <use xlink:href="#DejaVuSans-30"/>
       <use xlink:href="#DejaVuSans-2e" x="63.623047"/>
       <use xlink:href="#DejaVuSans-30" x="95.410156"/>
      </g>
     </g>
    </g>
    <g id="ytick_14">
     <g id="line2d_36">
      <g>
       <use xlink:href="#m3688f34f6a" x="591.08" y="261.704" style="fill: #2ca02c; stroke: #2ca02c; stroke-width: 0.8"/>
      </g>
     </g>
     <g id="text_26">
      <!-- 5.0 G -->
      <g style="fill: #2ca02c" transform="translate(598.08 265.503219) scale(0.1 -0.1)">
       <use xlink:href="#DejaVuSans-35"/>
       <use xlink:href="#DejaVuSans-2e" x="63.623047"/>
       <use xlink:href="#DejaVuSans-30" x="95.410156"/>
       <use xlink:href="#DejaVuSans-2009" x="159.033203"/>
       <use xlink:href="#DejaVuSans-47" x="179.003906"/>
      </g>
     </g>
    </g>
    <g id="ytick_15">
     <g id="line2d_37">
      <g>
       <use xlink:href="#m3688f34f6a" x="591.08" y="205.368" style="fill: #2ca02c; stroke: #2ca02c; stroke-width: 0.8"/>
      </g>
     </g>
     <g id="text_27">
      <!-- 10.0 G -->
      <g style="fill: #2ca02c" transform="translate(598.08 209.167219) scale(0.1 -0.1)">
       <use xlink:href="#DejaVuSans-31"/>
       <use xlink:href="#DejaVuSans-30" x="63.623047"/>
       <use xlink:href="#DejaVuSans-2e" x="127.246094"/>
       <use xlink:href="#DejaVuSans-30" x="159.033203"/>
       <use xlink:href="#DejaVuSans-2009" x="222.65625"/>
       <use xlink:href="#DejaVuSans-47" x="242.626953"/>
      </g>
     </g>
    </g>
    <g id="ytick_16">
     <g id="line2d_38">
      <g>
       <use xlink:href="#m3688f34f6a" x="591.08" y="149.032" style="fill: #2ca02c; stroke: #2ca02c; stroke-width: 0.8"/>
      </g>
     </g>
     <g id="text_28">
      <!-- 15.0 G -->
      <g style="fill: #2ca02c" transform="translate(598.08 152.831219) scale(0.1 -0.1)">
       <use xlink:href="#DejaVuSans-31"/>
       <use xlink:href="#DejaVuSans-35" x="63.623047"/>
       <use xlink:href="#DejaVuSans-2e" x="127.246094"/>
       <use xlink:href="#DejaVuSans-30" x="159.033203"/>
       <use xlink:href="#DejaVuSans-2009" x="222.65625"/>
       <use xlink:href="#DejaVuSans-47" x="242.626953"/>
      </g>
     </g>
    </g>
    <g id="ytick_17">
     <g id="line2d_39">
      <g>
       <use xlink:href="#m3688f34f6a" x="591.08" y="92.696" style="fill: #2ca02c; stroke: #2ca02c; stroke-width: 0.8"/>
      </g>
     </g>
     <g id="text_29">
      <!-- 20.0 G -->
      <g style="fill: #2ca02c" transform="translate(598.08 96.495219) scale(0.1 -0.1)">
       <use xlink:href="#DejaVuSans-32"/>
       <use xlink:href="#DejaVuSans-30" x="63.623047"/>
       <use xlink:href="#DejaVuSans-2e" x="127.246094"/>
       <use xlink:href="#DejaVuSans-30" x="159.033203"/>
       <use xlink:href="#DejaVuSans-2009" x="222.65625"/>
       <use xlink:href="#DejaVuSans-47" x="242.626953"/>
      </g>
     </g>
    </g>
    <g id="ytick_18">
     <g id="line2d_40">
      <g>
       <use xlink:href="#m3688f34f6a" x="591.08" y="36.36" style="fill: #2ca02c; stroke: #2ca02c; stroke-width: 0.8"/>
      </g>
     </g>
     <g id="text_30">
      <!-- 25.0 G -->
      <g style="fill: #2ca02c" transform="translate(598.08 40.159219) scale(0.1 -0.1)">
       <use xlink:href="#DejaVuSans-32"/>
       <use xlink:href="#DejaVuSans-35" x="63.623047"/>
       <use xlink:href="#DejaVuSans-2e" x="127.246094"/>
       <use xlink:href="#DejaVuSans-30" x="159.033203"/>
       <use xlink:href="#DejaVuSans-2009" x="222.65625"/>
       <use xlink:href="#DejaVuSans-47" x="242.626953"/>
      </g>
     </g>
    </g>
    <g id="text_31">
     <!-- Human Echological Footprint, empirical data (gha) -->
     <g style="fill: #2ca02c" transform="translate(641.689375 303.366406) rotate(-90) scale(0.1 -0.1)">
      <defs>
       <path id="DejaVuSans-2c" d="M 750 794 
L 1409 794 
L 1409 256 
L 897 -744 
L 494 -744 
L 750 256 
L 750 794 
z
" transform="scale(0.015625)"/>
      </defs>
      <use xlink:href="#DejaVuSans-48"/>
      <use xlink:href="#DejaVuSans-75" x="75.195312"/>
      <use xlink:href="#DejaVuSans-6d" x="138.574219"/>
      <use xlink:href="#DejaVuSans-61" x="235.986328"/>
      <use xlink:href="#DejaVuSans-6e" x="297.265625"/>
      <use xlink:href="#DejaVuSans-20" x="360.644531"/>
      <use xlink:href="#DejaVuSans-45" x="392.431641"/>
      <use xlink:href="#DejaVuSans-63" x="455.615234"/>
      <use xlink:href="#DejaVuSans-68" x="510.595703"/>
      <use xlink:href="#DejaVuSans-6f" x="573.974609"/>
      <use xlink:href="#DejaVuSans-6c" x="635.15625"/>
      <use xlink:href="#DejaVuSans-6f" x="662.939453"/>
      <use xlink:href="#DejaVuSans-67" x="724.121094"/>
      <use xlink:href="#DejaVuSans-69" x="787.597656"/>
      <use xlink:href="#DejaVuSans-63" x="815.380859"/>
      <use xlink:href="#DejaVuSans-61" x="870.361328"/>
      <use xlink:href="#DejaVuSans-6c" x="931.640625"/>
      <use xlink:href="#DejaVuSans-20" x="959.423828"/>
      <use xlink:href="#DejaVuSans-46" x="991.210938"/>
      <use xlink:href="#DejaVuSans-6f" x="1045.105469"/>
      <use xlink:href="#DejaVuSans-6f" x="1106.287109"/>
      <use xlink:href="#DejaVuSans-74" x="1167.46875"/>
      <use xlink:href="#DejaVuSans-70" x="1206.677734"/>
      <use xlink:href="#DejaVuSans-72" x="1270.154297"/>
      <use xlink:href="#DejaVuSans-69" x="1311.267578"/>
      <use xlink:href="#DejaVuSans-6e" x="1339.050781"/>
      <use xlink:href="#DejaVuSans-74" x="1402.429688"/>
      <use xlink:href="#DejaVuSans-2c" x="1441.638672"/>
      <use xlink:href="#DejaVuSans-20" x="1473.425781"/>
      <use xlink:href="#DejaVuSans-65" x="1505.212891"/>
      <use xlink:href="#DejaVuSans-6d" x="1566.736328"/>
      <use xlink:href="#DejaVuSans-70" x="1664.148438"/>
      <use xlink:href="#DejaVuSans-69" x="1727.625"/>
      <use xlink:href="#DejaVuSans-72" x="1755.408203"/>
      <use xlink:href="#DejaVuSans-69" x="1796.521484"/>
      <use xlink:href="#DejaVuSans-63" x="1824.304688"/>
      <use xlink:href="#DejaVuSans-61" x="1879.285156"/>
      <use xlink:href="#DejaVuSans-6c" x="1940.564453"/>
      <use xlink:href="#DejaVuSans-20" x="1968.347656"/>
      <use xlink:href="#DejaVuSans-64" x="2000.134766"/>
      <use xlink:href="#DejaVuSans-61" x="2063.611328"/>
      <use xlink:href="#DejaVuSans-74" x="2124.890625"/>
      <use xlink:href="#DejaVuSans-61" x="2164.099609"/>
      <use xlink:href="#DejaVuSans-20" x="2225.378906"/>
      <use xlink:href="#DejaVuSans-28" x="2257.166016"/>
      <use xlink:href="#DejaVuSans-67" x="2296.179688"/>
      <use xlink:href="#DejaVuSans-68" x="2359.65625"/>
      <use xlink:href="#DejaVuSans-61" x="2423.035156"/>
      <use xlink:href="#DejaVuSans-29" x="2484.314453"/>
     </g>
    </g>
   </g>
   <g id="line2d_41">
    <path d="M 213.3928 236.721 
L 215.498792 235.683319 
L 217.604785 235.3209 
L 219.710777 234.561986 
L 221.816769 233.006503 
L 223.922761 227.54747 
L 226.028754 221.094472 
L 228.134746 217.205017 
L 230.240738 214.012837 
L 232.34673 203.61411 
L 234.452723 200.912821 
L 236.558715 202.279012 
L 238.664707 192.566605 
L 240.770699 192.162465 
L 242.876692 191.023375 
L 244.982684 187.668486 
L 247.088676 186.011302 
L 251.300661 177.42437 
L 253.406653 184.147246 
L 255.512645 184.698962 
L 257.618638 187.783812 
L 259.72463 189.076243 
L 261.830622 180.240929 
L 263.936614 175.47276 
L 266.042607 173.796606 
L 268.148599 170.815179 
L 270.254591 164.240273 
L 272.360583 160.788716 
L 274.466576 161.397505 
L 277.625564 165.257556 
L 278.67856 166.615935 
L 280.784552 165.373949 
L 282.890545 159.216494 
L 284.996537 155.360274 
L 287.102529 150.717116 
L 289.208521 151.06467 
L 291.314514 150.696439 
L 293.420506 143.326595 
L 295.526498 137.631273 
L 297.63249 133.900228 
L 299.738483 137.81143 
L 301.844475 133.578528 
L 303.950467 123.899754 
L 307.109455 117.913685 
L 308.162452 116.039385 
L 310.268444 108.327594 
L 312.374436 106.301114 
L 314.480428 113.187652 
L 316.586421 100.817795 
L 318.692413 95.06987 
L 320.798405 95.469315 
L 322.904397 90.935768 
L 325.01039 92.003819 
L 327.116382 94.24714 
L 329.222374 95.853267 
L 331.328366 88.79682 
L 333.434359 85.945585 
L 335.540351 87.156942 
L 337.646343 100.159548 
L 339.752335 87.096384 
L 341.858328 86.061342 
L 341.858328 86.061342 
" clip-path="url(#p3d2faae4db)" style="fill: none; stroke: #2ca02c; stroke-width: 1.5; stroke-linecap: square"/>
   </g>
   <g id="line2d_42">
    <path d="M 213.3928 236.721 
L 215.498792 235.683319 
L 217.604785 235.3209 
L 219.710777 234.561986 
L 221.816769 233.006503 
L 223.922761 227.54747 
L 226.028754 221.094472 
L 228.134746 217.205017 
L 230.240738 214.012837 
L 232.34673 203.61411 
L 234.452723 200.912821 
L 236.558715 202.279012 
L 238.664707 192.566605 
L 240.770699 192.162465 
L 242.876692 191.023375 
L 244.982684 187.668486 
L 247.088676 186.011302 
L 251.300661 177.42437 
L 253.406653 184.147246 
L 255.512645 184.698962 
L 257.618638 187.783812 
L 259.72463 189.076243 
L 261.830622 180.240929 
L 263.936614 175.47276 
L 266.042607 173.796606 
L 268.148599 170.815179 
L 270.254591 164.240273 
L 272.360583 160.788716 
L 274.466576 161.397505 
L 277.625564 165.257556 
L 278.67856 166.615935 
L 280.784552 165.373949 
L 282.890545 159.216494 
L 284.996537 155.360274 
L 287.102529 150.717116 
L 289.208521 151.06467 
L 291.314514 150.696439 
L 293.420506 143.326595 
L 295.526498 137.631273 
L 297.63249 133.900228 
L 299.738483 137.81143 
L 301.844475 133.578528 
L 303.950467 123.899754 
L 307.109455 117.913685 
L 308.162452 116.039385 
L 310.268444 108.327594 
L 312.374436 106.301114 
L 314.480428 113.187652 
L 316.586421 100.817795 
L 318.692413 95.06987 
L 320.798405 95.469315 
L 322.904397 90.935768 
L 325.01039 92.003819 
L 327.116382 94.24714 
L 329.222374 95.853267 
L 331.328366 88.79682 
L 333.434359 85.945585 
L 335.540351 87.156942 
L 337.646343 100.159548 
L 339.752335 87.096384 
L 341.858328 86.061342 
L 341.858328 86.061342 
" clip-path="url(#p3d2faae4db)" style="fill: none; stroke-dasharray: 1.85,0.8; stroke-dashoffset: 0; stroke: #2ca02c; stroke-width: 0.5"/>
   </g>
   <g id="patch_11">
    <path d="M 63.92 318.04 
L 63.92 36.36 
" style="fill: none; stroke: #000000; stroke-width: 0.8; stroke-linejoin: miter; stroke-linecap: square"/>
   </g>
   <g id="patch_12">
    <path d="M 591.08 318.04 
L 591.08 36.36 
" style="fill: none; stroke: #000000; stroke-width: 0.8; stroke-linejoin: miter; stroke-linecap: square"/>
   </g>
   <g id="patch_13">
    <path d="M 63.92 318.04 
L 526.08 318.04 
" style="fill: none; stroke: #000000; stroke-width: 0.8; stroke-linejoin: miter; stroke-linecap: square"/>
   </g>
   <g id="patch_14">
    <path d="M 63.92 36.36 
L 526.08 36.36 
" style="fill: none; stroke: #000000; stroke-width: 0.8; stroke-linejoin: miter; stroke-linecap: square"/>
   </g>
  </g>
  <g id="axes_4">
   <g id="matplotlib.axis_5">
    <g id="ytick_19">
     <g id="line2d_43">
      <defs>
       <path id="m6ac0b9396a" d="M 0 0 
L 3.5 0 
" style="stroke: #d62728; stroke-width: 0.8"/>
      </defs>
      <g>
       <use xlink:href="#m6ac0b9396a" x="656.08" y="318.04" style="fill: #d62728; stroke: #d62728; stroke-width: 0.8"/>
      </g>
     </g>
     <g id="text_32">
      <!-- 0.0 -->
      <g style="fill: #d62728" transform="translate(663.08 321.839219) scale(0.1 -0.1)">
       <use xlink:href="#DejaVuSans-30"/>
       <use xlink:href="#DejaVuSans-2e" x="63.623047"/>
       <use xlink:href="#DejaVuSans-30" x="95.410156"/>
      </g>
     </g>
    </g>
    <g id="ytick_20">
     <g id="line2d_44">
      <g>
       <use xlink:href="#m6ac0b9396a" x="656.08" y="261.704" style="fill: #d62728; stroke: #d62728; stroke-width: 0.8"/>
      </g>
     </g>
     <g id="text_33">
      <!-- 5.0 G -->
      <g style="fill: #d62728" transform="translate(663.08 265.503219) scale(0.1 -0.1)">
       <use xlink:href="#DejaVuSans-35"/>
       <use xlink:href="#DejaVuSans-2e" x="63.623047"/>
       <use xlink:href="#DejaVuSans-30" x="95.410156"/>
       <use xlink:href="#DejaVuSans-2009" x="159.033203"/>
       <use xlink:href="#DejaVuSans-47" x="179.003906"/>
      </g>
     </g>
    </g>
    <g id="ytick_21">
     <g id="line2d_45">
      <g>
       <use xlink:href="#m6ac0b9396a" x="656.08" y="205.368" style="fill: #d62728; stroke: #d62728; stroke-width: 0.8"/>
      </g>
     </g>
     <g id="text_34">
      <!-- 10.0 G -->
      <g style="fill: #d62728" transform="translate(663.08 209.167219) scale(0.1 -0.1)">
       <use xlink:href="#DejaVuSans-31"/>
       <use xlink:href="#DejaVuSans-30" x="63.623047"/>
       <use xlink:href="#DejaVuSans-2e" x="127.246094"/>
       <use xlink:href="#DejaVuSans-30" x="159.033203"/>
       <use xlink:href="#DejaVuSans-2009" x="222.65625"/>
       <use xlink:href="#DejaVuSans-47" x="242.626953"/>
      </g>
     </g>
    </g>
    <g id="ytick_22">
     <g id="line2d_46">
      <g>
       <use xlink:href="#m6ac0b9396a" x="656.08" y="149.032" style="fill: #d62728; stroke: #d62728; stroke-width: 0.8"/>
      </g>
     </g>
     <g id="text_35">
      <!-- 15.0 G -->
      <g style="fill: #d62728" transform="translate(663.08 152.831219) scale(0.1 -0.1)">
       <use xlink:href="#DejaVuSans-31"/>
       <use xlink:href="#DejaVuSans-35" x="63.623047"/>
       <use xlink:href="#DejaVuSans-2e" x="127.246094"/>
       <use xlink:href="#DejaVuSans-30" x="159.033203"/>
       <use xlink:href="#DejaVuSans-2009" x="222.65625"/>
       <use xlink:href="#DejaVuSans-47" x="242.626953"/>
      </g>
     </g>
    </g>
    <g id="ytick_23">
     <g id="line2d_47">
      <g>
       <use xlink:href="#m6ac0b9396a" x="656.08" y="92.696" style="fill: #d62728; stroke: #d62728; stroke-width: 0.8"/>
      </g>
     </g>
     <g id="text_36">
      <!-- 20.0 G -->
      <g style="fill: #d62728" transform="translate(663.08 96.495219) scale(0.1 -0.1)">
       <use xlink:href="#DejaVuSans-32"/>
       <use xlink:href="#DejaVuSans-30" x="63.623047"/>
       <use xlink:href="#DejaVuSans-2e" x="127.246094"/>
       <use xlink:href="#DejaVuSans-30" x="159.033203"/>
       <use xlink:href="#DejaVuSans-2009" x="222.65625"/>
       <use xlink:href="#DejaVuSans-47" x="242.626953"/>
      </g>
     </g>
    </g>
    <g id="ytick_24">
     <g id="line2d_48">
      <g>
       <use xlink:href="#m6ac0b9396a" x="656.08" y="36.36" style="fill: #d62728; stroke: #d62728; stroke-width: 0.8"/>
      </g>
     </g>
     <g id="text_37">
      <!-- 25.0 G -->
      <g style="fill: #d62728" transform="translate(663.08 40.159219) scale(0.1 -0.1)">
       <use xlink:href="#DejaVuSans-32"/>
       <use xlink:href="#DejaVuSans-35" x="63.623047"/>
       <use xlink:href="#DejaVuSans-2e" x="127.246094"/>
       <use xlink:href="#DejaVuSans-30" x="159.033203"/>
       <use xlink:href="#DejaVuSans-2009" x="222.65625"/>
       <use xlink:href="#DejaVuSans-47" x="242.626953"/>
      </g>
     </g>
    </g>
    <g id="text_38">
     <!-- Absorption Land, empirical data (gha) -->
     <g style="fill: #d62728" transform="translate(706.689375 272.132031) rotate(-90) scale(0.1 -0.1)">
      <use xlink:href="#DejaVuSans-41"/>
      <use xlink:href="#DejaVuSans-62" x="68.408203"/>
      <use xlink:href="#DejaVuSans-73" x="131.884766"/>
      <use xlink:href="#DejaVuSans-6f" x="183.984375"/>
      <use xlink:href="#DejaVuSans-72" x="245.166016"/>
      <use xlink:href="#DejaVuSans-70" x="286.279297"/>
      <use xlink:href="#DejaVuSans-74" x="349.755859"/>
      <use xlink:href="#DejaVuSans-69" x="388.964844"/>
      <use xlink:href="#DejaVuSans-6f" x="416.748047"/>
      <use xlink:href="#DejaVuSans-6e" x="477.929688"/>
      <use xlink:href="#DejaVuSans-20" x="541.308594"/>
      <use xlink:href="#DejaVuSans-4c" x="573.095703"/>
      <use xlink:href="#DejaVuSans-61" x="628.808594"/>
      <use xlink:href="#DejaVuSans-6e" x="690.087891"/>
      <use xlink:href="#DejaVuSans-64" x="753.466797"/>
      <use xlink:href="#DejaVuSans-2c" x="816.943359"/>
      <use xlink:href="#DejaVuSans-20" x="848.730469"/>
      <use xlink:href="#DejaVuSans-65" x="880.517578"/>
      <use xlink:href="#DejaVuSans-6d" x="942.041016"/>
      <use xlink:href="#DejaVuSans-70" x="1039.453125"/>
      <use xlink:href="#DejaVuSans-69" x="1102.929688"/>
      <use xlink:href="#DejaVuSans-72" x="1130.712891"/>
      <use xlink:href="#DejaVuSans-69" x="1171.826172"/>
      <use xlink:href="#DejaVuSans-63" x="1199.609375"/>
      <use xlink:href="#DejaVuSans-61" x="1254.589844"/>
      <use xlink:href="#DejaVuSans-6c" x="1315.869141"/>
      <use xlink:href="#DejaVuSans-20" x="1343.652344"/>
      <use xlink:href="#DejaVuSans-64" x="1375.439453"/>
      <use xlink:href="#DejaVuSans-61" x="1438.916016"/>
      <use xlink:href="#DejaVuSans-74" x="1500.195312"/>
      <use xlink:href="#DejaVuSans-61" x="1539.404297"/>
      <use xlink:href="#DejaVuSans-20" x="1600.683594"/>
      <use xlink:href="#DejaVuSans-28" x="1632.470703"/>
      <use xlink:href="#DejaVuSans-67" x="1671.484375"/>
      <use xlink:href="#DejaVuSans-68" x="1734.960938"/>
      <use xlink:href="#DejaVuSans-61" x="1798.339844"/>
      <use xlink:href="#DejaVuSans-29" x="1859.619141"/>
     </g>
    </g>
   </g>
   <g id="line2d_49">
    <path d="M 213.3928 282.35286 
L 215.498792 282.337277 
L 218.657781 282.818269 
L 219.710777 282.903713 
L 221.816769 282.34478 
L 223.922761 278.437313 
L 226.028754 273.376572 
L 229.187742 269.524757 
L 230.240738 268.155446 
L 232.34673 258.787287 
L 234.452723 257.15617 
L 236.558715 258.45641 
L 238.664707 250.843662 
L 240.770699 250.283124 
L 243.929688 248.205043 
L 247.088676 245.884797 
L 249.194668 243.790463 
L 251.300661 239.669338 
L 253.406653 246.27837 
L 255.512645 247.897677 
L 257.618638 252.365471 
L 259.72463 254.276258 
L 261.830622 248.039042 
L 263.936614 243.949844 
L 266.042607 243.307388 
L 268.148599 241.4108 
L 270.254591 234.693698 
L 272.360583 233.041947 
L 274.466576 235.240279 
L 276.572568 236.064847 
L 278.67856 239.129487 
L 280.784552 237.249317 
L 282.890545 232.069163 
L 284.996537 228.546807 
L 287.102529 225.613988 
L 289.208521 226.853826 
L 291.314514 227.089501 
L 293.420506 220.69065 
L 295.526498 215.608675 
L 297.63249 211.915511 
L 299.738483 216.117262 
L 301.844475 212.795686 
L 303.950467 205.985875 
L 306.056459 201.64215 
L 308.162452 198.175946 
L 310.268444 191.081292 
L 312.374436 189.701677 
L 314.480428 195.679688 
L 316.586421 184.939621 
L 318.692413 180.84865 
L 320.798405 181.056499 
L 322.904397 179.067157 
L 326.063386 182.365847 
L 327.116382 183.370505 
L 329.222374 186.081204 
L 331.328366 180.437754 
L 333.434359 178.111991 
L 335.540351 179.355486 
L 337.646343 191.671637 
L 339.752335 178.66529 
L 341.858328 177.686204 
L 341.858328 177.686204 
" clip-path="url(#p3d2faae4db)" style="fill: none; stroke: #d62728; stroke-width: 1.5; stroke-linecap: square"/>
   </g>
   <g id="line2d_50">
    <path d="M 213.3928 282.35286 
L 215.498792 282.337277 
L 218.657781 282.818269 
L 219.710777 282.903713 
L 221.816769 282.34478 
L 223.922761 278.437313 
L 226.028754 273.376572 
L 229.187742 269.524757 
L 230.240738 268.155446 
L 232.34673 258.787287 
L 234.452723 257.15617 
L 236.558715 258.45641 
L 238.664707 250.843662 
L 240.770699 250.283124 
L 243.929688 248.205043 
L 247.088676 245.884797 
L 249.194668 243.790463 
L 251.300661 239.669338 
L 253.406653 246.27837 
L 255.512645 247.897677 
L 257.618638 252.365471 
L 259.72463 254.276258 
L 261.830622 248.039042 
L 263.936614 243.949844 
L 266.042607 243.307388 
L 268.148599 241.4108 
L 270.254591 234.693698 
L 272.360583 233.041947 
L 274.466576 235.240279 
L 276.572568 236.064847 
L 278.67856 239.129487 
L 280.784552 237.249317 
L 282.890545 232.069163 
L 284.996537 228.546807 
L 287.102529 225.613988 
L 289.208521 226.853826 
L 291.314514 227.089501 
L 293.420506 220.69065 
L 295.526498 215.608675 
L 297.63249 211.915511 
L 299.738483 216.117262 
L 301.844475 212.795686 
L 303.950467 205.985875 
L 306.056459 201.64215 
L 308.162452 198.175946 
L 310.268444 191.081292 
L 312.374436 189.701677 
L 314.480428 195.679688 
L 316.586421 184.939621 
L 318.692413 180.84865 
L 320.798405 181.056499 
L 322.904397 179.067157 
L 326.063386 182.365847 
L 327.116382 183.370505 
L 329.222374 186.081204 
L 331.328366 180.437754 
L 333.434359 178.111991 
L 335.540351 179.355486 
L 337.646343 191.671637 
L 339.752335 178.66529 
L 341.858328 177.686204 
L 341.858328 177.686204 
" clip-path="url(#p3d2faae4db)" style="fill: none; stroke-dasharray: 1.85,0.8; stroke-dashoffset: 0; stroke: #d62728; stroke-width: 0.5"/>
   </g>
   <g id="patch_15">
    <path d="M 63.92 318.04 
L 63.92 36.36 
" style="fill: none; stroke: #000000; stroke-width: 0.8; stroke-linejoin: miter; stroke-linecap: square"/>
   </g>
   <g id="patch_16">
    <path d="M 656.08 318.04 
L 656.08 36.36 
" style="fill: none; stroke: #000000; stroke-width: 0.8; stroke-linejoin: miter; stroke-linecap: square"/>
   </g>
   <g id="patch_17">
    <path d="M 63.92 318.04 
L 526.08 318.04 
" style="fill: none; stroke: #000000; stroke-width: 0.8; stroke-linejoin: miter; stroke-linecap: square"/>
   </g>
   <g id="patch_18">
    <path d="M 63.92 36.36 
L 526.08 36.36 
" style="fill: none; stroke: #000000; stroke-width: 0.8; stroke-linejoin: miter; stroke-linecap: square"/>
   </g>
  </g>
  <g id="text_39">
   <!-- BAU2 -->
   <g transform="translate(343.570312 16.318125) scale(0.12 -0.12)">
    <defs>
     <path id="DejaVuSans-42" d="M 1259 2228 
L 1259 519 
L 2272 519 
Q 2781 519 3026 730 
Q 3272 941 3272 1375 
Q 3272 1813 3026 2020 
Q 2781 2228 2272 2228 
L 1259 2228 
z
M 1259 4147 
L 1259 2741 
L 2194 2741 
Q 2656 2741 2882 2914 
Q 3109 3088 3109 3444 
Q 3109 3797 2882 3972 
Q 2656 4147 2194 4147 
L 1259 4147 
z
M 628 4666 
L 2241 4666 
Q 2963 4666 3353 4366 
Q 3744 4066 3744 3513 
Q 3744 3084 3544 2831 
Q 3344 2578 2956 2516 
Q 3422 2416 3680 2098 
Q 3938 1781 3938 1306 
Q 3938 681 3513 340 
Q 3088 0 2303 0 
L 628 0 
L 628 4666 
z
" transform="scale(0.015625)"/>
     <path id="DejaVuSans-55" d="M 556 4666 
L 1191 4666 
L 1191 1831 
Q 1191 1081 1462 751 
Q 1734 422 2344 422 
Q 2950 422 3222 751 
Q 3494 1081 3494 1831 
L 3494 4666 
L 4128 4666 
L 4128 1753 
Q 4128 841 3676 375 
Q 3225 -91 2344 -91 
Q 1459 -91 1007 375 
Q 556 841 556 1753 
L 556 4666 
z
" transform="scale(0.015625)"/>
    </defs>
    <use xlink:href="#DejaVuSans-42"/>
    <use xlink:href="#DejaVuSans-41" x="68.603516"/>
    <use xlink:href="#DejaVuSans-55" x="137.011719"/>
    <use xlink:href="#DejaVuSans-32" x="210.205078"/>
   </g>
  </g>
 </g>
 <defs>
  <clipPath id="p3d2faae4db">
   <rect x="63.92" y="36.36" width="462.16" height="281.68"/>
  </clipPath>
 </defs>
</svg>
