<?xml version="1.0" encoding="utf-8" standalone="no"?>
<!DOCTYPE svg PUBLIC "-//W3C//DTD SVG 1.1//EN"
  "http://www.w3.org/Graphics/SVG/1.1/DTD/svg11.dtd">
<svg xmlns:xlink="http://www.w3.org/1999/xlink" width="576pt" height="288pt" viewBox="0 0 576 288" xmlns="http://www.w3.org/2000/svg" version="1.1">
 <metadata>
  <rdf:RDF xmlns:dc="http://purl.org/dc/elements/1.1/" xmlns:cc="http://creativecommons.org/ns#" xmlns:rdf="http://www.w3.org/1999/02/22-rdf-syntax-ns#">
   <cc:Work>
    <dc:type rdf:resource="http://purl.org/dc/dcmitype/StillImage"/>
    <dc:date>2025-02-15T11:16:34.397602</dc:date>
    <dc:format>image/svg+xml</dc:format>
    <dc:creator>
     <cc:Agent>
      <dc:title>Matplotlib v3.6.3, https://matplotlib.org/</dc:title>
     </cc:Agent>
    </dc:creator>
   </cc:Work>
  </rdf:RDF>
 </metadata>
 <defs>
  <style type="text/css">*{stroke-linejoin: round; stroke-linecap: butt}</style>
 </defs>
 <g id="figure_1">
  <g id="patch_1">
   <path d="M 0 288 
L 576 288 
L 576 0 
L 0 0 
z
" style="fill: #ffffff"/>
  </g>
  <g id="axes_1">
   <g id="patch_2">
    <path d="M 70.22 246.04 
L 524.95 246.04 
L 524.95 32.4 
L 70.22 32.4 
z
" style="fill: #ffffff"/>
   </g>
   <g id="matplotlib.axis_1">
    <g id="xtick_1">
     <g id="line2d_1">
      <path d="M 90.889545 246.04 
L 90.889545 32.4 
" clip-path="url(#p7c6a31fc69)" style="fill: none; stroke-dasharray: 0.8,1.32; stroke-dashoffset: 0; stroke: #b0b0b0; stroke-width: 0.8"/>
     </g>
     <g id="line2d_2">
      <defs>
       <path id="m04efcac7cc" d="M 0 0 
L 0 3.5 
" style="stroke: #000000; stroke-width: 0.8"/>
      </defs>
      <g>
       <use xlink:href="#m04efcac7cc" x="90.889545" y="246.04" style="stroke: #000000; stroke-width: 0.8"/>
      </g>
     </g>
     <g id="text_1">
      <!-- 0 -->
      <g transform="translate(87.708295 260.638438) scale(0.1 -0.1)">
       <defs>
        <path id="DejaVuSans-30" d="M 2034 4250 
Q 1547 4250 1301 3770 
Q 1056 3291 1056 2328 
Q 1056 1369 1301 889 
Q 1547 409 2034 409 
Q 2525 409 2770 889 
Q 3016 1369 3016 2328 
Q 3016 3291 2770 3770 
Q 2525 4250 2034 4250 
z
M 2034 4750 
Q 2819 4750 3233 4129 
Q 3647 3509 3647 2328 
Q 3647 1150 3233 529 
Q 2819 -91 2034 -91 
Q 1250 -91 836 529 
Q 422 1150 422 2328 
Q 422 3509 836 4129 
Q 1250 4750 2034 4750 
z
" transform="scale(0.015625)"/>
       </defs>
       <use xlink:href="#DejaVuSans-30"/>
      </g>
     </g>
    </g>
    <g id="xtick_2">
     <g id="line2d_3">
      <path d="M 173.600812 246.04 
L 173.600812 32.4 
" clip-path="url(#p7c6a31fc69)" style="fill: none; stroke-dasharray: 0.8,1.32; stroke-dashoffset: 0; stroke: #b0b0b0; stroke-width: 0.8"/>
     </g>
     <g id="line2d_4">
      <g>
       <use xlink:href="#m04efcac7cc" x="173.600812" y="246.04" style="stroke: #000000; stroke-width: 0.8"/>
      </g>
     </g>
     <g id="text_2">
      <!-- 5 -->
      <g transform="translate(170.419562 260.638438) scale(0.1 -0.1)">
       <defs>
        <path id="DejaVuSans-35" d="M 691 4666 
L 3169 4666 
L 3169 4134 
L 1269 4134 
L 1269 2991 
Q 1406 3038 1543 3061 
Q 1681 3084 1819 3084 
Q 2600 3084 3056 2656 
Q 3513 2228 3513 1497 
Q 3513 744 3044 326 
Q 2575 -91 1722 -91 
Q 1428 -91 1123 -41 
Q 819 9 494 109 
L 494 744 
Q 775 591 1075 516 
Q 1375 441 1709 441 
Q 2250 441 2565 725 
Q 2881 1009 2881 1497 
Q 2881 1984 2565 2268 
Q 2250 2553 1709 2553 
Q 1456 2553 1204 2497 
Q 953 2441 691 2322 
L 691 4666 
z
" transform="scale(0.015625)"/>
       </defs>
       <use xlink:href="#DejaVuSans-35"/>
      </g>
     </g>
    </g>
    <g id="xtick_3">
     <g id="line2d_5">
      <path d="M 256.312078 246.04 
L 256.312078 32.4 
" clip-path="url(#p7c6a31fc69)" style="fill: none; stroke-dasharray: 0.8,1.32; stroke-dashoffset: 0; stroke: #b0b0b0; stroke-width: 0.8"/>
     </g>
     <g id="line2d_6">
      <g>
       <use xlink:href="#m04efcac7cc" x="256.312078" y="246.04" style="stroke: #000000; stroke-width: 0.8"/>
      </g>
     </g>
     <g id="text_3">
      <!-- 10 -->
      <g transform="translate(249.949578 260.638438) scale(0.1 -0.1)">
       <defs>
        <path id="DejaVuSans-31" d="M 794 531 
L 1825 531 
L 1825 4091 
L 703 3866 
L 703 4441 
L 1819 4666 
L 2450 4666 
L 2450 531 
L 3481 531 
L 3481 0 
L 794 0 
L 794 531 
z
" transform="scale(0.015625)"/>
       </defs>
       <use xlink:href="#DejaVuSans-31"/>
       <use xlink:href="#DejaVuSans-30" x="63.623047"/>
      </g>
     </g>
    </g>
    <g id="xtick_4">
     <g id="line2d_7">
      <path d="M 339.023344 246.04 
L 339.023344 32.4 
" clip-path="url(#p7c6a31fc69)" style="fill: none; stroke-dasharray: 0.8,1.32; stroke-dashoffset: 0; stroke: #b0b0b0; stroke-width: 0.8"/>
     </g>
     <g id="line2d_8">
      <g>
       <use xlink:href="#m04efcac7cc" x="339.023344" y="246.04" style="stroke: #000000; stroke-width: 0.8"/>
      </g>
     </g>
     <g id="text_4">
      <!-- 15 -->
      <g transform="translate(332.660844 260.638438) scale(0.1 -0.1)">
       <use xlink:href="#DejaVuSans-31"/>
       <use xlink:href="#DejaVuSans-35" x="63.623047"/>
      </g>
     </g>
    </g>
    <g id="xtick_5">
     <g id="line2d_9">
      <path d="M 421.734611 246.04 
L 421.734611 32.4 
" clip-path="url(#p7c6a31fc69)" style="fill: none; stroke-dasharray: 0.8,1.32; stroke-dashoffset: 0; stroke: #b0b0b0; stroke-width: 0.8"/>
     </g>
     <g id="line2d_10">
      <g>
       <use xlink:href="#m04efcac7cc" x="421.734611" y="246.04" style="stroke: #000000; stroke-width: 0.8"/>
      </g>
     </g>
     <g id="text_5">
      <!-- 20 -->
      <g transform="translate(415.372111 260.638438) scale(0.1 -0.1)">
       <defs>
        <path id="DejaVuSans-32" d="M 1228 531 
L 3431 531 
L 3431 0 
L 469 0 
L 469 531 
Q 828 903 1448 1529 
Q 2069 2156 2228 2338 
Q 2531 2678 2651 2914 
Q 2772 3150 2772 3378 
Q 2772 3750 2511 3984 
Q 2250 4219 1831 4219 
Q 1534 4219 1204 4116 
Q 875 4013 500 3803 
L 500 4441 
Q 881 4594 1212 4672 
Q 1544 4750 1819 4750 
Q 2544 4750 2975 4387 
Q 3406 4025 3406 3419 
Q 3406 3131 3298 2873 
Q 3191 2616 2906 2266 
Q 2828 2175 2409 1742 
Q 1991 1309 1228 531 
z
" transform="scale(0.015625)"/>
       </defs>
       <use xlink:href="#DejaVuSans-32"/>
       <use xlink:href="#DejaVuSans-30" x="63.623047"/>
      </g>
     </g>
    </g>
    <g id="xtick_6">
     <g id="line2d_11">
      <path d="M 504.445877 246.04 
L 504.445877 32.4 
" clip-path="url(#p7c6a31fc69)" style="fill: none; stroke-dasharray: 0.8,1.32; stroke-dashoffset: 0; stroke: #b0b0b0; stroke-width: 0.8"/>
     </g>
     <g id="line2d_12">
      <g>
       <use xlink:href="#m04efcac7cc" x="504.445877" y="246.04" style="stroke: #000000; stroke-width: 0.8"/>
      </g>
     </g>
     <g id="text_6">
      <!-- 25 -->
      <g transform="translate(498.083377 260.638438) scale(0.1 -0.1)">
       <use xlink:href="#DejaVuSans-32"/>
       <use xlink:href="#DejaVuSans-35" x="63.623047"/>
      </g>
     </g>
    </g>
    <g id="text_7">
     <!-- Year -->
     <g transform="translate(286.9975 274.316562) scale(0.1 -0.1)">
      <defs>
       <path id="DejaVuSans-59" d="M -13 4666 
L 666 4666 
L 1959 2747 
L 3244 4666 
L 3922 4666 
L 2272 2222 
L 2272 0 
L 1638 0 
L 1638 2222 
L -13 4666 
z
" transform="scale(0.015625)"/>
       <path id="DejaVuSans-65" d="M 3597 1894 
L 3597 1613 
L 953 1613 
Q 991 1019 1311 708 
Q 1631 397 2203 397 
Q 2534 397 2845 478 
Q 3156 559 3463 722 
L 3463 178 
Q 3153 47 2828 -22 
Q 2503 -91 2169 -91 
Q 1331 -91 842 396 
Q 353 884 353 1716 
Q 353 2575 817 3079 
Q 1281 3584 2069 3584 
Q 2775 3584 3186 3129 
Q 3597 2675 3597 1894 
z
M 3022 2063 
Q 3016 2534 2758 2815 
Q 2500 3097 2075 3097 
Q 1594 3097 1305 2825 
Q 1016 2553 972 2059 
L 3022 2063 
z
" transform="scale(0.015625)"/>
       <path id="DejaVuSans-61" d="M 2194 1759 
Q 1497 1759 1228 1600 
Q 959 1441 959 1056 
Q 959 750 1161 570 
Q 1363 391 1709 391 
Q 2188 391 2477 730 
Q 2766 1069 2766 1631 
L 2766 1759 
L 2194 1759 
z
M 3341 1997 
L 3341 0 
L 2766 0 
L 2766 531 
Q 2569 213 2275 61 
Q 1981 -91 1556 -91 
Q 1019 -91 701 211 
Q 384 513 384 1019 
Q 384 1609 779 1909 
Q 1175 2209 1959 2209 
L 2766 2209 
L 2766 2266 
Q 2766 2663 2505 2880 
Q 2244 3097 1772 3097 
Q 1472 3097 1187 3025 
Q 903 2953 641 2809 
L 641 3341 
Q 956 3463 1253 3523 
Q 1550 3584 1831 3584 
Q 2591 3584 2966 3190 
Q 3341 2797 3341 1997 
z
" transform="scale(0.015625)"/>
       <path id="DejaVuSans-72" d="M 2631 2963 
Q 2534 3019 2420 3045 
Q 2306 3072 2169 3072 
Q 1681 3072 1420 2755 
Q 1159 2438 1159 1844 
L 1159 0 
L 581 0 
L 581 3500 
L 1159 3500 
L 1159 2956 
Q 1341 3275 1631 3429 
Q 1922 3584 2338 3584 
Q 2397 3584 2469 3576 
Q 2541 3569 2628 3553 
L 2631 2963 
z
" transform="scale(0.015625)"/>
      </defs>
      <use xlink:href="#DejaVuSans-59"/>
      <use xlink:href="#DejaVuSans-65" x="47.833984"/>
      <use xlink:href="#DejaVuSans-61" x="109.357422"/>
      <use xlink:href="#DejaVuSans-72" x="170.636719"/>
     </g>
    </g>
   </g>
   <g id="matplotlib.axis_2">
    <g id="ytick_1">
     <g id="line2d_13">
      <defs>
       <path id="mede7bd0477" d="M 0 0 
L -3.5 0 
" style="stroke: #1f77b4; stroke-width: 0.8"/>
      </defs>
      <g>
       <use xlink:href="#mede7bd0477" x="70.22" y="238.527238" style="fill: #1f77b4; stroke: #1f77b4; stroke-width: 0.8"/>
      </g>
     </g>
     <g id="text_8">
      <!-- 100000 -->
      <g style="fill: #1f77b4" transform="translate(25.045 242.326457) scale(0.1 -0.1)">
       <use xlink:href="#DejaVuSans-31"/>
       <use xlink:href="#DejaVuSans-30" x="63.623047"/>
       <use xlink:href="#DejaVuSans-30" x="127.246094"/>
       <use xlink:href="#DejaVuSans-30" x="190.869141"/>
       <use xlink:href="#DejaVuSans-30" x="254.492188"/>
       <use xlink:href="#DejaVuSans-30" x="318.115234"/>
      </g>
     </g>
    </g>
    <g id="ytick_2">
     <g id="line2d_14">
      <g>
       <use xlink:href="#mede7bd0477" x="70.22" y="194.879165" style="fill: #1f77b4; stroke: #1f77b4; stroke-width: 0.8"/>
      </g>
     </g>
     <g id="text_9">
      <!-- 200000 -->
      <g style="fill: #1f77b4" transform="translate(25.045 198.678383) scale(0.1 -0.1)">
       <use xlink:href="#DejaVuSans-32"/>
       <use xlink:href="#DejaVuSans-30" x="63.623047"/>
       <use xlink:href="#DejaVuSans-30" x="127.246094"/>
       <use xlink:href="#DejaVuSans-30" x="190.869141"/>
       <use xlink:href="#DejaVuSans-30" x="254.492188"/>
       <use xlink:href="#DejaVuSans-30" x="318.115234"/>
      </g>
     </g>
    </g>
    <g id="ytick_3">
     <g id="line2d_15">
      <g>
       <use xlink:href="#mede7bd0477" x="70.22" y="151.231092" style="fill: #1f77b4; stroke: #1f77b4; stroke-width: 0.8"/>
      </g>
     </g>
     <g id="text_10">
      <!-- 300000 -->
      <g style="fill: #1f77b4" transform="translate(25.045 155.03031) scale(0.1 -0.1)">
       <defs>
        <path id="DejaVuSans-33" d="M 2597 2516 
Q 3050 2419 3304 2112 
Q 3559 1806 3559 1356 
Q 3559 666 3084 287 
Q 2609 -91 1734 -91 
Q 1441 -91 1130 -33 
Q 819 25 488 141 
L 488 750 
Q 750 597 1062 519 
Q 1375 441 1716 441 
Q 2309 441 2620 675 
Q 2931 909 2931 1356 
Q 2931 1769 2642 2001 
Q 2353 2234 1838 2234 
L 1294 2234 
L 1294 2753 
L 1863 2753 
Q 2328 2753 2575 2939 
Q 2822 3125 2822 3475 
Q 2822 3834 2567 4026 
Q 2313 4219 1838 4219 
Q 1578 4219 1281 4162 
Q 984 4106 628 3988 
L 628 4550 
Q 988 4650 1302 4700 
Q 1616 4750 1894 4750 
Q 2613 4750 3031 4423 
Q 3450 4097 3450 3541 
Q 3450 3153 3228 2886 
Q 3006 2619 2597 2516 
z
" transform="scale(0.015625)"/>
       </defs>
       <use xlink:href="#DejaVuSans-33"/>
       <use xlink:href="#DejaVuSans-30" x="63.623047"/>
       <use xlink:href="#DejaVuSans-30" x="127.246094"/>
       <use xlink:href="#DejaVuSans-30" x="190.869141"/>
       <use xlink:href="#DejaVuSans-30" x="254.492188"/>
       <use xlink:href="#DejaVuSans-30" x="318.115234"/>
      </g>
     </g>
    </g>
    <g id="ytick_4">
     <g id="line2d_16">
      <g>
       <use xlink:href="#mede7bd0477" x="70.22" y="107.583019" style="fill: #1f77b4; stroke: #1f77b4; stroke-width: 0.8"/>
      </g>
     </g>
     <g id="text_11">
      <!-- 400000 -->
      <g style="fill: #1f77b4" transform="translate(25.045 111.382237) scale(0.1 -0.1)">
       <defs>
        <path id="DejaVuSans-34" d="M 2419 4116 
L 825 1625 
L 2419 1625 
L 2419 4116 
z
M 2253 4666 
L 3047 4666 
L 3047 1625 
L 3713 1625 
L 3713 1100 
L 3047 1100 
L 3047 0 
L 2419 0 
L 2419 1100 
L 313 1100 
L 313 1709 
L 2253 4666 
z
" transform="scale(0.015625)"/>
       </defs>
       <use xlink:href="#DejaVuSans-34"/>
       <use xlink:href="#DejaVuSans-30" x="63.623047"/>
       <use xlink:href="#DejaVuSans-30" x="127.246094"/>
       <use xlink:href="#DejaVuSans-30" x="190.869141"/>
       <use xlink:href="#DejaVuSans-30" x="254.492188"/>
       <use xlink:href="#DejaVuSans-30" x="318.115234"/>
      </g>
     </g>
    </g>
    <g id="ytick_5">
     <g id="line2d_17">
      <g>
       <use xlink:href="#mede7bd0477" x="70.22" y="63.934946" style="fill: #1f77b4; stroke: #1f77b4; stroke-width: 0.8"/>
      </g>
     </g>
     <g id="text_12">
      <!-- 500000 -->
      <g style="fill: #1f77b4" transform="translate(25.045 67.734164) scale(0.1 -0.1)">
       <use xlink:href="#DejaVuSans-35"/>
       <use xlink:href="#DejaVuSans-30" x="63.623047"/>
       <use xlink:href="#DejaVuSans-30" x="127.246094"/>
       <use xlink:href="#DejaVuSans-30" x="190.869141"/>
       <use xlink:href="#DejaVuSans-30" x="254.492188"/>
       <use xlink:href="#DejaVuSans-30" x="318.115234"/>
      </g>
     </g>
    </g>
    <g id="text_13">
     <!-- Ammount of grass (kg) -->
     <g style="fill: #1f77b4" transform="translate(18.965313 196.798906) rotate(-90) scale(0.1 -0.1)">
      <defs>
       <path id="DejaVuSans-41" d="M 2188 4044 
L 1331 1722 
L 3047 1722 
L 2188 4044 
z
M 1831 4666 
L 2547 4666 
L 4325 0 
L 3669 0 
L 3244 1197 
L 1141 1197 
L 716 0 
L 50 0 
L 1831 4666 
z
" transform="scale(0.015625)"/>
       <path id="DejaVuSans-6d" d="M 3328 2828 
Q 3544 3216 3844 3400 
Q 4144 3584 4550 3584 
Q 5097 3584 5394 3201 
Q 5691 2819 5691 2113 
L 5691 0 
L 5113 0 
L 5113 2094 
Q 5113 2597 4934 2840 
Q 4756 3084 4391 3084 
Q 3944 3084 3684 2787 
Q 3425 2491 3425 1978 
L 3425 0 
L 2847 0 
L 2847 2094 
Q 2847 2600 2669 2842 
Q 2491 3084 2119 3084 
Q 1678 3084 1418 2786 
Q 1159 2488 1159 1978 
L 1159 0 
L 581 0 
L 581 3500 
L 1159 3500 
L 1159 2956 
Q 1356 3278 1631 3431 
Q 1906 3584 2284 3584 
Q 2666 3584 2933 3390 
Q 3200 3197 3328 2828 
z
" transform="scale(0.015625)"/>
       <path id="DejaVuSans-6f" d="M 1959 3097 
Q 1497 3097 1228 2736 
Q 959 2375 959 1747 
Q 959 1119 1226 758 
Q 1494 397 1959 397 
Q 2419 397 2687 759 
Q 2956 1122 2956 1747 
Q 2956 2369 2687 2733 
Q 2419 3097 1959 3097 
z
M 1959 3584 
Q 2709 3584 3137 3096 
Q 3566 2609 3566 1747 
Q 3566 888 3137 398 
Q 2709 -91 1959 -91 
Q 1206 -91 779 398 
Q 353 888 353 1747 
Q 353 2609 779 3096 
Q 1206 3584 1959 3584 
z
" transform="scale(0.015625)"/>
       <path id="DejaVuSans-75" d="M 544 1381 
L 544 3500 
L 1119 3500 
L 1119 1403 
Q 1119 906 1312 657 
Q 1506 409 1894 409 
Q 2359 409 2629 706 
Q 2900 1003 2900 1516 
L 2900 3500 
L 3475 3500 
L 3475 0 
L 2900 0 
L 2900 538 
Q 2691 219 2414 64 
Q 2138 -91 1772 -91 
Q 1169 -91 856 284 
Q 544 659 544 1381 
z
M 1991 3584 
L 1991 3584 
z
" transform="scale(0.015625)"/>
       <path id="DejaVuSans-6e" d="M 3513 2113 
L 3513 0 
L 2938 0 
L 2938 2094 
Q 2938 2591 2744 2837 
Q 2550 3084 2163 3084 
Q 1697 3084 1428 2787 
Q 1159 2491 1159 1978 
L 1159 0 
L 581 0 
L 581 3500 
L 1159 3500 
L 1159 2956 
Q 1366 3272 1645 3428 
Q 1925 3584 2291 3584 
Q 2894 3584 3203 3211 
Q 3513 2838 3513 2113 
z
" transform="scale(0.015625)"/>
       <path id="DejaVuSans-74" d="M 1172 4494 
L 1172 3500 
L 2356 3500 
L 2356 3053 
L 1172 3053 
L 1172 1153 
Q 1172 725 1289 603 
Q 1406 481 1766 481 
L 2356 481 
L 2356 0 
L 1766 0 
Q 1100 0 847 248 
Q 594 497 594 1153 
L 594 3053 
L 172 3053 
L 172 3500 
L 594 3500 
L 594 4494 
L 1172 4494 
z
" transform="scale(0.015625)"/>
       <path id="DejaVuSans-20" transform="scale(0.015625)"/>
       <path id="DejaVuSans-66" d="M 2375 4863 
L 2375 4384 
L 1825 4384 
Q 1516 4384 1395 4259 
Q 1275 4134 1275 3809 
L 1275 3500 
L 2222 3500 
L 2222 3053 
L 1275 3053 
L 1275 0 
L 697 0 
L 697 3053 
L 147 3053 
L 147 3500 
L 697 3500 
L 697 3744 
Q 697 4328 969 4595 
Q 1241 4863 1831 4863 
L 2375 4863 
z
" transform="scale(0.015625)"/>
       <path id="DejaVuSans-67" d="M 2906 1791 
Q 2906 2416 2648 2759 
Q 2391 3103 1925 3103 
Q 1463 3103 1205 2759 
Q 947 2416 947 1791 
Q 947 1169 1205 825 
Q 1463 481 1925 481 
Q 2391 481 2648 825 
Q 2906 1169 2906 1791 
z
M 3481 434 
Q 3481 -459 3084 -895 
Q 2688 -1331 1869 -1331 
Q 1566 -1331 1297 -1286 
Q 1028 -1241 775 -1147 
L 775 -588 
Q 1028 -725 1275 -790 
Q 1522 -856 1778 -856 
Q 2344 -856 2625 -561 
Q 2906 -266 2906 331 
L 2906 616 
Q 2728 306 2450 153 
Q 2172 0 1784 0 
Q 1141 0 747 490 
Q 353 981 353 1791 
Q 353 2603 747 3093 
Q 1141 3584 1784 3584 
Q 2172 3584 2450 3431 
Q 2728 3278 2906 2969 
L 2906 3500 
L 3481 3500 
L 3481 434 
z
" transform="scale(0.015625)"/>
       <path id="DejaVuSans-73" d="M 2834 3397 
L 2834 2853 
Q 2591 2978 2328 3040 
Q 2066 3103 1784 3103 
Q 1356 3103 1142 2972 
Q 928 2841 928 2578 
Q 928 2378 1081 2264 
Q 1234 2150 1697 2047 
L 1894 2003 
Q 2506 1872 2764 1633 
Q 3022 1394 3022 966 
Q 3022 478 2636 193 
Q 2250 -91 1575 -91 
Q 1294 -91 989 -36 
Q 684 19 347 128 
L 347 722 
Q 666 556 975 473 
Q 1284 391 1588 391 
Q 1994 391 2212 530 
Q 2431 669 2431 922 
Q 2431 1156 2273 1281 
Q 2116 1406 1581 1522 
L 1381 1569 
Q 847 1681 609 1914 
Q 372 2147 372 2553 
Q 372 3047 722 3315 
Q 1072 3584 1716 3584 
Q 2034 3584 2315 3537 
Q 2597 3491 2834 3397 
z
" transform="scale(0.015625)"/>
       <path id="DejaVuSans-28" d="M 1984 4856 
Q 1566 4138 1362 3434 
Q 1159 2731 1159 2009 
Q 1159 1288 1364 580 
Q 1569 -128 1984 -844 
L 1484 -844 
Q 1016 -109 783 600 
Q 550 1309 550 2009 
Q 550 2706 781 3412 
Q 1013 4119 1484 4856 
L 1984 4856 
z
" transform="scale(0.015625)"/>
       <path id="DejaVuSans-6b" d="M 581 4863 
L 1159 4863 
L 1159 1991 
L 2875 3500 
L 3609 3500 
L 1753 1863 
L 3688 0 
L 2938 0 
L 1159 1709 
L 1159 0 
L 581 0 
L 581 4863 
z
" transform="scale(0.015625)"/>
       <path id="DejaVuSans-29" d="M 513 4856 
L 1013 4856 
Q 1481 4119 1714 3412 
Q 1947 2706 1947 2009 
Q 1947 1309 1714 600 
Q 1481 -109 1013 -844 
L 513 -844 
Q 928 -128 1133 580 
Q 1338 1288 1338 2009 
Q 1338 2731 1133 3434 
Q 928 4138 513 4856 
z
" transform="scale(0.015625)"/>
      </defs>
      <use xlink:href="#DejaVuSans-41"/>
      <use xlink:href="#DejaVuSans-6d" x="68.408203"/>
      <use xlink:href="#DejaVuSans-6d" x="165.820312"/>
      <use xlink:href="#DejaVuSans-6f" x="263.232422"/>
      <use xlink:href="#DejaVuSans-75" x="324.414062"/>
      <use xlink:href="#DejaVuSans-6e" x="387.792969"/>
      <use xlink:href="#DejaVuSans-74" x="451.171875"/>
      <use xlink:href="#DejaVuSans-20" x="490.380859"/>
      <use xlink:href="#DejaVuSans-6f" x="522.167969"/>
      <use xlink:href="#DejaVuSans-66" x="583.349609"/>
      <use xlink:href="#DejaVuSans-20" x="618.554688"/>
      <use xlink:href="#DejaVuSans-67" x="650.341797"/>
      <use xlink:href="#DejaVuSans-72" x="713.818359"/>
      <use xlink:href="#DejaVuSans-61" x="754.931641"/>
      <use xlink:href="#DejaVuSans-73" x="816.210938"/>
      <use xlink:href="#DejaVuSans-73" x="868.310547"/>
      <use xlink:href="#DejaVuSans-20" x="920.410156"/>
      <use xlink:href="#DejaVuSans-28" x="952.197266"/>
      <use xlink:href="#DejaVuSans-6b" x="991.210938"/>
      <use xlink:href="#DejaVuSans-67" x="1049.121094"/>
      <use xlink:href="#DejaVuSans-29" x="1112.597656"/>
     </g>
    </g>
   </g>
   <g id="line2d_18">
    <path d="M 90.889545 162.14311 
L 97.506447 83.120758 
L 100.98032 42.782102 
L 101.145742 42.110909 
L 166.653065 42.190623 
L 167.480178 42.509714 
L 168.307291 43.077133 
L 169.134403 43.897493 
L 170.126939 45.221572 
L 171.119474 46.921451 
L 172.277432 49.384228 
L 173.435389 52.36462 
L 174.75877 56.399668 
L 176.247572 61.723831 
L 177.901798 68.574761 
L 179.721445 77.172649 
L 181.706516 87.692969 
L 184.022431 101.239821 
L 186.834614 119.07599 
L 191.962713 153.387818 
L 195.767431 178.148156 
L 198.414192 193.933645 
L 200.564685 205.429425 
L 202.384332 213.999874 
L 204.038558 220.734932 
L 205.527361 225.850546 
L 206.850741 229.592459 
L 208.008699 232.214173 
L 209.001234 233.960121 
L 209.828346 235.053506 
L 210.655459 235.812987 
L 211.317149 236.17765 
L 211.978839 236.324889 
L 212.640529 236.253835 
L 213.30222 235.964102 
L 213.96391 235.455789 
L 214.791022 234.513956 
L 215.618135 233.233752 
L 216.61067 231.255718 
L 217.768628 228.349364 
L 218.926586 224.814641 
L 220.249966 220.033101 
L 221.738769 213.754685 
L 223.392994 205.739437 
L 225.212642 195.780979 
L 227.363135 182.683491 
L 229.844473 166.154161 
L 233.318346 141.393557 
L 240.596938 89.180865 
L 243.739966 68.415117 
L 246.552149 51.294275 
L 248.206374 42.110909 
L 268.553346 42.180692 
L 269.380458 42.487138 
L 270.207571 43.041661 
L 271.034684 43.848894 
L 272.027219 45.156961 
L 273.019754 46.840623 
L 274.177712 49.284353 
L 275.335669 52.245735 
L 276.65905 56.259345 
L 278.147852 61.560096 
L 279.802078 68.38635 
L 281.621726 76.959296 
L 283.606796 87.455718 
L 285.922711 100.979911 
L 288.734895 118.797285 
L 293.862993 153.102495 
L 297.667711 177.882055 
L 300.314472 193.692629 
L 302.464965 205.215302 
L 304.284613 213.812619 
L 305.938838 220.575001 
L 307.427641 225.71726 
L 308.751021 229.484251 
L 309.908979 232.128806 
L 310.901514 233.894881 
L 311.894049 235.187536 
L 312.721162 235.897098 
L 313.382852 236.221495 
L 314.044542 236.32827 
L 314.706232 236.216645 
L 315.367922 235.886321 
L 316.029612 235.337489 
L 316.856725 234.345247 
L 317.683838 233.015062 
L 318.676373 230.977863 
L 319.834331 228.003983 
L 320.992288 224.403792 
L 322.315669 219.550536 
L 323.804471 213.196179 
L 325.458697 205.103471 
L 327.278345 195.069511 
L 329.428838 181.89767 
L 332.075598 164.156957 
L 335.880316 136.880429 
L 342.166373 91.746909 
L 345.474823 69.739169 
L 348.287006 52.508242 
L 350.106654 42.183931 
L 350.437499 42.110909 
L 370.619048 42.209815 
L 371.446161 42.552693 
L 372.273273 43.144352 
L 373.100386 43.989376 
L 374.092921 45.343523 
L 375.085457 47.073844 
L 376.243414 49.572358 
L 377.401372 52.588407 
L 378.724752 56.663653 
L 380.213555 62.031695 
L 381.86778 68.928852 
L 383.687428 77.57344 
L 385.672499 88.138479 
L 387.988414 101.727683 
L 390.96602 120.684155 
L 401.553062 189.640401 
L 403.703555 201.591682 
L 405.688625 211.386535 
L 407.34285 218.488842 
L 408.831653 223.963727 
L 410.155033 228.04462 
L 411.312991 230.975712 
L 412.470949 233.285991 
L 413.463484 234.758028 
L 414.290597 235.619265 
L 415.117709 236.143909 
L 415.7794 236.31931 
L 416.44109 236.276501 
L 417.10278 236.015032 
L 417.76447 235.53494 
L 418.591583 234.628229 
L 419.418695 233.382859 
L 420.41123 231.446073 
L 421.403766 229.034279 
L 422.561723 225.634026 
L 423.885104 220.999994 
L 425.373906 214.87805 
L 427.028132 207.022766 
L 428.84778 197.220709 
L 430.998273 184.277986 
L 433.479611 167.881965 
L 436.788061 144.419683 
L 444.728343 87.504746 
L 447.871371 66.861897 
L 450.683554 49.871562 
L 452.006934 42.418201 
L 452.172357 42.110909 
L 472.519328 42.199176 
L 473.346441 42.529145 
L 474.173554 43.107647 
L 475.000666 43.939283 
L 475.993201 45.277106 
L 476.985737 46.9909 
L 478.143694 49.470013 
L 479.301652 52.466705 
L 480.625032 56.52013 
L 482.113835 61.864356 
L 483.76806 68.736425 
L 485.587708 77.355673 
L 487.572779 87.896453 
L 489.888694 101.462691 
L 492.700877 119.314921 
L 497.994398 154.738617 
L 501.799117 179.404921 
L 504.280455 194.140056 
L 504.280455 194.140056 
" clip-path="url(#p7c6a31fc69)" style="fill: none; stroke: #1f77b4; stroke-width: 1.5; stroke-linecap: square"/>
   </g>
   <g id="patch_3">
    <path d="M 70.22 246.04 
L 70.22 32.4 
" style="fill: none; stroke: #000000; stroke-width: 0.8; stroke-linejoin: miter; stroke-linecap: square"/>
   </g>
   <g id="patch_4">
    <path d="M 524.95 246.04 
L 524.95 32.4 
" style="fill: none; stroke: #000000; stroke-width: 0.8; stroke-linejoin: miter; stroke-linecap: square"/>
   </g>
   <g id="patch_5">
    <path d="M 70.22 246.04 
L 524.95 246.04 
" style="fill: none; stroke: #000000; stroke-width: 0.8; stroke-linejoin: miter; stroke-linecap: square"/>
   </g>
   <g id="patch_6">
    <path d="M 70.22 32.4 
L 524.95 32.4 
" style="fill: none; stroke: #000000; stroke-width: 0.8; stroke-linejoin: miter; stroke-linecap: square"/>
   </g>
  </g>
  <g id="axes_2">
   <g id="matplotlib.axis_3">
    <g id="ytick_6">
     <g id="line2d_19">
      <defs>
       <path id="m4e43f20496" d="M 0 0 
L 3.5 0 
" style="stroke: #ff7f0e; stroke-width: 0.8"/>
      </defs>
      <g>
       <use xlink:href="#m4e43f20496" x="524.95" y="236.329091" style="fill: #ff7f0e; stroke: #ff7f0e; stroke-width: 0.8"/>
      </g>
     </g>
     <g id="text_14">
      <!-- 100 -->
      <g style="fill: #ff7f0e" transform="translate(531.95 240.12831) scale(0.1 -0.1)">
       <use xlink:href="#DejaVuSans-31"/>
       <use xlink:href="#DejaVuSans-30" x="63.623047"/>
       <use xlink:href="#DejaVuSans-30" x="127.246094"/>
      </g>
     </g>
    </g>
    <g id="ytick_7">
     <g id="line2d_20">
      <g>
       <use xlink:href="#m4e43f20496" x="524.95" y="211.898265" style="fill: #ff7f0e; stroke: #ff7f0e; stroke-width: 0.8"/>
      </g>
     </g>
     <g id="text_15">
      <!-- 200 -->
      <g style="fill: #ff7f0e" transform="translate(531.95 215.697484) scale(0.1 -0.1)">
       <use xlink:href="#DejaVuSans-32"/>
       <use xlink:href="#DejaVuSans-30" x="63.623047"/>
       <use xlink:href="#DejaVuSans-30" x="127.246094"/>
      </g>
     </g>
    </g>
    <g id="ytick_8">
     <g id="line2d_21">
      <g>
       <use xlink:href="#m4e43f20496" x="524.95" y="187.46744" style="fill: #ff7f0e; stroke: #ff7f0e; stroke-width: 0.8"/>
      </g>
     </g>
     <g id="text_16">
      <!-- 300 -->
      <g style="fill: #ff7f0e" transform="translate(531.95 191.266658) scale(0.1 -0.1)">
       <use xlink:href="#DejaVuSans-33"/>
       <use xlink:href="#DejaVuSans-30" x="63.623047"/>
       <use xlink:href="#DejaVuSans-30" x="127.246094"/>
      </g>
     </g>
    </g>
    <g id="ytick_9">
     <g id="line2d_22">
      <g>
       <use xlink:href="#m4e43f20496" x="524.95" y="163.036614" style="fill: #ff7f0e; stroke: #ff7f0e; stroke-width: 0.8"/>
      </g>
     </g>
     <g id="text_17">
      <!-- 400 -->
      <g style="fill: #ff7f0e" transform="translate(531.95 166.835833) scale(0.1 -0.1)">
       <use xlink:href="#DejaVuSans-34"/>
       <use xlink:href="#DejaVuSans-30" x="63.623047"/>
       <use xlink:href="#DejaVuSans-30" x="127.246094"/>
      </g>
     </g>
    </g>
    <g id="ytick_10">
     <g id="line2d_23">
      <g>
       <use xlink:href="#m4e43f20496" x="524.95" y="138.605789" style="fill: #ff7f0e; stroke: #ff7f0e; stroke-width: 0.8"/>
      </g>
     </g>
     <g id="text_18">
      <!-- 500 -->
      <g style="fill: #ff7f0e" transform="translate(531.95 142.405007) scale(0.1 -0.1)">
       <use xlink:href="#DejaVuSans-35"/>
       <use xlink:href="#DejaVuSans-30" x="63.623047"/>
       <use xlink:href="#DejaVuSans-30" x="127.246094"/>
      </g>
     </g>
    </g>
    <g id="ytick_11">
     <g id="line2d_24">
      <g>
       <use xlink:href="#m4e43f20496" x="524.95" y="114.174963" style="fill: #ff7f0e; stroke: #ff7f0e; stroke-width: 0.8"/>
      </g>
     </g>
     <g id="text_19">
      <!-- 600 -->
      <g style="fill: #ff7f0e" transform="translate(531.95 117.974182) scale(0.1 -0.1)">
       <defs>
        <path id="DejaVuSans-36" d="M 2113 2584 
Q 1688 2584 1439 2293 
Q 1191 2003 1191 1497 
Q 1191 994 1439 701 
Q 1688 409 2113 409 
Q 2538 409 2786 701 
Q 3034 994 3034 1497 
Q 3034 2003 2786 2293 
Q 2538 2584 2113 2584 
z
M 3366 4563 
L 3366 3988 
Q 3128 4100 2886 4159 
Q 2644 4219 2406 4219 
Q 1781 4219 1451 3797 
Q 1122 3375 1075 2522 
Q 1259 2794 1537 2939 
Q 1816 3084 2150 3084 
Q 2853 3084 3261 2657 
Q 3669 2231 3669 1497 
Q 3669 778 3244 343 
Q 2819 -91 2113 -91 
Q 1303 -91 875 529 
Q 447 1150 447 2328 
Q 447 3434 972 4092 
Q 1497 4750 2381 4750 
Q 2619 4750 2861 4703 
Q 3103 4656 3366 4563 
z
" transform="scale(0.015625)"/>
       </defs>
       <use xlink:href="#DejaVuSans-36"/>
       <use xlink:href="#DejaVuSans-30" x="63.623047"/>
       <use xlink:href="#DejaVuSans-30" x="127.246094"/>
      </g>
     </g>
    </g>
    <g id="ytick_12">
     <g id="line2d_25">
      <g>
       <use xlink:href="#m4e43f20496" x="524.95" y="89.744137" style="fill: #ff7f0e; stroke: #ff7f0e; stroke-width: 0.8"/>
      </g>
     </g>
     <g id="text_20">
      <!-- 700 -->
      <g style="fill: #ff7f0e" transform="translate(531.95 93.543356) scale(0.1 -0.1)">
       <defs>
        <path id="DejaVuSans-37" d="M 525 4666 
L 3525 4666 
L 3525 4397 
L 1831 0 
L 1172 0 
L 2766 4134 
L 525 4134 
L 525 4666 
z
" transform="scale(0.015625)"/>
       </defs>
       <use xlink:href="#DejaVuSans-37"/>
       <use xlink:href="#DejaVuSans-30" x="63.623047"/>
       <use xlink:href="#DejaVuSans-30" x="127.246094"/>
      </g>
     </g>
    </g>
    <g id="ytick_13">
     <g id="line2d_26">
      <g>
       <use xlink:href="#m4e43f20496" x="524.95" y="65.313312" style="fill: #ff7f0e; stroke: #ff7f0e; stroke-width: 0.8"/>
      </g>
     </g>
     <g id="text_21">
      <!-- 800 -->
      <g style="fill: #ff7f0e" transform="translate(531.95 69.11253) scale(0.1 -0.1)">
       <defs>
        <path id="DejaVuSans-38" d="M 2034 2216 
Q 1584 2216 1326 1975 
Q 1069 1734 1069 1313 
Q 1069 891 1326 650 
Q 1584 409 2034 409 
Q 2484 409 2743 651 
Q 3003 894 3003 1313 
Q 3003 1734 2745 1975 
Q 2488 2216 2034 2216 
z
M 1403 2484 
Q 997 2584 770 2862 
Q 544 3141 544 3541 
Q 544 4100 942 4425 
Q 1341 4750 2034 4750 
Q 2731 4750 3128 4425 
Q 3525 4100 3525 3541 
Q 3525 3141 3298 2862 
Q 3072 2584 2669 2484 
Q 3125 2378 3379 2068 
Q 3634 1759 3634 1313 
Q 3634 634 3220 271 
Q 2806 -91 2034 -91 
Q 1263 -91 848 271 
Q 434 634 434 1313 
Q 434 1759 690 2068 
Q 947 2378 1403 2484 
z
M 1172 3481 
Q 1172 3119 1398 2916 
Q 1625 2713 2034 2713 
Q 2441 2713 2670 2916 
Q 2900 3119 2900 3481 
Q 2900 3844 2670 4047 
Q 2441 4250 2034 4250 
Q 1625 4250 1398 4047 
Q 1172 3844 1172 3481 
z
" transform="scale(0.015625)"/>
       </defs>
       <use xlink:href="#DejaVuSans-38"/>
       <use xlink:href="#DejaVuSans-30" x="63.623047"/>
       <use xlink:href="#DejaVuSans-30" x="127.246094"/>
      </g>
     </g>
    </g>
    <g id="ytick_14">
     <g id="line2d_27">
      <g>
       <use xlink:href="#m4e43f20496" x="524.95" y="40.882486" style="fill: #ff7f0e; stroke: #ff7f0e; stroke-width: 0.8"/>
      </g>
     </g>
     <g id="text_22">
      <!-- 900 -->
      <g style="fill: #ff7f0e" transform="translate(531.95 44.681705) scale(0.1 -0.1)">
       <defs>
        <path id="DejaVuSans-39" d="M 703 97 
L 703 672 
Q 941 559 1184 500 
Q 1428 441 1663 441 
Q 2288 441 2617 861 
Q 2947 1281 2994 2138 
Q 2813 1869 2534 1725 
Q 2256 1581 1919 1581 
Q 1219 1581 811 2004 
Q 403 2428 403 3163 
Q 403 3881 828 4315 
Q 1253 4750 1959 4750 
Q 2769 4750 3195 4129 
Q 3622 3509 3622 2328 
Q 3622 1225 3098 567 
Q 2575 -91 1691 -91 
Q 1453 -91 1209 -44 
Q 966 3 703 97 
z
M 1959 2075 
Q 2384 2075 2632 2365 
Q 2881 2656 2881 3163 
Q 2881 3666 2632 3958 
Q 2384 4250 1959 4250 
Q 1534 4250 1286 3958 
Q 1038 3666 1038 3163 
Q 1038 2656 1286 2365 
Q 1534 2075 1959 2075 
z
" transform="scale(0.015625)"/>
       </defs>
       <use xlink:href="#DejaVuSans-39"/>
       <use xlink:href="#DejaVuSans-30" x="63.623047"/>
       <use xlink:href="#DejaVuSans-30" x="127.246094"/>
      </g>
     </g>
    </g>
    <g id="text_23">
     <!-- Number of sheep (n) -->
     <g style="fill: #ff7f0e" transform="translate(562.635938 191.06375) rotate(-90) scale(0.1 -0.1)">
      <defs>
       <path id="DejaVuSans-4e" d="M 628 4666 
L 1478 4666 
L 3547 763 
L 3547 4666 
L 4159 4666 
L 4159 0 
L 3309 0 
L 1241 3903 
L 1241 0 
L 628 0 
L 628 4666 
z
" transform="scale(0.015625)"/>
       <path id="DejaVuSans-62" d="M 3116 1747 
Q 3116 2381 2855 2742 
Q 2594 3103 2138 3103 
Q 1681 3103 1420 2742 
Q 1159 2381 1159 1747 
Q 1159 1113 1420 752 
Q 1681 391 2138 391 
Q 2594 391 2855 752 
Q 3116 1113 3116 1747 
z
M 1159 2969 
Q 1341 3281 1617 3432 
Q 1894 3584 2278 3584 
Q 2916 3584 3314 3078 
Q 3713 2572 3713 1747 
Q 3713 922 3314 415 
Q 2916 -91 2278 -91 
Q 1894 -91 1617 61 
Q 1341 213 1159 525 
L 1159 0 
L 581 0 
L 581 4863 
L 1159 4863 
L 1159 2969 
z
" transform="scale(0.015625)"/>
       <path id="DejaVuSans-68" d="M 3513 2113 
L 3513 0 
L 2938 0 
L 2938 2094 
Q 2938 2591 2744 2837 
Q 2550 3084 2163 3084 
Q 1697 3084 1428 2787 
Q 1159 2491 1159 1978 
L 1159 0 
L 581 0 
L 581 4863 
L 1159 4863 
L 1159 2956 
Q 1366 3272 1645 3428 
Q 1925 3584 2291 3584 
Q 2894 3584 3203 3211 
Q 3513 2838 3513 2113 
z
" transform="scale(0.015625)"/>
       <path id="DejaVuSans-70" d="M 1159 525 
L 1159 -1331 
L 581 -1331 
L 581 3500 
L 1159 3500 
L 1159 2969 
Q 1341 3281 1617 3432 
Q 1894 3584 2278 3584 
Q 2916 3584 3314 3078 
Q 3713 2572 3713 1747 
Q 3713 922 3314 415 
Q 2916 -91 2278 -91 
Q 1894 -91 1617 61 
Q 1341 213 1159 525 
z
M 3116 1747 
Q 3116 2381 2855 2742 
Q 2594 3103 2138 3103 
Q 1681 3103 1420 2742 
Q 1159 2381 1159 1747 
Q 1159 1113 1420 752 
Q 1681 391 2138 391 
Q 2594 391 2855 752 
Q 3116 1113 3116 1747 
z
" transform="scale(0.015625)"/>
      </defs>
      <use xlink:href="#DejaVuSans-4e"/>
      <use xlink:href="#DejaVuSans-75" x="74.804688"/>
      <use xlink:href="#DejaVuSans-6d" x="138.183594"/>
      <use xlink:href="#DejaVuSans-62" x="235.595703"/>
      <use xlink:href="#DejaVuSans-65" x="299.072266"/>
      <use xlink:href="#DejaVuSans-72" x="360.595703"/>
      <use xlink:href="#DejaVuSans-20" x="401.708984"/>
      <use xlink:href="#DejaVuSans-6f" x="433.496094"/>
      <use xlink:href="#DejaVuSans-66" x="494.677734"/>
      <use xlink:href="#DejaVuSans-20" x="529.882812"/>
      <use xlink:href="#DejaVuSans-73" x="561.669922"/>
      <use xlink:href="#DejaVuSans-68" x="613.769531"/>
      <use xlink:href="#DejaVuSans-65" x="677.148438"/>
      <use xlink:href="#DejaVuSans-65" x="738.671875"/>
      <use xlink:href="#DejaVuSans-70" x="800.195312"/>
      <use xlink:href="#DejaVuSans-20" x="863.671875"/>
      <use xlink:href="#DejaVuSans-28" x="895.458984"/>
      <use xlink:href="#DejaVuSans-6e" x="934.472656"/>
      <use xlink:href="#DejaVuSans-29" x="997.851562"/>
     </g>
    </g>
   </g>
   <g id="line2d_28">
    <path d="M 90.889545 236.329091 
L 95.025109 233.765064 
L 98.99525 231.050777 
L 102.96539 228.063574 
L 106.770109 224.919374 
L 110.409404 221.629339 
L 114.0487 218.037291 
L 117.522573 214.301339 
L 120.996446 210.238691 
L 124.47032 205.820778 
L 127.77877 201.254555 
L 131.087221 196.308813 
L 134.395672 190.95201 
L 137.704122 185.149981 
L 140.84715 179.191992 
L 143.990178 172.764519 
L 147.133207 165.830568 
L 150.276235 158.350229 
L 153.419263 150.280446 
L 156.562291 141.574772 
L 159.705319 132.183099 
L 162.848347 122.051372 
L 165.991375 111.121274 
L 169.134403 99.345529 
L 178.232643 64.489079 
L 180.217713 58.121052 
L 181.871938 53.480009 
L 183.360741 49.900786 
L 184.684121 47.24209 
L 185.842079 45.346972 
L 187.000037 43.874002 
L 187.992572 42.959079 
L 188.819685 42.447659 
L 189.646797 42.168099 
L 190.47391 42.122886 
L 191.301023 42.313611 
L 192.128135 42.740962 
L 192.955248 43.40474 
L 193.947783 44.51176 
L 194.940318 45.954073 
L 196.098276 48.053319 
L 197.421656 50.987385 
L 198.745037 54.470581 
L 200.23384 59.011226 
L 201.888065 64.773847 
L 203.873135 72.583308 
L 206.023628 81.981019 
L 208.670389 94.577685 
L 212.805952 115.540107 
L 217.768628 140.500095 
L 220.415389 152.711486 
L 222.565881 161.660323 
L 224.385529 168.374948 
L 226.039755 173.690195 
L 227.528557 177.763679 
L 228.851938 180.777542 
L 230.009895 182.921362 
L 231.167853 184.587185 
L 232.160388 185.624493 
L 232.987501 186.210822 
L 233.814614 186.54821 
L 234.641726 186.646088 
L 235.468839 186.518345 
L 236.295952 186.181857 
L 237.288487 185.528503 
L 238.446445 184.462964 
L 239.769825 182.904564 
L 241.258628 180.792883 
L 243.078275 177.79898 
L 245.228768 173.799737 
L 247.710106 168.691743 
L 250.522289 162.365559 
L 253.499895 155.098031 
L 256.477501 147.251647 
L 259.620529 138.317819 
L 262.763557 128.673401 
L 265.906585 118.266537 
L 268.884191 107.651171 
L 272.192641 94.988422 
L 278.974965 68.692681 
L 281.125458 61.342692 
L 282.945106 55.837949 
L 284.599331 51.519328 
L 286.088134 48.262833 
L 287.411514 45.912847 
L 288.569472 44.3019 
L 289.562007 43.265062 
L 290.554542 42.554546 
L 291.381655 42.216398 
L 292.208768 42.112058 
L 293.03588 42.243339 
L 293.862993 42.611158 
L 294.690106 43.215538 
L 295.682641 44.251772 
L 296.675176 45.62419 
L 297.833134 47.64352 
L 298.991092 50.102679 
L 300.314472 53.433469 
L 301.803275 57.812586 
L 303.4575 63.410328 
L 305.277148 70.37413 
L 307.427641 79.545278 
L 309.908979 91.136122 
L 313.382852 108.529058 
L 319.999753 141.882003 
L 322.646514 153.967588 
L 324.797007 162.780069 
L 326.616654 169.357721 
L 328.27088 174.533189 
L 329.759683 178.470023 
L 331.083063 181.355032 
L 332.241021 183.381309 
L 333.233556 184.735276 
L 334.226091 185.727552 
L 335.053204 186.276551 
L 335.880316 186.577689 
L 336.707429 186.64114 
L 337.534542 186.48133 
L 338.361654 186.115448 
L 339.354189 185.430506 
L 340.512147 184.333072 
L 341.835527 182.744166 
L 343.32433 180.604548 
L 345.143978 177.583558 
L 347.294471 173.559167 
L 349.775809 168.427596 
L 352.587992 162.078009 
L 355.565598 154.786793 
L 358.543203 146.91628 
L 361.686231 137.95563 
L 364.82926 128.282524 
L 367.972288 117.844804 
L 370.949893 107.198031 
L 374.258344 94.505915 
L 380.875245 68.846744 
L 383.025738 61.480566 
L 384.845386 55.958515 
L 386.499611 51.621696 
L 387.988414 48.347122 
L 389.311794 45.979935 
L 390.469752 44.353218 
L 391.462287 43.30243 
L 392.454822 42.57765 
L 393.281935 42.227434 
L 394.109048 42.110909 
L 394.93616 42.229937 
L 395.763273 42.58548 
L 396.590386 43.177607 
L 397.582921 44.199234 
L 398.575456 45.557224 
L 399.733414 47.560049 
L 400.891372 50.003169 
L 402.214752 53.316352 
L 403.703555 57.676779 
L 405.35778 63.255404 
L 407.177428 70.200511 
L 409.327921 79.353161 
L 411.809259 90.928089 
L 415.283132 108.309494 
L 422.065456 142.466357 
L 424.712216 154.497012 
L 426.862709 163.250456 
L 428.682357 169.76907 
L 430.336582 174.884468 
L 431.825385 178.762709 
L 433.148766 181.592563 
L 434.306723 183.568598 
L 435.299258 184.878294 
L 436.291794 185.825616 
L 437.118906 186.337466 
L 437.946019 186.602638 
L 438.773132 186.632026 
L 439.600244 186.44056 
L 440.592779 185.943972 
L 441.585315 185.186769 
L 442.743272 184.016522 
L 444.066653 182.358045 
L 445.720878 179.890809 
L 447.705948 176.472092 
L 450.021864 171.990175 
L 452.668624 166.344601 
L 455.480807 159.816245 
L 458.458413 152.341442 
L 461.436019 144.282513 
L 464.579047 135.111717 
L 467.722075 125.213532 
L 470.865103 114.533617 
L 474.008131 103.01426 
L 477.978272 87.462475 
L 482.279258 70.811571 
L 484.595173 62.70307 
L 486.580244 56.55469 
L 488.234469 52.130482 
L 489.723272 48.768809 
L 491.046652 46.318561 
L 492.20461 44.61556 
L 493.197145 43.4972 
L 494.18968 42.703244 
L 495.016793 42.294438 
L 495.843905 42.118709 
L 496.671018 42.178146 
L 497.498131 42.473937 
L 498.325243 43.006378 
L 499.317779 43.956781 
L 500.310314 45.244344 
L 501.468271 47.166515 
L 502.626229 49.531165 
L 503.949609 52.758067 
L 504.280455 53.649522 
L 504.280455 53.649522 
" clip-path="url(#p7c6a31fc69)" style="fill: none; stroke: #ff7f0e; stroke-width: 1.5; stroke-linecap: square"/>
   </g>
   <g id="patch_7">
    <path d="M 70.22 246.04 
L 70.22 32.4 
" style="fill: none; stroke: #000000; stroke-width: 0.8; stroke-linejoin: miter; stroke-linecap: square"/>
   </g>
   <g id="patch_8">
    <path d="M 524.95 246.04 
L 524.95 32.4 
" style="fill: none; stroke: #000000; stroke-width: 0.8; stroke-linejoin: miter; stroke-linecap: square"/>
   </g>
   <g id="patch_9">
    <path d="M 70.22 246.04 
L 524.95 246.04 
" style="fill: none; stroke: #000000; stroke-width: 0.8; stroke-linejoin: miter; stroke-linecap: square"/>
   </g>
   <g id="patch_10">
    <path d="M 70.22 32.4 
L 524.95 32.4 
" style="fill: none; stroke: #000000; stroke-width: 0.8; stroke-linejoin: miter; stroke-linecap: square"/>
   </g>
  </g>
  <g id="text_24">
   <!-- Grass and Sheep -->
   <g transform="translate(237.049688 14.878125) scale(0.12 -0.12)">
    <defs>
     <path id="DejaVuSans-47" d="M 3809 666 
L 3809 1919 
L 2778 1919 
L 2778 2438 
L 4434 2438 
L 4434 434 
Q 4069 175 3628 42 
Q 3188 -91 2688 -91 
Q 1594 -91 976 548 
Q 359 1188 359 2328 
Q 359 3472 976 4111 
Q 1594 4750 2688 4750 
Q 3144 4750 3555 4637 
Q 3966 4525 4313 4306 
L 4313 3634 
Q 3963 3931 3569 4081 
Q 3175 4231 2741 4231 
Q 1884 4231 1454 3753 
Q 1025 3275 1025 2328 
Q 1025 1384 1454 906 
Q 1884 428 2741 428 
Q 3075 428 3337 486 
Q 3600 544 3809 666 
z
" transform="scale(0.015625)"/>
     <path id="DejaVuSans-64" d="M 2906 2969 
L 2906 4863 
L 3481 4863 
L 3481 0 
L 2906 0 
L 2906 525 
Q 2725 213 2448 61 
Q 2172 -91 1784 -91 
Q 1150 -91 751 415 
Q 353 922 353 1747 
Q 353 2572 751 3078 
Q 1150 3584 1784 3584 
Q 2172 3584 2448 3432 
Q 2725 3281 2906 2969 
z
M 947 1747 
Q 947 1113 1208 752 
Q 1469 391 1925 391 
Q 2381 391 2643 752 
Q 2906 1113 2906 1747 
Q 2906 2381 2643 2742 
Q 2381 3103 1925 3103 
Q 1469 3103 1208 2742 
Q 947 2381 947 1747 
z
" transform="scale(0.015625)"/>
     <path id="DejaVuSans-53" d="M 3425 4513 
L 3425 3897 
Q 3066 4069 2747 4153 
Q 2428 4238 2131 4238 
Q 1616 4238 1336 4038 
Q 1056 3838 1056 3469 
Q 1056 3159 1242 3001 
Q 1428 2844 1947 2747 
L 2328 2669 
Q 3034 2534 3370 2195 
Q 3706 1856 3706 1288 
Q 3706 609 3251 259 
Q 2797 -91 1919 -91 
Q 1588 -91 1214 -16 
Q 841 59 441 206 
L 441 856 
Q 825 641 1194 531 
Q 1563 422 1919 422 
Q 2459 422 2753 634 
Q 3047 847 3047 1241 
Q 3047 1584 2836 1778 
Q 2625 1972 2144 2069 
L 1759 2144 
Q 1053 2284 737 2584 
Q 422 2884 422 3419 
Q 422 4038 858 4394 
Q 1294 4750 2059 4750 
Q 2388 4750 2728 4690 
Q 3069 4631 3425 4513 
z
" transform="scale(0.015625)"/>
    </defs>
    <use xlink:href="#DejaVuSans-47"/>
    <use xlink:href="#DejaVuSans-72" x="77.490234"/>
    <use xlink:href="#DejaVuSans-61" x="118.603516"/>
    <use xlink:href="#DejaVuSans-73" x="179.882812"/>
    <use xlink:href="#DejaVuSans-73" x="231.982422"/>
    <use xlink:href="#DejaVuSans-20" x="284.082031"/>
    <use xlink:href="#DejaVuSans-61" x="315.869141"/>
    <use xlink:href="#DejaVuSans-6e" x="377.148438"/>
    <use xlink:href="#DejaVuSans-64" x="440.527344"/>
    <use xlink:href="#DejaVuSans-20" x="504.003906"/>
    <use xlink:href="#DejaVuSans-53" x="535.791016"/>
    <use xlink:href="#DejaVuSans-68" x="599.267578"/>
    <use xlink:href="#DejaVuSans-65" x="662.646484"/>
    <use xlink:href="#DejaVuSans-65" x="724.169922"/>
    <use xlink:href="#DejaVuSans-70" x="785.693359"/>
   </g>
  </g>
 </g>
 <defs>
  <clipPath id="p7c6a31fc69">
   <rect x="70.22" y="32.4" width="454.73" height="213.64"/>
  </clipPath>
 </defs>
</svg>
