<?xml version="1.0" encoding="utf-8" standalone="no"?>
<!DOCTYPE svg PUBLIC "-//W3C//DTD SVG 1.1//EN"
  "http://www.w3.org/Graphics/SVG/1.1/DTD/svg11.dtd">
<svg xmlns:xlink="http://www.w3.org/1999/xlink" width="576pt" height="288pt" viewBox="0 0 576 288" xmlns="http://www.w3.org/2000/svg" version="1.1">
 <metadata>
  <rdf:RDF xmlns:dc="http://purl.org/dc/elements/1.1/" xmlns:cc="http://creativecommons.org/ns#" xmlns:rdf="http://www.w3.org/1999/02/22-rdf-syntax-ns#">
   <cc:Work>
    <dc:type rdf:resource="http://purl.org/dc/dcmitype/StillImage"/>
    <dc:date>2025-03-18T12:20:37.894536</dc:date>
    <dc:format>image/svg+xml</dc:format>
    <dc:creator>
     <cc:Agent>
      <dc:title>Matplotlib v3.6.3, https://matplotlib.org/</dc:title>
     </cc:Agent>
    </dc:creator>
   </cc:Work>
  </rdf:RDF>
 </metadata>
 <defs>
  <style type="text/css">*{stroke-linejoin: round; stroke-linecap: butt}</style>
 </defs>
 <g id="figure_1">
  <g id="patch_1">
   <path d="M 0 288 
L 576 288 
L 576 0 
L 0 0 
z
" style="fill: #ffffff"/>
  </g>
  <g id="axes_1">
   <g id="patch_2">
    <path d="M 44.66 246.04 
L 531.34 246.04 
L 531.34 32.4 
L 44.66 32.4 
z
" style="fill: #ffffff"/>
   </g>
   <g id="matplotlib.axis_1">
    <g id="xtick_1">
     <g id="line2d_1">
      <path d="M 66.781818 246.04 
L 66.781818 32.4 
" clip-path="url(#p320c756e58)" style="fill: none; stroke-dasharray: 0.8,1.32; stroke-dashoffset: 0; stroke: #b0b0b0; stroke-width: 0.8"/>
     </g>
     <g id="line2d_2">
      <defs>
       <path id="mdc96251a16" d="M 0 0 
L 0 3.5 
" style="stroke: #000000; stroke-width: 0.8"/>
      </defs>
      <g>
       <use xlink:href="#mdc96251a16" x="66.781818" y="246.04" style="stroke: #000000; stroke-width: 0.8"/>
      </g>
     </g>
     <g id="text_1">
      <!-- 0 -->
      <g transform="translate(63.600568 260.638438) scale(0.1 -0.1)">
       <defs>
        <path id="DejaVuSans-30" d="M 2034 4250 
Q 1547 4250 1301 3770 
Q 1056 3291 1056 2328 
Q 1056 1369 1301 889 
Q 1547 409 2034 409 
Q 2525 409 2770 889 
Q 3016 1369 3016 2328 
Q 3016 3291 2770 3770 
Q 2525 4250 2034 4250 
z
M 2034 4750 
Q 2819 4750 3233 4129 
Q 3647 3509 3647 2328 
Q 3647 1150 3233 529 
Q 2819 -91 2034 -91 
Q 1250 -91 836 529 
Q 422 1150 422 2328 
Q 422 3509 836 4129 
Q 1250 4750 2034 4750 
z
" transform="scale(0.015625)"/>
       </defs>
       <use xlink:href="#DejaVuSans-30"/>
      </g>
     </g>
    </g>
    <g id="xtick_2">
     <g id="line2d_3">
      <path d="M 155.269976 246.04 
L 155.269976 32.4 
" clip-path="url(#p320c756e58)" style="fill: none; stroke-dasharray: 0.8,1.32; stroke-dashoffset: 0; stroke: #b0b0b0; stroke-width: 0.8"/>
     </g>
     <g id="line2d_4">
      <g>
       <use xlink:href="#mdc96251a16" x="155.269976" y="246.04" style="stroke: #000000; stroke-width: 0.8"/>
      </g>
     </g>
     <g id="text_2">
      <!-- 20 -->
      <g transform="translate(148.907476 260.638438) scale(0.1 -0.1)">
       <defs>
        <path id="DejaVuSans-32" d="M 1228 531 
L 3431 531 
L 3431 0 
L 469 0 
L 469 531 
Q 828 903 1448 1529 
Q 2069 2156 2228 2338 
Q 2531 2678 2651 2914 
Q 2772 3150 2772 3378 
Q 2772 3750 2511 3984 
Q 2250 4219 1831 4219 
Q 1534 4219 1204 4116 
Q 875 4013 500 3803 
L 500 4441 
Q 881 4594 1212 4672 
Q 1544 4750 1819 4750 
Q 2544 4750 2975 4387 
Q 3406 4025 3406 3419 
Q 3406 3131 3298 2873 
Q 3191 2616 2906 2266 
Q 2828 2175 2409 1742 
Q 1991 1309 1228 531 
z
" transform="scale(0.015625)"/>
       </defs>
       <use xlink:href="#DejaVuSans-32"/>
       <use xlink:href="#DejaVuSans-30" x="63.623047"/>
      </g>
     </g>
    </g>
    <g id="xtick_3">
     <g id="line2d_5">
      <path d="M 243.758133 246.04 
L 243.758133 32.4 
" clip-path="url(#p320c756e58)" style="fill: none; stroke-dasharray: 0.8,1.32; stroke-dashoffset: 0; stroke: #b0b0b0; stroke-width: 0.8"/>
     </g>
     <g id="line2d_6">
      <g>
       <use xlink:href="#mdc96251a16" x="243.758133" y="246.04" style="stroke: #000000; stroke-width: 0.8"/>
      </g>
     </g>
     <g id="text_3">
      <!-- 40 -->
      <g transform="translate(237.395633 260.638438) scale(0.1 -0.1)">
       <defs>
        <path id="DejaVuSans-34" d="M 2419 4116 
L 825 1625 
L 2419 1625 
L 2419 4116 
z
M 2253 4666 
L 3047 4666 
L 3047 1625 
L 3713 1625 
L 3713 1100 
L 3047 1100 
L 3047 0 
L 2419 0 
L 2419 1100 
L 313 1100 
L 313 1709 
L 2253 4666 
z
" transform="scale(0.015625)"/>
       </defs>
       <use xlink:href="#DejaVuSans-34"/>
       <use xlink:href="#DejaVuSans-30" x="63.623047"/>
      </g>
     </g>
    </g>
    <g id="xtick_4">
     <g id="line2d_7">
      <path d="M 332.246291 246.04 
L 332.246291 32.4 
" clip-path="url(#p320c756e58)" style="fill: none; stroke-dasharray: 0.8,1.32; stroke-dashoffset: 0; stroke: #b0b0b0; stroke-width: 0.8"/>
     </g>
     <g id="line2d_8">
      <g>
       <use xlink:href="#mdc96251a16" x="332.246291" y="246.04" style="stroke: #000000; stroke-width: 0.8"/>
      </g>
     </g>
     <g id="text_4">
      <!-- 60 -->
      <g transform="translate(325.883791 260.638438) scale(0.1 -0.1)">
       <defs>
        <path id="DejaVuSans-36" d="M 2113 2584 
Q 1688 2584 1439 2293 
Q 1191 2003 1191 1497 
Q 1191 994 1439 701 
Q 1688 409 2113 409 
Q 2538 409 2786 701 
Q 3034 994 3034 1497 
Q 3034 2003 2786 2293 
Q 2538 2584 2113 2584 
z
M 3366 4563 
L 3366 3988 
Q 3128 4100 2886 4159 
Q 2644 4219 2406 4219 
Q 1781 4219 1451 3797 
Q 1122 3375 1075 2522 
Q 1259 2794 1537 2939 
Q 1816 3084 2150 3084 
Q 2853 3084 3261 2657 
Q 3669 2231 3669 1497 
Q 3669 778 3244 343 
Q 2819 -91 2113 -91 
Q 1303 -91 875 529 
Q 447 1150 447 2328 
Q 447 3434 972 4092 
Q 1497 4750 2381 4750 
Q 2619 4750 2861 4703 
Q 3103 4656 3366 4563 
z
" transform="scale(0.015625)"/>
       </defs>
       <use xlink:href="#DejaVuSans-36"/>
       <use xlink:href="#DejaVuSans-30" x="63.623047"/>
      </g>
     </g>
    </g>
    <g id="xtick_5">
     <g id="line2d_9">
      <path d="M 420.734449 246.04 
L 420.734449 32.4 
" clip-path="url(#p320c756e58)" style="fill: none; stroke-dasharray: 0.8,1.32; stroke-dashoffset: 0; stroke: #b0b0b0; stroke-width: 0.8"/>
     </g>
     <g id="line2d_10">
      <g>
       <use xlink:href="#mdc96251a16" x="420.734449" y="246.04" style="stroke: #000000; stroke-width: 0.8"/>
      </g>
     </g>
     <g id="text_5">
      <!-- 80 -->
      <g transform="translate(414.371949 260.638438) scale(0.1 -0.1)">
       <defs>
        <path id="DejaVuSans-38" d="M 2034 2216 
Q 1584 2216 1326 1975 
Q 1069 1734 1069 1313 
Q 1069 891 1326 650 
Q 1584 409 2034 409 
Q 2484 409 2743 651 
Q 3003 894 3003 1313 
Q 3003 1734 2745 1975 
Q 2488 2216 2034 2216 
z
M 1403 2484 
Q 997 2584 770 2862 
Q 544 3141 544 3541 
Q 544 4100 942 4425 
Q 1341 4750 2034 4750 
Q 2731 4750 3128 4425 
Q 3525 4100 3525 3541 
Q 3525 3141 3298 2862 
Q 3072 2584 2669 2484 
Q 3125 2378 3379 2068 
Q 3634 1759 3634 1313 
Q 3634 634 3220 271 
Q 2806 -91 2034 -91 
Q 1263 -91 848 271 
Q 434 634 434 1313 
Q 434 1759 690 2068 
Q 947 2378 1403 2484 
z
M 1172 3481 
Q 1172 3119 1398 2916 
Q 1625 2713 2034 2713 
Q 2441 2713 2670 2916 
Q 2900 3119 2900 3481 
Q 2900 3844 2670 4047 
Q 2441 4250 2034 4250 
Q 1625 4250 1398 4047 
Q 1172 3844 1172 3481 
z
" transform="scale(0.015625)"/>
       </defs>
       <use xlink:href="#DejaVuSans-38"/>
       <use xlink:href="#DejaVuSans-30" x="63.623047"/>
      </g>
     </g>
    </g>
    <g id="xtick_6">
     <g id="line2d_11">
      <path d="M 509.222606 246.04 
L 509.222606 32.4 
" clip-path="url(#p320c756e58)" style="fill: none; stroke-dasharray: 0.8,1.32; stroke-dashoffset: 0; stroke: #b0b0b0; stroke-width: 0.8"/>
     </g>
     <g id="line2d_12">
      <g>
       <use xlink:href="#mdc96251a16" x="509.222606" y="246.04" style="stroke: #000000; stroke-width: 0.8"/>
      </g>
     </g>
     <g id="text_6">
      <!-- 100 -->
      <g transform="translate(499.678856 260.638438) scale(0.1 -0.1)">
       <defs>
        <path id="DejaVuSans-31" d="M 794 531 
L 1825 531 
L 1825 4091 
L 703 3866 
L 703 4441 
L 1819 4666 
L 2450 4666 
L 2450 531 
L 3481 531 
L 3481 0 
L 794 0 
L 794 531 
z
" transform="scale(0.015625)"/>
       </defs>
       <use xlink:href="#DejaVuSans-31"/>
       <use xlink:href="#DejaVuSans-30" x="63.623047"/>
       <use xlink:href="#DejaVuSans-30" x="127.246094"/>
      </g>
     </g>
    </g>
    <g id="text_7">
     <!-- time -->
     <g transform="translate(276.703906 274.316562) scale(0.1 -0.1)">
      <defs>
       <path id="DejaVuSans-74" d="M 1172 4494 
L 1172 3500 
L 2356 3500 
L 2356 3053 
L 1172 3053 
L 1172 1153 
Q 1172 725 1289 603 
Q 1406 481 1766 481 
L 2356 481 
L 2356 0 
L 1766 0 
Q 1100 0 847 248 
Q 594 497 594 1153 
L 594 3053 
L 172 3053 
L 172 3500 
L 594 3500 
L 594 4494 
L 1172 4494 
z
" transform="scale(0.015625)"/>
       <path id="DejaVuSans-69" d="M 603 3500 
L 1178 3500 
L 1178 0 
L 603 0 
L 603 3500 
z
M 603 4863 
L 1178 4863 
L 1178 4134 
L 603 4134 
L 603 4863 
z
" transform="scale(0.015625)"/>
       <path id="DejaVuSans-6d" d="M 3328 2828 
Q 3544 3216 3844 3400 
Q 4144 3584 4550 3584 
Q 5097 3584 5394 3201 
Q 5691 2819 5691 2113 
L 5691 0 
L 5113 0 
L 5113 2094 
Q 5113 2597 4934 2840 
Q 4756 3084 4391 3084 
Q 3944 3084 3684 2787 
Q 3425 2491 3425 1978 
L 3425 0 
L 2847 0 
L 2847 2094 
Q 2847 2600 2669 2842 
Q 2491 3084 2119 3084 
Q 1678 3084 1418 2786 
Q 1159 2488 1159 1978 
L 1159 0 
L 581 0 
L 581 3500 
L 1159 3500 
L 1159 2956 
Q 1356 3278 1631 3431 
Q 1906 3584 2284 3584 
Q 2666 3584 2933 3390 
Q 3200 3197 3328 2828 
z
" transform="scale(0.015625)"/>
       <path id="DejaVuSans-65" d="M 3597 1894 
L 3597 1613 
L 953 1613 
Q 991 1019 1311 708 
Q 1631 397 2203 397 
Q 2534 397 2845 478 
Q 3156 559 3463 722 
L 3463 178 
Q 3153 47 2828 -22 
Q 2503 -91 2169 -91 
Q 1331 -91 842 396 
Q 353 884 353 1716 
Q 353 2575 817 3079 
Q 1281 3584 2069 3584 
Q 2775 3584 3186 3129 
Q 3597 2675 3597 1894 
z
M 3022 2063 
Q 3016 2534 2758 2815 
Q 2500 3097 2075 3097 
Q 1594 3097 1305 2825 
Q 1016 2553 972 2059 
L 3022 2063 
z
" transform="scale(0.015625)"/>
      </defs>
      <use xlink:href="#DejaVuSans-74"/>
      <use xlink:href="#DejaVuSans-69" x="39.208984"/>
      <use xlink:href="#DejaVuSans-6d" x="66.992188"/>
      <use xlink:href="#DejaVuSans-65" x="164.404297"/>
     </g>
    </g>
   </g>
   <g id="matplotlib.axis_2">
    <g id="ytick_1">
     <g id="line2d_13">
      <defs>
       <path id="m5927f424c9" d="M 0 0 
L -3.5 0 
" style="stroke: #1f77b4; stroke-width: 0.8"/>
      </defs>
      <g>
       <use xlink:href="#m5927f424c9" x="44.66" y="246.04" style="fill: #1f77b4; stroke: #1f77b4; stroke-width: 0.8"/>
      </g>
     </g>
     <g id="text_8">
      <!-- 0 -->
      <g style="fill: #1f77b4" transform="translate(31.2975 249.839219) scale(0.1 -0.1)">
       <use xlink:href="#DejaVuSans-30"/>
      </g>
     </g>
    </g>
    <g id="ytick_2">
     <g id="line2d_14">
      <g>
       <use xlink:href="#m5927f424c9" x="44.66" y="213.320943" style="fill: #1f77b4; stroke: #1f77b4; stroke-width: 0.8"/>
      </g>
     </g>
     <g id="text_9">
      <!-- 5 -->
      <g style="fill: #1f77b4" transform="translate(31.2975 217.120162) scale(0.1 -0.1)">
       <defs>
        <path id="DejaVuSans-35" d="M 691 4666 
L 3169 4666 
L 3169 4134 
L 1269 4134 
L 1269 2991 
Q 1406 3038 1543 3061 
Q 1681 3084 1819 3084 
Q 2600 3084 3056 2656 
Q 3513 2228 3513 1497 
Q 3513 744 3044 326 
Q 2575 -91 1722 -91 
Q 1428 -91 1123 -41 
Q 819 9 494 109 
L 494 744 
Q 775 591 1075 516 
Q 1375 441 1709 441 
Q 2250 441 2565 725 
Q 2881 1009 2881 1497 
Q 2881 1984 2565 2268 
Q 2250 2553 1709 2553 
Q 1456 2553 1204 2497 
Q 953 2441 691 2322 
L 691 4666 
z
" transform="scale(0.015625)"/>
       </defs>
       <use xlink:href="#DejaVuSans-35"/>
      </g>
     </g>
    </g>
    <g id="ytick_3">
     <g id="line2d_15">
      <g>
       <use xlink:href="#m5927f424c9" x="44.66" y="180.601886" style="fill: #1f77b4; stroke: #1f77b4; stroke-width: 0.8"/>
      </g>
     </g>
     <g id="text_10">
      <!-- 10 -->
      <g style="fill: #1f77b4" transform="translate(24.935 184.401105) scale(0.1 -0.1)">
       <use xlink:href="#DejaVuSans-31"/>
       <use xlink:href="#DejaVuSans-30" x="63.623047"/>
      </g>
     </g>
    </g>
    <g id="ytick_4">
     <g id="line2d_16">
      <g>
       <use xlink:href="#m5927f424c9" x="44.66" y="147.882829" style="fill: #1f77b4; stroke: #1f77b4; stroke-width: 0.8"/>
      </g>
     </g>
     <g id="text_11">
      <!-- 15 -->
      <g style="fill: #1f77b4" transform="translate(24.935 151.682047) scale(0.1 -0.1)">
       <use xlink:href="#DejaVuSans-31"/>
       <use xlink:href="#DejaVuSans-35" x="63.623047"/>
      </g>
     </g>
    </g>
    <g id="ytick_5">
     <g id="line2d_17">
      <g>
       <use xlink:href="#m5927f424c9" x="44.66" y="115.163772" style="fill: #1f77b4; stroke: #1f77b4; stroke-width: 0.8"/>
      </g>
     </g>
     <g id="text_12">
      <!-- 20 -->
      <g style="fill: #1f77b4" transform="translate(24.935 118.96299) scale(0.1 -0.1)">
       <use xlink:href="#DejaVuSans-32"/>
       <use xlink:href="#DejaVuSans-30" x="63.623047"/>
      </g>
     </g>
    </g>
    <g id="ytick_6">
     <g id="line2d_18">
      <g>
       <use xlink:href="#m5927f424c9" x="44.66" y="82.444714" style="fill: #1f77b4; stroke: #1f77b4; stroke-width: 0.8"/>
      </g>
     </g>
     <g id="text_13">
      <!-- 25 -->
      <g style="fill: #1f77b4" transform="translate(24.935 86.243933) scale(0.1 -0.1)">
       <use xlink:href="#DejaVuSans-32"/>
       <use xlink:href="#DejaVuSans-35" x="63.623047"/>
      </g>
     </g>
    </g>
    <g id="ytick_7">
     <g id="line2d_19">
      <g>
       <use xlink:href="#m5927f424c9" x="44.66" y="49.725657" style="fill: #1f77b4; stroke: #1f77b4; stroke-width: 0.8"/>
      </g>
     </g>
     <g id="text_14">
      <!-- 30 -->
      <g style="fill: #1f77b4" transform="translate(24.935 53.524876) scale(0.1 -0.1)">
       <defs>
        <path id="DejaVuSans-33" d="M 2597 2516 
Q 3050 2419 3304 2112 
Q 3559 1806 3559 1356 
Q 3559 666 3084 287 
Q 2609 -91 1734 -91 
Q 1441 -91 1130 -33 
Q 819 25 488 141 
L 488 750 
Q 750 597 1062 519 
Q 1375 441 1716 441 
Q 2309 441 2620 675 
Q 2931 909 2931 1356 
Q 2931 1769 2642 2001 
Q 2353 2234 1838 2234 
L 1294 2234 
L 1294 2753 
L 1863 2753 
Q 2328 2753 2575 2939 
Q 2822 3125 2822 3475 
Q 2822 3834 2567 4026 
Q 2313 4219 1838 4219 
Q 1578 4219 1281 4162 
Q 984 4106 628 3988 
L 628 4550 
Q 988 4650 1302 4700 
Q 1616 4750 1894 4750 
Q 2613 4750 3031 4423 
Q 3450 4097 3450 3541 
Q 3450 3153 3228 2886 
Q 3006 2619 2597 2516 
z
" transform="scale(0.015625)"/>
       </defs>
       <use xlink:href="#DejaVuSans-33"/>
       <use xlink:href="#DejaVuSans-30" x="63.623047"/>
      </g>
     </g>
    </g>
    <g id="text_15">
     <!-- Prey -->
     <g style="fill: #1f77b4" transform="translate(18.855313 150.12625) rotate(-90) scale(0.1 -0.1)">
      <defs>
       <path id="DejaVuSans-50" d="M 1259 4147 
L 1259 2394 
L 2053 2394 
Q 2494 2394 2734 2622 
Q 2975 2850 2975 3272 
Q 2975 3691 2734 3919 
Q 2494 4147 2053 4147 
L 1259 4147 
z
M 628 4666 
L 2053 4666 
Q 2838 4666 3239 4311 
Q 3641 3956 3641 3272 
Q 3641 2581 3239 2228 
Q 2838 1875 2053 1875 
L 1259 1875 
L 1259 0 
L 628 0 
L 628 4666 
z
" transform="scale(0.015625)"/>
       <path id="DejaVuSans-72" d="M 2631 2963 
Q 2534 3019 2420 3045 
Q 2306 3072 2169 3072 
Q 1681 3072 1420 2755 
Q 1159 2438 1159 1844 
L 1159 0 
L 581 0 
L 581 3500 
L 1159 3500 
L 1159 2956 
Q 1341 3275 1631 3429 
Q 1922 3584 2338 3584 
Q 2397 3584 2469 3576 
Q 2541 3569 2628 3553 
L 2631 2963 
z
" transform="scale(0.015625)"/>
       <path id="DejaVuSans-79" d="M 2059 -325 
Q 1816 -950 1584 -1140 
Q 1353 -1331 966 -1331 
L 506 -1331 
L 506 -850 
L 844 -850 
Q 1081 -850 1212 -737 
Q 1344 -625 1503 -206 
L 1606 56 
L 191 3500 
L 800 3500 
L 1894 763 
L 2988 3500 
L 3597 3500 
L 2059 -325 
z
" transform="scale(0.015625)"/>
      </defs>
      <use xlink:href="#DejaVuSans-50"/>
      <use xlink:href="#DejaVuSans-72" x="58.552734"/>
      <use xlink:href="#DejaVuSans-65" x="97.416016"/>
      <use xlink:href="#DejaVuSans-79" x="158.939453"/>
     </g>
    </g>
   </g>
   <g id="line2d_20">
    <path d="M 66.781818 180.601886 
L 67.467601 205.25817 
L 68.07817 219.828147 
L 68.666616 228.934609 
L 69.246213 234.694352 
L 69.830235 238.415569 
L 70.423106 240.842674 
L 71.033674 242.454977 
L 71.675213 243.548836 
L 72.37427 244.312708 
L 73.179512 244.862912 
L 74.179428 245.268038 
L 75.537721 245.564044 
L 77.621617 245.769225 
L 81.417759 245.887798 
L 89.169322 245.879668 
L 95.72187 245.68316 
L 99.509163 245.3617 
L 102.132837 244.925784 
L 104.145943 244.373382 
L 105.796247 243.694709 
L 107.212057 242.874013 
L 108.468589 241.888784 
L 109.618935 240.702516 
L 110.698491 239.265683 
L 111.733802 237.50894 
L 112.738143 235.353816 
L 113.720361 232.704104 
L 114.689307 229.431496 
L 115.653828 225.362775 
L 116.613924 220.313722 
L 117.574021 214.030976 
L 118.538542 206.189814 
L 119.507487 196.426417 
L 120.489705 184.198108 
L 121.49847 168.745151 
L 122.55148 149.049941 
L 123.723948 122.703318 
L 126.413988 60.09713 
L 126.821033 55.981175 
L 127.051102 55.28717 
L 127.13959 55.388756 
L 127.281172 56.014831 
L 127.497968 58.156334 
L 127.798827 63.672915 
L 128.1926 75.50878 
L 128.732377 99.328924 
L 130.88264 202.575137 
L 131.502057 218.289969 
L 132.090503 227.971426 
L 132.6701 234.094769 
L 133.249698 238.019982 
L 133.838144 240.581539 
L 134.444288 242.282834 
L 135.081403 243.436219 
L 135.77161 244.236656 
L 136.559155 244.809242 
L 137.523676 245.228407 
L 138.820027 245.536051 
L 140.775616 245.751427 
L 144.257625 245.880863 
L 151.544624 245.895774 
L 158.690043 245.719686 
L 162.716254 245.413982 
L 165.450538 244.993857 
L 167.53001 244.456633 
L 169.220134 243.794914 
L 170.658066 242.996056 
L 171.932296 242.034246 
L 173.095915 240.875014 
L 174.184319 239.471972 
L 175.224055 237.760499 
L 176.228396 235.668583 
L 177.215039 233.083252 
L 178.188409 229.88612 
L 179.15293 225.926446 
L 180.113026 221.011266 
L 181.073123 214.892749 
L 182.033219 207.291566 
L 183.002164 197.780965 
L 183.984383 185.856605 
L 184.988724 170.836057 
L 186.032884 151.738714 
L 187.178805 126.474157 
L 190.160856 57.856775 
L 190.519233 54.932385 
L 190.687361 54.603283 
L 190.709483 54.615783 
L 190.811244 54.84991 
L 190.983796 55.94371 
L 191.235987 59.236476 
L 191.572242 66.959124 
L 192.014683 82.878327 
L 192.669496 115.707736 
L 194.085306 187.881572 
L 194.740118 209.450977 
L 195.341838 222.48701 
L 195.92586 230.643677 
L 196.505457 235.823318 
L 197.089479 239.1626 
L 197.68235 241.340281 
L 198.297342 242.796895 
L 198.94773 243.789189 
L 199.664484 244.486212 
L 200.505122 244.99154 
L 201.571404 245.363584 
L 203.066854 245.633636 
L 205.456034 245.815092 
L 210.083965 245.908201 
L 218.654043 245.847869 
L 224.246495 245.615536 
L 227.640015 245.264975 
L 230.069015 244.799777 
L 231.971511 244.215327 
L 233.5466 243.50332 
L 234.913742 242.642923 
L 236.139303 241.607873 
L 237.267527 240.361264 
L 238.333809 238.84585 
L 239.355848 236.998761 
L 240.351339 234.728451 
L 241.329133 231.928345 
L 242.298079 228.455233 
L 243.258175 224.158686 
L 244.218272 218.804766 
L 245.178368 212.143384 
L 246.142889 203.832314 
L 247.116259 193.438035 
L 248.102902 180.423766 
L 249.116091 164.002026 
L 250.186798 142.866164 
L 251.416783 113.871759 
L 253.593592 61.665395 
L 254.071428 55.434321 
L 254.35459 53.96552 
L 254.438654 53.91945 
L 254.478474 53.965336 
L 254.602357 54.399223 
L 254.801455 56.074244 
L 255.080193 60.597278 
L 255.447419 70.626924 
L 255.938528 90.854072 
L 256.801288 137.624774 
L 257.774658 186.033638 
L 258.433894 208.400643 
L 259.035614 221.843712 
L 259.619636 230.256095 
L 260.194809 235.559641 
L 260.774406 238.984202 
L 261.367277 241.233249 
L 261.977845 242.724969 
L 262.623809 243.741695 
L 263.336138 244.456063 
L 264.163503 244.969679 
L 265.212087 245.348997 
L 266.672142 245.624122 
L 268.981683 245.809794 
L 273.414939 245.908392 
L 281.985017 245.860786 
L 287.820811 245.637335 
L 291.311669 245.294144 
L 293.784913 244.837005 
L 295.713955 244.260787 
L 297.306742 243.55726 
L 298.682733 242.70856 
L 299.912718 241.68887 
L 301.045367 240.459001 
L 302.116073 238.9619 
L 303.142536 237.134711 
L 304.138028 234.897132 
L 305.115822 232.136968 
L 306.084767 228.712801 
L 307.044864 224.47594 
L 308.00496 219.195109 
L 308.965057 212.622679 
L 309.929578 204.419409 
L 310.898523 194.206379 
L 311.885166 181.356811 
L 312.893931 165.202019 
L 313.955789 144.473129 
L 315.159228 116.350832 
L 317.517437 59.880564 
L 317.968727 54.409713 
L 318.234191 53.239264 
L 318.309406 53.239622 
L 318.340377 53.285674 
L 318.468685 53.773961 
L 318.672208 55.588939 
L 318.95537 60.397254 
L 319.331444 71.077751 
L 319.835827 92.546735 
L 320.809197 146.136871 
L 321.685229 188.436851 
L 322.335617 209.841402 
L 322.932912 222.742405 
L 323.51251 230.80751 
L 324.087683 235.929042 
L 324.66728 239.232289 
L 325.260151 241.400592 
L 325.870719 242.838654 
L 326.521107 243.824361 
L 327.237861 244.51486 
L 328.078499 245.014049 
L 329.149205 245.381576 
L 330.657929 245.647632 
L 333.082504 245.825194 
L 337.843167 245.914847 
L 346.616768 245.849251 
L 352.156126 245.614805 
L 355.527525 245.262143 
L 357.943252 244.794669 
L 359.832474 244.209327 
L 361.403139 243.494047 
L 362.765857 242.630405 
L 363.986993 241.592373 
L 365.115217 240.337722 
L 366.181499 238.81196 
L 367.203538 236.951623 
L 368.199029 234.664297 
L 369.176824 231.842341 
L 370.141345 228.358917 
L 371.101441 224.030687 
L 372.061538 218.63567 
L 373.021634 211.921083 
L 373.986155 203.540925 
L 374.959525 193.056629 
L 375.946168 179.924764 
L 376.959357 163.347936 
L 378.025639 142.099946 
L 379.2512 112.938488 
L 381.428009 60.239797 
L 381.901421 54.03227 
L 382.184583 52.569542 
L 382.264222 52.529261 
L 382.304042 52.575478 
L 382.427925 53.015025 
L 382.627024 54.715186 
L 382.905761 59.310572 
L 383.272987 69.506394 
L 383.764096 90.067171 
L 384.640129 138.263238 
L 385.591377 185.972504 
L 386.246189 208.381213 
L 386.847909 221.912425 
L 387.427506 230.300158 
L 388.002679 235.621005 
L 388.582277 239.046112 
L 389.170723 241.275548 
L 389.781291 242.763667 
L 390.427255 243.775054 
L 391.13516 244.480189 
L 391.962524 244.989562 
L 393.011109 245.364494 
L 394.475588 245.635972 
L 396.807251 245.818695 
L 401.33342 245.914764 
L 410.111445 245.863785 
L 415.933966 245.638827 
L 419.407126 245.295119 
L 421.871521 244.837201 
L 423.791714 244.261119 
L 425.380077 243.556971 
L 426.751643 242.708251 
L 427.981629 241.68525 
L 429.114277 240.450884 
L 430.180559 238.954764 
L 431.207022 237.121478 
L 432.202514 234.875722 
L 433.180308 232.104626 
L 434.149253 228.665858 
L 435.10935 224.409635 
L 436.065022 219.130236 
L 437.025118 212.530167 
L 437.985215 204.331372 
L 438.95416 194.077349 
L 439.936379 181.233667 
L 440.945144 165.009677 
L 442.002577 144.267118 
L 443.197167 116.194123 
L 445.604045 58.137244 
L 446.042062 52.923067 
L 446.298677 51.836309 
L 446.373892 51.847771 
L 446.400439 51.890203 
L 446.528747 52.389552 
L 446.732269 54.239783 
L 447.015431 59.137062 
L 447.391506 70.010792 
L 447.895889 91.850951 
L 448.895805 147.669255 
L 449.749715 188.975056 
L 450.395679 210.218483 
L 450.992974 223.064296 
L 451.572572 231.062202 
L 452.147745 236.123724 
L 452.727342 239.378753 
L 453.315788 241.497301 
L 453.926357 242.912077 
L 454.576744 243.879674 
L 455.293499 244.556043 
L 456.13856 245.045948 
L 457.22254 245.406737 
L 458.75781 245.666306 
L 461.2576 245.838254 
L 466.261606 245.921987 
L 475.243154 245.845844 
L 480.645356 245.605698 
L 483.954813 245.24835 
L 486.335144 244.776745 
L 488.206669 244.185676 
L 489.76406 243.464562 
L 491.117929 242.593728 
L 492.334641 241.545025 
L 493.458441 240.27857 
L 494.520299 238.739771 
L 495.542337 236.855981 
L 496.533404 234.550592 
L 497.511199 231.694194 
L 498.475719 228.167238 
L 499.435816 223.783701 
L 500.391488 218.346312 
L 501.351585 211.549141 
L 502.311681 203.106905 
L 503.280626 192.551919 
L 504.267269 179.273404 
L 505.280459 162.506689 
L 506.346741 141.010929 
L 507.572302 111.514247 
L 509.218182 69.227075 
L 509.218182 69.227075 
" clip-path="url(#p320c756e58)" style="fill: none; stroke: #1f77b4; stroke-width: 1.5; stroke-linecap: square"/>
   </g>
   <g id="patch_3">
    <path d="M 44.66 246.04 
L 44.66 32.4 
" style="fill: none; stroke: #000000; stroke-width: 0.8; stroke-linejoin: miter; stroke-linecap: square"/>
   </g>
   <g id="patch_4">
    <path d="M 531.34 246.04 
L 531.34 32.4 
" style="fill: none; stroke: #000000; stroke-width: 0.8; stroke-linejoin: miter; stroke-linecap: square"/>
   </g>
   <g id="patch_5">
    <path d="M 44.66 246.04 
L 531.34 246.04 
" style="fill: none; stroke: #000000; stroke-width: 0.8; stroke-linejoin: miter; stroke-linecap: square"/>
   </g>
   <g id="patch_6">
    <path d="M 44.66 32.4 
L 531.34 32.4 
" style="fill: none; stroke: #000000; stroke-width: 0.8; stroke-linejoin: miter; stroke-linecap: square"/>
   </g>
  </g>
  <g id="axes_2">
   <g id="matplotlib.axis_3">
    <g id="ytick_8">
     <g id="line2d_21">
      <defs>
       <path id="m1b0c5d08a5" d="M 0 0 
L 3.5 0 
" style="stroke: #ff7f0e; stroke-width: 0.8"/>
      </defs>
      <g>
       <use xlink:href="#m1b0c5d08a5" x="531.34" y="246.04" style="fill: #ff7f0e; stroke: #ff7f0e; stroke-width: 0.8"/>
      </g>
     </g>
     <g id="text_16">
      <!-- 0 -->
      <g style="fill: #ff7f0e" transform="translate(538.34 249.839219) scale(0.1 -0.1)">
       <use xlink:href="#DejaVuSans-30"/>
      </g>
     </g>
    </g>
    <g id="ytick_9">
     <g id="line2d_22">
      <g>
       <use xlink:href="#m1b0c5d08a5" x="531.34" y="213.320943" style="fill: #ff7f0e; stroke: #ff7f0e; stroke-width: 0.8"/>
      </g>
     </g>
     <g id="text_17">
      <!-- 5 -->
      <g style="fill: #ff7f0e" transform="translate(538.34 217.120162) scale(0.1 -0.1)">
       <use xlink:href="#DejaVuSans-35"/>
      </g>
     </g>
    </g>
    <g id="ytick_10">
     <g id="line2d_23">
      <g>
       <use xlink:href="#m1b0c5d08a5" x="531.34" y="180.601886" style="fill: #ff7f0e; stroke: #ff7f0e; stroke-width: 0.8"/>
      </g>
     </g>
     <g id="text_18">
      <!-- 10 -->
      <g style="fill: #ff7f0e" transform="translate(538.34 184.401105) scale(0.1 -0.1)">
       <use xlink:href="#DejaVuSans-31"/>
       <use xlink:href="#DejaVuSans-30" x="63.623047"/>
      </g>
     </g>
    </g>
    <g id="ytick_11">
     <g id="line2d_24">
      <g>
       <use xlink:href="#m1b0c5d08a5" x="531.34" y="147.882829" style="fill: #ff7f0e; stroke: #ff7f0e; stroke-width: 0.8"/>
      </g>
     </g>
     <g id="text_19">
      <!-- 15 -->
      <g style="fill: #ff7f0e" transform="translate(538.34 151.682047) scale(0.1 -0.1)">
       <use xlink:href="#DejaVuSans-31"/>
       <use xlink:href="#DejaVuSans-35" x="63.623047"/>
      </g>
     </g>
    </g>
    <g id="ytick_12">
     <g id="line2d_25">
      <g>
       <use xlink:href="#m1b0c5d08a5" x="531.34" y="115.163772" style="fill: #ff7f0e; stroke: #ff7f0e; stroke-width: 0.8"/>
      </g>
     </g>
     <g id="text_20">
      <!-- 20 -->
      <g style="fill: #ff7f0e" transform="translate(538.34 118.96299) scale(0.1 -0.1)">
       <use xlink:href="#DejaVuSans-32"/>
       <use xlink:href="#DejaVuSans-30" x="63.623047"/>
      </g>
     </g>
    </g>
    <g id="ytick_13">
     <g id="line2d_26">
      <g>
       <use xlink:href="#m1b0c5d08a5" x="531.34" y="82.444714" style="fill: #ff7f0e; stroke: #ff7f0e; stroke-width: 0.8"/>
      </g>
     </g>
     <g id="text_21">
      <!-- 25 -->
      <g style="fill: #ff7f0e" transform="translate(538.34 86.243933) scale(0.1 -0.1)">
       <use xlink:href="#DejaVuSans-32"/>
       <use xlink:href="#DejaVuSans-35" x="63.623047"/>
      </g>
     </g>
    </g>
    <g id="ytick_14">
     <g id="line2d_27">
      <g>
       <use xlink:href="#m1b0c5d08a5" x="531.34" y="49.725657" style="fill: #ff7f0e; stroke: #ff7f0e; stroke-width: 0.8"/>
      </g>
     </g>
     <g id="text_22">
      <!-- 30 -->
      <g style="fill: #ff7f0e" transform="translate(538.34 53.524876) scale(0.1 -0.1)">
       <use xlink:href="#DejaVuSans-33"/>
       <use xlink:href="#DejaVuSans-30" x="63.623047"/>
      </g>
     </g>
    </g>
    <g id="text_23">
     <!-- Predators -->
     <g style="fill: #ff7f0e" transform="translate(562.663438 163.084844) rotate(-90) scale(0.1 -0.1)">
      <defs>
       <path id="DejaVuSans-64" d="M 2906 2969 
L 2906 4863 
L 3481 4863 
L 3481 0 
L 2906 0 
L 2906 525 
Q 2725 213 2448 61 
Q 2172 -91 1784 -91 
Q 1150 -91 751 415 
Q 353 922 353 1747 
Q 353 2572 751 3078 
Q 1150 3584 1784 3584 
Q 2172 3584 2448 3432 
Q 2725 3281 2906 2969 
z
M 947 1747 
Q 947 1113 1208 752 
Q 1469 391 1925 391 
Q 2381 391 2643 752 
Q 2906 1113 2906 1747 
Q 2906 2381 2643 2742 
Q 2381 3103 1925 3103 
Q 1469 3103 1208 2742 
Q 947 2381 947 1747 
z
" transform="scale(0.015625)"/>
       <path id="DejaVuSans-61" d="M 2194 1759 
Q 1497 1759 1228 1600 
Q 959 1441 959 1056 
Q 959 750 1161 570 
Q 1363 391 1709 391 
Q 2188 391 2477 730 
Q 2766 1069 2766 1631 
L 2766 1759 
L 2194 1759 
z
M 3341 1997 
L 3341 0 
L 2766 0 
L 2766 531 
Q 2569 213 2275 61 
Q 1981 -91 1556 -91 
Q 1019 -91 701 211 
Q 384 513 384 1019 
Q 384 1609 779 1909 
Q 1175 2209 1959 2209 
L 2766 2209 
L 2766 2266 
Q 2766 2663 2505 2880 
Q 2244 3097 1772 3097 
Q 1472 3097 1187 3025 
Q 903 2953 641 2809 
L 641 3341 
Q 956 3463 1253 3523 
Q 1550 3584 1831 3584 
Q 2591 3584 2966 3190 
Q 3341 2797 3341 1997 
z
" transform="scale(0.015625)"/>
       <path id="DejaVuSans-6f" d="M 1959 3097 
Q 1497 3097 1228 2736 
Q 959 2375 959 1747 
Q 959 1119 1226 758 
Q 1494 397 1959 397 
Q 2419 397 2687 759 
Q 2956 1122 2956 1747 
Q 2956 2369 2687 2733 
Q 2419 3097 1959 3097 
z
M 1959 3584 
Q 2709 3584 3137 3096 
Q 3566 2609 3566 1747 
Q 3566 888 3137 398 
Q 2709 -91 1959 -91 
Q 1206 -91 779 398 
Q 353 888 353 1747 
Q 353 2609 779 3096 
Q 1206 3584 1959 3584 
z
" transform="scale(0.015625)"/>
       <path id="DejaVuSans-73" d="M 2834 3397 
L 2834 2853 
Q 2591 2978 2328 3040 
Q 2066 3103 1784 3103 
Q 1356 3103 1142 2972 
Q 928 2841 928 2578 
Q 928 2378 1081 2264 
Q 1234 2150 1697 2047 
L 1894 2003 
Q 2506 1872 2764 1633 
Q 3022 1394 3022 966 
Q 3022 478 2636 193 
Q 2250 -91 1575 -91 
Q 1294 -91 989 -36 
Q 684 19 347 128 
L 347 722 
Q 666 556 975 473 
Q 1284 391 1588 391 
Q 1994 391 2212 530 
Q 2431 669 2431 922 
Q 2431 1156 2273 1281 
Q 2116 1406 1581 1522 
L 1381 1569 
Q 847 1681 609 1914 
Q 372 2147 372 2553 
Q 372 3047 722 3315 
Q 1072 3584 1716 3584 
Q 2034 3584 2315 3537 
Q 2597 3491 2834 3397 
z
" transform="scale(0.015625)"/>
      </defs>
      <use xlink:href="#DejaVuSans-50"/>
      <use xlink:href="#DejaVuSans-72" x="58.552734"/>
      <use xlink:href="#DejaVuSans-65" x="97.416016"/>
      <use xlink:href="#DejaVuSans-64" x="158.939453"/>
      <use xlink:href="#DejaVuSans-61" x="222.416016"/>
      <use xlink:href="#DejaVuSans-74" x="283.695312"/>
      <use xlink:href="#DejaVuSans-6f" x="322.904297"/>
      <use xlink:href="#DejaVuSans-72" x="384.085938"/>
      <use xlink:href="#DejaVuSans-73" x="425.199219"/>
     </g>
    </g>
   </g>
   <g id="line2d_28">
    <path d="M 66.781818 180.601886 
L 67.272927 177.230333 
L 67.671124 175.828437 
L 67.976408 175.42149 
L 68.206478 175.429534 
L 68.458669 175.695254 
L 68.817046 176.443018 
L 69.352399 178.142761 
L 70.219583 181.742871 
L 75.179344 203.549402 
L 76.878317 209.51141 
L 78.555168 214.601974 
L 80.227594 218.98376 
L 81.908869 222.778371 
L 83.607841 226.074752 
L 85.33336 228.945533 
L 87.094275 231.449809 
L 88.903858 233.640694 
L 90.770958 235.555418 
L 92.717697 237.235453 
L 94.766198 238.710342 
L 96.943007 240.003367 
L 99.283518 241.13371 
L 101.827553 242.113356 
L 104.623779 242.949015 
L 107.712015 243.636811 
L 111.07899 244.157048 
L 114.516755 244.465612 
L 117.485532 244.519241 
L 119.635795 244.349562 
L 121.131245 244.020413 
L 122.224073 243.56092 
L 123.082408 242.96247 
L 123.803587 242.185216 
L 124.440702 241.162872 
L 125.033572 239.771784 
L 125.599897 237.843478 
L 126.152948 235.126212 
L 126.710423 231.200828 
L 127.294445 225.383834 
L 127.949257 216.440935 
L 128.980144 198.662118 
L 129.882723 184.72724 
L 130.453472 179.045117 
L 130.91361 176.429108 
L 131.280836 175.429174 
L 131.55515 175.199409 
L 131.77637 175.279958 
L 132.055108 175.659914 
L 132.457729 176.637742 
L 133.068297 178.780766 
L 134.125731 183.438466 
L 137.674106 199.494929 
L 139.412898 206.131377 
L 141.098597 211.707072 
L 142.771024 216.486976 
L 144.447874 220.619442 
L 146.137998 224.203656 
L 147.845819 227.313741 
L 149.584612 230.025781 
L 151.363224 232.393491 
L 153.194928 234.465393 
L 155.092999 236.279366 
L 157.079559 237.871701 
L 159.176728 239.268183 
L 161.419903 240.493598 
L 163.840054 241.560523 
L 166.48585 242.481244 
L 169.401535 243.257384 
L 172.618079 243.880738 
L 176.073542 244.322922 
L 179.41397 244.531458 
L 182.068614 244.48754 
L 183.926866 244.248085 
L 185.23649 243.865893 
L 186.223133 243.351975 
L 187.015102 242.689919 
L 187.696461 241.825024 
L 188.311454 240.672468 
L 188.891051 239.089265 
L 189.448527 236.883849 
L 190.001578 233.73148 
L 190.563477 229.15759 
L 191.165197 222.294706 
L 191.886375 211.249174 
L 193.678261 182.499795 
L 194.20919 177.897741 
L 194.642782 175.834892 
L 194.983461 175.115764 
L 195.235652 175.001995 
L 195.465721 175.15472 
L 195.77543 175.675508 
L 196.231144 176.939892 
L 196.934625 179.634831 
L 198.310616 185.974925 
L 200.89447 197.74136 
L 202.655384 204.689535 
L 204.345508 210.474457 
L 206.017934 215.423627 
L 207.69036 219.693457 
L 209.37606 223.399019 
L 211.079457 226.616098 
L 212.8094 229.416258 
L 214.579163 231.863268 
L 216.397595 234.001916 
L 218.277968 235.873147 
L 220.242406 237.51586 
L 222.313028 238.957725 
L 224.516384 240.220611 
L 226.892291 241.324461 
L 229.480569 242.279367 
L 232.329888 243.090624 
L 235.480066 243.753295 
L 238.904558 244.244737 
L 242.342323 244.51685 
L 245.222612 244.533172 
L 247.266689 244.336561 
L 248.691348 243.987707 
L 249.744357 243.507644 
L 250.576146 242.885788 
L 251.279627 242.077705 
L 251.907893 241.005462 
L 252.491915 239.548896 
L 253.053814 237.515547 
L 253.606865 234.623699 
L 254.164341 230.44381 
L 254.752787 224.215587 
L 255.425297 214.517485 
L 257.655199 179.90621 
L 258.141883 176.575856 
L 258.535656 175.20773 
L 258.836515 174.821353 
L 259.06216 174.839075 
L 259.314352 175.116534 
L 259.677153 175.896613 
L 260.216931 177.651964 
L 261.101812 181.395226 
L 265.82708 202.487157 
L 267.530477 208.61151 
L 269.207328 213.827812 
L 270.879754 218.318268 
L 272.561029 222.207081 
L 274.255577 225.577152 
L 275.976672 228.513387 
L 277.728737 231.06996 
L 279.529471 233.308721 
L 281.387722 235.267216 
L 283.321189 236.983893 
L 285.351992 238.490485 
L 287.506679 239.811972 
L 289.820644 240.968911 
L 292.333708 241.974354 
L 295.090114 242.834823 
L 298.138531 243.550409 
L 301.487807 244.105861 
L 304.991938 244.462424 
L 308.146541 244.568916 
L 310.487053 244.439444 
L 312.101962 244.139935 
L 313.265581 243.706244 
L 314.159312 243.140428 
L 314.898188 242.408723 
L 315.548576 241.442471 
L 316.145871 240.138367 
L 316.712195 238.33957 
L 317.265246 235.79701 
L 317.818297 232.136858 
L 318.389046 226.765396 
L 319.017311 218.576739 
L 319.866798 204.172758 
L 321.04369 184.771191 
L 321.618863 178.754276 
L 322.083426 175.954892 
L 322.455076 174.867778 
L 322.733814 174.603736 
L 322.955034 174.671067 
L 323.224923 175.026647 
L 323.618696 175.968834 
L 324.211566 178.039933 
L 325.224756 182.513159 
L 328.96338 199.561706 
L 330.693324 206.167153 
L 332.374599 211.728896 
L 334.047025 216.508398 
L 335.723876 220.639589 
L 337.409575 224.213517 
L 339.117396 227.323173 
L 340.856189 230.034678 
L 342.634801 232.40183 
L 344.466506 234.473202 
L 346.364577 236.286707 
L 348.351136 237.878669 
L 350.448305 239.27491 
L 352.69148 240.500273 
L 355.116055 241.569167 
L 357.766276 242.491547 
L 360.690809 243.270544 
L 363.925051 243.898648 
L 367.411485 244.348144 
L 370.813855 244.56781 
L 373.543714 244.533912 
L 375.44621 244.301323 
L 376.777956 243.924851 
L 377.773448 243.418009 
L 378.569842 242.763813 
L 379.2512 241.911072 
L 379.866193 240.771824 
L 380.441366 239.216686 
L 380.998841 237.029355 
L 381.547468 233.920361 
L 382.104943 229.399753 
L 382.697814 222.64682 
L 383.401295 211.84236 
L 385.281668 181.383395 
L 385.799324 177.043378 
L 386.224067 175.123112 
L 386.555898 174.483115 
L 386.79924 174.405713 
L 387.029309 174.584266 
L 387.347867 175.159599 
L 387.816854 176.525836 
L 388.55573 179.457915 
L 390.104273 186.742124 
L 392.44036 197.423653 
L 394.19685 204.407996 
L 395.88255 210.221702 
L 397.554976 215.208248 
L 399.227402 219.509657 
L 400.908677 223.233168 
L 402.612074 226.474775 
L 404.342017 229.296158 
L 406.107356 231.755956 
L 407.921363 233.906759 
L 409.797312 235.789543 
L 411.757325 237.443285 
L 413.823524 238.895695 
L 416.022454 240.168693 
L 418.389512 241.280474 
L 420.968942 242.243923 
L 423.809412 243.064508 
L 426.955166 243.738686 
L 430.397355 244.246715 
L 433.901486 244.541791 
L 436.896811 244.581872 
L 439.0338 244.402449 
L 440.511552 244.066842 
L 441.591107 243.600821 
L 442.436169 242.996373 
L 443.144075 242.214195 
L 443.77234 241.180386 
L 444.356362 239.773621 
L 444.913838 237.823368 
L 445.462464 235.047957 
L 446.015515 231.025338 
L 446.595113 225.046573 
L 447.245501 215.837521 
L 448.311783 196.843439 
L 449.165694 183.509833 
L 449.723169 177.931777 
L 450.174459 175.372083 
L 450.53726 174.402394 
L 450.807149 174.195216 
L 451.028369 174.294408 
L 451.311531 174.711351 
L 451.727426 175.78079 
L 452.360116 178.104447 
L 453.492765 183.260458 
L 456.660641 197.904532 
L 458.403857 204.781038 
L 460.089557 210.546327 
L 461.757558 215.477308 
L 463.429985 219.742129 
L 465.115684 223.442587 
L 466.819081 226.654813 
L 468.549025 229.450506 
L 470.318788 231.893468 
L 472.137219 234.028508 
L 474.017593 235.896561 
L 475.98203 237.536515 
L 478.052653 238.976048 
L 480.260432 240.239349 
L 482.640764 241.343251 
L 485.233467 242.298184 
L 488.091634 243.111037 
L 491.25951 243.777651 
L 494.723822 244.27722 
L 498.236801 244.562005 
L 501.210004 244.591409 
L 503.320446 244.4041 
L 504.776076 244.063477 
L 505.842359 243.592943 
L 506.678572 242.98371 
L 507.382053 242.193148 
L 508.010318 241.140819 
L 508.59434 239.706043 
L 509.151816 237.713427 
L 509.218182 237.422844 
L 509.218182 237.422844 
" clip-path="url(#p320c756e58)" style="fill: none; stroke: #ff7f0e; stroke-width: 1.5; stroke-linecap: square"/>
   </g>
   <g id="patch_7">
    <path d="M 44.66 246.04 
L 44.66 32.4 
" style="fill: none; stroke: #000000; stroke-width: 0.8; stroke-linejoin: miter; stroke-linecap: square"/>
   </g>
   <g id="patch_8">
    <path d="M 531.34 246.04 
L 531.34 32.4 
" style="fill: none; stroke: #000000; stroke-width: 0.8; stroke-linejoin: miter; stroke-linecap: square"/>
   </g>
   <g id="patch_9">
    <path d="M 44.66 246.04 
L 531.34 246.04 
" style="fill: none; stroke: #000000; stroke-width: 0.8; stroke-linejoin: miter; stroke-linecap: square"/>
   </g>
   <g id="patch_10">
    <path d="M 44.66 32.4 
L 531.34 32.4 
" style="fill: none; stroke: #000000; stroke-width: 0.8; stroke-linejoin: miter; stroke-linecap: square"/>
   </g>
  </g>
  <g id="text_24">
   <!-- Predator and Prey -->
   <g transform="translate(234.298125 14.878125) scale(0.12 -0.12)">
    <defs>
     <path id="DejaVuSans-20" transform="scale(0.015625)"/>
     <path id="DejaVuSans-6e" d="M 3513 2113 
L 3513 0 
L 2938 0 
L 2938 2094 
Q 2938 2591 2744 2837 
Q 2550 3084 2163 3084 
Q 1697 3084 1428 2787 
Q 1159 2491 1159 1978 
L 1159 0 
L 581 0 
L 581 3500 
L 1159 3500 
L 1159 2956 
Q 1366 3272 1645 3428 
Q 1925 3584 2291 3584 
Q 2894 3584 3203 3211 
Q 3513 2838 3513 2113 
z
" transform="scale(0.015625)"/>
    </defs>
    <use xlink:href="#DejaVuSans-50"/>
    <use xlink:href="#DejaVuSans-72" x="58.552734"/>
    <use xlink:href="#DejaVuSans-65" x="97.416016"/>
    <use xlink:href="#DejaVuSans-64" x="158.939453"/>
    <use xlink:href="#DejaVuSans-61" x="222.416016"/>
    <use xlink:href="#DejaVuSans-74" x="283.695312"/>
    <use xlink:href="#DejaVuSans-6f" x="322.904297"/>
    <use xlink:href="#DejaVuSans-72" x="384.085938"/>
    <use xlink:href="#DejaVuSans-20" x="425.199219"/>
    <use xlink:href="#DejaVuSans-61" x="456.986328"/>
    <use xlink:href="#DejaVuSans-6e" x="518.265625"/>
    <use xlink:href="#DejaVuSans-64" x="581.644531"/>
    <use xlink:href="#DejaVuSans-20" x="645.121094"/>
    <use xlink:href="#DejaVuSans-50" x="676.908203"/>
    <use xlink:href="#DejaVuSans-72" x="735.460938"/>
    <use xlink:href="#DejaVuSans-65" x="774.324219"/>
    <use xlink:href="#DejaVuSans-79" x="835.847656"/>
   </g>
  </g>
 </g>
 <defs>
  <clipPath id="p320c756e58">
   <rect x="44.66" y="32.4" width="486.68" height="213.64"/>
  </clipPath>
 </defs>
</svg>
