<svg xmlns="http://www.w3.org/2000/svg" xmlns:xlink="http://www.w3.org/1999/xlink" width="960" height="480" viewBox="0 0 720 360"><defs><style>*{stroke-linejoin:round;stroke-linecap:butt}</style></defs><g id="figure_1"><path id="patch_1" d="M0 360h720V0H0z" style="fill:#fff"/><g id="axes_1"><path id="patch_2" d="M63.92 318.04H470.8V36.36H63.92z" style="fill:#fff"/><g id="matplotlib.axis_1"><g id="xtick_1"><path id="line2d_1" d="M82.415 318.04V36.36" clip-path="url(#pac7e4b81dc)" style="fill:none;stroke-dasharray:.8,1.32;stroke-dashoffset:0;stroke:#b0b0b0;stroke-width:.8"/><g id="line2d_2"><defs><path id="mb99f32b065" d="M0 0v3.5" style="stroke:#000;stroke-width:.8"/></defs><use xlink:href="#mb99f32b065" x="82.415" y="318.04" style="stroke:#000;stroke-width:.8"/></g><g id="text_1" transform="matrix(.1 0 0 -.1 69.69 332.638)"><defs><path id="DejaVuSans-31" d="M794 531h1031v3560L703 3866v575l1116 225h631V531h1031V0H794v531z" transform="scale(.01563)"/><path id="DejaVuSans-39" d="M703 97v575q238-113 481-172 244-59 479-59 625 0 954 420 330 420 377 1277-181-269-460-413-278-144-615-144-700 0-1108 423-408 424-408 1159 0 718 425 1152 425 435 1131 435 810 0 1236-621 427-620 427-1801 0-1103-524-1761Q2575-91 1691-91q-238 0-482 47Q966 3 703 97zm1256 1978q425 0 673 290 249 291 249 798 0 503-249 795-248 292-673 292t-673-292q-248-292-248-795 0-507 248-798 248-290 673-290z" transform="scale(.01563)"/><path id="DejaVuSans-30" d="M2034 4250q-487 0-733-480-245-479-245-1442 0-959 245-1439 246-480 733-480 491 0 736 480 246 480 246 1439 0 963-246 1442-245 480-736 480zm0 500q785 0 1199-621 414-620 414-1801 0-1178-414-1799Q2819-91 2034-91q-784 0-1198 620-414 621-414 1799 0 1181 414 1801 414 621 1198 621z" transform="scale(.01563)"/></defs><use xlink:href="#DejaVuSans-31"/><use xlink:href="#DejaVuSans-39" x="63.623"/><use xlink:href="#DejaVuSans-30" x="127.246"/><use xlink:href="#DejaVuSans-30" x="190.869"/></g></g><g id="xtick_2"><path id="line2d_3" d="M128.767 318.04V36.36" clip-path="url(#pac7e4b81dc)" style="fill:none;stroke-dasharray:.8,1.32;stroke-dashoffset:0;stroke:#b0b0b0;stroke-width:.8"/><use xlink:href="#mb99f32b065" id="line2d_4" x="128.767" y="318.04" style="stroke:#000;stroke-width:.8"/><g id="text_2" transform="matrix(.1 0 0 -.1 116.042 332.638)"><defs><path id="DejaVuSans-32" d="M1228 531h2203V0H469v531q359 372 979 998 621 627 780 809 303 340 423 576 121 236 121 464 0 372-261 606-261 235-680 235-297 0-627-103-329-103-704-313v638q381 153 712 231 332 78 607 78 725 0 1156-363 431-362 431-968 0-288-108-546-107-257-392-607-78-91-497-524-418-433-1181-1211z" transform="scale(.01563)"/><path id="DejaVuSans-35" d="M691 4666h2478v-532H1269V2991q137 47 274 70 138 23 276 23 781 0 1237-428 457-428 457-1159 0-753-469-1171Q2575-91 1722-91q-294 0-599 50Q819 9 494 109v635q281-153 581-228t634-75q541 0 856 284 316 284 316 772 0 487-316 771-315 285-856 285-253 0-505-56-251-56-513-175v2344z" transform="scale(.01563)"/></defs><use xlink:href="#DejaVuSans-31"/><use xlink:href="#DejaVuSans-39" x="63.623"/><use xlink:href="#DejaVuSans-32" x="127.246"/><use xlink:href="#DejaVuSans-35" x="190.869"/></g></g><g id="xtick_3"><path id="line2d_5" d="M175.119 318.04V36.36" clip-path="url(#pac7e4b81dc)" style="fill:none;stroke-dasharray:.8,1.32;stroke-dashoffset:0;stroke:#b0b0b0;stroke-width:.8"/><use xlink:href="#mb99f32b065" id="line2d_6" x="175.119" y="318.04" style="stroke:#000;stroke-width:.8"/><g id="text_3" transform="matrix(.1 0 0 -.1 162.394 332.638)"><use xlink:href="#DejaVuSans-31"/><use xlink:href="#DejaVuSans-39" x="63.623"/><use xlink:href="#DejaVuSans-35" x="127.246"/><use xlink:href="#DejaVuSans-30" x="190.869"/></g></g><g id="xtick_4"><path id="line2d_7" d="M221.471 318.04V36.36" clip-path="url(#pac7e4b81dc)" style="fill:none;stroke-dasharray:.8,1.32;stroke-dashoffset:0;stroke:#b0b0b0;stroke-width:.8"/><use xlink:href="#mb99f32b065" id="line2d_8" x="221.471" y="318.04" style="stroke:#000;stroke-width:.8"/><g id="text_4" transform="matrix(.1 0 0 -.1 208.746 332.638)"><defs><path id="DejaVuSans-37" d="M525 4666h3000v-269L1831 0h-659l1594 4134H525v532z" transform="scale(.01563)"/></defs><use xlink:href="#DejaVuSans-31"/><use xlink:href="#DejaVuSans-39" x="63.623"/><use xlink:href="#DejaVuSans-37" x="127.246"/><use xlink:href="#DejaVuSans-35" x="190.869"/></g></g><g id="xtick_5"><path id="line2d_9" d="M267.824 318.04V36.36" clip-path="url(#pac7e4b81dc)" style="fill:none;stroke-dasharray:.8,1.32;stroke-dashoffset:0;stroke:#b0b0b0;stroke-width:.8"/><use xlink:href="#mb99f32b065" id="line2d_10" x="267.824" y="318.04" style="stroke:#000;stroke-width:.8"/><g id="text_5" transform="matrix(.1 0 0 -.1 255.099 332.638)"><use xlink:href="#DejaVuSans-32"/><use xlink:href="#DejaVuSans-30" x="63.623"/><use xlink:href="#DejaVuSans-30" x="127.246"/><use xlink:href="#DejaVuSans-30" x="190.869"/></g></g><g id="xtick_6"><path id="line2d_11" d="M314.176 318.04V36.36" clip-path="url(#pac7e4b81dc)" style="fill:none;stroke-dasharray:.8,1.32;stroke-dashoffset:0;stroke:#b0b0b0;stroke-width:.8"/><use xlink:href="#mb99f32b065" id="line2d_12" x="314.176" y="318.04" style="stroke:#000;stroke-width:.8"/><g id="text_6" transform="matrix(.1 0 0 -.1 301.45 332.638)"><use xlink:href="#DejaVuSans-32"/><use xlink:href="#DejaVuSans-30" x="63.623"/><use xlink:href="#DejaVuSans-32" x="127.246"/><use xlink:href="#DejaVuSans-35" x="190.869"/></g></g><g id="xtick_7"><path id="line2d_13" d="M360.528 318.04V36.36" clip-path="url(#pac7e4b81dc)" style="fill:none;stroke-dasharray:.8,1.32;stroke-dashoffset:0;stroke:#b0b0b0;stroke-width:.8"/><use xlink:href="#mb99f32b065" id="line2d_14" x="360.528" y="318.04" style="stroke:#000;stroke-width:.8"/><g id="text_7" transform="matrix(.1 0 0 -.1 347.803 332.638)"><use xlink:href="#DejaVuSans-32"/><use xlink:href="#DejaVuSans-30" x="63.623"/><use xlink:href="#DejaVuSans-35" x="127.246"/><use xlink:href="#DejaVuSans-30" x="190.869"/></g></g><g id="xtick_8"><path id="line2d_15" d="M406.88 318.04V36.36" clip-path="url(#pac7e4b81dc)" style="fill:none;stroke-dasharray:.8,1.32;stroke-dashoffset:0;stroke:#b0b0b0;stroke-width:.8"/><use xlink:href="#mb99f32b065" id="line2d_16" x="406.88" y="318.04" style="stroke:#000;stroke-width:.8"/><g id="text_8" transform="matrix(.1 0 0 -.1 394.155 332.638)"><use xlink:href="#DejaVuSans-32"/><use xlink:href="#DejaVuSans-30" x="63.623"/><use xlink:href="#DejaVuSans-37" x="127.246"/><use xlink:href="#DejaVuSans-35" x="190.869"/></g></g><g id="xtick_9"><path id="line2d_17" d="M453.232 318.04V36.36" clip-path="url(#pac7e4b81dc)" style="fill:none;stroke-dasharray:.8,1.32;stroke-dashoffset:0;stroke:#b0b0b0;stroke-width:.8"/><use xlink:href="#mb99f32b065" id="line2d_18" x="453.232" y="318.04" style="stroke:#000;stroke-width:.8"/><g id="text_9" transform="matrix(.1 0 0 -.1 440.507 332.638)"><use xlink:href="#DejaVuSans-32"/><use xlink:href="#DejaVuSans-31" x="63.623"/><use xlink:href="#DejaVuSans-30" x="127.246"/><use xlink:href="#DejaVuSans-30" x="190.869"/></g></g><g id="text_10" transform="matrix(.1 0 0 -.1 256.772 346.317)"><defs><path id="DejaVuSans-59" d="M-13 4666h679l1293-1919 1285 1919h678L2272 2222V0h-634v2222L-13 4666z" transform="scale(.01563)"/><path id="DejaVuSans-65" d="M3597 1894v-281H953q38-594 358-905t892-311q331 0 642 81t618 244V178Q3153 47 2828-22t-659-69q-838 0-1327 487-489 488-489 1320 0 859 464 1363 464 505 1252 505 706 0 1117-455 411-454 411-1235zm-575 169q-6 471-264 752-258 282-683 282-481 0-770-272t-333-766l2050 4z" transform="scale(.01563)"/><path id="DejaVuSans-61" d="M2194 1759q-697 0-966-159t-269-544q0-306 202-486 202-179 548-179 479 0 768 339t289 901v128h-572zm1147 238V0h-575v531q-197-318-491-470T1556-91q-537 0-855 302-317 302-317 808 0 590 395 890 396 300 1180 300h807v57q0 397-261 614t-733 217q-300 0-585-72-284-72-546-216v532q315 122 612 182 297 61 578 61 760 0 1135-394 375-393 375-1193z" transform="scale(.01563)"/><path id="DejaVuSans-72" d="M2631 2963q-97 56-211 82-114 27-251 27-488 0-749-317t-261-911V0H581v3500h578v-544q182 319 472 473 291 155 707 155 59 0 131-8 72-7 159-23l3-590z" transform="scale(.01563)"/></defs><use xlink:href="#DejaVuSans-59"/><use xlink:href="#DejaVuSans-65" x="47.834"/><use xlink:href="#DejaVuSans-61" x="109.357"/><use xlink:href="#DejaVuSans-72" x="170.637"/></g></g><g id="matplotlib.axis_2"><g id="ytick_1"><g id="line2d_19"><defs><path id="m8dda32ff26" d="M0 0h-3.5" style="stroke:#1f77b4;stroke-width:.8"/></defs><use xlink:href="#m8dda32ff26" x="63.92" y="318.04" style="fill:#1f77b4;stroke:#1f77b4;stroke-width:.8"/></g><g id="text_11" style="fill:#1f77b4" transform="matrix(.1 0 0 -.1 41.017 321.84)"><defs><path id="DejaVuSans-2e" d="M684 794h660V0H684v794z" transform="scale(.01563)"/></defs><use xlink:href="#DejaVuSans-30"/><use xlink:href="#DejaVuSans-2e" x="63.623"/><use xlink:href="#DejaVuSans-30" x="95.41"/></g></g><g id="ytick_2"><use xlink:href="#m8dda32ff26" id="line2d_20" x="63.92" y="261.704" style="fill:#1f77b4;stroke:#1f77b4;stroke-width:.8"/><g id="text_12" style="fill:#1f77b4" transform="matrix(.1 0 0 -.1 31.272 265.503)"><defs><path id="DejaVuSans-47" d="M3809 666v1253H2778v519h1656V434q-365-259-806-392-440-133-940-133-1094 0-1712 639-617 640-617 1780 0 1144 617 1783 618 639 1712 639 456 0 867-113 411-112 758-331v-672q-350 297-744 447t-828 150q-857 0-1287-478-429-478-429-1425 0-944 429-1422 430-478 1287-478 334 0 596 58 263 58 472 180z" transform="scale(.01563)"/></defs><use xlink:href="#DejaVuSans-32"/><use xlink:href="#DejaVuSans-2e" x="63.623"/><use xlink:href="#DejaVuSans-30" x="95.41"/><use xlink:href="#DejaVuSans-2009" x="159.033"/><use xlink:href="#DejaVuSans-47" x="179.004"/></g></g><g id="ytick_3"><use xlink:href="#m8dda32ff26" id="line2d_21" x="63.92" y="205.368" style="fill:#1f77b4;stroke:#1f77b4;stroke-width:.8"/><g id="text_13" style="fill:#1f77b4" transform="matrix(.1 0 0 -.1 31.272 209.167)"><defs><path id="DejaVuSans-34" d="M2419 4116 825 1625h1594v2491zm-166 550h794V1625h666v-525h-666V0h-628v1100H313v609l1940 2957z" transform="scale(.01563)"/></defs><use xlink:href="#DejaVuSans-34"/><use xlink:href="#DejaVuSans-2e" x="63.623"/><use xlink:href="#DejaVuSans-30" x="95.41"/><use xlink:href="#DejaVuSans-2009" x="159.033"/><use xlink:href="#DejaVuSans-47" x="179.004"/></g></g><g id="ytick_4"><use xlink:href="#m8dda32ff26" id="line2d_22" x="63.92" y="149.032" style="fill:#1f77b4;stroke:#1f77b4;stroke-width:.8"/><g id="text_14" style="fill:#1f77b4" transform="matrix(.1 0 0 -.1 31.272 152.831)"><defs><path id="DejaVuSans-36" d="M2113 2584q-425 0-674-291-248-290-248-796 0-503 248-796 249-292 674-292t673 292q248 293 248 796 0 506-248 796-248 291-673 291zm1253 1979v-575q-238 112-480 171-242 60-480 60-625 0-955-422-329-422-376-1275 184 272 462 417 279 145 613 145 703 0 1111-427 408-426 408-1160 0-719-425-1154Q2819-91 2113-91q-810 0-1238 620-428 621-428 1799 0 1106 525 1764t1409 658q238 0 480-47t505-140z" transform="scale(.01563)"/></defs><use xlink:href="#DejaVuSans-36"/><use xlink:href="#DejaVuSans-2e" x="63.623"/><use xlink:href="#DejaVuSans-30" x="95.41"/><use xlink:href="#DejaVuSans-2009" x="159.033"/><use xlink:href="#DejaVuSans-47" x="179.004"/></g></g><g id="ytick_5"><use xlink:href="#m8dda32ff26" id="line2d_23" x="63.92" y="92.696" style="fill:#1f77b4;stroke:#1f77b4;stroke-width:.8"/><g id="text_15" style="fill:#1f77b4" transform="matrix(.1 0 0 -.1 31.272 96.495)"><defs><path id="DejaVuSans-38" d="M2034 2216q-450 0-708-241-257-241-257-662 0-422 257-663 258-241 708-241t709 242q260 243 260 662 0 421-258 662-257 241-711 241zm-631 268q-406 100-633 378-226 279-226 679 0 559 398 884 399 325 1092 325 697 0 1094-325t397-884q0-400-227-679-226-278-629-378 456-106 710-416 255-309 255-755 0-679-414-1042Q2806-91 2034-91q-771 0-1186 362-414 363-414 1042 0 446 256 755 257 310 713 416zm-231 997q0-362 226-565 227-203 636-203 407 0 636 203 230 203 230 565 0 363-230 566-229 203-636 203-409 0-636-203-226-203-226-566z" transform="scale(.01563)"/></defs><use xlink:href="#DejaVuSans-38"/><use xlink:href="#DejaVuSans-2e" x="63.623"/><use xlink:href="#DejaVuSans-30" x="95.41"/><use xlink:href="#DejaVuSans-2009" x="159.033"/><use xlink:href="#DejaVuSans-47" x="179.004"/></g></g><g id="ytick_6"><use xlink:href="#m8dda32ff26" id="line2d_24" x="63.92" y="36.36" style="fill:#1f77b4;stroke:#1f77b4;stroke-width:.8"/><g id="text_16" style="fill:#1f77b4" transform="matrix(.1 0 0 -.1 24.91 40.16)"><use xlink:href="#DejaVuSans-31"/><use xlink:href="#DejaVuSans-30" x="63.623"/><use xlink:href="#DejaVuSans-2e" x="127.246"/><use xlink:href="#DejaVuSans-30" x="159.033"/><use xlink:href="#DejaVuSans-2009" x="222.656"/><use xlink:href="#DejaVuSans-47" x="242.627"/></g></g><g id="text_17" style="fill:#1f77b4" transform="matrix(0 -.1 -.1 0 18.83 237.623)"><defs><path id="DejaVuSans-54" d="M-19 4666h3947v-532H2272V0h-634v4134H-19v532z" transform="scale(.01563)"/><path id="DejaVuSans-6f" d="M1959 3097q-462 0-731-361t-269-989q0-628 267-989 268-361 733-361 460 0 728 362 269 363 269 988 0 622-269 986-268 364-728 364zm0 487q750 0 1178-488 429-487 429-1349 0-859-429-1349Q2709-91 1959-91q-753 0-1180 489-426 490-426 1349 0 862 426 1349 427 488 1180 488z" transform="scale(.01563)"/><path id="DejaVuSans-74" d="M1172 4494v-994h1184v-447H1172V1153q0-428 117-550t477-122h590V0h-590q-666 0-919 248-253 249-253 905v1900H172v447h422v994h578z" transform="scale(.01563)"/><path id="DejaVuSans-6c" d="M603 4863h575V0H603v4863z" transform="scale(.01563)"/><path id="DejaVuSans-50" d="M1259 4147V2394h794q441 0 681 228 241 228 241 650 0 419-241 647-240 228-681 228h-794zm-631 519h1425q785 0 1186-355 402-355 402-1039 0-691-402-1044-401-353-1186-353h-794V0H628v4666z" transform="scale(.01563)"/><path id="DejaVuSans-70" d="M1159 525v-1856H581v4831h578v-531q182 312 458 463 277 152 661 152 638 0 1036-506 399-506 399-1331T3314 415Q2916-91 2278-91q-384 0-661 152-276 152-458 464zm1957 1222q0 634-261 995t-717 361q-457 0-718-361t-261-995q0-634 261-995t718-361q456 0 717 361t261 995z" transform="scale(.01563)"/><path id="DejaVuSans-75" d="M544 1381v2119h575V1403q0-497 193-746 194-248 582-248 465 0 735 297 271 297 271 810v1984h575V0h-575v538q-209-319-486-474-276-155-642-155-603 0-916 375-312 375-312 1097zm1447 2203z" transform="scale(.01563)"/><path id="DejaVuSans-69" d="M603 3500h575V0H603v3500zm0 1363h575v-729H603v729z" transform="scale(.01563)"/><path id="DejaVuSans-6e" d="M3513 2113V0h-575v2094q0 497-194 743-194 247-581 247-466 0-735-297-269-296-269-809V0H581v3500h578v-544q207 316 486 472 280 156 646 156 603 0 912-373 310-373 310-1098z" transform="scale(.01563)"/><path id="DejaVuSans-28" d="M1984 4856q-418-718-622-1422-203-703-203-1425 0-721 205-1429t620-1424h-500Q1016-109 783 600T550 2009q0 697 231 1403 232 707 703 1444h500z" transform="scale(.01563)"/><path id="DejaVuSans-63" d="M3122 3366v-538q-244 135-489 202t-495 67q-560 0-870-355-309-354-309-995t309-996q310-354 870-354 250 0 495 67t489 202V134Q2881 22 2623-34q-257-57-548-57-791 0-1257 497-465 497-465 1341 0 856 470 1346 471 491 1290 491 265 0 518-55 253-54 491-163z" transform="scale(.01563)"/><path id="DejaVuSans-29" d="M513 4856h500q468-737 701-1444 233-706 233-1403 0-700-233-1409T1013-844H513q415 716 620 1424t205 1429q0 722-205 1425-205 704-620 1422z" transform="scale(.01563)"/></defs><use xlink:href="#DejaVuSans-54"/><use xlink:href="#DejaVuSans-6f" x="44.084"/><use xlink:href="#DejaVuSans-74" x="105.266"/><use xlink:href="#DejaVuSans-61" x="144.475"/><use xlink:href="#DejaVuSans-6c" x="205.754"/><use xlink:href="#DejaVuSans-20" x="233.537"/><use xlink:href="#DejaVuSans-50" x="265.324"/><use xlink:href="#DejaVuSans-6f" x="322.002"/><use xlink:href="#DejaVuSans-70" x="383.184"/><use xlink:href="#DejaVuSans-75" x="446.66"/><use xlink:href="#DejaVuSans-6c" x="510.039"/><use xlink:href="#DejaVuSans-61" x="537.822"/><use xlink:href="#DejaVuSans-74" x="599.102"/><use xlink:href="#DejaVuSans-69" x="638.311"/><use xlink:href="#DejaVuSans-6f" x="666.094"/><use xlink:href="#DejaVuSans-6e" x="727.275"/><use xlink:href="#DejaVuSans-20" x="790.654"/><use xlink:href="#DejaVuSans-28" x="822.441"/><use xlink:href="#DejaVuSans-63" x="861.455"/><use xlink:href="#DejaVuSans-61" x="916.436"/><use xlink:href="#DejaVuSans-70" x="977.715"/><use xlink:href="#DejaVuSans-69" x="1041.191"/><use xlink:href="#DejaVuSans-74" x="1068.975"/><use xlink:href="#DejaVuSans-61" x="1108.184"/><use xlink:href="#DejaVuSans-29" x="1169.463"/></g></g><path id="line2d_25" d="m82.415 272.971 2.78-.173 2.782-.397 5.562-1.095 14.833-3.238 13.905-3.27 11.125-2.84 9.27-2.593 8.344-2.573 6.49-2.196 12.978-7.916 6.49-4.27 6.488-4.561 5.563-4.18 5.562-4.46 6.49-5.54 6.489-5.829 6.489-6.125 6.49-6.47 5.562-5.84 6.489-7.126 9.27-10.517 9.27-10.83 16.688-19.596 6.489-7.207 11.124-11.964 4.636-4.693 5.562-5.269 4.635-4.114 4.635-3.848 4.636-3.57 4.635-3.287 4.635-2.987 4.635-2.627 2.781-1.313 2.781-1.07 2.782-.813 2.78-.564 2.782-.32 2.781-.05 1.854.177 1.854.353 1.854.543 1.854.744 1.854.942 1.855 1.135 1.854 1.342 1.854 1.555 1.854 1.922 1.854 2.313 1.854 2.848 1.854 3.388 1.854 3.867 1.854 4.354 2.781 7.256 7.417 19.93 3.708 9.147 2.781 6.304 2.781 5.79 2.781 5.322 2.781 4.906 3.709 6.093 3.708 5.649 3.708 5.225 3.708 4.857 3.708 4.499 3.709 4.144 3.708 3.779 10.197 9.736 5.563 4.791 4.635 3.723 3.708 2.729 4.635 3.074 4.635 2.785 1.854 1.033h0" clip-path="url(#pac7e4b81dc)" style="fill:none;stroke:#1f77b4;stroke-width:1.5;stroke-linecap:square"/><path id="patch_3" d="M63.92 318.04V36.36" style="fill:none;stroke:#000;stroke-width:.8;stroke-linejoin:miter;stroke-linecap:square"/><path id="patch_4" d="M470.8 318.04V36.36" style="fill:none;stroke:#000;stroke-width:.8;stroke-linejoin:miter;stroke-linecap:square"/><path id="patch_5" d="M63.92 318.04H470.8" style="fill:none;stroke:#000;stroke-width:.8;stroke-linejoin:miter;stroke-linecap:square"/><path id="patch_6" d="M63.92 36.36H470.8" style="fill:none;stroke:#000;stroke-width:.8;stroke-linejoin:miter;stroke-linecap:square"/></g><g id="axes_2"><g id="matplotlib.axis_3"><g id="ytick_7"><g id="line2d_26"><defs><path id="m9656d12b84" d="M0 0h3.5" style="stroke:#ff7f0e;stroke-width:.8"/></defs><use xlink:href="#m9656d12b84" x="470.8" y="318.04" style="fill:#ff7f0e;stroke:#ff7f0e;stroke-width:.8"/></g><g id="text_18" style="fill:#ff7f0e" transform="matrix(.1 0 0 -.1 477.8 321.84)"><use xlink:href="#DejaVuSans-30"/><use xlink:href="#DejaVuSans-2e" x="63.623"/><use xlink:href="#DejaVuSans-30" x="95.41"/></g></g><g id="ytick_8"><use xlink:href="#m9656d12b84" id="line2d_27" x="470.8" y="282.83" style="fill:#ff7f0e;stroke:#ff7f0e;stroke-width:.8"/><g id="text_19" style="fill:#ff7f0e" transform="matrix(.1 0 0 -.1 477.8 286.63)"><use xlink:href="#DejaVuSans-32"/><use xlink:href="#DejaVuSans-35" x="63.623"/><use xlink:href="#DejaVuSans-30" x="127.246"/><use xlink:href="#DejaVuSans-2e" x="190.869"/><use xlink:href="#DejaVuSans-30" x="222.656"/><use xlink:href="#DejaVuSans-2009" x="286.279"/><use xlink:href="#DejaVuSans-47" x="306.25"/></g></g><g id="ytick_9"><use xlink:href="#m9656d12b84" id="line2d_28" x="470.8" y="247.62" style="fill:#ff7f0e;stroke:#ff7f0e;stroke-width:.8"/><g id="text_20" style="fill:#ff7f0e" transform="matrix(.1 0 0 -.1 477.8 251.42)"><use xlink:href="#DejaVuSans-35"/><use xlink:href="#DejaVuSans-30" x="63.623"/><use xlink:href="#DejaVuSans-30" x="127.246"/><use xlink:href="#DejaVuSans-2e" x="190.869"/><use xlink:href="#DejaVuSans-30" x="222.656"/><use xlink:href="#DejaVuSans-2009" x="286.279"/><use xlink:href="#DejaVuSans-47" x="306.25"/></g></g><g id="ytick_10"><use xlink:href="#m9656d12b84" id="line2d_29" x="470.8" y="212.41" style="fill:#ff7f0e;stroke:#ff7f0e;stroke-width:.8"/><g id="text_21" style="fill:#ff7f0e" transform="matrix(.1 0 0 -.1 477.8 216.21)"><use xlink:href="#DejaVuSans-37"/><use xlink:href="#DejaVuSans-35" x="63.623"/><use xlink:href="#DejaVuSans-30" x="127.246"/><use xlink:href="#DejaVuSans-2e" x="190.869"/><use xlink:href="#DejaVuSans-30" x="222.656"/><use xlink:href="#DejaVuSans-2009" x="286.279"/><use xlink:href="#DejaVuSans-47" x="306.25"/></g></g><g id="ytick_11"><use xlink:href="#m9656d12b84" id="line2d_30" x="470.8" y="177.2" style="fill:#ff7f0e;stroke:#ff7f0e;stroke-width:.8"/><g id="text_22" style="fill:#ff7f0e" transform="matrix(.1 0 0 -.1 477.8 181)"><use xlink:href="#DejaVuSans-31"/><use xlink:href="#DejaVuSans-2e" x="63.623"/><use xlink:href="#DejaVuSans-30" x="95.41"/><use xlink:href="#DejaVuSans-2009" x="159.033"/><use xlink:href="#DejaVuSans-54" x="179.004"/></g></g><g id="ytick_12"><use xlink:href="#m9656d12b84" id="line2d_31" x="470.8" y="141.99" style="fill:#ff7f0e;stroke:#ff7f0e;stroke-width:.8"/><g id="text_23" style="fill:#ff7f0e" transform="matrix(.1 0 0 -.1 477.8 145.79)"><use xlink:href="#DejaVuSans-31"/><use xlink:href="#DejaVuSans-2e" x="63.623"/><use xlink:href="#DejaVuSans-32" x="95.41"/><use xlink:href="#DejaVuSans-2009" x="159.033"/><use xlink:href="#DejaVuSans-54" x="179.004"/></g></g><g id="ytick_13"><use xlink:href="#m9656d12b84" id="line2d_32" x="470.8" y="106.78" style="fill:#ff7f0e;stroke:#ff7f0e;stroke-width:.8"/><g id="text_24" style="fill:#ff7f0e" transform="matrix(.1 0 0 -.1 477.8 110.58)"><use xlink:href="#DejaVuSans-31"/><use xlink:href="#DejaVuSans-2e" x="63.623"/><use xlink:href="#DejaVuSans-35" x="95.41"/><use xlink:href="#DejaVuSans-2009" x="159.033"/><use xlink:href="#DejaVuSans-54" x="179.004"/></g></g><g id="ytick_14"><use xlink:href="#m9656d12b84" id="line2d_33" x="470.8" y="71.57" style="fill:#ff7f0e;stroke:#ff7f0e;stroke-width:.8"/><g id="text_25" style="fill:#ff7f0e" transform="matrix(.1 0 0 -.1 477.8 75.37)"><use xlink:href="#DejaVuSans-31"/><use xlink:href="#DejaVuSans-2e" x="63.623"/><use xlink:href="#DejaVuSans-38" x="95.41"/><use xlink:href="#DejaVuSans-2009" x="159.033"/><use xlink:href="#DejaVuSans-54" x="179.004"/></g></g><g id="ytick_15"><use xlink:href="#m9656d12b84" id="line2d_34" x="470.8" y="36.36" style="fill:#ff7f0e;stroke:#ff7f0e;stroke-width:.8"/><g id="text_26" style="fill:#ff7f0e" transform="matrix(.1 0 0 -.1 477.8 40.16)"><use xlink:href="#DejaVuSans-32"/><use xlink:href="#DejaVuSans-2e" x="63.623"/><use xlink:href="#DejaVuSans-30" x="95.41"/><use xlink:href="#DejaVuSans-2009" x="159.033"/><use xlink:href="#DejaVuSans-54" x="179.004"/></g></g><g id="text_27" style="fill:#ff7f0e" transform="matrix(0 -.1 -.1 0 527.772 210.877)"><defs><path id="DejaVuSans-52" d="M2841 2188q203-69 395-294t386-619L4263 0h-679l-596 1197q-232 469-449 622t-592 153h-688V0H628v4666h1425q800 0 1194-335 394-334 394-1009 0-441-205-732-205-290-595-402zM1259 4147V2491h794q456 0 689 211t233 620q0 409-233 617t-689 208h-794z" transform="scale(.01563)"/><path id="DejaVuSans-73" d="M2834 3397v-544q-243 125-506 187-262 63-544 63-428 0-642-131t-214-394q0-200 153-314t616-217l197-44q612-131 870-370t258-667q0-488-386-773Q2250-91 1575-91q-281 0-586 55T347 128v594q319-166 628-249 309-82 613-82 406 0 624 139 219 139 219 392 0 234-158 359-157 125-692 241l-200 47q-534 112-772 345-237 233-237 639 0 494 350 762 350 269 994 269 318 0 599-47 282-46 519-140z" transform="scale(.01563)"/><path id="DejaVuSans-3f" d="M1222 794h634V0h-634v794zm616 459h-597v481q0 316 87 519 88 203 369 472l281 278q178 166 258 313t80 300q0 278-205 450t-542 172q-247 0-527-110-279-109-583-319v588q294 178 595 265 302 88 624 88 575 0 923-303 349-303 349-800 0-238-113-452-112-214-393-482l-275-269q-147-147-208-230t-86-161q-19-65-28-159t-9-256v-385z" transform="scale(.01563)"/></defs><use xlink:href="#DejaVuSans-52"/><use xlink:href="#DejaVuSans-65" x="64.982"/><use xlink:href="#DejaVuSans-73" x="126.506"/><use xlink:href="#DejaVuSans-6f" x="178.605"/><use xlink:href="#DejaVuSans-75" x="239.787"/><use xlink:href="#DejaVuSans-72" x="303.166"/><use xlink:href="#DejaVuSans-63" x="342.029"/><use xlink:href="#DejaVuSans-65" x="397.01"/><use xlink:href="#DejaVuSans-73" x="458.533"/><use xlink:href="#DejaVuSans-20" x="510.633"/><use xlink:href="#DejaVuSans-28" x="542.42"/><use xlink:href="#DejaVuSans-3f" x="581.434"/><use xlink:href="#DejaVuSans-29" x="634.51"/></g></g><path id="line2d_35" d="m82.415 36.36 21.322.565 18.54.711 15.76.831 12.979.898 12.051 1.062 10.198 1.112 9.27 1.215 9.27 1.449 8.344 1.538 7.417 1.584 5.562 1.373 5.562 1.593 5.562 1.833 5.563 2.098 4.635 1.97 4.635 2.189 4.635 2.425 4.636 2.682 4.635 2.955 4.635 3.248 4.635 3.56 4.635 3.886 4.636 4.228 4.635 4.582 4.635 4.952 4.635 5.334 4.636 5.724 4.635 6.122 5.562 7.773 5.562 8.145 5.563 8.509 6.489 10.378 6.49 10.847 6.489 11.287 8.343 15.017 18.54 33.638 5.563 9.57 4.635 7.598 4.636 7.19 4.635 6.775 4.635 6.386 4.635 6.037 5.563 6.836 4.635 5.37 5.562 6.08 5.562 5.73 5.563 5.417 5.562 5.114 3.708 3.05 3.708 2.727 3.708 2.433 2.782 1.571 2.78 1.35 3.709 1.5 3.708 1.21 3.708.973 4.635.942.927.159h0" clip-path="url(#pac7e4b81dc)" style="fill:none;stroke:#ff7f0e;stroke-width:1.5;stroke-linecap:square"/><path id="patch_7" d="M63.92 318.04V36.36" style="fill:none;stroke:#000;stroke-width:.8;stroke-linejoin:miter;stroke-linecap:square"/><path id="patch_8" d="M470.8 318.04V36.36" style="fill:none;stroke:#000;stroke-width:.8;stroke-linejoin:miter;stroke-linecap:square"/><path id="patch_9" d="M63.92 318.04H470.8" style="fill:none;stroke:#000;stroke-width:.8;stroke-linejoin:miter;stroke-linecap:square"/><path id="patch_10" d="M63.92 36.36H470.8" style="fill:none;stroke:#000;stroke-width:.8;stroke-linejoin:miter;stroke-linecap:square"/></g><g id="axes_3"><g id="matplotlib.axis_4"><g id="ytick_16"><g id="line2d_36"><defs><path id="mab8578ec46" d="M0 0h3.5" style="stroke:#2ca02c;stroke-width:.8"/></defs><use xlink:href="#mab8578ec46" x="535.8" y="318.04" style="fill:#2ca02c;stroke:#2ca02c;stroke-width:.8"/></g><g id="text_28" style="fill:#2ca02c" transform="matrix(.1 0 0 -.1 542.8 321.84)"><use xlink:href="#DejaVuSans-30"/><use xlink:href="#DejaVuSans-2e" x="63.623"/><use xlink:href="#DejaVuSans-30" x="95.41"/></g></g><g id="ytick_17"><use xlink:href="#mab8578ec46" id="line2d_37" x="535.8" y="282.83" style="fill:#2ca02c;stroke:#2ca02c;stroke-width:.8"/><g id="text_29" style="fill:#2ca02c" transform="matrix(.1 0 0 -.1 542.8 286.63)"><use xlink:href="#DejaVuSans-35"/><use xlink:href="#DejaVuSans-30" x="63.623"/><use xlink:href="#DejaVuSans-30" x="127.246"/><use xlink:href="#DejaVuSans-2e" x="190.869"/><use xlink:href="#DejaVuSans-30" x="222.656"/><use xlink:href="#DejaVuSans-2009" x="286.279"/><use xlink:href="#DejaVuSans-47" x="306.25"/></g></g><g id="ytick_18"><use xlink:href="#mab8578ec46" id="line2d_38" x="535.8" y="247.62" style="fill:#2ca02c;stroke:#2ca02c;stroke-width:.8"/><g id="text_30" style="fill:#2ca02c" transform="matrix(.1 0 0 -.1 542.8 251.42)"><use xlink:href="#DejaVuSans-31"/><use xlink:href="#DejaVuSans-2e" x="63.623"/><use xlink:href="#DejaVuSans-30" x="95.41"/><use xlink:href="#DejaVuSans-2009" x="159.033"/><use xlink:href="#DejaVuSans-54" x="179.004"/></g></g><g id="ytick_19"><use xlink:href="#mab8578ec46" id="line2d_39" x="535.8" y="212.41" style="fill:#2ca02c;stroke:#2ca02c;stroke-width:.8"/><g id="text_31" style="fill:#2ca02c" transform="matrix(.1 0 0 -.1 542.8 216.21)"><use xlink:href="#DejaVuSans-31"/><use xlink:href="#DejaVuSans-2e" x="63.623"/><use xlink:href="#DejaVuSans-35" x="95.41"/><use xlink:href="#DejaVuSans-2009" x="159.033"/><use xlink:href="#DejaVuSans-54" x="179.004"/></g></g><g id="ytick_20"><use xlink:href="#mab8578ec46" id="line2d_40" x="535.8" y="177.2" style="fill:#2ca02c;stroke:#2ca02c;stroke-width:.8"/><g id="text_32" style="fill:#2ca02c" transform="matrix(.1 0 0 -.1 542.8 181)"><use xlink:href="#DejaVuSans-32"/><use xlink:href="#DejaVuSans-2e" x="63.623"/><use xlink:href="#DejaVuSans-30" x="95.41"/><use xlink:href="#DejaVuSans-2009" x="159.033"/><use xlink:href="#DejaVuSans-54" x="179.004"/></g></g><g id="ytick_21"><use xlink:href="#mab8578ec46" id="line2d_41" x="535.8" y="141.99" style="fill:#2ca02c;stroke:#2ca02c;stroke-width:.8"/><g id="text_33" style="fill:#2ca02c" transform="matrix(.1 0 0 -.1 542.8 145.79)"><use xlink:href="#DejaVuSans-32"/><use xlink:href="#DejaVuSans-2e" x="63.623"/><use xlink:href="#DejaVuSans-35" x="95.41"/><use xlink:href="#DejaVuSans-2009" x="159.033"/><use xlink:href="#DejaVuSans-54" x="179.004"/></g></g><g id="ytick_22"><use xlink:href="#mab8578ec46" id="line2d_42" x="535.8" y="106.78" style="fill:#2ca02c;stroke:#2ca02c;stroke-width:.8"/><g id="text_34" style="fill:#2ca02c" transform="matrix(.1 0 0 -.1 542.8 110.58)"><defs><path id="DejaVuSans-33" d="M2597 2516q453-97 707-404 255-306 255-756 0-690-475-1069Q2609-91 1734-91q-293 0-604 58T488 141v609q262-153 574-231 313-78 654-78 593 0 904 234t311 681q0 413-289 645-289 233-804 233h-544v519h569q465 0 712 186t247 536q0 359-255 551-254 193-729 193-260 0-557-57-297-56-653-174v562q360 100 674 150t592 50q719 0 1137-327 419-326 419-882 0-388-222-655t-631-370z" transform="scale(.01563)"/></defs><use xlink:href="#DejaVuSans-33"/><use xlink:href="#DejaVuSans-2e" x="63.623"/><use xlink:href="#DejaVuSans-30" x="95.41"/><use xlink:href="#DejaVuSans-2009" x="159.033"/><use xlink:href="#DejaVuSans-54" x="179.004"/></g></g><g id="ytick_23"><use xlink:href="#mab8578ec46" id="line2d_43" x="535.8" y="71.57" style="fill:#2ca02c;stroke:#2ca02c;stroke-width:.8"/><g id="text_35" style="fill:#2ca02c" transform="matrix(.1 0 0 -.1 542.8 75.37)"><use xlink:href="#DejaVuSans-33"/><use xlink:href="#DejaVuSans-2e" x="63.623"/><use xlink:href="#DejaVuSans-35" x="95.41"/><use xlink:href="#DejaVuSans-2009" x="159.033"/><use xlink:href="#DejaVuSans-54" x="179.004"/></g></g><g id="ytick_24"><use xlink:href="#mab8578ec46" id="line2d_44" x="535.8" y="36.36" style="fill:#2ca02c;stroke:#2ca02c;stroke-width:.8"/><g id="text_36" style="fill:#2ca02c" transform="matrix(.1 0 0 -.1 542.8 40.16)"><use xlink:href="#DejaVuSans-34"/><use xlink:href="#DejaVuSans-2e" x="63.623"/><use xlink:href="#DejaVuSans-30" x="95.41"/><use xlink:href="#DejaVuSans-2009" x="159.033"/><use xlink:href="#DejaVuSans-54" x="179.004"/></g></g><g id="text_37" style="fill:#2ca02c" transform="matrix(0 -.1 -.1 0 592.772 228.965)"><defs><path id="DejaVuSans-49" d="M628 4666h631V0H628v4666z" transform="scale(.01563)"/><path id="DejaVuSans-64" d="M2906 2969v1894h575V0h-575v525q-181-312-458-464-276-152-664-152-634 0-1033 506-398 507-398 1332t398 1331q399 506 1033 506 388 0 664-152 277-151 458-463zM947 1747q0-634 261-995t717-361q456 0 718 361 263 361 263 995t-263 995q-262 361-718 361t-717-361q-261-361-261-995z" transform="scale(.01563)"/><path id="DejaVuSans-4f" d="M2522 4238q-688 0-1093-513-404-512-404-1397 0-881 404-1394 405-512 1093-512 687 0 1089 512 402 513 402 1394 0 885-402 1397-402 513-1089 513zm0 512q981 0 1568-658 588-658 588-1764 0-1103-588-1761Q3503-91 2522-91q-984 0-1574 656-589 657-589 1763t589 1764q590 658 1574 658z" transform="scale(.01563)"/></defs><use xlink:href="#DejaVuSans-49"/><use xlink:href="#DejaVuSans-6e" x="29.492"/><use xlink:href="#DejaVuSans-64" x="92.871"/><use xlink:href="#DejaVuSans-75" x="156.348"/><use xlink:href="#DejaVuSans-73" x="219.727"/><use xlink:href="#DejaVuSans-74" x="271.826"/><use xlink:href="#DejaVuSans-72" x="311.035"/><use xlink:href="#DejaVuSans-69" x="352.148"/><use xlink:href="#DejaVuSans-61" x="379.932"/><use xlink:href="#DejaVuSans-6c" x="441.211"/><use xlink:href="#DejaVuSans-20" x="468.994"/><use xlink:href="#DejaVuSans-4f" x="500.781"/><use xlink:href="#DejaVuSans-70" x="579.492"/><use xlink:href="#DejaVuSans-75" x="642.969"/><use xlink:href="#DejaVuSans-70" x="706.348"/><use xlink:href="#DejaVuSans-75" x="769.824"/><use xlink:href="#DejaVuSans-74" x="833.203"/><use xlink:href="#DejaVuSans-20" x="872.412"/><use xlink:href="#DejaVuSans-28" x="904.199"/><use xlink:href="#DejaVuSans-3f" x="943.213"/><use xlink:href="#DejaVuSans-29" x="996.289"/></g></g><path id="line2d_45" d="m82.415 313.357 4.635-.463 16.687-1.941 9.27-1.312 8.343-1.4 7.417-1.459 7.416-1.694 6.49-1.707 6.489-1.947 5.562-1.886 5.562-2.106 5.563-2.321 5.562-2.565 5.562-2.838 4.635-2.594 4.636-2.825 4.635-3.082 4.635-3.355 4.635-3.643 4.635-3.947 4.636-4.253 4.635-4.556 4.635-4.88 4.635-5.232 4.636-5.612 4.635-6.014 4.635-6.43 4.635-6.862 4.635-7.304 4.636-7.75 4.635-8.205 5.562-10.374 5.562-10.804 6.49-13.15 6.49-13.719 9.27-20.3 15.76-35.14 12.05-26.762 9.271-19.997 3.709-7.261 1.854-3.346 1.854-2.95 1.854-2.552 1.854-2.18 1.854-1.776 1.854-1.34.927-.5.927-.369.927-.237.927-.094.927.058.927.207.927.355.927.5.927.645 1.855 1.709 1.854 2.247 1.854 2.751 1.854 3.215 1.854 3.628 1.854 4.004 2.781 6.685 2.781 7.374 4.636 13.174 4.635 12.869 3.708 9.568 3.708 8.823 3.708 8.083 5.563 11.675 2.78 5.998 3.709 7.384 3.708 6.763 3.708 6.245 3.708 5.78 3.709 5.348 2.78 3.743.928 2.414 2.78 15.35 2.782 13.868 2.781 12.626 2.781 11.516 2.781 10.41 1.855 6.18 2.78 8.306 2.782 7.332 1.854 4.379 1.854 3.997 2.781 5.344 2.781 4.655 2.781 4.05 1.854 2.41h0" clip-path="url(#pac7e4b81dc)" style="fill:none;stroke:#2ca02c;stroke-width:1.5;stroke-linecap:square"/><path id="patch_11" d="M63.92 318.04V36.36" style="fill:none;stroke:#000;stroke-width:.8;stroke-linejoin:miter;stroke-linecap:square"/><path id="patch_12" d="M535.8 318.04V36.36" style="fill:none;stroke:#000;stroke-width:.8;stroke-linejoin:miter;stroke-linecap:square"/><path id="patch_13" d="M63.92 318.04H470.8" style="fill:none;stroke:#000;stroke-width:.8;stroke-linejoin:miter;stroke-linecap:square"/><path id="patch_14" d="M63.92 36.36H470.8" style="fill:none;stroke:#000;stroke-width:.8;stroke-linejoin:miter;stroke-linecap:square"/></g><g id="axes_4"><g id="matplotlib.axis_5"><g id="ytick_25"><g id="line2d_46"><defs><path id="me39f772add" d="M0 0h3.5" style="stroke:#d62728;stroke-width:.8"/></defs><use xlink:href="#me39f772add" x="600.8" y="318.04" style="fill:#d62728;stroke:#d62728;stroke-width:.8"/></g><g id="text_38" style="fill:#d62728" transform="matrix(.1 0 0 -.1 607.8 321.84)"><use xlink:href="#DejaVuSans-30"/><use xlink:href="#DejaVuSans-2e" x="63.623"/><use xlink:href="#DejaVuSans-30" x="95.41"/></g></g><g id="ytick_26"><use xlink:href="#me39f772add" id="line2d_47" x="600.8" y="271.093" style="fill:#d62728;stroke:#d62728;stroke-width:.8"/><g id="text_39" style="fill:#d62728" transform="matrix(.1 0 0 -.1 607.8 274.893)"><use xlink:href="#DejaVuSans-31"/><use xlink:href="#DejaVuSans-2e" x="63.623"/><use xlink:href="#DejaVuSans-30" x="95.41"/><use xlink:href="#DejaVuSans-2009" x="159.033"/><use xlink:href="#DejaVuSans-54" x="179.004"/></g></g><g id="ytick_27"><use xlink:href="#me39f772add" id="line2d_48" x="600.8" y="224.147" style="fill:#d62728;stroke:#d62728;stroke-width:.8"/><g id="text_40" style="fill:#d62728" transform="matrix(.1 0 0 -.1 607.8 227.946)"><use xlink:href="#DejaVuSans-32"/><use xlink:href="#DejaVuSans-2e" x="63.623"/><use xlink:href="#DejaVuSans-30" x="95.41"/><use xlink:href="#DejaVuSans-2009" x="159.033"/><use xlink:href="#DejaVuSans-54" x="179.004"/></g></g><g id="ytick_28"><use xlink:href="#me39f772add" id="line2d_49" x="600.8" y="177.2" style="fill:#d62728;stroke:#d62728;stroke-width:.8"/><g id="text_41" style="fill:#d62728" transform="matrix(.1 0 0 -.1 607.8 181)"><use xlink:href="#DejaVuSans-33"/><use xlink:href="#DejaVuSans-2e" x="63.623"/><use xlink:href="#DejaVuSans-30" x="95.41"/><use xlink:href="#DejaVuSans-2009" x="159.033"/><use xlink:href="#DejaVuSans-54" x="179.004"/></g></g><g id="ytick_29"><use xlink:href="#me39f772add" id="line2d_50" x="600.8" y="130.253" style="fill:#d62728;stroke:#d62728;stroke-width:.8"/><g id="text_42" style="fill:#d62728" transform="matrix(.1 0 0 -.1 607.8 134.053)"><use xlink:href="#DejaVuSans-34"/><use xlink:href="#DejaVuSans-2e" x="63.623"/><use xlink:href="#DejaVuSans-30" x="95.41"/><use xlink:href="#DejaVuSans-2009" x="159.033"/><use xlink:href="#DejaVuSans-54" x="179.004"/></g></g><g id="ytick_30"><use xlink:href="#me39f772add" id="line2d_51" x="600.8" y="83.307" style="fill:#d62728;stroke:#d62728;stroke-width:.8"/><g id="text_43" style="fill:#d62728" transform="matrix(.1 0 0 -.1 607.8 87.106)"><use xlink:href="#DejaVuSans-35"/><use xlink:href="#DejaVuSans-2e" x="63.623"/><use xlink:href="#DejaVuSans-30" x="95.41"/><use xlink:href="#DejaVuSans-2009" x="159.033"/><use xlink:href="#DejaVuSans-54" x="179.004"/></g></g><g id="ytick_31"><use xlink:href="#me39f772add" id="line2d_52" x="600.8" y="36.36" style="fill:#d62728;stroke:#d62728;stroke-width:.8"/><g id="text_44" style="fill:#d62728" transform="matrix(.1 0 0 -.1 607.8 40.16)"><use xlink:href="#DejaVuSans-36"/><use xlink:href="#DejaVuSans-2e" x="63.623"/><use xlink:href="#DejaVuSans-30" x="95.41"/><use xlink:href="#DejaVuSans-2009" x="159.033"/><use xlink:href="#DejaVuSans-54" x="179.004"/></g></g><g id="text_45" style="fill:#d62728" transform="matrix(0 -.1 -.1 0 643.406 197.332)"><defs><path id="DejaVuSans-46" d="M628 4666h2681v-532H1259V2759h1850v-531H1259V0H628v4666z" transform="scale(.01563)"/></defs><use xlink:href="#DejaVuSans-46"/><use xlink:href="#DejaVuSans-6f" x="53.895"/><use xlink:href="#DejaVuSans-6f" x="115.076"/><use xlink:href="#DejaVuSans-64" x="176.258"/><use xlink:href="#DejaVuSans-20" x="239.734"/><use xlink:href="#DejaVuSans-28" x="271.521"/><use xlink:href="#DejaVuSans-3f" x="310.535"/><use xlink:href="#DejaVuSans-29" x="363.611"/></g></g><path id="line2d_53" d="m82.415 297.81 1.854-.447 4.635-.69 11.124-1.684 8.344-1.484 9.27-1.945 8.344-1.957 7.416-1.962 6.49-1.92 6.489-2.14 6.489-2.392 5.562-2.266 4.635-2.196 5.563-2.857 5.562-3.1 5.562-3.366 3.708-2.424 5.563-4.018 5.562-4.258 5.562-4.514 9.27-7.906 6.49-6.004 5.562-5.412 4.636-4.801 7.416-8.02 8.343-9.386 12.052-13.92 2.781-3.243.927-.83 1.854-1.414 10.198-8.626 10.197-8.058 1.854-1.31 2.781-1.268 3.709-1.67 3.708-1.398 3.708-1.137 3.708-.922 3.708-.724 2.781-.332 2.781-.128 2.782.065 2.78.248 3.709.599.927.25.927-1.103.927-.54.927.548.927.766 1.854 2.061 1.854 2.26 1.854 2.7 1.855 3.087 3.708 6.483 3.708 6.577 1.854 3.912 2.781 6.511 1.854 4.882 4.635 14.063 7.417 22.878 6.49 18.706 2.78 7.447 1.854 4.48.927 1.87.927 1.539.927 1.292 1.855 2.04 1.854 1.512 1.854 1.129 1.854.845 1.854.63 2.781.65 2.781.394 3.708.257 4.636.063 5.562-.12 2.781-.05 6.49-.09 6.489-.314 5.562-.325 2.781.297 6.49.996 5.562 1.596 8.343 2.55 5.562 2.168 1.854.68.927.47.927.72h0" clip-path="url(#pac7e4b81dc)" style="fill:none;stroke:#d62728;stroke-width:1.5;stroke-linecap:square"/><path id="patch_15" d="M63.92 318.04V36.36" style="fill:none;stroke:#000;stroke-width:.8;stroke-linejoin:miter;stroke-linecap:square"/><path id="patch_16" d="M600.8 318.04V36.36" style="fill:none;stroke:#000;stroke-width:.8;stroke-linejoin:miter;stroke-linecap:square"/><path id="patch_17" d="M63.92 318.04H470.8" style="fill:none;stroke:#000;stroke-width:.8;stroke-linejoin:miter;stroke-linecap:square"/><path id="patch_18" d="M63.92 36.36H470.8" style="fill:none;stroke:#000;stroke-width:.8;stroke-linejoin:miter;stroke-linecap:square"/></g><g id="axes_5"><g id="matplotlib.axis_6"><g id="ytick_32"><g id="line2d_54"><defs><path id="mb98b410867" d="M0 0h3.5" style="stroke:#9467bd;stroke-width:.8"/></defs><use xlink:href="#mb98b410867" x="665.8" y="318.04" style="fill:#9467bd;stroke:#9467bd;stroke-width:.8"/></g><g id="text_46" style="fill:#9467bd" transform="matrix(.1 0 0 -.1 672.8 321.84)"><use xlink:href="#DejaVuSans-30"/><use xlink:href="#DejaVuSans-2e" x="63.623"/><use xlink:href="#DejaVuSans-30" x="95.41"/></g></g><g id="ytick_33"><use xlink:href="#mb98b410867" id="line2d_55" x="665.8" y="282.83" style="fill:#9467bd;stroke:#9467bd;stroke-width:.8"/><g id="text_47" style="fill:#9467bd" transform="matrix(.1 0 0 -.1 672.8 286.63)"><use xlink:href="#DejaVuSans-35"/><use xlink:href="#DejaVuSans-2e" x="63.623"/><use xlink:href="#DejaVuSans-30" x="95.41"/></g></g><g id="ytick_34"><use xlink:href="#mb98b410867" id="line2d_56" x="665.8" y="247.62" style="fill:#9467bd;stroke:#9467bd;stroke-width:.8"/><g id="text_48" style="fill:#9467bd" transform="matrix(.1 0 0 -.1 672.8 251.42)"><use xlink:href="#DejaVuSans-31"/><use xlink:href="#DejaVuSans-30" x="63.623"/><use xlink:href="#DejaVuSans-2e" x="127.246"/><use xlink:href="#DejaVuSans-30" x="159.033"/></g></g><g id="ytick_35"><use xlink:href="#mb98b410867" id="line2d_57" x="665.8" y="212.41" style="fill:#9467bd;stroke:#9467bd;stroke-width:.8"/><g id="text_49" style="fill:#9467bd" transform="matrix(.1 0 0 -.1 672.8 216.21)"><use xlink:href="#DejaVuSans-31"/><use xlink:href="#DejaVuSans-35" x="63.623"/><use xlink:href="#DejaVuSans-2e" x="127.246"/><use xlink:href="#DejaVuSans-30" x="159.033"/></g></g><g id="ytick_36"><use xlink:href="#mb98b410867" id="line2d_58" x="665.8" y="177.2" style="fill:#9467bd;stroke:#9467bd;stroke-width:.8"/><g id="text_50" style="fill:#9467bd" transform="matrix(.1 0 0 -.1 672.8 181)"><use xlink:href="#DejaVuSans-32"/><use xlink:href="#DejaVuSans-30" x="63.623"/><use xlink:href="#DejaVuSans-2e" x="127.246"/><use xlink:href="#DejaVuSans-30" x="159.033"/></g></g><g id="ytick_37"><use xlink:href="#mb98b410867" id="line2d_59" x="665.8" y="141.99" style="fill:#9467bd;stroke:#9467bd;stroke-width:.8"/><g id="text_51" style="fill:#9467bd" transform="matrix(.1 0 0 -.1 672.8 145.79)"><use xlink:href="#DejaVuSans-32"/><use xlink:href="#DejaVuSans-35" x="63.623"/><use xlink:href="#DejaVuSans-2e" x="127.246"/><use xlink:href="#DejaVuSans-30" x="159.033"/></g></g><g id="ytick_38"><use xlink:href="#mb98b410867" id="line2d_60" x="665.8" y="106.78" style="fill:#9467bd;stroke:#9467bd;stroke-width:.8"/><g id="text_52" style="fill:#9467bd" transform="matrix(.1 0 0 -.1 672.8 110.58)"><use xlink:href="#DejaVuSans-33"/><use xlink:href="#DejaVuSans-30" x="63.623"/><use xlink:href="#DejaVuSans-2e" x="127.246"/><use xlink:href="#DejaVuSans-30" x="159.033"/></g></g><g id="ytick_39"><use xlink:href="#mb98b410867" id="line2d_61" x="665.8" y="71.57" style="fill:#9467bd;stroke:#9467bd;stroke-width:.8"/><g id="text_53" style="fill:#9467bd" transform="matrix(.1 0 0 -.1 672.8 75.37)"><use xlink:href="#DejaVuSans-33"/><use xlink:href="#DejaVuSans-35" x="63.623"/><use xlink:href="#DejaVuSans-2e" x="127.246"/><use xlink:href="#DejaVuSans-30" x="159.033"/></g></g><g id="ytick_40"><use xlink:href="#mb98b410867" id="line2d_62" x="665.8" y="36.36" style="fill:#9467bd;stroke:#9467bd;stroke-width:.8"/><g id="text_54" style="fill:#9467bd" transform="matrix(.1 0 0 -.1 672.8 40.16)"><use xlink:href="#DejaVuSans-34"/><use xlink:href="#DejaVuSans-30" x="63.623"/><use xlink:href="#DejaVuSans-2e" x="127.246"/><use xlink:href="#DejaVuSans-30" x="159.033"/></g></g><g id="text_55" style="fill:#9467bd" transform="matrix(0 -.1 -.1 0 706.664 244.107)"><defs><path id="DejaVuSans-78" d="M3513 3500 2247 1797 3578 0h-678L1881 1375 863 0H184l1360 1831L300 3500h678l928-1247 928 1247h679z" transform="scale(.01563)"/></defs><use xlink:href="#DejaVuSans-50"/><use xlink:href="#DejaVuSans-65" x="56.678"/><use xlink:href="#DejaVuSans-72" x="118.201"/><use xlink:href="#DejaVuSans-73" x="159.314"/><use xlink:href="#DejaVuSans-69" x="211.414"/><use xlink:href="#DejaVuSans-73" x="239.197"/><use xlink:href="#DejaVuSans-74" x="291.297"/><use xlink:href="#DejaVuSans-65" x="330.506"/><use xlink:href="#DejaVuSans-6e" x="392.029"/><use xlink:href="#DejaVuSans-74" x="455.408"/><use xlink:href="#DejaVuSans-20" x="494.617"/><use xlink:href="#DejaVuSans-50" x="526.404"/><use xlink:href="#DejaVuSans-6f" x="583.082"/><use xlink:href="#DejaVuSans-6c" x="644.264"/><use xlink:href="#DejaVuSans-6c" x="672.047"/><use xlink:href="#DejaVuSans-75" x="699.83"/><use xlink:href="#DejaVuSans-74" x="763.209"/><use xlink:href="#DejaVuSans-69" x="802.418"/><use xlink:href="#DejaVuSans-6f" x="830.201"/><use xlink:href="#DejaVuSans-6e" x="891.383"/><use xlink:href="#DejaVuSans-20" x="954.762"/><use xlink:href="#DejaVuSans-28" x="986.549"/><use xlink:href="#DejaVuSans-69" x="1025.563"/><use xlink:href="#DejaVuSans-6e" x="1053.346"/><use xlink:href="#DejaVuSans-64" x="1116.725"/><use xlink:href="#DejaVuSans-65" x="1180.201"/><use xlink:href="#DejaVuSans-78" x="1239.975"/><use xlink:href="#DejaVuSans-29" x="1299.154"/></g></g><path id="line2d_63" d="m82.415 316.746 5.562.126 13.905.007 18.541-.2 17.614-.419 16.687-.618 14.833-.765 12.978-.882 12.052-1.043 11.125-1.194 9.27-1.202 7.416-1.173 6.49-1.228 6.489-1.46 5.562-1.465 5.562-1.683 5.563-1.92 5.562-2.173 5.562-2.447 4.636-2.266 4.635-2.502 4.635-2.775 4.635-3.088 3.708-2.723 3.709-2.969 3.708-3.236 3.708-3.527 3.708-3.842 3.708-4.176 3.708-4.522 3.709-4.873 3.708-5.23 3.708-5.594 3.708-5.965 3.708-6.363 3.709-6.853 2.78-5.543 2.782-5.954 2.78-6.419 2.782-6.933 2.781-7.497 2.781-8.11 2.781-8.774 2.782-9.486 2.78-10.244 2.782-11.044 2.781-11.88 2.781-12.737 2.781-13.598 3.708-19.444 3.709-20.846 3.708-22.063 5.562-34.716L384.696-1h0" clip-path="url(#pac7e4b81dc)" style="fill:none;stroke:#9467bd;stroke-width:1.5;stroke-linecap:square"/><path id="patch_19" d="M63.92 318.04V36.36" style="fill:none;stroke:#000;stroke-width:.8;stroke-linejoin:miter;stroke-linecap:square"/><path id="patch_20" d="M665.8 318.04V36.36" style="fill:none;stroke:#000;stroke-width:.8;stroke-linejoin:miter;stroke-linecap:square"/><path id="patch_21" d="M63.92 318.04H470.8" style="fill:none;stroke:#000;stroke-width:.8;stroke-linejoin:miter;stroke-linecap:square"/><path id="patch_22" d="M63.92 36.36H470.8" style="fill:none;stroke:#000;stroke-width:.8;stroke-linejoin:miter;stroke-linecap:square"/></g><g id="text_56" transform="matrix(.12 0 0 -.12 303.21 16.318)"><defs><path id="DejaVuSans-53" d="M3425 4513v-616q-359 172-678 256-319 85-616 85-515 0-795-200t-280-569q0-310 186-468 186-157 705-254l381-78q706-135 1042-474t336-907q0-679-455-1029Q2797-91 1919-91q-331 0-705 75-373 75-773 222v650q384-215 753-325 369-109 725-109 540 0 834 212 294 213 294 607 0 343-211 537t-692 291l-385 75q-706 140-1022 440-315 300-315 835 0 619 436 975t1201 356q329 0 669-60 341-59 697-177z" transform="scale(.01563)"/><path id="DejaVuSans-66" d="M2375 4863v-479h-550q-309 0-430-125-120-125-120-450v-309h947v-447h-947V0H697v3053H147v447h550v244q0 584 272 851 272 268 862 268h544z" transform="scale(.01563)"/><path id="DejaVuSans-68" d="M3513 2113V0h-575v2094q0 497-194 743-194 247-581 247-466 0-735-297-269-296-269-809V0H581v4863h578V2956q207 316 486 472 280 156 646 156 603 0 912-373 310-373 310-1098z" transform="scale(.01563)"/><path id="DejaVuSans-57" d="M213 4666h637l981-3944 978 3944h710l981-3944 978 3944h641L4947 0h-794l-984 4050L2175 0h-794L213 4666z" transform="scale(.01563)"/></defs><use xlink:href="#DejaVuSans-53"/><use xlink:href="#DejaVuSans-74" x="63.477"/><use xlink:href="#DejaVuSans-61" x="102.686"/><use xlink:href="#DejaVuSans-74" x="163.965"/><use xlink:href="#DejaVuSans-65" x="203.174"/><use xlink:href="#DejaVuSans-20" x="264.697"/><use xlink:href="#DejaVuSans-4f" x="296.484"/><use xlink:href="#DejaVuSans-66" x="375.195"/><use xlink:href="#DejaVuSans-20" x="410.4"/><use xlink:href="#DejaVuSans-54" x="442.188"/><use xlink:href="#DejaVuSans-68" x="503.271"/><use xlink:href="#DejaVuSans-65" x="566.65"/><use xlink:href="#DejaVuSans-20" x="628.174"/><use xlink:href="#DejaVuSans-57" x="659.961"/><use xlink:href="#DejaVuSans-6f" x="752.963"/><use xlink:href="#DejaVuSans-72" x="814.145"/><use xlink:href="#DejaVuSans-6c" x="855.258"/><use xlink:href="#DejaVuSans-64" x="883.041"/></g></g><defs><clipPath id="pac7e4b81dc"><path d="M63.92 36.36H470.8v281.68H63.92z"/></clipPath></defs></svg>