<?xml version="1.0" encoding="utf-8" standalone="no"?>
<!DOCTYPE svg PUBLIC "-//W3C//DTD SVG 1.1//EN"
  "http://www.w3.org/Graphics/SVG/1.1/DTD/svg11.dtd">
<svg xmlns:xlink="http://www.w3.org/1999/xlink" width="576pt" height="288pt" viewBox="0 0 576 288" xmlns="http://www.w3.org/2000/svg" version="1.1">
 <metadata>
  <rdf:RDF xmlns:dc="http://purl.org/dc/elements/1.1/" xmlns:cc="http://creativecommons.org/ns#" xmlns:rdf="http://www.w3.org/1999/02/22-rdf-syntax-ns#">
   <cc:Work>
    <dc:type rdf:resource="http://purl.org/dc/dcmitype/StillImage"/>
    <dc:date>2024-11-04T11:21:20.502686</dc:date>
    <dc:format>image/svg+xml</dc:format>
    <dc:creator>
     <cc:Agent>
      <dc:title>Matplotlib v3.6.3, https://matplotlib.org/</dc:title>
     </cc:Agent>
    </dc:creator>
   </cc:Work>
  </rdf:RDF>
 </metadata>
 <defs>
  <style type="text/css">*{stroke-linejoin: round; stroke-linecap: butt}</style>
 </defs>
 <g id="figure_1">
  <g id="patch_1">
   <path d="M 0 288 
L 576 288 
L 576 0 
L 0 0 
z
" style="fill: #ffffff"/>
  </g>
  <g id="axes_1">
   <g id="patch_2">
    <path d="M 63.92 246.04 
L 391.8 246.04 
L 391.8 36.36 
L 63.92 36.36 
z
" style="fill: #ffffff"/>
   </g>
   <g id="matplotlib.axis_1">
    <g id="xtick_1">
     <g id="line2d_1">
      <path d="M 78.823636 246.04 
L 78.823636 36.36 
" clip-path="url(#p981c32d9dd)" style="fill: none; stroke-dasharray: 0.8,1.32; stroke-dashoffset: 0; stroke: #b0b0b0; stroke-width: 0.8"/>
     </g>
     <g id="line2d_2">
      <defs>
       <path id="m652c19a77a" d="M 0 0 
L 0 3.5 
" style="stroke: #000000; stroke-width: 0.8"/>
      </defs>
      <g>
       <use xlink:href="#m652c19a77a" x="78.823636" y="246.04" style="stroke: #000000; stroke-width: 0.8"/>
      </g>
     </g>
     <g id="text_1">
      <!-- 1900 -->
      <g transform="translate(66.098636 260.638438) scale(0.1 -0.1)">
       <defs>
        <path id="DejaVuSans-31" d="M 794 531 
L 1825 531 
L 1825 4091 
L 703 3866 
L 703 4441 
L 1819 4666 
L 2450 4666 
L 2450 531 
L 3481 531 
L 3481 0 
L 794 0 
L 794 531 
z
" transform="scale(0.015625)"/>
        <path id="DejaVuSans-39" d="M 703 97 
L 703 672 
Q 941 559 1184 500 
Q 1428 441 1663 441 
Q 2288 441 2617 861 
Q 2947 1281 2994 2138 
Q 2813 1869 2534 1725 
Q 2256 1581 1919 1581 
Q 1219 1581 811 2004 
Q 403 2428 403 3163 
Q 403 3881 828 4315 
Q 1253 4750 1959 4750 
Q 2769 4750 3195 4129 
Q 3622 3509 3622 2328 
Q 3622 1225 3098 567 
Q 2575 -91 1691 -91 
Q 1453 -91 1209 -44 
Q 966 3 703 97 
z
M 1959 2075 
Q 2384 2075 2632 2365 
Q 2881 2656 2881 3163 
Q 2881 3666 2632 3958 
Q 2384 4250 1959 4250 
Q 1534 4250 1286 3958 
Q 1038 3666 1038 3163 
Q 1038 2656 1286 2365 
Q 1534 2075 1959 2075 
z
" transform="scale(0.015625)"/>
        <path id="DejaVuSans-30" d="M 2034 4250 
Q 1547 4250 1301 3770 
Q 1056 3291 1056 2328 
Q 1056 1369 1301 889 
Q 1547 409 2034 409 
Q 2525 409 2770 889 
Q 3016 1369 3016 2328 
Q 3016 3291 2770 3770 
Q 2525 4250 2034 4250 
z
M 2034 4750 
Q 2819 4750 3233 4129 
Q 3647 3509 3647 2328 
Q 3647 1150 3233 529 
Q 2819 -91 2034 -91 
Q 1250 -91 836 529 
Q 422 1150 422 2328 
Q 422 3509 836 4129 
Q 1250 4750 2034 4750 
z
" transform="scale(0.015625)"/>
       </defs>
       <use xlink:href="#DejaVuSans-31"/>
       <use xlink:href="#DejaVuSans-39" x="63.623047"/>
       <use xlink:href="#DejaVuSans-30" x="127.246094"/>
       <use xlink:href="#DejaVuSans-30" x="190.869141"/>
      </g>
     </g>
    </g>
    <g id="xtick_2">
     <g id="line2d_3">
      <path d="M 116.120024 246.04 
L 116.120024 36.36 
" clip-path="url(#p981c32d9dd)" style="fill: none; stroke-dasharray: 0.8,1.32; stroke-dashoffset: 0; stroke: #b0b0b0; stroke-width: 0.8"/>
     </g>
     <g id="line2d_4">
      <g>
       <use xlink:href="#m652c19a77a" x="116.120024" y="246.04" style="stroke: #000000; stroke-width: 0.8"/>
      </g>
     </g>
     <g id="text_2">
      <!-- 1925 -->
      <g transform="translate(103.395024 260.638438) scale(0.1 -0.1)">
       <defs>
        <path id="DejaVuSans-32" d="M 1228 531 
L 3431 531 
L 3431 0 
L 469 0 
L 469 531 
Q 828 903 1448 1529 
Q 2069 2156 2228 2338 
Q 2531 2678 2651 2914 
Q 2772 3150 2772 3378 
Q 2772 3750 2511 3984 
Q 2250 4219 1831 4219 
Q 1534 4219 1204 4116 
Q 875 4013 500 3803 
L 500 4441 
Q 881 4594 1212 4672 
Q 1544 4750 1819 4750 
Q 2544 4750 2975 4387 
Q 3406 4025 3406 3419 
Q 3406 3131 3298 2873 
Q 3191 2616 2906 2266 
Q 2828 2175 2409 1742 
Q 1991 1309 1228 531 
z
" transform="scale(0.015625)"/>
        <path id="DejaVuSans-35" d="M 691 4666 
L 3169 4666 
L 3169 4134 
L 1269 4134 
L 1269 2991 
Q 1406 3038 1543 3061 
Q 1681 3084 1819 3084 
Q 2600 3084 3056 2656 
Q 3513 2228 3513 1497 
Q 3513 744 3044 326 
Q 2575 -91 1722 -91 
Q 1428 -91 1123 -41 
Q 819 9 494 109 
L 494 744 
Q 775 591 1075 516 
Q 1375 441 1709 441 
Q 2250 441 2565 725 
Q 2881 1009 2881 1497 
Q 2881 1984 2565 2268 
Q 2250 2553 1709 2553 
Q 1456 2553 1204 2497 
Q 953 2441 691 2322 
L 691 4666 
z
" transform="scale(0.015625)"/>
       </defs>
       <use xlink:href="#DejaVuSans-31"/>
       <use xlink:href="#DejaVuSans-39" x="63.623047"/>
       <use xlink:href="#DejaVuSans-32" x="127.246094"/>
       <use xlink:href="#DejaVuSans-35" x="190.869141"/>
      </g>
     </g>
    </g>
    <g id="xtick_3">
     <g id="line2d_5">
      <path d="M 153.416411 246.04 
L 153.416411 36.36 
" clip-path="url(#p981c32d9dd)" style="fill: none; stroke-dasharray: 0.8,1.32; stroke-dashoffset: 0; stroke: #b0b0b0; stroke-width: 0.8"/>
     </g>
     <g id="line2d_6">
      <g>
       <use xlink:href="#m652c19a77a" x="153.416411" y="246.04" style="stroke: #000000; stroke-width: 0.8"/>
      </g>
     </g>
     <g id="text_3">
      <!-- 1950 -->
      <g transform="translate(140.691411 260.638438) scale(0.1 -0.1)">
       <use xlink:href="#DejaVuSans-31"/>
       <use xlink:href="#DejaVuSans-39" x="63.623047"/>
       <use xlink:href="#DejaVuSans-35" x="127.246094"/>
       <use xlink:href="#DejaVuSans-30" x="190.869141"/>
      </g>
     </g>
    </g>
    <g id="xtick_4">
     <g id="line2d_7">
      <path d="M 190.712798 246.04 
L 190.712798 36.36 
" clip-path="url(#p981c32d9dd)" style="fill: none; stroke-dasharray: 0.8,1.32; stroke-dashoffset: 0; stroke: #b0b0b0; stroke-width: 0.8"/>
     </g>
     <g id="line2d_8">
      <g>
       <use xlink:href="#m652c19a77a" x="190.712798" y="246.04" style="stroke: #000000; stroke-width: 0.8"/>
      </g>
     </g>
     <g id="text_4">
      <!-- 1975 -->
      <g transform="translate(177.987798 260.638438) scale(0.1 -0.1)">
       <defs>
        <path id="DejaVuSans-37" d="M 525 4666 
L 3525 4666 
L 3525 4397 
L 1831 0 
L 1172 0 
L 2766 4134 
L 525 4134 
L 525 4666 
z
" transform="scale(0.015625)"/>
       </defs>
       <use xlink:href="#DejaVuSans-31"/>
       <use xlink:href="#DejaVuSans-39" x="63.623047"/>
       <use xlink:href="#DejaVuSans-37" x="127.246094"/>
       <use xlink:href="#DejaVuSans-35" x="190.869141"/>
      </g>
     </g>
    </g>
    <g id="xtick_5">
     <g id="line2d_9">
      <path d="M 228.009186 246.04 
L 228.009186 36.36 
" clip-path="url(#p981c32d9dd)" style="fill: none; stroke-dasharray: 0.8,1.32; stroke-dashoffset: 0; stroke: #b0b0b0; stroke-width: 0.8"/>
     </g>
     <g id="line2d_10">
      <g>
       <use xlink:href="#m652c19a77a" x="228.009186" y="246.04" style="stroke: #000000; stroke-width: 0.8"/>
      </g>
     </g>
     <g id="text_5">
      <!-- 2000 -->
      <g transform="translate(215.284186 260.638438) scale(0.1 -0.1)">
       <use xlink:href="#DejaVuSans-32"/>
       <use xlink:href="#DejaVuSans-30" x="63.623047"/>
       <use xlink:href="#DejaVuSans-30" x="127.246094"/>
       <use xlink:href="#DejaVuSans-30" x="190.869141"/>
      </g>
     </g>
    </g>
    <g id="xtick_6">
     <g id="line2d_11">
      <path d="M 265.305573 246.04 
L 265.305573 36.36 
" clip-path="url(#p981c32d9dd)" style="fill: none; stroke-dasharray: 0.8,1.32; stroke-dashoffset: 0; stroke: #b0b0b0; stroke-width: 0.8"/>
     </g>
     <g id="line2d_12">
      <g>
       <use xlink:href="#m652c19a77a" x="265.305573" y="246.04" style="stroke: #000000; stroke-width: 0.8"/>
      </g>
     </g>
     <g id="text_6">
      <!-- 2025 -->
      <g transform="translate(252.580573 260.638438) scale(0.1 -0.1)">
       <use xlink:href="#DejaVuSans-32"/>
       <use xlink:href="#DejaVuSans-30" x="63.623047"/>
       <use xlink:href="#DejaVuSans-32" x="127.246094"/>
       <use xlink:href="#DejaVuSans-35" x="190.869141"/>
      </g>
     </g>
    </g>
    <g id="xtick_7">
     <g id="line2d_13">
      <path d="M 302.60196 246.04 
L 302.60196 36.36 
" clip-path="url(#p981c32d9dd)" style="fill: none; stroke-dasharray: 0.8,1.32; stroke-dashoffset: 0; stroke: #b0b0b0; stroke-width: 0.8"/>
     </g>
     <g id="line2d_14">
      <g>
       <use xlink:href="#m652c19a77a" x="302.60196" y="246.04" style="stroke: #000000; stroke-width: 0.8"/>
      </g>
     </g>
     <g id="text_7">
      <!-- 2050 -->
      <g transform="translate(289.87696 260.638438) scale(0.1 -0.1)">
       <use xlink:href="#DejaVuSans-32"/>
       <use xlink:href="#DejaVuSans-30" x="63.623047"/>
       <use xlink:href="#DejaVuSans-35" x="127.246094"/>
       <use xlink:href="#DejaVuSans-30" x="190.869141"/>
      </g>
     </g>
    </g>
    <g id="xtick_8">
     <g id="line2d_15">
      <path d="M 339.898347 246.04 
L 339.898347 36.36 
" clip-path="url(#p981c32d9dd)" style="fill: none; stroke-dasharray: 0.8,1.32; stroke-dashoffset: 0; stroke: #b0b0b0; stroke-width: 0.8"/>
     </g>
     <g id="line2d_16">
      <g>
       <use xlink:href="#m652c19a77a" x="339.898347" y="246.04" style="stroke: #000000; stroke-width: 0.8"/>
      </g>
     </g>
     <g id="text_8">
      <!-- 2075 -->
      <g transform="translate(327.173347 260.638438) scale(0.1 -0.1)">
       <use xlink:href="#DejaVuSans-32"/>
       <use xlink:href="#DejaVuSans-30" x="63.623047"/>
       <use xlink:href="#DejaVuSans-37" x="127.246094"/>
       <use xlink:href="#DejaVuSans-35" x="190.869141"/>
      </g>
     </g>
    </g>
    <g id="xtick_9">
     <g id="line2d_17">
      <path d="M 377.194735 246.04 
L 377.194735 36.36 
" clip-path="url(#p981c32d9dd)" style="fill: none; stroke-dasharray: 0.8,1.32; stroke-dashoffset: 0; stroke: #b0b0b0; stroke-width: 0.8"/>
     </g>
     <g id="line2d_18">
      <g>
       <use xlink:href="#m652c19a77a" x="377.194735" y="246.04" style="stroke: #000000; stroke-width: 0.8"/>
      </g>
     </g>
     <g id="text_9">
      <!-- 2100 -->
      <g transform="translate(364.469735 260.638438) scale(0.1 -0.1)">
       <use xlink:href="#DejaVuSans-32"/>
       <use xlink:href="#DejaVuSans-31" x="63.623047"/>
       <use xlink:href="#DejaVuSans-30" x="127.246094"/>
       <use xlink:href="#DejaVuSans-30" x="190.869141"/>
      </g>
     </g>
    </g>
    <g id="text_10">
     <!-- Year -->
     <g transform="translate(217.2725 274.316562) scale(0.1 -0.1)">
      <defs>
       <path id="DejaVuSans-59" d="M -13 4666 
L 666 4666 
L 1959 2747 
L 3244 4666 
L 3922 4666 
L 2272 2222 
L 2272 0 
L 1638 0 
L 1638 2222 
L -13 4666 
z
" transform="scale(0.015625)"/>
       <path id="DejaVuSans-65" d="M 3597 1894 
L 3597 1613 
L 953 1613 
Q 991 1019 1311 708 
Q 1631 397 2203 397 
Q 2534 397 2845 478 
Q 3156 559 3463 722 
L 3463 178 
Q 3153 47 2828 -22 
Q 2503 -91 2169 -91 
Q 1331 -91 842 396 
Q 353 884 353 1716 
Q 353 2575 817 3079 
Q 1281 3584 2069 3584 
Q 2775 3584 3186 3129 
Q 3597 2675 3597 1894 
z
M 3022 2063 
Q 3016 2534 2758 2815 
Q 2500 3097 2075 3097 
Q 1594 3097 1305 2825 
Q 1016 2553 972 2059 
L 3022 2063 
z
" transform="scale(0.015625)"/>
       <path id="DejaVuSans-61" d="M 2194 1759 
Q 1497 1759 1228 1600 
Q 959 1441 959 1056 
Q 959 750 1161 570 
Q 1363 391 1709 391 
Q 2188 391 2477 730 
Q 2766 1069 2766 1631 
L 2766 1759 
L 2194 1759 
z
M 3341 1997 
L 3341 0 
L 2766 0 
L 2766 531 
Q 2569 213 2275 61 
Q 1981 -91 1556 -91 
Q 1019 -91 701 211 
Q 384 513 384 1019 
Q 384 1609 779 1909 
Q 1175 2209 1959 2209 
L 2766 2209 
L 2766 2266 
Q 2766 2663 2505 2880 
Q 2244 3097 1772 3097 
Q 1472 3097 1187 3025 
Q 903 2953 641 2809 
L 641 3341 
Q 956 3463 1253 3523 
Q 1550 3584 1831 3584 
Q 2591 3584 2966 3190 
Q 3341 2797 3341 1997 
z
" transform="scale(0.015625)"/>
       <path id="DejaVuSans-72" d="M 2631 2963 
Q 2534 3019 2420 3045 
Q 2306 3072 2169 3072 
Q 1681 3072 1420 2755 
Q 1159 2438 1159 1844 
L 1159 0 
L 581 0 
L 581 3500 
L 1159 3500 
L 1159 2956 
Q 1341 3275 1631 3429 
Q 1922 3584 2338 3584 
Q 2397 3584 2469 3576 
Q 2541 3569 2628 3553 
L 2631 2963 
z
" transform="scale(0.015625)"/>
      </defs>
      <use xlink:href="#DejaVuSans-59"/>
      <use xlink:href="#DejaVuSans-65" x="47.833984"/>
      <use xlink:href="#DejaVuSans-61" x="109.357422"/>
      <use xlink:href="#DejaVuSans-72" x="170.636719"/>
     </g>
    </g>
   </g>
   <g id="matplotlib.axis_2">
    <g id="ytick_1">
     <g id="line2d_19">
      <defs>
       <path id="m66dcf3796d" d="M 0 0 
L -3.5 0 
" style="stroke: #1f77b4; stroke-width: 0.8"/>
      </defs>
      <g>
       <use xlink:href="#m66dcf3796d" x="63.92" y="246.04" style="fill: #1f77b4; stroke: #1f77b4; stroke-width: 0.8"/>
      </g>
     </g>
     <g id="text_11">
      <!-- 0.0 -->
      <g style="fill: #1f77b4" transform="translate(41.016875 249.839219) scale(0.1 -0.1)">
       <defs>
        <path id="DejaVuSans-2e" d="M 684 794 
L 1344 794 
L 1344 0 
L 684 0 
L 684 794 
z
" transform="scale(0.015625)"/>
       </defs>
       <use xlink:href="#DejaVuSans-30"/>
       <use xlink:href="#DejaVuSans-2e" x="63.623047"/>
       <use xlink:href="#DejaVuSans-30" x="95.410156"/>
      </g>
     </g>
    </g>
    <g id="ytick_2">
     <g id="line2d_20">
      <g>
       <use xlink:href="#m66dcf3796d" x="63.92" y="204.104" style="fill: #1f77b4; stroke: #1f77b4; stroke-width: 0.8"/>
      </g>
     </g>
     <g id="text_12">
      <!-- 2.0 G -->
      <g style="fill: #1f77b4" transform="translate(31.271563 207.903219) scale(0.1 -0.1)">
       <defs>
        <path id="DejaVuSans-2009" transform="scale(0.015625)"/>
        <path id="DejaVuSans-47" d="M 3809 666 
L 3809 1919 
L 2778 1919 
L 2778 2438 
L 4434 2438 
L 4434 434 
Q 4069 175 3628 42 
Q 3188 -91 2688 -91 
Q 1594 -91 976 548 
Q 359 1188 359 2328 
Q 359 3472 976 4111 
Q 1594 4750 2688 4750 
Q 3144 4750 3555 4637 
Q 3966 4525 4313 4306 
L 4313 3634 
Q 3963 3931 3569 4081 
Q 3175 4231 2741 4231 
Q 1884 4231 1454 3753 
Q 1025 3275 1025 2328 
Q 1025 1384 1454 906 
Q 1884 428 2741 428 
Q 3075 428 3337 486 
Q 3600 544 3809 666 
z
" transform="scale(0.015625)"/>
       </defs>
       <use xlink:href="#DejaVuSans-32"/>
       <use xlink:href="#DejaVuSans-2e" x="63.623047"/>
       <use xlink:href="#DejaVuSans-30" x="95.410156"/>
       <use xlink:href="#DejaVuSans-2009" x="159.033203"/>
       <use xlink:href="#DejaVuSans-47" x="179.003906"/>
      </g>
     </g>
    </g>
    <g id="ytick_3">
     <g id="line2d_21">
      <g>
       <use xlink:href="#m66dcf3796d" x="63.92" y="162.168" style="fill: #1f77b4; stroke: #1f77b4; stroke-width: 0.8"/>
      </g>
     </g>
     <g id="text_13">
      <!-- 4.0 G -->
      <g style="fill: #1f77b4" transform="translate(31.271563 165.967219) scale(0.1 -0.1)">
       <defs>
        <path id="DejaVuSans-34" d="M 2419 4116 
L 825 1625 
L 2419 1625 
L 2419 4116 
z
M 2253 4666 
L 3047 4666 
L 3047 1625 
L 3713 1625 
L 3713 1100 
L 3047 1100 
L 3047 0 
L 2419 0 
L 2419 1100 
L 313 1100 
L 313 1709 
L 2253 4666 
z
" transform="scale(0.015625)"/>
       </defs>
       <use xlink:href="#DejaVuSans-34"/>
       <use xlink:href="#DejaVuSans-2e" x="63.623047"/>
       <use xlink:href="#DejaVuSans-30" x="95.410156"/>
       <use xlink:href="#DejaVuSans-2009" x="159.033203"/>
       <use xlink:href="#DejaVuSans-47" x="179.003906"/>
      </g>
     </g>
    </g>
    <g id="ytick_4">
     <g id="line2d_22">
      <g>
       <use xlink:href="#m66dcf3796d" x="63.92" y="120.232" style="fill: #1f77b4; stroke: #1f77b4; stroke-width: 0.8"/>
      </g>
     </g>
     <g id="text_14">
      <!-- 6.0 G -->
      <g style="fill: #1f77b4" transform="translate(31.271563 124.031219) scale(0.1 -0.1)">
       <defs>
        <path id="DejaVuSans-36" d="M 2113 2584 
Q 1688 2584 1439 2293 
Q 1191 2003 1191 1497 
Q 1191 994 1439 701 
Q 1688 409 2113 409 
Q 2538 409 2786 701 
Q 3034 994 3034 1497 
Q 3034 2003 2786 2293 
Q 2538 2584 2113 2584 
z
M 3366 4563 
L 3366 3988 
Q 3128 4100 2886 4159 
Q 2644 4219 2406 4219 
Q 1781 4219 1451 3797 
Q 1122 3375 1075 2522 
Q 1259 2794 1537 2939 
Q 1816 3084 2150 3084 
Q 2853 3084 3261 2657 
Q 3669 2231 3669 1497 
Q 3669 778 3244 343 
Q 2819 -91 2113 -91 
Q 1303 -91 875 529 
Q 447 1150 447 2328 
Q 447 3434 972 4092 
Q 1497 4750 2381 4750 
Q 2619 4750 2861 4703 
Q 3103 4656 3366 4563 
z
" transform="scale(0.015625)"/>
       </defs>
       <use xlink:href="#DejaVuSans-36"/>
       <use xlink:href="#DejaVuSans-2e" x="63.623047"/>
       <use xlink:href="#DejaVuSans-30" x="95.410156"/>
       <use xlink:href="#DejaVuSans-2009" x="159.033203"/>
       <use xlink:href="#DejaVuSans-47" x="179.003906"/>
      </g>
     </g>
    </g>
    <g id="ytick_5">
     <g id="line2d_23">
      <g>
       <use xlink:href="#m66dcf3796d" x="63.92" y="78.296" style="fill: #1f77b4; stroke: #1f77b4; stroke-width: 0.8"/>
      </g>
     </g>
     <g id="text_15">
      <!-- 8.0 G -->
      <g style="fill: #1f77b4" transform="translate(31.271563 82.095219) scale(0.1 -0.1)">
       <defs>
        <path id="DejaVuSans-38" d="M 2034 2216 
Q 1584 2216 1326 1975 
Q 1069 1734 1069 1313 
Q 1069 891 1326 650 
Q 1584 409 2034 409 
Q 2484 409 2743 651 
Q 3003 894 3003 1313 
Q 3003 1734 2745 1975 
Q 2488 2216 2034 2216 
z
M 1403 2484 
Q 997 2584 770 2862 
Q 544 3141 544 3541 
Q 544 4100 942 4425 
Q 1341 4750 2034 4750 
Q 2731 4750 3128 4425 
Q 3525 4100 3525 3541 
Q 3525 3141 3298 2862 
Q 3072 2584 2669 2484 
Q 3125 2378 3379 2068 
Q 3634 1759 3634 1313 
Q 3634 634 3220 271 
Q 2806 -91 2034 -91 
Q 1263 -91 848 271 
Q 434 634 434 1313 
Q 434 1759 690 2068 
Q 947 2378 1403 2484 
z
M 1172 3481 
Q 1172 3119 1398 2916 
Q 1625 2713 2034 2713 
Q 2441 2713 2670 2916 
Q 2900 3119 2900 3481 
Q 2900 3844 2670 4047 
Q 2441 4250 2034 4250 
Q 1625 4250 1398 4047 
Q 1172 3844 1172 3481 
z
" transform="scale(0.015625)"/>
       </defs>
       <use xlink:href="#DejaVuSans-38"/>
       <use xlink:href="#DejaVuSans-2e" x="63.623047"/>
       <use xlink:href="#DejaVuSans-30" x="95.410156"/>
       <use xlink:href="#DejaVuSans-2009" x="159.033203"/>
       <use xlink:href="#DejaVuSans-47" x="179.003906"/>
      </g>
     </g>
    </g>
    <g id="ytick_6">
     <g id="line2d_24">
      <g>
       <use xlink:href="#m66dcf3796d" x="63.92" y="36.36" style="fill: #1f77b4; stroke: #1f77b4; stroke-width: 0.8"/>
      </g>
     </g>
     <g id="text_16">
      <!-- 10.0 G -->
      <g style="fill: #1f77b4" transform="translate(24.909063 40.159219) scale(0.1 -0.1)">
       <use xlink:href="#DejaVuSans-31"/>
       <use xlink:href="#DejaVuSans-30" x="63.623047"/>
       <use xlink:href="#DejaVuSans-2e" x="127.246094"/>
       <use xlink:href="#DejaVuSans-30" x="159.033203"/>
       <use xlink:href="#DejaVuSans-2009" x="222.65625"/>
       <use xlink:href="#DejaVuSans-47" x="242.626953"/>
      </g>
     </g>
    </g>
    <g id="text_17">
     <!-- Total Population (capita) -->
     <g style="fill: #1f77b4" transform="translate(18.829375 201.623437) rotate(-90) scale(0.1 -0.1)">
      <defs>
       <path id="DejaVuSans-54" d="M -19 4666 
L 3928 4666 
L 3928 4134 
L 2272 4134 
L 2272 0 
L 1638 0 
L 1638 4134 
L -19 4134 
L -19 4666 
z
" transform="scale(0.015625)"/>
       <path id="DejaVuSans-6f" d="M 1959 3097 
Q 1497 3097 1228 2736 
Q 959 2375 959 1747 
Q 959 1119 1226 758 
Q 1494 397 1959 397 
Q 2419 397 2687 759 
Q 2956 1122 2956 1747 
Q 2956 2369 2687 2733 
Q 2419 3097 1959 3097 
z
M 1959 3584 
Q 2709 3584 3137 3096 
Q 3566 2609 3566 1747 
Q 3566 888 3137 398 
Q 2709 -91 1959 -91 
Q 1206 -91 779 398 
Q 353 888 353 1747 
Q 353 2609 779 3096 
Q 1206 3584 1959 3584 
z
" transform="scale(0.015625)"/>
       <path id="DejaVuSans-74" d="M 1172 4494 
L 1172 3500 
L 2356 3500 
L 2356 3053 
L 1172 3053 
L 1172 1153 
Q 1172 725 1289 603 
Q 1406 481 1766 481 
L 2356 481 
L 2356 0 
L 1766 0 
Q 1100 0 847 248 
Q 594 497 594 1153 
L 594 3053 
L 172 3053 
L 172 3500 
L 594 3500 
L 594 4494 
L 1172 4494 
z
" transform="scale(0.015625)"/>
       <path id="DejaVuSans-6c" d="M 603 4863 
L 1178 4863 
L 1178 0 
L 603 0 
L 603 4863 
z
" transform="scale(0.015625)"/>
       <path id="DejaVuSans-20" transform="scale(0.015625)"/>
       <path id="DejaVuSans-50" d="M 1259 4147 
L 1259 2394 
L 2053 2394 
Q 2494 2394 2734 2622 
Q 2975 2850 2975 3272 
Q 2975 3691 2734 3919 
Q 2494 4147 2053 4147 
L 1259 4147 
z
M 628 4666 
L 2053 4666 
Q 2838 4666 3239 4311 
Q 3641 3956 3641 3272 
Q 3641 2581 3239 2228 
Q 2838 1875 2053 1875 
L 1259 1875 
L 1259 0 
L 628 0 
L 628 4666 
z
" transform="scale(0.015625)"/>
       <path id="DejaVuSans-70" d="M 1159 525 
L 1159 -1331 
L 581 -1331 
L 581 3500 
L 1159 3500 
L 1159 2969 
Q 1341 3281 1617 3432 
Q 1894 3584 2278 3584 
Q 2916 3584 3314 3078 
Q 3713 2572 3713 1747 
Q 3713 922 3314 415 
Q 2916 -91 2278 -91 
Q 1894 -91 1617 61 
Q 1341 213 1159 525 
z
M 3116 1747 
Q 3116 2381 2855 2742 
Q 2594 3103 2138 3103 
Q 1681 3103 1420 2742 
Q 1159 2381 1159 1747 
Q 1159 1113 1420 752 
Q 1681 391 2138 391 
Q 2594 391 2855 752 
Q 3116 1113 3116 1747 
z
" transform="scale(0.015625)"/>
       <path id="DejaVuSans-75" d="M 544 1381 
L 544 3500 
L 1119 3500 
L 1119 1403 
Q 1119 906 1312 657 
Q 1506 409 1894 409 
Q 2359 409 2629 706 
Q 2900 1003 2900 1516 
L 2900 3500 
L 3475 3500 
L 3475 0 
L 2900 0 
L 2900 538 
Q 2691 219 2414 64 
Q 2138 -91 1772 -91 
Q 1169 -91 856 284 
Q 544 659 544 1381 
z
M 1991 3584 
L 1991 3584 
z
" transform="scale(0.015625)"/>
       <path id="DejaVuSans-69" d="M 603 3500 
L 1178 3500 
L 1178 0 
L 603 0 
L 603 3500 
z
M 603 4863 
L 1178 4863 
L 1178 4134 
L 603 4134 
L 603 4863 
z
" transform="scale(0.015625)"/>
       <path id="DejaVuSans-6e" d="M 3513 2113 
L 3513 0 
L 2938 0 
L 2938 2094 
Q 2938 2591 2744 2837 
Q 2550 3084 2163 3084 
Q 1697 3084 1428 2787 
Q 1159 2491 1159 1978 
L 1159 0 
L 581 0 
L 581 3500 
L 1159 3500 
L 1159 2956 
Q 1366 3272 1645 3428 
Q 1925 3584 2291 3584 
Q 2894 3584 3203 3211 
Q 3513 2838 3513 2113 
z
" transform="scale(0.015625)"/>
       <path id="DejaVuSans-28" d="M 1984 4856 
Q 1566 4138 1362 3434 
Q 1159 2731 1159 2009 
Q 1159 1288 1364 580 
Q 1569 -128 1984 -844 
L 1484 -844 
Q 1016 -109 783 600 
Q 550 1309 550 2009 
Q 550 2706 781 3412 
Q 1013 4119 1484 4856 
L 1984 4856 
z
" transform="scale(0.015625)"/>
       <path id="DejaVuSans-63" d="M 3122 3366 
L 3122 2828 
Q 2878 2963 2633 3030 
Q 2388 3097 2138 3097 
Q 1578 3097 1268 2742 
Q 959 2388 959 1747 
Q 959 1106 1268 751 
Q 1578 397 2138 397 
Q 2388 397 2633 464 
Q 2878 531 3122 666 
L 3122 134 
Q 2881 22 2623 -34 
Q 2366 -91 2075 -91 
Q 1284 -91 818 406 
Q 353 903 353 1747 
Q 353 2603 823 3093 
Q 1294 3584 2113 3584 
Q 2378 3584 2631 3529 
Q 2884 3475 3122 3366 
z
" transform="scale(0.015625)"/>
       <path id="DejaVuSans-29" d="M 513 4856 
L 1013 4856 
Q 1481 4119 1714 3412 
Q 1947 2706 1947 2009 
Q 1947 1309 1714 600 
Q 1481 -109 1013 -844 
L 513 -844 
Q 928 -128 1133 580 
Q 1338 1288 1338 2009 
Q 1338 2731 1133 3434 
Q 928 4138 513 4856 
z
" transform="scale(0.015625)"/>
      </defs>
      <use xlink:href="#DejaVuSans-54"/>
      <use xlink:href="#DejaVuSans-6f" x="44.083984"/>
      <use xlink:href="#DejaVuSans-74" x="105.265625"/>
      <use xlink:href="#DejaVuSans-61" x="144.474609"/>
      <use xlink:href="#DejaVuSans-6c" x="205.753906"/>
      <use xlink:href="#DejaVuSans-20" x="233.537109"/>
      <use xlink:href="#DejaVuSans-50" x="265.324219"/>
      <use xlink:href="#DejaVuSans-6f" x="322.001953"/>
      <use xlink:href="#DejaVuSans-70" x="383.183594"/>
      <use xlink:href="#DejaVuSans-75" x="446.660156"/>
      <use xlink:href="#DejaVuSans-6c" x="510.039062"/>
      <use xlink:href="#DejaVuSans-61" x="537.822266"/>
      <use xlink:href="#DejaVuSans-74" x="599.101562"/>
      <use xlink:href="#DejaVuSans-69" x="638.310547"/>
      <use xlink:href="#DejaVuSans-6f" x="666.09375"/>
      <use xlink:href="#DejaVuSans-6e" x="727.275391"/>
      <use xlink:href="#DejaVuSans-20" x="790.654297"/>
      <use xlink:href="#DejaVuSans-28" x="822.441406"/>
      <use xlink:href="#DejaVuSans-63" x="861.455078"/>
      <use xlink:href="#DejaVuSans-61" x="916.435547"/>
      <use xlink:href="#DejaVuSans-70" x="977.714844"/>
      <use xlink:href="#DejaVuSans-69" x="1041.191406"/>
      <use xlink:href="#DejaVuSans-74" x="1068.974609"/>
      <use xlink:href="#DejaVuSans-61" x="1108.183594"/>
      <use xlink:href="#DejaVuSans-29" x="1169.462891"/>
     </g>
    </g>
   </g>
   <g id="line2d_25">
    <path d="M 78.823636 212.4912 
L 81.508976 212.152201 
L 85.089429 211.43773 
L 94.935676 209.135316 
L 108.959117 205.688392 
L 118.805364 203.03645 
L 127.159754 200.556002 
L 134.619032 198.105914 
L 138.796227 196.541504 
L 148.940844 190.334284 
L 154.908266 186.400661 
L 160.577317 182.403861 
L 165.947997 178.340433 
L 171.020306 174.22679 
L 176.390986 169.580628 
L 182.358407 164.131881 
L 187.729087 158.937503 
L 192.801396 153.719997 
L 198.172076 147.877119 
L 203.841127 141.360584 
L 211.002033 132.790666 
L 219.058053 122.794456 
L 233.976608 104.146999 
L 240.540772 96.423877 
L 245.61308 90.792086 
L 252.177245 83.866218 
L 256.951182 79.103992 
L 260.830006 75.570892 
L 265.305573 71.806533 
L 269.482768 68.576597 
L 273.958335 65.406821 
L 276.942046 63.516204 
L 279.329014 62.24665 
L 281.715983 61.22574 
L 283.804581 60.557952 
L 285.893179 60.109999 
L 287.981776 59.907405 
L 290.070374 59.960457 
L 292.158972 60.271557 
L 294.247569 60.840686 
L 295.739425 61.460111 
L 296.932909 62.190554 
L 298.424765 63.3916 
L 299.91662 64.905767 
L 301.110105 66.42268 
L 302.60196 68.719045 
L 304.392187 71.986649 
L 305.884042 75.146588 
L 307.674269 79.440472 
L 310.061238 85.777649 
L 313.044949 94.365034 
L 317.222144 106.339476 
L 319.907484 113.382023 
L 322.592824 119.795842 
L 324.979793 124.964383 
L 327.366761 129.65304 
L 330.052101 134.405061 
L 332.737441 138.698678 
L 336.019523 143.49032 
L 339.301605 147.920068 
L 342.583687 151.991523 
L 345.865769 155.707084 
L 349.147851 159.080172 
L 352.131562 161.847245 
L 355.115273 164.327136 
L 358.098984 166.519382 
L 364.364778 170.661577 
L 371.824055 175.407321 
L 376.896364 178.447852 
L 376.896364 178.447852 
" clip-path="url(#p981c32d9dd)" style="fill: none; stroke: #1f77b4; stroke-width: 1.5; stroke-linecap: square"/>
   </g>
   <g id="line2d_26">
    <path d="M 78.823636 212.4912 
L 81.508976 212.298179 
L 84.791058 211.79976 
L 91.951965 210.41954 
L 105.080293 207.673728 
L 116.418395 205.08546 
L 125.369528 202.818427 
L 132.828805 200.714895 
L 138.497856 198.945039 
L 149.537587 192.7055 
L 155.505009 189.024431 
L 160.875688 185.458949 
L 165.947997 181.829965 
L 171.020306 177.922563 
L 176.987728 173.035497 
L 182.95515 167.862354 
L 188.624201 162.645813 
L 193.99488 157.398612 
L 200.260673 150.942493 
L 208.615064 142.010518 
L 218.162939 131.45771 
L 227.114072 121.63114 
L 233.081494 115.415196 
L 242.629369 105.845785 
L 247.104936 101.696208 
L 251.878873 97.582185 
L 256.35444 94.012298 
L 260.830006 90.735672 
L 265.007202 87.951594 
L 268.587655 85.808891 
L 272.168108 83.927838 
L 274.853448 82.780669 
L 277.240417 81.980568 
L 279.627386 81.401065 
L 282.014354 81.031017 
L 284.401323 80.876314 
L 286.489921 80.983396 
L 288.578519 81.347086 
L 290.368745 81.880677 
L 292.158972 82.625654 
L 294.247569 83.757067 
L 296.336167 85.183478 
L 297.828023 86.434606 
L 299.319878 87.972218 
L 300.811734 89.831187 
L 302.303589 92.103864 
L 304.093816 95.322998 
L 305.884042 99.040432 
L 307.97264 103.936855 
L 316.625402 125.013156 
L 319.310742 130.794772 
L 321.996082 136.039697 
L 324.681421 140.782421 
L 327.366761 145.097051 
L 330.648843 149.9683 
L 333.930925 154.443154 
L 337.511379 158.925221 
L 340.793461 162.695721 
L 344.075543 166.147542 
L 347.357625 169.27505 
L 356.9055 177.71691 
L 362.27618 181.981059 
L 366.155004 184.77442 
L 369.735457 187.070584 
L 373.614282 189.30639 
L 376.896364 191.043685 
L 376.896364 191.043685 
" clip-path="url(#p981c32d9dd)" style="fill: none; stroke-dasharray: 1.85,0.8; stroke-dashoffset: 0; stroke: #1f77b4; stroke-width: 0.5"/>
   </g>
   <g id="patch_3">
    <path d="M 63.92 246.04 
L 63.92 36.36 
" style="fill: none; stroke: #000000; stroke-width: 0.8; stroke-linejoin: miter; stroke-linecap: square"/>
   </g>
   <g id="patch_4">
    <path d="M 391.8 246.04 
L 391.8 36.36 
" style="fill: none; stroke: #000000; stroke-width: 0.8; stroke-linejoin: miter; stroke-linecap: square"/>
   </g>
   <g id="patch_5">
    <path d="M 63.92 246.04 
L 391.8 246.04 
" style="fill: none; stroke: #000000; stroke-width: 0.8; stroke-linejoin: miter; stroke-linecap: square"/>
   </g>
   <g id="patch_6">
    <path d="M 63.92 36.36 
L 391.8 36.36 
" style="fill: none; stroke: #000000; stroke-width: 0.8; stroke-linejoin: miter; stroke-linecap: square"/>
   </g>
  </g>
  <g id="axes_2">
   <g id="matplotlib.axis_3">
    <g id="ytick_7">
     <g id="line2d_27">
      <defs>
       <path id="m64fe87e1ab" d="M 0 0 
L 3.5 0 
" style="stroke: #ff7f0e; stroke-width: 0.8"/>
      </defs>
      <g>
       <use xlink:href="#m64fe87e1ab" x="391.8" y="246.04" style="fill: #ff7f0e; stroke: #ff7f0e; stroke-width: 0.8"/>
      </g>
     </g>
     <g id="text_18">
      <!-- 0.0 -->
      <g style="fill: #ff7f0e" transform="translate(398.8 249.839219) scale(0.1 -0.1)">
       <use xlink:href="#DejaVuSans-30"/>
       <use xlink:href="#DejaVuSans-2e" x="63.623047"/>
       <use xlink:href="#DejaVuSans-30" x="95.410156"/>
      </g>
     </g>
    </g>
    <g id="ytick_8">
     <g id="line2d_28">
      <g>
       <use xlink:href="#m64fe87e1ab" x="391.8" y="204.104" style="fill: #ff7f0e; stroke: #ff7f0e; stroke-width: 0.8"/>
      </g>
     </g>
     <g id="text_19">
      <!-- 2.0 G -->
      <g style="fill: #ff7f0e" transform="translate(398.8 207.903219) scale(0.1 -0.1)">
       <use xlink:href="#DejaVuSans-32"/>
       <use xlink:href="#DejaVuSans-2e" x="63.623047"/>
       <use xlink:href="#DejaVuSans-30" x="95.410156"/>
       <use xlink:href="#DejaVuSans-2009" x="159.033203"/>
       <use xlink:href="#DejaVuSans-47" x="179.003906"/>
      </g>
     </g>
    </g>
    <g id="ytick_9">
     <g id="line2d_29">
      <g>
       <use xlink:href="#m64fe87e1ab" x="391.8" y="162.168" style="fill: #ff7f0e; stroke: #ff7f0e; stroke-width: 0.8"/>
      </g>
     </g>
     <g id="text_20">
      <!-- 4.0 G -->
      <g style="fill: #ff7f0e" transform="translate(398.8 165.967219) scale(0.1 -0.1)">
       <use xlink:href="#DejaVuSans-34"/>
       <use xlink:href="#DejaVuSans-2e" x="63.623047"/>
       <use xlink:href="#DejaVuSans-30" x="95.410156"/>
       <use xlink:href="#DejaVuSans-2009" x="159.033203"/>
       <use xlink:href="#DejaVuSans-47" x="179.003906"/>
      </g>
     </g>
    </g>
    <g id="ytick_10">
     <g id="line2d_30">
      <g>
       <use xlink:href="#m64fe87e1ab" x="391.8" y="120.232" style="fill: #ff7f0e; stroke: #ff7f0e; stroke-width: 0.8"/>
      </g>
     </g>
     <g id="text_21">
      <!-- 6.0 G -->
      <g style="fill: #ff7f0e" transform="translate(398.8 124.031219) scale(0.1 -0.1)">
       <use xlink:href="#DejaVuSans-36"/>
       <use xlink:href="#DejaVuSans-2e" x="63.623047"/>
       <use xlink:href="#DejaVuSans-30" x="95.410156"/>
       <use xlink:href="#DejaVuSans-2009" x="159.033203"/>
       <use xlink:href="#DejaVuSans-47" x="179.003906"/>
      </g>
     </g>
    </g>
    <g id="ytick_11">
     <g id="line2d_31">
      <g>
       <use xlink:href="#m64fe87e1ab" x="391.8" y="78.296" style="fill: #ff7f0e; stroke: #ff7f0e; stroke-width: 0.8"/>
      </g>
     </g>
     <g id="text_22">
      <!-- 8.0 G -->
      <g style="fill: #ff7f0e" transform="translate(398.8 82.095219) scale(0.1 -0.1)">
       <use xlink:href="#DejaVuSans-38"/>
       <use xlink:href="#DejaVuSans-2e" x="63.623047"/>
       <use xlink:href="#DejaVuSans-30" x="95.410156"/>
       <use xlink:href="#DejaVuSans-2009" x="159.033203"/>
       <use xlink:href="#DejaVuSans-47" x="179.003906"/>
      </g>
     </g>
    </g>
    <g id="ytick_12">
     <g id="line2d_32">
      <g>
       <use xlink:href="#m64fe87e1ab" x="391.8" y="36.36" style="fill: #ff7f0e; stroke: #ff7f0e; stroke-width: 0.8"/>
      </g>
     </g>
     <g id="text_23">
      <!-- 10.0 G -->
      <g style="fill: #ff7f0e" transform="translate(398.8 40.159219) scale(0.1 -0.1)">
       <use xlink:href="#DejaVuSans-31"/>
       <use xlink:href="#DejaVuSans-30" x="63.623047"/>
       <use xlink:href="#DejaVuSans-2e" x="127.246094"/>
       <use xlink:href="#DejaVuSans-30" x="159.033203"/>
       <use xlink:href="#DejaVuSans-2009" x="222.65625"/>
       <use xlink:href="#DejaVuSans-47" x="242.626953"/>
      </g>
     </g>
    </g>
    <g id="text_24">
     <!-- Empirical world population (capita) -->
     <g style="fill: #ff7f0e" transform="translate(442.409375 228.883594) rotate(-90) scale(0.1 -0.1)">
      <defs>
       <path id="DejaVuSans-45" d="M 628 4666 
L 3578 4666 
L 3578 4134 
L 1259 4134 
L 1259 2753 
L 3481 2753 
L 3481 2222 
L 1259 2222 
L 1259 531 
L 3634 531 
L 3634 0 
L 628 0 
L 628 4666 
z
" transform="scale(0.015625)"/>
       <path id="DejaVuSans-6d" d="M 3328 2828 
Q 3544 3216 3844 3400 
Q 4144 3584 4550 3584 
Q 5097 3584 5394 3201 
Q 5691 2819 5691 2113 
L 5691 0 
L 5113 0 
L 5113 2094 
Q 5113 2597 4934 2840 
Q 4756 3084 4391 3084 
Q 3944 3084 3684 2787 
Q 3425 2491 3425 1978 
L 3425 0 
L 2847 0 
L 2847 2094 
Q 2847 2600 2669 2842 
Q 2491 3084 2119 3084 
Q 1678 3084 1418 2786 
Q 1159 2488 1159 1978 
L 1159 0 
L 581 0 
L 581 3500 
L 1159 3500 
L 1159 2956 
Q 1356 3278 1631 3431 
Q 1906 3584 2284 3584 
Q 2666 3584 2933 3390 
Q 3200 3197 3328 2828 
z
" transform="scale(0.015625)"/>
       <path id="DejaVuSans-77" d="M 269 3500 
L 844 3500 
L 1563 769 
L 2278 3500 
L 2956 3500 
L 3675 769 
L 4391 3500 
L 4966 3500 
L 4050 0 
L 3372 0 
L 2619 2869 
L 1863 0 
L 1184 0 
L 269 3500 
z
" transform="scale(0.015625)"/>
       <path id="DejaVuSans-64" d="M 2906 2969 
L 2906 4863 
L 3481 4863 
L 3481 0 
L 2906 0 
L 2906 525 
Q 2725 213 2448 61 
Q 2172 -91 1784 -91 
Q 1150 -91 751 415 
Q 353 922 353 1747 
Q 353 2572 751 3078 
Q 1150 3584 1784 3584 
Q 2172 3584 2448 3432 
Q 2725 3281 2906 2969 
z
M 947 1747 
Q 947 1113 1208 752 
Q 1469 391 1925 391 
Q 2381 391 2643 752 
Q 2906 1113 2906 1747 
Q 2906 2381 2643 2742 
Q 2381 3103 1925 3103 
Q 1469 3103 1208 2742 
Q 947 2381 947 1747 
z
" transform="scale(0.015625)"/>
      </defs>
      <use xlink:href="#DejaVuSans-45"/>
      <use xlink:href="#DejaVuSans-6d" x="63.183594"/>
      <use xlink:href="#DejaVuSans-70" x="160.595703"/>
      <use xlink:href="#DejaVuSans-69" x="224.072266"/>
      <use xlink:href="#DejaVuSans-72" x="251.855469"/>
      <use xlink:href="#DejaVuSans-69" x="292.96875"/>
      <use xlink:href="#DejaVuSans-63" x="320.751953"/>
      <use xlink:href="#DejaVuSans-61" x="375.732422"/>
      <use xlink:href="#DejaVuSans-6c" x="437.011719"/>
      <use xlink:href="#DejaVuSans-20" x="464.794922"/>
      <use xlink:href="#DejaVuSans-77" x="496.582031"/>
      <use xlink:href="#DejaVuSans-6f" x="578.369141"/>
      <use xlink:href="#DejaVuSans-72" x="639.550781"/>
      <use xlink:href="#DejaVuSans-6c" x="680.664062"/>
      <use xlink:href="#DejaVuSans-64" x="708.447266"/>
      <use xlink:href="#DejaVuSans-20" x="771.923828"/>
      <use xlink:href="#DejaVuSans-70" x="803.710938"/>
      <use xlink:href="#DejaVuSans-6f" x="867.1875"/>
      <use xlink:href="#DejaVuSans-70" x="928.369141"/>
      <use xlink:href="#DejaVuSans-75" x="991.845703"/>
      <use xlink:href="#DejaVuSans-6c" x="1055.224609"/>
      <use xlink:href="#DejaVuSans-61" x="1083.007812"/>
      <use xlink:href="#DejaVuSans-74" x="1144.287109"/>
      <use xlink:href="#DejaVuSans-69" x="1183.496094"/>
      <use xlink:href="#DejaVuSans-6f" x="1211.279297"/>
      <use xlink:href="#DejaVuSans-6e" x="1272.460938"/>
      <use xlink:href="#DejaVuSans-20" x="1335.839844"/>
      <use xlink:href="#DejaVuSans-28" x="1367.626953"/>
      <use xlink:href="#DejaVuSans-63" x="1406.640625"/>
      <use xlink:href="#DejaVuSans-61" x="1461.621094"/>
      <use xlink:href="#DejaVuSans-70" x="1522.900391"/>
      <use xlink:href="#DejaVuSans-69" x="1586.376953"/>
      <use xlink:href="#DejaVuSans-74" x="1614.160156"/>
      <use xlink:href="#DejaVuSans-61" x="1653.369141"/>
      <use xlink:href="#DejaVuSans-29" x="1714.648438"/>
     </g>
    </g>
   </g>
   <g id="line2d_33">
    <path d="M 78.823636 211.4428 
L 101.49984 208.14663 
L 109.257488 206.863389 
L 127.458125 201.382354 
L 146.553876 195.322602 
L 153.416411 193.20064 
L 168.633337 182.431475 
L 184.745376 166.8858 
L 198.768818 151.994326 
L 219.356424 126.706918 
L 223.533619 121.825568 
L 233.976608 109.622192 
L 241.435885 100.647888 
L 245.911451 95.0704 
L 252.475616 86.943203 
L 258.144666 80.420757 
L 262.321862 77.87664 
L 263.515346 74.857248 
L 263.515346 74.857248 
" clip-path="url(#p981c32d9dd)" style="fill: none; stroke: #ff7f0e; stroke-width: 1.5; stroke-linecap: square"/>
   </g>
   <g id="line2d_34">
    <path d="M 78.823636 211.4428 
L 101.49984 208.14663 
L 109.257488 206.863389 
L 127.458125 201.382354 
L 146.553876 195.322602 
L 153.416411 193.20064 
L 168.633337 182.431475 
L 184.745376 166.8858 
L 198.768818 151.994326 
L 219.356424 126.706918 
L 223.533619 121.825568 
L 233.976608 109.622192 
L 241.435885 100.647888 
L 245.911451 95.0704 
L 252.475616 86.943203 
L 258.144666 80.420757 
L 262.321862 77.87664 
L 263.515346 74.857248 
L 263.515346 74.857248 
" clip-path="url(#p981c32d9dd)" style="fill: none; stroke-dasharray: 1.85,0.8; stroke-dashoffset: 0; stroke: #ff7f0e; stroke-width: 0.5"/>
   </g>
   <g id="patch_7">
    <path d="M 63.92 246.04 
L 63.92 36.36 
" style="fill: none; stroke: #000000; stroke-width: 0.8; stroke-linejoin: miter; stroke-linecap: square"/>
   </g>
   <g id="patch_8">
    <path d="M 391.8 246.04 
L 391.8 36.36 
" style="fill: none; stroke: #000000; stroke-width: 0.8; stroke-linejoin: miter; stroke-linecap: square"/>
   </g>
   <g id="patch_9">
    <path d="M 63.92 246.04 
L 391.8 246.04 
" style="fill: none; stroke: #000000; stroke-width: 0.8; stroke-linejoin: miter; stroke-linecap: square"/>
   </g>
   <g id="patch_10">
    <path d="M 63.92 36.36 
L 391.8 36.36 
" style="fill: none; stroke: #000000; stroke-width: 0.8; stroke-linejoin: miter; stroke-linecap: square"/>
   </g>
  </g>
  <g id="axes_3">
   <g id="matplotlib.axis_4">
    <g id="ytick_13">
     <g id="line2d_35">
      <defs>
       <path id="m017e059192" d="M 0 0 
L 3.5 0 
" style="stroke: #2ca02c; stroke-width: 0.8"/>
      </defs>
      <g>
       <use xlink:href="#m017e059192" x="456.8" y="246.04" style="fill: #2ca02c; stroke: #2ca02c; stroke-width: 0.8"/>
      </g>
     </g>
     <g id="text_25">
      <!-- 0.0 -->
      <g style="fill: #2ca02c" transform="translate(463.8 249.839219) scale(0.1 -0.1)">
       <use xlink:href="#DejaVuSans-30"/>
       <use xlink:href="#DejaVuSans-2e" x="63.623047"/>
       <use xlink:href="#DejaVuSans-30" x="95.410156"/>
      </g>
     </g>
    </g>
    <g id="ytick_14">
     <g id="line2d_36">
      <g>
       <use xlink:href="#m017e059192" x="456.8" y="222.742222" style="fill: #2ca02c; stroke: #2ca02c; stroke-width: 0.8"/>
      </g>
     </g>
     <g id="text_26">
      <!-- 10.0 -->
      <g style="fill: #2ca02c" transform="translate(463.8 226.541441) scale(0.1 -0.1)">
       <use xlink:href="#DejaVuSans-31"/>
       <use xlink:href="#DejaVuSans-30" x="63.623047"/>
       <use xlink:href="#DejaVuSans-2e" x="127.246094"/>
       <use xlink:href="#DejaVuSans-30" x="159.033203"/>
      </g>
     </g>
    </g>
    <g id="ytick_15">
     <g id="line2d_37">
      <g>
       <use xlink:href="#m017e059192" x="456.8" y="199.444444" style="fill: #2ca02c; stroke: #2ca02c; stroke-width: 0.8"/>
      </g>
     </g>
     <g id="text_27">
      <!-- 20.0 -->
      <g style="fill: #2ca02c" transform="translate(463.8 203.243663) scale(0.1 -0.1)">
       <use xlink:href="#DejaVuSans-32"/>
       <use xlink:href="#DejaVuSans-30" x="63.623047"/>
       <use xlink:href="#DejaVuSans-2e" x="127.246094"/>
       <use xlink:href="#DejaVuSans-30" x="159.033203"/>
      </g>
     </g>
    </g>
    <g id="ytick_16">
     <g id="line2d_38">
      <g>
       <use xlink:href="#m017e059192" x="456.8" y="176.146667" style="fill: #2ca02c; stroke: #2ca02c; stroke-width: 0.8"/>
      </g>
     </g>
     <g id="text_28">
      <!-- 30.0 -->
      <g style="fill: #2ca02c" transform="translate(463.8 179.945885) scale(0.1 -0.1)">
       <defs>
        <path id="DejaVuSans-33" d="M 2597 2516 
Q 3050 2419 3304 2112 
Q 3559 1806 3559 1356 
Q 3559 666 3084 287 
Q 2609 -91 1734 -91 
Q 1441 -91 1130 -33 
Q 819 25 488 141 
L 488 750 
Q 750 597 1062 519 
Q 1375 441 1716 441 
Q 2309 441 2620 675 
Q 2931 909 2931 1356 
Q 2931 1769 2642 2001 
Q 2353 2234 1838 2234 
L 1294 2234 
L 1294 2753 
L 1863 2753 
Q 2328 2753 2575 2939 
Q 2822 3125 2822 3475 
Q 2822 3834 2567 4026 
Q 2313 4219 1838 4219 
Q 1578 4219 1281 4162 
Q 984 4106 628 3988 
L 628 4550 
Q 988 4650 1302 4700 
Q 1616 4750 1894 4750 
Q 2613 4750 3031 4423 
Q 3450 4097 3450 3541 
Q 3450 3153 3228 2886 
Q 3006 2619 2597 2516 
z
" transform="scale(0.015625)"/>
       </defs>
       <use xlink:href="#DejaVuSans-33"/>
       <use xlink:href="#DejaVuSans-30" x="63.623047"/>
       <use xlink:href="#DejaVuSans-2e" x="127.246094"/>
       <use xlink:href="#DejaVuSans-30" x="159.033203"/>
      </g>
     </g>
    </g>
    <g id="ytick_17">
     <g id="line2d_39">
      <g>
       <use xlink:href="#m017e059192" x="456.8" y="152.848889" style="fill: #2ca02c; stroke: #2ca02c; stroke-width: 0.8"/>
      </g>
     </g>
     <g id="text_29">
      <!-- 40.0 -->
      <g style="fill: #2ca02c" transform="translate(463.8 156.648108) scale(0.1 -0.1)">
       <use xlink:href="#DejaVuSans-34"/>
       <use xlink:href="#DejaVuSans-30" x="63.623047"/>
       <use xlink:href="#DejaVuSans-2e" x="127.246094"/>
       <use xlink:href="#DejaVuSans-30" x="159.033203"/>
      </g>
     </g>
    </g>
    <g id="ytick_18">
     <g id="line2d_40">
      <g>
       <use xlink:href="#m017e059192" x="456.8" y="129.551111" style="fill: #2ca02c; stroke: #2ca02c; stroke-width: 0.8"/>
      </g>
     </g>
     <g id="text_30">
      <!-- 50.0 -->
      <g style="fill: #2ca02c" transform="translate(463.8 133.35033) scale(0.1 -0.1)">
       <use xlink:href="#DejaVuSans-35"/>
       <use xlink:href="#DejaVuSans-30" x="63.623047"/>
       <use xlink:href="#DejaVuSans-2e" x="127.246094"/>
       <use xlink:href="#DejaVuSans-30" x="159.033203"/>
      </g>
     </g>
    </g>
    <g id="ytick_19">
     <g id="line2d_41">
      <g>
       <use xlink:href="#m017e059192" x="456.8" y="106.253333" style="fill: #2ca02c; stroke: #2ca02c; stroke-width: 0.8"/>
      </g>
     </g>
     <g id="text_31">
      <!-- 60.0 -->
      <g style="fill: #2ca02c" transform="translate(463.8 110.052552) scale(0.1 -0.1)">
       <use xlink:href="#DejaVuSans-36"/>
       <use xlink:href="#DejaVuSans-30" x="63.623047"/>
       <use xlink:href="#DejaVuSans-2e" x="127.246094"/>
       <use xlink:href="#DejaVuSans-30" x="159.033203"/>
      </g>
     </g>
    </g>
    <g id="ytick_20">
     <g id="line2d_42">
      <g>
       <use xlink:href="#m017e059192" x="456.8" y="82.955556" style="fill: #2ca02c; stroke: #2ca02c; stroke-width: 0.8"/>
      </g>
     </g>
     <g id="text_32">
      <!-- 70.0 -->
      <g style="fill: #2ca02c" transform="translate(463.8 86.754774) scale(0.1 -0.1)">
       <use xlink:href="#DejaVuSans-37"/>
       <use xlink:href="#DejaVuSans-30" x="63.623047"/>
       <use xlink:href="#DejaVuSans-2e" x="127.246094"/>
       <use xlink:href="#DejaVuSans-30" x="159.033203"/>
      </g>
     </g>
    </g>
    <g id="ytick_21">
     <g id="line2d_43">
      <g>
       <use xlink:href="#m017e059192" x="456.8" y="59.657778" style="fill: #2ca02c; stroke: #2ca02c; stroke-width: 0.8"/>
      </g>
     </g>
     <g id="text_33">
      <!-- 80.0 -->
      <g style="fill: #2ca02c" transform="translate(463.8 63.456997) scale(0.1 -0.1)">
       <use xlink:href="#DejaVuSans-38"/>
       <use xlink:href="#DejaVuSans-30" x="63.623047"/>
       <use xlink:href="#DejaVuSans-2e" x="127.246094"/>
       <use xlink:href="#DejaVuSans-30" x="159.033203"/>
      </g>
     </g>
    </g>
    <g id="ytick_22">
     <g id="line2d_44">
      <g>
       <use xlink:href="#m017e059192" x="456.8" y="36.36" style="fill: #2ca02c; stroke: #2ca02c; stroke-width: 0.8"/>
      </g>
     </g>
     <g id="text_34">
      <!-- 90.0 -->
      <g style="fill: #2ca02c" transform="translate(463.8 40.159219) scale(0.1 -0.1)">
       <use xlink:href="#DejaVuSans-39"/>
       <use xlink:href="#DejaVuSans-30" x="63.623047"/>
       <use xlink:href="#DejaVuSans-2e" x="127.246094"/>
       <use xlink:href="#DejaVuSans-30" x="159.033203"/>
      </g>
     </g>
    </g>
    <g id="text_35">
     <!-- Life Expectancy (years) -->
     <g style="fill: #2ca02c" transform="translate(497.664062 200.071875) rotate(-90) scale(0.1 -0.1)">
      <defs>
       <path id="DejaVuSans-4c" d="M 628 4666 
L 1259 4666 
L 1259 531 
L 3531 531 
L 3531 0 
L 628 0 
L 628 4666 
z
" transform="scale(0.015625)"/>
       <path id="DejaVuSans-66" d="M 2375 4863 
L 2375 4384 
L 1825 4384 
Q 1516 4384 1395 4259 
Q 1275 4134 1275 3809 
L 1275 3500 
L 2222 3500 
L 2222 3053 
L 1275 3053 
L 1275 0 
L 697 0 
L 697 3053 
L 147 3053 
L 147 3500 
L 697 3500 
L 697 3744 
Q 697 4328 969 4595 
Q 1241 4863 1831 4863 
L 2375 4863 
z
" transform="scale(0.015625)"/>
       <path id="DejaVuSans-78" d="M 3513 3500 
L 2247 1797 
L 3578 0 
L 2900 0 
L 1881 1375 
L 863 0 
L 184 0 
L 1544 1831 
L 300 3500 
L 978 3500 
L 1906 2253 
L 2834 3500 
L 3513 3500 
z
" transform="scale(0.015625)"/>
       <path id="DejaVuSans-79" d="M 2059 -325 
Q 1816 -950 1584 -1140 
Q 1353 -1331 966 -1331 
L 506 -1331 
L 506 -850 
L 844 -850 
Q 1081 -850 1212 -737 
Q 1344 -625 1503 -206 
L 1606 56 
L 191 3500 
L 800 3500 
L 1894 763 
L 2988 3500 
L 3597 3500 
L 2059 -325 
z
" transform="scale(0.015625)"/>
       <path id="DejaVuSans-73" d="M 2834 3397 
L 2834 2853 
Q 2591 2978 2328 3040 
Q 2066 3103 1784 3103 
Q 1356 3103 1142 2972 
Q 928 2841 928 2578 
Q 928 2378 1081 2264 
Q 1234 2150 1697 2047 
L 1894 2003 
Q 2506 1872 2764 1633 
Q 3022 1394 3022 966 
Q 3022 478 2636 193 
Q 2250 -91 1575 -91 
Q 1294 -91 989 -36 
Q 684 19 347 128 
L 347 722 
Q 666 556 975 473 
Q 1284 391 1588 391 
Q 1994 391 2212 530 
Q 2431 669 2431 922 
Q 2431 1156 2273 1281 
Q 2116 1406 1581 1522 
L 1381 1569 
Q 847 1681 609 1914 
Q 372 2147 372 2553 
Q 372 3047 722 3315 
Q 1072 3584 1716 3584 
Q 2034 3584 2315 3537 
Q 2597 3491 2834 3397 
z
" transform="scale(0.015625)"/>
      </defs>
      <use xlink:href="#DejaVuSans-4c"/>
      <use xlink:href="#DejaVuSans-69" x="55.712891"/>
      <use xlink:href="#DejaVuSans-66" x="83.496094"/>
      <use xlink:href="#DejaVuSans-65" x="118.701172"/>
      <use xlink:href="#DejaVuSans-20" x="180.224609"/>
      <use xlink:href="#DejaVuSans-45" x="212.011719"/>
      <use xlink:href="#DejaVuSans-78" x="275.195312"/>
      <use xlink:href="#DejaVuSans-70" x="334.375"/>
      <use xlink:href="#DejaVuSans-65" x="397.851562"/>
      <use xlink:href="#DejaVuSans-63" x="459.375"/>
      <use xlink:href="#DejaVuSans-74" x="514.355469"/>
      <use xlink:href="#DejaVuSans-61" x="553.564453"/>
      <use xlink:href="#DejaVuSans-6e" x="614.84375"/>
      <use xlink:href="#DejaVuSans-63" x="678.222656"/>
      <use xlink:href="#DejaVuSans-79" x="733.203125"/>
      <use xlink:href="#DejaVuSans-20" x="792.382812"/>
      <use xlink:href="#DejaVuSans-28" x="824.169922"/>
      <use xlink:href="#DejaVuSans-79" x="863.183594"/>
      <use xlink:href="#DejaVuSans-65" x="922.363281"/>
      <use xlink:href="#DejaVuSans-61" x="983.886719"/>
      <use xlink:href="#DejaVuSans-72" x="1045.166016"/>
      <use xlink:href="#DejaVuSans-73" x="1086.279297"/>
      <use xlink:href="#DejaVuSans-29" x="1138.378906"/>
     </g>
    </g>
   </g>
   <g id="line2d_45">
    <path d="M 78.823636 180.576792 
L 80.017121 180.046942 
L 81.807347 179.565075 
L 84.492687 179.12602 
L 101.49984 176.757563 
L 111.346086 174.879236 
L 118.805364 173.231276 
L 125.667899 171.493466 
L 132.232063 169.605113 
L 138.199485 167.685937 
L 138.497856 154.001768 
L 140.884825 153.127629 
L 145.658762 151.103098 
L 151.626184 148.328256 
L 157.295235 145.448382 
L 160.875688 143.431482 
L 168.334966 138.831396 
L 175.495872 134.159629 
L 182.656779 129.16639 
L 186.237232 126.220905 
L 191.30954 121.980006 
L 196.381849 118.009377 
L 205.034611 111.185918 
L 211.300404 106.334723 
L 217.267826 101.457958 
L 220.848279 98.547546 
L 222.340135 97.774631 
L 225.622217 95.730767 
L 233.081494 90.806727 
L 236.065205 88.628716 
L 241.137514 84.964114 
L 243.822854 83.416098 
L 253.967471 77.197482 
L 254.265842 77.001662 
L 254.862584 76.972985 
L 259.338151 77.110536 
L 265.007202 77.341083 
L 269.482768 77.743229 
L 271.272995 77.903166 
L 273.063221 76.968595 
L 273.659964 77.096295 
L 274.256706 77.481154 
L 275.45019 78.564794 
L 276.942046 80.3029 
L 278.732272 82.564574 
L 280.82087 85.546085 
L 284.102952 90.747811 
L 285.594808 93.387659 
L 288.578519 99.173314 
L 292.755714 107.834753 
L 294.247569 111.199568 
L 294.844312 113.87009 
L 298.126394 129.874542 
L 303.198702 153.981414 
L 305.2873 162.753101 
L 307.077527 169.441592 
L 308.867753 175.348681 
L 310.65798 180.497595 
L 311.851464 183.427008 
L 312.746577 184.941246 
L 313.641691 186.019427 
L 314.536804 186.771757 
L 315.730288 187.437688 
L 316.923773 187.827458 
L 318.117257 187.986181 
L 319.609113 187.920352 
L 321.100968 187.621067 
L 322.891195 187.025471 
L 324.979793 186.095999 
L 327.665132 184.625049 
L 328.858617 184.008331 
L 332.737441 182.297741 
L 337.213008 181.495171 
L 340.49509 180.726452 
L 342.583687 180.043013 
L 345.269027 178.838222 
L 347.655996 177.520546 
L 350.042965 175.950719 
L 352.429934 174.103523 
L 354.816902 172.011055 
L 357.502242 169.343476 
L 362.574551 164.03666 
L 364.066406 163.128311 
L 368.541973 161.782438 
L 370.630571 161.162079 
L 373.31591 161.169913 
L 375.702879 160.957453 
L 376.896364 160.763346 
L 376.896364 160.763346 
" clip-path="url(#p981c32d9dd)" style="fill: none; stroke: #2ca02c; stroke-width: 1.5; stroke-linecap: square"/>
   </g>
   <g id="line2d_46">
    <path d="M 78.823636 180.576792 
L 80.017121 179.975648 
L 81.508976 179.483296 
L 83.895945 178.962236 
L 89.266625 178.097211 
L 97.919387 176.639254 
L 104.483551 175.258374 
L 112.53957 173.358076 
L 119.103735 171.583142 
L 125.369528 169.659584 
L 131.33695 167.594409 
L 137.006001 165.407287 
L 138.199485 164.920203 
L 138.497856 150.120496 
L 140.586454 149.137775 
L 144.763649 146.893245 
L 150.134329 143.74996 
L 155.206638 140.530374 
L 159.682204 137.449563 
L 165.649626 132.859048 
L 171.617048 128.02954 
L 177.58447 122.800311 
L 180.26981 120.37723 
L 185.342118 115.944368 
L 189.817685 111.740424 
L 195.785107 106.024764 
L 198.470447 103.621394 
L 203.244384 99.914961 
L 208.018322 95.919491 
L 212.79226 91.633233 
L 217.267826 87.335248 
L 226.218959 78.312842 
L 231.291268 72.71581 
L 234.274979 69.140168 
L 237.855432 64.489904 
L 239.645658 62.076628 
L 243.822854 60.052793 
L 248.596791 57.713449 
L 249.790276 57.589285 
L 256.056069 58.098837 
L 260.233264 58.61468 
L 265.007202 59.441442 
L 265.603944 59.574381 
L 267.990913 61.055105 
L 269.781139 60.974191 
L 270.974624 62.218064 
L 272.466479 64.199557 
L 276.046932 69.69003 
L 282.611097 81.117779 
L 284.699694 85.147769 
L 287.385034 90.807877 
L 288.87689 94.34188 
L 296.336167 113.434421 
L 296.932909 116.430468 
L 299.618249 130.524977 
L 304.690558 155.492325 
L 306.480784 163.109421 
L 307.97264 168.678537 
L 308.867753 171.111638 
L 309.762867 172.978394 
L 310.65798 174.412143 
L 311.553093 175.503557 
L 312.448206 176.317967 
L 313.34332 176.901846 
L 314.536804 177.386094 
L 315.730288 177.60798 
L 316.923773 177.616179 
L 318.415628 177.392269 
L 320.205855 176.870579 
L 322.294453 176.015106 
L 324.979793 174.641699 
L 326.471648 173.836885 
L 330.052101 173.237391 
L 333.035812 172.506163 
L 333.930925 172.327703 
L 336.317894 171.884531 
L 338.704863 171.22696 
L 341.091832 170.331797 
L 343.18043 169.323218 
L 345.269027 168.046431 
L 346.760883 166.905102 
L 349.147851 164.906636 
L 351.236449 163.627768 
L 353.921789 161.963398 
L 356.607129 159.810836 
L 358.397356 159.548731 
L 360.187582 159.07864 
L 361.977809 158.392365 
L 363.768035 157.474033 
L 365.558262 156.292985 
L 367.348488 154.828431 
L 368.243602 154.14782 
L 369.735457 153.493573 
L 371.824055 152.289192 
L 373.912653 150.838652 
L 374.807766 150.260754 
L 375.404508 150.301985 
L 376.00125 151.477511 
L 376.896364 153.262441 
L 376.896364 153.262441 
" clip-path="url(#p981c32d9dd)" style="fill: none; stroke-dasharray: 1.85,0.8; stroke-dashoffset: 0; stroke: #2ca02c; stroke-width: 0.5"/>
   </g>
   <g id="patch_11">
    <path d="M 63.92 246.04 
L 63.92 36.36 
" style="fill: none; stroke: #000000; stroke-width: 0.8; stroke-linejoin: miter; stroke-linecap: square"/>
   </g>
   <g id="patch_12">
    <path d="M 456.8 246.04 
L 456.8 36.36 
" style="fill: none; stroke: #000000; stroke-width: 0.8; stroke-linejoin: miter; stroke-linecap: square"/>
   </g>
   <g id="patch_13">
    <path d="M 63.92 246.04 
L 391.8 246.04 
" style="fill: none; stroke: #000000; stroke-width: 0.8; stroke-linejoin: miter; stroke-linecap: square"/>
   </g>
   <g id="patch_14">
    <path d="M 63.92 36.36 
L 391.8 36.36 
" style="fill: none; stroke: #000000; stroke-width: 0.8; stroke-linejoin: miter; stroke-linecap: square"/>
   </g>
  </g>
  <g id="axes_4">
   <g id="matplotlib.axis_5">
    <g id="ytick_23">
     <g id="line2d_47">
      <defs>
       <path id="ma1b3061209" d="M 0 0 
L 3.5 0 
" style="stroke: #d62728; stroke-width: 0.8"/>
      </defs>
      <g>
       <use xlink:href="#ma1b3061209" x="521.8" y="246.04" style="fill: #d62728; stroke: #d62728; stroke-width: 0.8"/>
      </g>
     </g>
     <g id="text_36">
      <!-- 0.0 -->
      <g style="fill: #d62728" transform="translate(528.8 249.839219) scale(0.1 -0.1)">
       <use xlink:href="#DejaVuSans-30"/>
       <use xlink:href="#DejaVuSans-2e" x="63.623047"/>
       <use xlink:href="#DejaVuSans-30" x="95.410156"/>
      </g>
     </g>
    </g>
    <g id="ytick_24">
     <g id="line2d_48">
      <g>
       <use xlink:href="#ma1b3061209" x="521.8" y="222.742222" style="fill: #d62728; stroke: #d62728; stroke-width: 0.8"/>
      </g>
     </g>
     <g id="text_37">
      <!-- 10.0 -->
      <g style="fill: #d62728" transform="translate(528.8 226.541441) scale(0.1 -0.1)">
       <use xlink:href="#DejaVuSans-31"/>
       <use xlink:href="#DejaVuSans-30" x="63.623047"/>
       <use xlink:href="#DejaVuSans-2e" x="127.246094"/>
       <use xlink:href="#DejaVuSans-30" x="159.033203"/>
      </g>
     </g>
    </g>
    <g id="ytick_25">
     <g id="line2d_49">
      <g>
       <use xlink:href="#ma1b3061209" x="521.8" y="199.444444" style="fill: #d62728; stroke: #d62728; stroke-width: 0.8"/>
      </g>
     </g>
     <g id="text_38">
      <!-- 20.0 -->
      <g style="fill: #d62728" transform="translate(528.8 203.243663) scale(0.1 -0.1)">
       <use xlink:href="#DejaVuSans-32"/>
       <use xlink:href="#DejaVuSans-30" x="63.623047"/>
       <use xlink:href="#DejaVuSans-2e" x="127.246094"/>
       <use xlink:href="#DejaVuSans-30" x="159.033203"/>
      </g>
     </g>
    </g>
    <g id="ytick_26">
     <g id="line2d_50">
      <g>
       <use xlink:href="#ma1b3061209" x="521.8" y="176.146667" style="fill: #d62728; stroke: #d62728; stroke-width: 0.8"/>
      </g>
     </g>
     <g id="text_39">
      <!-- 30.0 -->
      <g style="fill: #d62728" transform="translate(528.8 179.945885) scale(0.1 -0.1)">
       <use xlink:href="#DejaVuSans-33"/>
       <use xlink:href="#DejaVuSans-30" x="63.623047"/>
       <use xlink:href="#DejaVuSans-2e" x="127.246094"/>
       <use xlink:href="#DejaVuSans-30" x="159.033203"/>
      </g>
     </g>
    </g>
    <g id="ytick_27">
     <g id="line2d_51">
      <g>
       <use xlink:href="#ma1b3061209" x="521.8" y="152.848889" style="fill: #d62728; stroke: #d62728; stroke-width: 0.8"/>
      </g>
     </g>
     <g id="text_40">
      <!-- 40.0 -->
      <g style="fill: #d62728" transform="translate(528.8 156.648108) scale(0.1 -0.1)">
       <use xlink:href="#DejaVuSans-34"/>
       <use xlink:href="#DejaVuSans-30" x="63.623047"/>
       <use xlink:href="#DejaVuSans-2e" x="127.246094"/>
       <use xlink:href="#DejaVuSans-30" x="159.033203"/>
      </g>
     </g>
    </g>
    <g id="ytick_28">
     <g id="line2d_52">
      <g>
       <use xlink:href="#ma1b3061209" x="521.8" y="129.551111" style="fill: #d62728; stroke: #d62728; stroke-width: 0.8"/>
      </g>
     </g>
     <g id="text_41">
      <!-- 50.0 -->
      <g style="fill: #d62728" transform="translate(528.8 133.35033) scale(0.1 -0.1)">
       <use xlink:href="#DejaVuSans-35"/>
       <use xlink:href="#DejaVuSans-30" x="63.623047"/>
       <use xlink:href="#DejaVuSans-2e" x="127.246094"/>
       <use xlink:href="#DejaVuSans-30" x="159.033203"/>
      </g>
     </g>
    </g>
    <g id="ytick_29">
     <g id="line2d_53">
      <g>
       <use xlink:href="#ma1b3061209" x="521.8" y="106.253333" style="fill: #d62728; stroke: #d62728; stroke-width: 0.8"/>
      </g>
     </g>
     <g id="text_42">
      <!-- 60.0 -->
      <g style="fill: #d62728" transform="translate(528.8 110.052552) scale(0.1 -0.1)">
       <use xlink:href="#DejaVuSans-36"/>
       <use xlink:href="#DejaVuSans-30" x="63.623047"/>
       <use xlink:href="#DejaVuSans-2e" x="127.246094"/>
       <use xlink:href="#DejaVuSans-30" x="159.033203"/>
      </g>
     </g>
    </g>
    <g id="ytick_30">
     <g id="line2d_54">
      <g>
       <use xlink:href="#ma1b3061209" x="521.8" y="82.955556" style="fill: #d62728; stroke: #d62728; stroke-width: 0.8"/>
      </g>
     </g>
     <g id="text_43">
      <!-- 70.0 -->
      <g style="fill: #d62728" transform="translate(528.8 86.754774) scale(0.1 -0.1)">
       <use xlink:href="#DejaVuSans-37"/>
       <use xlink:href="#DejaVuSans-30" x="63.623047"/>
       <use xlink:href="#DejaVuSans-2e" x="127.246094"/>
       <use xlink:href="#DejaVuSans-30" x="159.033203"/>
      </g>
     </g>
    </g>
    <g id="ytick_31">
     <g id="line2d_55">
      <g>
       <use xlink:href="#ma1b3061209" x="521.8" y="59.657778" style="fill: #d62728; stroke: #d62728; stroke-width: 0.8"/>
      </g>
     </g>
     <g id="text_44">
      <!-- 80.0 -->
      <g style="fill: #d62728" transform="translate(528.8 63.456997) scale(0.1 -0.1)">
       <use xlink:href="#DejaVuSans-38"/>
       <use xlink:href="#DejaVuSans-30" x="63.623047"/>
       <use xlink:href="#DejaVuSans-2e" x="127.246094"/>
       <use xlink:href="#DejaVuSans-30" x="159.033203"/>
      </g>
     </g>
    </g>
    <g id="ytick_32">
     <g id="line2d_56">
      <g>
       <use xlink:href="#ma1b3061209" x="521.8" y="36.36" style="fill: #d62728; stroke: #d62728; stroke-width: 0.8"/>
      </g>
     </g>
     <g id="text_45">
      <!-- 90.0 -->
      <g style="fill: #d62728" transform="translate(528.8 40.159219) scale(0.1 -0.1)">
       <use xlink:href="#DejaVuSans-39"/>
       <use xlink:href="#DejaVuSans-30" x="63.623047"/>
       <use xlink:href="#DejaVuSans-2e" x="127.246094"/>
       <use xlink:href="#DejaVuSans-30" x="159.033203"/>
      </g>
     </g>
    </g>
    <g id="text_46">
     <!-- Empirical Life Expectancy (year) -->
     <g style="fill: #d62728" transform="translate(562.664062 222.296094) rotate(-90) scale(0.1 -0.1)">
      <use xlink:href="#DejaVuSans-45"/>
      <use xlink:href="#DejaVuSans-6d" x="63.183594"/>
      <use xlink:href="#DejaVuSans-70" x="160.595703"/>
      <use xlink:href="#DejaVuSans-69" x="224.072266"/>
      <use xlink:href="#DejaVuSans-72" x="251.855469"/>
      <use xlink:href="#DejaVuSans-69" x="292.96875"/>
      <use xlink:href="#DejaVuSans-63" x="320.751953"/>
      <use xlink:href="#DejaVuSans-61" x="375.732422"/>
      <use xlink:href="#DejaVuSans-6c" x="437.011719"/>
      <use xlink:href="#DejaVuSans-20" x="464.794922"/>
      <use xlink:href="#DejaVuSans-4c" x="496.582031"/>
      <use xlink:href="#DejaVuSans-69" x="552.294922"/>
      <use xlink:href="#DejaVuSans-66" x="580.078125"/>
      <use xlink:href="#DejaVuSans-65" x="615.283203"/>
      <use xlink:href="#DejaVuSans-20" x="676.806641"/>
      <use xlink:href="#DejaVuSans-45" x="708.59375"/>
      <use xlink:href="#DejaVuSans-78" x="771.777344"/>
      <use xlink:href="#DejaVuSans-70" x="830.957031"/>
      <use xlink:href="#DejaVuSans-65" x="894.433594"/>
      <use xlink:href="#DejaVuSans-63" x="955.957031"/>
      <use xlink:href="#DejaVuSans-74" x="1010.9375"/>
      <use xlink:href="#DejaVuSans-61" x="1050.146484"/>
      <use xlink:href="#DejaVuSans-6e" x="1111.425781"/>
      <use xlink:href="#DejaVuSans-63" x="1174.804688"/>
      <use xlink:href="#DejaVuSans-79" x="1229.785156"/>
      <use xlink:href="#DejaVuSans-20" x="1288.964844"/>
      <use xlink:href="#DejaVuSans-28" x="1320.751953"/>
      <use xlink:href="#DejaVuSans-79" x="1359.765625"/>
      <use xlink:href="#DejaVuSans-65" x="1418.945312"/>
      <use xlink:href="#DejaVuSans-61" x="1480.46875"/>
      <use xlink:href="#DejaVuSans-72" x="1541.748047"/>
      <use xlink:href="#DejaVuSans-29" x="1582.861328"/>
     </g>
    </g>
   </g>
   <g id="line2d_57">
    <path d="M 78.823636 171.487111 
L 98.516129 166.43842 
L 153.416411 137.705333 
L 165.351255 126.056444 
L 168.334966 134.9096 
L 171.318677 122.282204 
L 176.092614 120.259957 
L 191.607912 109.468427 
L 198.768818 104.538617 
L 213.389002 96.85035 
L 220.848279 94.688316 
L 231.88801 89.050254 
L 237.25869 86.086777 
L 244.717967 81.772028 
L 250.98376 78.528978 
L 256.35444 76.432178 
L 258.144666 78.761956 
L 259.338151 80.625778 
L 260.830006 78.971636 
L 262.321862 75.127502 
L 263.515346 74.549717 
L 263.515346 74.549717 
" clip-path="url(#p981c32d9dd)" style="fill: none; stroke: #d62728; stroke-width: 1.5; stroke-linecap: square"/>
   </g>
   <g id="line2d_58">
    <path d="M 78.823636 171.487111 
L 98.516129 166.43842 
L 153.416411 137.705333 
L 165.351255 126.056444 
L 168.334966 134.9096 
L 171.318677 122.282204 
L 176.092614 120.259957 
L 191.607912 109.468427 
L 198.768818 104.538617 
L 213.389002 96.85035 
L 220.848279 94.688316 
L 231.88801 89.050254 
L 237.25869 86.086777 
L 244.717967 81.772028 
L 250.98376 78.528978 
L 256.35444 76.432178 
L 258.144666 78.761956 
L 259.338151 80.625778 
L 260.830006 78.971636 
L 262.321862 75.127502 
L 263.515346 74.549717 
L 263.515346 74.549717 
" clip-path="url(#p981c32d9dd)" style="fill: none; stroke-dasharray: 1.85,0.8; stroke-dashoffset: 0; stroke: #d62728; stroke-width: 0.5"/>
   </g>
   <g id="patch_15">
    <path d="M 63.92 246.04 
L 63.92 36.36 
" style="fill: none; stroke: #000000; stroke-width: 0.8; stroke-linejoin: miter; stroke-linecap: square"/>
   </g>
   <g id="patch_16">
    <path d="M 521.8 246.04 
L 521.8 36.36 
" style="fill: none; stroke: #000000; stroke-width: 0.8; stroke-linejoin: miter; stroke-linecap: square"/>
   </g>
   <g id="patch_17">
    <path d="M 63.92 246.04 
L 391.8 246.04 
" style="fill: none; stroke: #000000; stroke-width: 0.8; stroke-linejoin: miter; stroke-linecap: square"/>
   </g>
   <g id="patch_18">
    <path d="M 63.92 36.36 
L 391.8 36.36 
" style="fill: none; stroke: #000000; stroke-width: 0.8; stroke-linejoin: miter; stroke-linecap: square"/>
   </g>
  </g>
  <g id="text_47">
   <!-- BAU2 -->
   <g transform="translate(271.570312 14.878125) scale(0.12 -0.12)">
    <defs>
     <path id="DejaVuSans-42" d="M 1259 2228 
L 1259 519 
L 2272 519 
Q 2781 519 3026 730 
Q 3272 941 3272 1375 
Q 3272 1813 3026 2020 
Q 2781 2228 2272 2228 
L 1259 2228 
z
M 1259 4147 
L 1259 2741 
L 2194 2741 
Q 2656 2741 2882 2914 
Q 3109 3088 3109 3444 
Q 3109 3797 2882 3972 
Q 2656 4147 2194 4147 
L 1259 4147 
z
M 628 4666 
L 2241 4666 
Q 2963 4666 3353 4366 
Q 3744 4066 3744 3513 
Q 3744 3084 3544 2831 
Q 3344 2578 2956 2516 
Q 3422 2416 3680 2098 
Q 3938 1781 3938 1306 
Q 3938 681 3513 340 
Q 3088 0 2303 0 
L 628 0 
L 628 4666 
z
" transform="scale(0.015625)"/>
     <path id="DejaVuSans-41" d="M 2188 4044 
L 1331 1722 
L 3047 1722 
L 2188 4044 
z
M 1831 4666 
L 2547 4666 
L 4325 0 
L 3669 0 
L 3244 1197 
L 1141 1197 
L 716 0 
L 50 0 
L 1831 4666 
z
" transform="scale(0.015625)"/>
     <path id="DejaVuSans-55" d="M 556 4666 
L 1191 4666 
L 1191 1831 
Q 1191 1081 1462 751 
Q 1734 422 2344 422 
Q 2950 422 3222 751 
Q 3494 1081 3494 1831 
L 3494 4666 
L 4128 4666 
L 4128 1753 
Q 4128 841 3676 375 
Q 3225 -91 2344 -91 
Q 1459 -91 1007 375 
Q 556 841 556 1753 
L 556 4666 
z
" transform="scale(0.015625)"/>
    </defs>
    <use xlink:href="#DejaVuSans-42"/>
    <use xlink:href="#DejaVuSans-41" x="68.603516"/>
    <use xlink:href="#DejaVuSans-55" x="137.011719"/>
    <use xlink:href="#DejaVuSans-32" x="210.205078"/>
   </g>
  </g>
 </g>
 <defs>
  <clipPath id="p981c32d9dd">
   <rect x="63.92" y="36.36" width="327.88" height="209.68"/>
  </clipPath>
 </defs>
</svg>
