<?xml version="1.0" encoding="UTF-8" standalone="no"?>
<!DOCTYPE svg PUBLIC "-//W3C//DTD SVG 1.1//EN"
 "http://www.w3.org/Graphics/SVG/1.1/DTD/svg11.dtd">
<!-- Generated by graphviz version 2.43.0 (0)
 -->
<!-- Title: system Pages: 1 -->
<svg width="136pt" height="321pt"
 viewBox="0.00 0.00 135.74 321.09" xmlns="http://www.w3.org/2000/svg" xmlns:xlink="http://www.w3.org/1999/xlink">
<g id="graph0" class="graph" transform="scale(1 1) rotate(0) translate(4 317.09)">
<title>system</title>
<polygon fill="white" stroke="transparent" points="-4,4 -4,-317.09 131.74,-317.09 131.74,4 -4,4"/>
<!-- gate -->
<g id="node1" class="node">
<title>gate</title>
<g id="a_node1"><a xlink:title="Flow through the gate (m3/day)">
<ellipse fill="none" stroke="black" cx="96.55" cy="-243.09" rx="31.4" ry="18"/>
<text text-anchor="middle" x="96.55" y="-239.39" font-family="Times,serif" font-size="14.00">gate</text>
</a>
</g>
</g>
<!-- stream -->
<g id="node3" class="node">
<title>stream</title>
<g id="a_node3"><a xlink:title="Flow through the stream (m3/day)">
<ellipse fill="none" stroke="black" cx="43.55" cy="-130.55" rx="43.59" ry="43.59"/>
<polyline fill="none" stroke="black" points="72.35,-163.21 14.74,-163.21 "/>
<polyline fill="none" stroke="black" points="72.35,-97.89 14.74,-97.89 "/>
<text text-anchor="middle" x="43.55" y="-126.85" font-family="Times,serif" font-size="14.00">stream</text>
</a>
</g>
</g>
<!-- gate&#45;&gt;stream -->
<g id="edge3" class="edge">
<title>gate&#45;&gt;stream</title>
<path fill="none" stroke="black" d="M88.5,-225.3C82.58,-212.97 74.24,-195.56 66.34,-179.09"/>
<polygon fill="black" stroke="black" points="69.5,-177.58 62.02,-170.07 63.18,-180.6 69.5,-177.58"/>
<text text-anchor="middle" x="85.05" y="-195.89" font-family="Times,serif" font-size="14.00">+</text>
</g>
<!-- gate_c -->
<g id="node2" class="node">
<title>gate_c</title>
<g id="a_node2"><a xlink:title="Max flow through the gate = 10 m3/day&#10;">
<text text-anchor="middle" x="96.55" y="-301.89" font-family="Times,serif" font-size="14.00">const</text>
</a>
</g>
</g>
<!-- gate_c&#45;&gt;gate -->
<g id="edge1" class="edge">
<title>gate_c&#45;&gt;gate</title>
<path fill="none" stroke="black" d="M96.55,-297.65C96.55,-288.84 96.55,-273.32 96.55,-261.25"/>
</g>
<!-- pond -->
<g id="node5" class="node">
<title>pond</title>
<g id="a_node5"><a xlink:title="Water in the pond (m3)">
<polygon fill="none" stroke="black" points="70.55,-36 16.55,-36 16.55,0 70.55,0 70.55,-36"/>
<text text-anchor="middle" x="43.55" y="-14.3" font-family="Times,serif" font-size="14.00">pond</text>
</a>
</g>
</g>
<!-- stream&#45;&gt;pond -->
<g id="edge4" class="edge">
<title>stream&#45;&gt;pond</title>
<path fill="none" stroke="black" d="M43.55,-86.81C43.55,-73.18 43.55,-58.48 43.55,-46.26"/>
<polygon fill="black" stroke="black" points="47.05,-46.25 43.55,-36.25 40.05,-46.25 47.05,-46.25"/>
<text text-anchor="middle" x="50.05" y="-57.8" font-family="Times,serif" font-size="14.00">+</text>
</g>
<!-- stream_c -->
<g id="node4" class="node">
<title>stream_c</title>
<g id="a_node4"><a xlink:title="Delay constant = 2 ?&#10;">
<text text-anchor="middle" x="27.55" y="-239.39" font-family="Times,serif" font-size="14.00">const</text>
</a>
</g>
</g>
<!-- stream_c&#45;&gt;stream -->
<g id="edge2" class="edge">
<title>stream_c&#45;&gt;stream</title>
<path fill="none" stroke="black" d="M28.5,-235.51C30.24,-223.47 34.07,-197.01 37.43,-173.79"/>
</g>
</g>
</svg>
