<?xml version="1.0" encoding="UTF-8" standalone="no"?>
<!DOCTYPE svg PUBLIC "-//W3C//DTD SVG 1.1//EN"
 "http://www.w3.org/Graphics/SVG/1.1/DTD/svg11.dtd">
<!-- Generated by graphviz version 2.43.0 (0)
 -->
<!-- Title: Population Pages: 1 -->
<svg width="318pt" height="726pt"
 viewBox="0.00 0.00 318.00 726.00" xmlns="http://www.w3.org/2000/svg" xmlns:xlink="http://www.w3.org/1999/xlink">
<g id="graph0" class="graph" transform="scale(1 1) rotate(0) translate(4 722)">
<title>Population</title>
<polygon fill="white" stroke="transparent" points="-4,4 -4,-722 314,-722 314,4 -4,4"/>
<g id="clust1" class="cluster">
<title>cluster_population</title>
<polygon fill="none" stroke="lightgrey" points="8,-8 8,-710 302,-710 302,-8 8,-8"/>
<text text-anchor="middle" x="155" y="-694.8" font-family="Times,serif" font-size="14.00">population</text>
</g>
<!-- p1 -->
<g id="node1" class="node">
<title>p1</title>
<g id="a_node1"><a xlink:title="0 to 14 years (capita)">
<polygon fill="none" stroke="black" points="90,-556 36,-556 36,-520 90,-520 90,-556"/>
<text text-anchor="middle" x="63" y="-534.3" font-family="Times,serif" font-size="14.00">p1</text>
</a>
</g>
</g>
<!-- d1 -->
<g id="node13" class="node">
<title>d1</title>
<g id="a_node13"><a xlink:title="Deaths 0&#45;14 (capita/year)">
<ellipse fill="none" stroke="black" cx="63" cy="-466" rx="27" ry="18"/>
<text text-anchor="middle" x="63" y="-462.3" font-family="Times,serif" font-size="14.00">d1</text>
</a>
</g>
</g>
<!-- p1&#45;&gt;d1 -->
<g id="edge9" class="edge">
<title>p1&#45;&gt;d1</title>
<path fill="none" stroke="black" d="M57.08,-519.7C56.28,-511.87 56.06,-502.44 56.42,-493.73"/>
<polygon fill="black" stroke="black" points="59.92,-493.85 57.16,-483.62 52.94,-493.34 59.92,-493.85"/>
</g>
<!-- mat1 -->
<g id="node17" class="node">
<title>mat1</title>
<g id="a_node17"><a xlink:title="Maturation 14 years (rate)">
<ellipse fill="none" stroke="black" cx="142" cy="-466" rx="34.39" ry="18"/>
<text text-anchor="middle" x="142" y="-462.3" font-family="Times,serif" font-size="14.00">mat1</text>
</a>
</g>
</g>
<!-- p1&#45;&gt;mat1 -->
<g id="edge8" class="edge">
<title>p1&#45;&gt;mat1</title>
<path fill="none" stroke="black" d="M76.61,-519.7C86.76,-509.8 100.74,-497.34 113.24,-487.02"/>
<polygon fill="black" stroke="black" points="115.6,-489.61 121.18,-480.6 111.2,-484.16 115.6,-489.61"/>
</g>
<!-- pop -->
<g id="node20" class="node">
<title>pop</title>
<g id="a_node20"><a xlink:title="Total Population (capita)">
<ellipse fill="none" stroke="black" cx="64" cy="-34" rx="27.9" ry="18"/>
<text text-anchor="middle" x="64" y="-30.3" font-family="Times,serif" font-size="14.00">pop</text>
</a>
</g>
</g>
<!-- p1&#45;&gt;pop -->
<g id="edge7" class="edge">
<title>p1&#45;&gt;pop</title>
<path fill="none" stroke="black" d="M47.97,-519.58C40.38,-509.78 31.78,-496.94 27,-484 13.19,-446.67 17,-434.8 17,-395 17,-395 17,-395 17,-177 17,-134.26 36.43,-87.78 50.3,-60.04"/>
<polygon fill="black" stroke="black" points="53.47,-61.53 54.94,-51.04 47.25,-58.33 53.47,-61.53"/>
</g>
<!-- p2 -->
<g id="node2" class="node">
<title>p2</title>
<g id="a_node2"><a xlink:title="15 to 44 years (capita)">
<polygon fill="none" stroke="black" points="126,-412 72,-412 72,-376 126,-376 126,-412"/>
<text text-anchor="middle" x="99" y="-390.3" font-family="Times,serif" font-size="14.00">p2</text>
</a>
</g>
</g>
<!-- d2 -->
<g id="node14" class="node">
<title>d2</title>
<g id="a_node14"><a xlink:title="Deaths 15&#45;44 (capita/year)">
<ellipse fill="none" stroke="black" cx="83" cy="-322" rx="27" ry="18"/>
<text text-anchor="middle" x="83" y="-318.3" font-family="Times,serif" font-size="14.00">d2</text>
</a>
</g>
</g>
<!-- p2&#45;&gt;d2 -->
<g id="edge12" class="edge">
<title>p2&#45;&gt;d2</title>
<path fill="none" stroke="black" d="M89.13,-375.7C86.57,-367.98 84.22,-358.71 82.6,-350.11"/>
<polygon fill="black" stroke="black" points="86.04,-349.43 81.01,-340.1 79.12,-350.53 86.04,-349.43"/>
</g>
<!-- mat2 -->
<g id="node18" class="node">
<title>mat2</title>
<g id="a_node18"><a xlink:title="Maturation 44 years (rate)">
<ellipse fill="none" stroke="black" cx="162" cy="-322" rx="34.39" ry="18"/>
<text text-anchor="middle" x="162" y="-318.3" font-family="Times,serif" font-size="14.00">mat2</text>
</a>
</g>
</g>
<!-- p2&#45;&gt;mat2 -->
<g id="edge11" class="edge">
<title>p2&#45;&gt;mat2</title>
<path fill="none" stroke="black" d="M108.66,-375.7C116.16,-366.28 126.61,-354.53 136.34,-344.53"/>
<polygon fill="black" stroke="black" points="138.99,-346.83 143.59,-337.28 134.04,-341.88 138.99,-346.83"/>
</g>
<!-- p2&#45;&gt;pop -->
<g id="edge10" class="edge">
<title>p2&#45;&gt;pop</title>
<path fill="none" stroke="black" d="M76.19,-375.85C65.48,-366.49 53.64,-353.97 47,-340 29.91,-304.05 37,-290.8 37,-251 37,-251 37,-251 37,-177 37,-136.28 47.85,-90.13 55.79,-61.79"/>
<polygon fill="black" stroke="black" points="59.25,-62.43 58.67,-51.85 52.53,-60.49 59.25,-62.43"/>
</g>
<!-- p3 -->
<g id="node3" class="node">
<title>p3</title>
<g id="a_node3"><a xlink:title="45 to 64 years (capita)">
<polygon fill="none" stroke="black" points="187,-268 133,-268 133,-232 187,-232 187,-268"/>
<text text-anchor="middle" x="160" y="-246.3" font-family="Times,serif" font-size="14.00">p3</text>
</a>
</g>
</g>
<!-- d3 -->
<g id="node15" class="node">
<title>d3</title>
<g id="a_node15"><a xlink:title="Deaths 45&#45;64 (capita/year)">
<ellipse fill="none" stroke="black" cx="237" cy="-178" rx="27" ry="18"/>
<text text-anchor="middle" x="237" y="-174.3" font-family="Times,serif" font-size="14.00">d3</text>
</a>
</g>
</g>
<!-- p3&#45;&gt;d3 -->
<g id="edge13" class="edge">
<title>p3&#45;&gt;d3</title>
<path fill="none" stroke="black" d="M173.12,-231.7C183.38,-221.4 197.71,-208.33 210.27,-197.79"/>
<polygon fill="black" stroke="black" points="212.7,-200.32 218.22,-191.27 208.27,-194.91 212.7,-200.32"/>
</g>
<!-- mat3 -->
<g id="node19" class="node">
<title>mat3</title>
<g id="a_node19"><a xlink:title="Maturation 64 years (rate)">
<ellipse fill="none" stroke="black" cx="158" cy="-178" rx="34.39" ry="18"/>
<text text-anchor="middle" x="158" y="-174.3" font-family="Times,serif" font-size="14.00">mat3</text>
</a>
</g>
</g>
<!-- p3&#45;&gt;mat3 -->
<g id="edge15" class="edge">
<title>p3&#45;&gt;mat3</title>
<path fill="none" stroke="black" d="M153.59,-231.7C152.57,-223.98 152.08,-214.71 152.18,-206.11"/>
<polygon fill="black" stroke="black" points="155.68,-206.24 152.59,-196.1 148.68,-205.95 155.68,-206.24"/>
</g>
<!-- p3&#45;&gt;pop -->
<g id="edge14" class="edge">
<title>p3&#45;&gt;pop</title>
<path fill="none" stroke="black" d="M142.23,-231.7C133.03,-221.94 122.25,-209.1 115,-196 90.79,-152.25 76.2,-95.34 69.16,-62.22"/>
<polygon fill="black" stroke="black" points="72.58,-61.44 67.14,-52.35 65.72,-62.85 72.58,-61.44"/>
</g>
<!-- p4 -->
<g id="node4" class="node">
<title>p4</title>
<g id="a_node4"><a xlink:title="older than age 65 (capita)">
<polygon fill="none" stroke="black" points="185,-124 131,-124 131,-88 185,-88 185,-124"/>
<text text-anchor="middle" x="158" y="-102.3" font-family="Times,serif" font-size="14.00">p4</text>
</a>
</g>
</g>
<!-- d4 -->
<g id="node16" class="node">
<title>d4</title>
<g id="a_node16"><a xlink:title="Deaths 65&#45; (capita/year)">
<ellipse fill="none" stroke="black" cx="158" cy="-34" rx="27" ry="18"/>
<text text-anchor="middle" x="158" y="-30.3" font-family="Times,serif" font-size="14.00">d4</text>
</a>
</g>
</g>
<!-- p4&#45;&gt;d4 -->
<g id="edge17" class="edge">
<title>p4&#45;&gt;d4</title>
<path fill="none" stroke="black" d="M152.08,-87.7C151.28,-79.87 151.06,-70.44 151.42,-61.73"/>
<polygon fill="black" stroke="black" points="154.92,-61.85 152.16,-51.62 147.94,-61.34 154.92,-61.85"/>
</g>
<!-- p4&#45;&gt;pop -->
<g id="edge16" class="edge">
<title>p4&#45;&gt;pop</title>
<path fill="none" stroke="black" d="M134.76,-87.7C121.17,-77.57 103.97,-64.76 89.93,-54.31"/>
<polygon fill="black" stroke="black" points="91.77,-51.32 81.66,-48.15 87.59,-56.93 91.77,-51.32"/>
</g>
<!-- m1 -->
<g id="node5" class="node">
<title>m1</title>
<g id="a_node5"><a xlink:title="Mortality 0&#45;14 (rate)">
<ellipse fill="none" stroke="black" cx="141" cy="-538" rx="27" ry="18"/>
<text text-anchor="middle" x="141" y="-534.3" font-family="Times,serif" font-size="14.00">m1</text>
</a>
</g>
</g>
<!-- m1&#45;&gt;d1 -->
<g id="edge19" class="edge">
<title>m1&#45;&gt;d1</title>
<path fill="none" stroke="black" d="M125.59,-523.17C114.27,-513.01 98.69,-499.03 85.91,-487.56"/>
<polygon fill="black" stroke="black" points="88.16,-484.88 78.38,-480.8 83.48,-490.09 88.16,-484.88"/>
</g>
<!-- m1&#45;&gt;mat1 -->
<g id="edge18" class="edge">
<title>m1&#45;&gt;mat1</title>
<path fill="none" stroke="black" d="M141.25,-519.7C141.36,-511.98 141.49,-502.71 141.61,-494.11"/>
<polygon fill="black" stroke="black" points="145.11,-494.15 141.76,-484.1 138.11,-494.05 145.11,-494.15"/>
</g>
<!-- m1_c -->
<g id="node6" class="node">
<title>m1_c</title>
<g id="a_node6"><a xlink:title="Mortality rate 0&#45;14 years = ([20, 0.0567], [30, 0.0366], [40, 0.0241], [50, 0.0155], [60, 0.0084], [70, 0.0034], [80, 0.0013]) f(le)&#10;">
<text text-anchor="middle" x="139" y="-606.3" font-family="Times,serif" font-size="14.00">const</text>
</a>
</g>
</g>
<!-- m1_c&#45;&gt;m1 -->
<g id="edge1" class="edge">
<title>m1_c&#45;&gt;m1</title>
<path fill="none" stroke="black" d="M139.19,-602.29C139.49,-591.75 140.09,-570.99 140.51,-556.12"/>
</g>
<!-- m2 -->
<g id="node7" class="node">
<title>m2</title>
<g id="a_node7"><a xlink:title="Mortality 15&#45;44 (rate)">
<ellipse fill="none" stroke="black" cx="188" cy="-394" rx="27" ry="18"/>
<text text-anchor="middle" x="188" y="-390.3" font-family="Times,serif" font-size="14.00">m2</text>
</a>
</g>
</g>
<!-- m2&#45;&gt;d2 -->
<g id="edge21" class="edge">
<title>m2&#45;&gt;d2</title>
<path fill="none" stroke="black" d="M169.23,-380.49C152.73,-369.49 128.52,-353.35 109.95,-340.97"/>
<polygon fill="black" stroke="black" points="111.87,-338.04 101.61,-335.41 107.99,-343.87 111.87,-338.04"/>
</g>
<!-- m2&#45;&gt;mat2 -->
<g id="edge20" class="edge">
<title>m2&#45;&gt;mat2</title>
<path fill="none" stroke="black" d="M181.84,-376.41C178.84,-368.34 175.16,-358.43 171.79,-349.35"/>
<polygon fill="black" stroke="black" points="175.06,-348.11 168.3,-339.96 168.5,-350.55 175.06,-348.11"/>
</g>
<!-- m2_c -->
<g id="node8" class="node">
<title>m2_c</title>
<g id="a_node8"><a xlink:title="Mortality rate 15&#45;44 years = ([20, 0.0266], [30, 0.0171], [40, 0.01], [50, 0.0065], [60, 0.0042], [70, 0.0025], [80, 0.0011]) f(le)&#10;">
<text text-anchor="middle" x="214" y="-462.3" font-family="Times,serif" font-size="14.00">const</text>
</a>
</g>
</g>
<!-- m2_c&#45;&gt;m2 -->
<g id="edge2" class="edge">
<title>m2_c&#45;&gt;m2</title>
<path fill="none" stroke="black" d="M211.51,-458.29C207.54,-447.61 199.68,-426.45 194.14,-411.54"/>
</g>
<!-- m3 -->
<g id="node9" class="node">
<title>m3</title>
<g id="a_node9"><a xlink:title="Mortality 45&#45;64 (rate)">
<ellipse fill="none" stroke="black" cx="235" cy="-250" rx="27" ry="18"/>
<text text-anchor="middle" x="235" y="-246.3" font-family="Times,serif" font-size="14.00">m3</text>
</a>
</g>
</g>
<!-- m3&#45;&gt;d3 -->
<g id="edge22" class="edge">
<title>m3&#45;&gt;d3</title>
<path fill="none" stroke="black" d="M235.49,-231.7C235.71,-223.98 235.98,-214.71 236.23,-206.11"/>
<polygon fill="black" stroke="black" points="239.72,-206.2 236.51,-196.1 232.73,-206 239.72,-206.2"/>
</g>
<!-- m3&#45;&gt;mat3 -->
<g id="edge23" class="edge">
<title>m3&#45;&gt;mat3</title>
<path fill="none" stroke="black" d="M219.42,-234.83C208.68,-225.07 194.19,-211.9 181.99,-200.8"/>
<polygon fill="black" stroke="black" points="184.11,-198.01 174.36,-193.87 179.4,-203.19 184.11,-198.01"/>
</g>
<!-- m3_c -->
<g id="node10" class="node">
<title>m3_c</title>
<g id="a_node10"><a xlink:title="Mortality 45&#45;64 years = ([20, 0.0562], [30, 0.0373], [40, 0.0252], [50, 0.0171], [60, 0.0119], [70, 0.0086], [80, 0.0061]) f(le)&#10;">
<text text-anchor="middle" x="234" y="-318.3" font-family="Times,serif" font-size="14.00">const</text>
</a>
</g>
</g>
<!-- m3_c&#45;&gt;m3 -->
<g id="edge3" class="edge">
<title>m3_c&#45;&gt;m3</title>
<path fill="none" stroke="black" d="M234.1,-314.29C234.25,-303.75 234.54,-282.99 234.76,-268.12"/>
</g>
<!-- m4 -->
<g id="node11" class="node">
<title>m4</title>
<g id="a_node11"><a xlink:title="Mortality 65&#45; (rate)">
<ellipse fill="none" stroke="black" cx="267" cy="-538" rx="27" ry="18"/>
<text text-anchor="middle" x="267" y="-534.3" font-family="Times,serif" font-size="14.00">m4</text>
</a>
</g>
</g>
<!-- m4&#45;&gt;d4 -->
<g id="edge24" class="edge">
<title>m4&#45;&gt;d4</title>
<path fill="none" stroke="black" d="M272.14,-520.13C279.71,-493.72 293,-440.86 293,-395 293,-395 293,-395 293,-177 293,-116.69 228.25,-71.81 188.44,-49.91"/>
<polygon fill="black" stroke="black" points="189.86,-46.71 179.39,-45.09 186.57,-52.89 189.86,-46.71"/>
</g>
<!-- m4_c -->
<g id="node12" class="node">
<title>m4_c</title>
<g id="a_node12"><a xlink:title="Mortality older than age 65 = ([20, 0.13], [30, 0.11], [40, 0.09], [50, 0.07], [60, 0.06], [70, 0.052], [80, 0.042]) f(le)&#10;">
<text text-anchor="middle" x="269" y="-606.3" font-family="Times,serif" font-size="14.00">const</text>
</a>
</g>
</g>
<!-- m4_c&#45;&gt;m4 -->
<g id="edge4" class="edge">
<title>m4_c&#45;&gt;m4</title>
<path fill="none" stroke="black" d="M268.81,-602.29C268.51,-591.75 267.91,-570.99 267.49,-556.12"/>
</g>
<!-- d1&#45;&gt;p1 -->
<g id="edge25" class="edge">
<title>d1&#45;&gt;p1</title>
<path fill="none" stroke="black" d="M68.84,-483.62C69.69,-491.36 69.94,-500.76 69.61,-509.51"/>
<polygon fill="black" stroke="black" points="66.1,-509.48 68.92,-519.7 73.09,-509.96 66.1,-509.48"/>
</g>
<!-- d2&#45;&gt;p2 -->
<g id="edge26" class="edge">
<title>d2&#45;&gt;p2</title>
<path fill="none" stroke="black" d="M92.48,-339.14C95.17,-347.01 97.65,-356.68 99.35,-365.64"/>
<polygon fill="black" stroke="black" points="95.92,-366.38 100.96,-375.7 102.84,-365.27 95.92,-366.38"/>
</g>
<!-- d3&#45;&gt;p3 -->
<g id="edge27" class="edge">
<title>d3&#45;&gt;p3</title>
<path fill="none" stroke="black" d="M225.5,-194.67C216.72,-203.6 204.44,-214.98 192.83,-225.01"/>
<polygon fill="black" stroke="black" points="190.31,-222.56 184.95,-231.7 194.84,-227.9 190.31,-222.56"/>
</g>
<!-- d4&#45;&gt;p4 -->
<g id="edge28" class="edge">
<title>d4&#45;&gt;p4</title>
<path fill="none" stroke="black" d="M163.84,-51.62C164.69,-59.36 164.94,-68.76 164.61,-77.51"/>
<polygon fill="black" stroke="black" points="161.1,-77.48 163.92,-87.7 168.09,-77.96 161.1,-77.48"/>
</g>
<!-- mat1&#45;&gt;p1 -->
<g id="edge29" class="edge">
<title>mat1&#45;&gt;p1</title>
<path fill="none" stroke="black" d="M129.57,-483.14C120.55,-492.03 108.12,-503.23 96.4,-513.11"/>
<polygon fill="black" stroke="black" points="93.91,-510.62 88.44,-519.7 98.38,-516.02 93.91,-510.62"/>
</g>
<!-- mat1&#45;&gt;p2 -->
<g id="edge30" class="edge">
<title>mat1&#45;&gt;p2</title>
<path fill="none" stroke="black" d="M132.03,-448.76C126.91,-440.44 120.56,-430.1 114.8,-420.73"/>
<polygon fill="black" stroke="black" points="117.74,-418.81 109.52,-412.12 111.77,-422.48 117.74,-418.81"/>
</g>
<!-- mat2&#45;&gt;p2 -->
<g id="edge32" class="edge">
<title>mat2&#45;&gt;p2</title>
<path fill="none" stroke="black" d="M152.88,-339.62C146.09,-348.21 136.73,-358.85 127.65,-368.37"/>
<polygon fill="black" stroke="black" points="124.97,-366.1 120.49,-375.7 129.98,-370.99 124.97,-366.1"/>
</g>
<!-- mat2&#45;&gt;p3 -->
<g id="edge31" class="edge">
<title>mat2&#45;&gt;p3</title>
<path fill="none" stroke="black" d="M161.51,-303.7C161.29,-295.98 161.02,-286.71 160.77,-278.11"/>
<polygon fill="black" stroke="black" points="164.27,-278 160.49,-268.1 157.28,-278.2 164.27,-278"/>
</g>
<!-- mat3&#45;&gt;p3 -->
<g id="edge33" class="edge">
<title>mat3&#45;&gt;p3</title>
<path fill="none" stroke="black" d="M164.38,-196.1C165.41,-203.79 165.91,-213.05 165.82,-221.67"/>
<polygon fill="black" stroke="black" points="162.32,-221.56 165.42,-231.7 169.32,-221.84 162.32,-221.56"/>
</g>
<!-- mat3&#45;&gt;p4 -->
<g id="edge34" class="edge">
<title>mat3&#45;&gt;p4</title>
<path fill="none" stroke="black" d="M158,-159.7C158,-151.98 158,-142.71 158,-134.11"/>
<polygon fill="black" stroke="black" points="161.5,-134.1 158,-124.1 154.5,-134.1 161.5,-134.1"/>
</g>
<!-- le -->
<g id="node21" class="node">
<title>le</title>
<g id="a_node21"><a xlink:title="Life Expetancy (years)">
<ellipse fill="none" stroke="black" cx="204" cy="-610" rx="27" ry="18"/>
<text text-anchor="middle" x="204" y="-606.3" font-family="Times,serif" font-size="14.00">le</text>
</a>
</g>
</g>
<!-- le&#45;&gt;m1 -->
<g id="edge35" class="edge">
<title>le&#45;&gt;m1</title>
<path fill="none" stroke="black" d="M190.64,-594.15C182.12,-584.69 170.91,-572.24 161.31,-561.56"/>
<polygon fill="black" stroke="black" points="163.63,-558.92 154.34,-553.82 158.43,-563.6 163.63,-558.92"/>
</g>
<!-- le&#45;&gt;m2 -->
<g id="edge37" class="edge">
<title>le&#45;&gt;m2</title>
<path fill="none" stroke="black" d="M203.78,-591.95C204.11,-573.53 206.31,-543.66 216,-520 223.58,-501.49 236.68,-502.97 243,-484 248.06,-468.82 249.26,-462.72 243,-448 237.17,-434.29 225.86,-422.4 215.01,-413.38"/>
<polygon fill="black" stroke="black" points="216.94,-410.45 206.9,-407.06 212.63,-415.97 216.94,-410.45"/>
</g>
<!-- le&#45;&gt;m3 -->
<g id="edge36" class="edge">
<title>le&#45;&gt;m3</title>
<path fill="none" stroke="black" d="M208.14,-591.93C212.78,-573.77 220.99,-544.34 231,-520 237.88,-503.27 244.86,-501.35 250,-484 268.24,-422.38 260.11,-404.2 263,-340 263.72,-324.02 266.85,-319.53 263,-304 260.57,-294.21 255.97,-284.23 251.18,-275.62"/>
<polygon fill="black" stroke="black" points="254.12,-273.7 246.02,-266.87 248.09,-277.26 254.12,-273.7"/>
</g>
<!-- le&#45;&gt;m4 -->
<g id="edge38" class="edge">
<title>le&#45;&gt;m4</title>
<path fill="none" stroke="black" d="M217.36,-594.15C225.88,-584.69 237.09,-572.24 246.69,-561.56"/>
<polygon fill="black" stroke="black" points="249.57,-563.6 253.66,-553.82 244.37,-558.92 249.57,-563.6"/>
</g>
<!-- le_c -->
<g id="node22" class="node">
<title>le_c</title>
<g id="a_node22"><a xlink:title="Fixed life expectancy = 70 years&#10;">
<text text-anchor="middle" x="204" y="-667.8" font-family="Times,serif" font-size="14.00">const</text>
</a>
</g>
</g>
<!-- le_c&#45;&gt;le -->
<g id="edge5" class="edge">
<title>le_c&#45;&gt;le</title>
<path fill="none" stroke="black" d="M204,-663.67C204,-655.07 204,-639.96 204,-628.13"/>
</g>
<!-- b -->
<g id="node23" class="node">
<title>b</title>
<g id="a_node23"><a xlink:title="Births (children/year)">
<ellipse fill="none" stroke="black" cx="63" cy="-610" rx="27" ry="18"/>
<text text-anchor="middle" x="63" y="-606.3" font-family="Times,serif" font-size="14.00">b</text>
</a>
</g>
</g>
<!-- b&#45;&gt;p1 -->
<g id="edge39" class="edge">
<title>b&#45;&gt;p1</title>
<path fill="none" stroke="black" d="M63,-591.7C63,-583.98 63,-574.71 63,-566.11"/>
<polygon fill="black" stroke="black" points="66.5,-566.1 63,-556.1 59.5,-566.1 66.5,-566.1"/>
</g>
<!-- b_c -->
<g id="node24" class="node">
<title>b_c</title>
<g id="a_node24"><a xlink:title="Fixed births = 1000 children/year&#10;">
<text text-anchor="middle" x="63" y="-667.8" font-family="Times,serif" font-size="14.00">const</text>
</a>
</g>
</g>
<!-- b_c&#45;&gt;b -->
<g id="edge6" class="edge">
<title>b_c&#45;&gt;b</title>
<path fill="none" stroke="black" d="M63,-663.67C63,-655.07 63,-639.96 63,-628.13"/>
</g>
</g>
</svg>
