<?xml version="1.0" encoding="UTF-8" standalone="no"?>
<!DOCTYPE svg PUBLIC "-//W3C//DTD SVG 1.1//EN"
 "http://www.w3.org/Graphics/SVG/1.1/DTD/svg11.dtd">
<!-- Generated by graphviz version 2.43.0 (0)
 -->
<!-- Title: predator+prey Pages: 1 -->
<svg width="703pt" height="186pt"
 viewBox="0.00 0.00 703.00 186.00" xmlns="http://www.w3.org/2000/svg" xmlns:xlink="http://www.w3.org/1999/xlink">
<g id="graph0" class="graph" transform="scale(1 1) rotate(0) translate(4 182)">
<title>predator+prey</title>
<polygon fill="white" stroke="transparent" points="-4,4 -4,-182 699,-182 699,4 -4,4"/>
<g id="clust1" class="cluster">
<title>cluster_predator</title>
<polygon fill="none" stroke="lightgrey" points="8,-8 8,-170 382,-170 382,-8 8,-8"/>
<text text-anchor="middle" x="195" y="-154.8" font-family="Times,serif" font-size="14.00">predator</text>
</g>
<g id="clust2" class="cluster">
<title>cluster_prey</title>
<polygon fill="none" stroke="lightgrey" points="390,-8 390,-170 687,-170 687,-8 390,-8"/>
<text text-anchor="middle" x="538.5" y="-154.8" font-family="Times,serif" font-size="14.00">prey</text>
</g>
<!-- predator -->
<g id="node1" class="node">
<title>predator</title>
<g id="a_node1"><a xlink:title="Predators &#160;">
<polygon fill="none" stroke="black" points="273.5,-139 194.5,-139 194.5,-103 273.5,-103 273.5,-139"/>
<text text-anchor="middle" x="234" y="-117.3" font-family="Times,serif" font-size="14.00">predator</text>
</a>
</g>
</g>
<!-- predator_births -->
<g id="node2" class="node">
<title>predator_births</title>
<g id="a_node2"><a xlink:title="predator_births &#160;">
<ellipse fill="none" stroke="black" cx="291" cy="-34" rx="83.39" ry="18"/>
<text text-anchor="middle" x="291" y="-30.3" font-family="Times,serif" font-size="14.00">predator_births</text>
</a>
</g>
</g>
<!-- predator&#45;&gt;predator_births -->
<g id="edge12" class="edge">
<title>predator&#45;&gt;predator_births</title>
<path fill="none" stroke="gray" d="M239.24,-102.93C242.8,-92.85 248.1,-80.11 255,-70 257.61,-66.17 260.69,-62.42 263.93,-58.88"/>
<polygon fill="gray" stroke="gray" points="266.65,-61.11 271.17,-51.53 261.66,-56.2 266.65,-61.11"/>
</g>
<!-- predator_deaths -->
<g id="node4" class="node">
<title>predator_deaths</title>
<g id="a_node4"><a xlink:title="predator_deaths &#160;">
<ellipse fill="none" stroke="black" cx="103" cy="-34" rx="87.18" ry="18"/>
<text text-anchor="middle" x="103" y="-30.3" font-family="Times,serif" font-size="14.00">predator_deaths</text>
</a>
</g>
</g>
<!-- predator&#45;&gt;predator_deaths -->
<g id="edge14" class="edge">
<title>predator&#45;&gt;predator_deaths</title>
<path fill="none" stroke="gray" d="M197.62,-102.93C187.17,-97.59 175.93,-91.41 166,-85 153.66,-77.04 140.82,-67.17 129.98,-58.32"/>
<polygon fill="gray" stroke="gray" points="132.05,-55.49 122.12,-51.79 127.58,-60.88 132.05,-55.49"/>
</g>
<!-- prey_deaths -->
<g id="node9" class="node">
<title>prey_deaths</title>
<g id="a_node9"><a xlink:title="prey_deaths &#160;">
<ellipse fill="none" stroke="black" cx="466" cy="-34" rx="67.69" ry="18"/>
<text text-anchor="middle" x="466" y="-30.3" font-family="Times,serif" font-size="14.00">prey_deaths</text>
</a>
</g>
</g>
<!-- predator&#45;&gt;prey_deaths -->
<g id="edge11" class="edge">
<title>predator&#45;&gt;prey_deaths</title>
<path fill="none" stroke="gray" d="M273.62,-105.48C313.6,-90.84 375.38,-68.2 418.09,-52.55"/>
<polygon fill="gray" stroke="gray" points="419.52,-55.76 427.7,-49.03 417.11,-49.19 419.52,-55.76"/>
</g>
<!-- predator_births&#45;&gt;predator -->
<g id="edge5" class="edge">
<title>predator_births&#45;&gt;predator</title>
<path fill="none" stroke="black" d="M279.68,-51.89C271.56,-63.99 260.48,-80.51 251.27,-94.25"/>
<polygon fill="black" stroke="black" points="248.2,-92.54 245.53,-102.8 254.01,-96.44 248.2,-92.54"/>
<text text-anchor="middle" x="271.5" y="-73.8" font-family="Times,serif" font-size="14.00">+</text>
</g>
<!-- predator_births_c -->
<g id="node3" class="node">
<title>predator_births_c</title>
<g id="a_node3"><a xlink:title="Prey effect = 0.1 &#10;">
<text text-anchor="middle" x="311" y="-117.3" font-family="Times,serif" font-size="14.00" fill="gray">const</text>
</a>
</g>
</g>
<!-- predator_births_c&#45;&gt;predator_births -->
<g id="edge1" class="edge">
<title>predator_births_c&#45;&gt;predator_births</title>
<path fill="none" stroke="gray" d="M309.43,-113.33C306.35,-100.26 299.45,-70.91 295.02,-52.08"/>
</g>
<!-- predator_deaths&#45;&gt;predator -->
<g id="edge6" class="edge">
<title>predator_deaths&#45;&gt;predator</title>
<path fill="none" stroke="black" d="M133.58,-50.97C144.03,-56.7 155.68,-63.38 166,-70 178.8,-78.22 192.4,-87.99 204.05,-96.71"/>
<polygon fill="black" stroke="black" points="202.06,-99.59 212.14,-102.83 206.28,-94.01 202.06,-99.59"/>
<text text-anchor="middle" x="189.5" y="-73.8" font-family="Times,serif" font-size="14.00">&#45;</text>
</g>
<!-- predator_deaths_c -->
<g id="node5" class="node">
<title>predator_deaths_c</title>
<g id="a_node5"><a xlink:title="Predator death rate = 0.4 &#10;">
<text text-anchor="middle" x="103" y="-117.3" font-family="Times,serif" font-size="14.00" fill="gray">const</text>
</a>
</g>
</g>
<!-- predator_deaths_c&#45;&gt;predator_deaths -->
<g id="edge2" class="edge">
<title>predator_deaths_c&#45;&gt;predator_deaths</title>
<path fill="none" stroke="gray" d="M103,-113.33C103,-100.26 103,-70.91 103,-52.08"/>
</g>
<!-- prey -->
<g id="node6" class="node">
<title>prey</title>
<g id="a_node6"><a xlink:title="Prey &#160;">
<polygon fill="none" stroke="black" points="549,-139 495,-139 495,-103 549,-103 549,-139"/>
<text text-anchor="middle" x="522" y="-117.3" font-family="Times,serif" font-size="14.00">prey</text>
</a>
</g>
</g>
<!-- prey&#45;&gt;predator_births -->
<g id="edge13" class="edge">
<title>prey&#45;&gt;predator_births</title>
<path fill="none" stroke="gray" d="M494.62,-106.7C491.73,-105.41 488.81,-104.15 486,-103 439.35,-83.91 385.13,-65.28 345.72,-52.36"/>
<polygon fill="gray" stroke="gray" points="346.63,-48.98 336.03,-49.2 344.46,-55.63 346.63,-48.98"/>
</g>
<!-- prey_births -->
<g id="node7" class="node">
<title>prey_births</title>
<g id="a_node7"><a xlink:title="prey_births &#160;">
<ellipse fill="none" stroke="black" cx="615" cy="-34" rx="63.89" ry="18"/>
<text text-anchor="middle" x="615" y="-30.3" font-family="Times,serif" font-size="14.00">prey_births</text>
</a>
</g>
</g>
<!-- prey&#45;&gt;prey_births -->
<g id="edge9" class="edge">
<title>prey&#45;&gt;prey_births</title>
<path fill="none" stroke="gray" d="M549.03,-110.74C562.64,-105.01 578.61,-96.52 590,-85 596.57,-78.35 601.74,-69.63 605.62,-61.33"/>
<polygon fill="gray" stroke="gray" points="608.92,-62.51 609.61,-51.94 602.48,-59.78 608.92,-62.51"/>
</g>
<!-- prey&#45;&gt;prey_deaths -->
<g id="edge10" class="edge">
<title>prey&#45;&gt;prey_deaths</title>
<path fill="none" stroke="gray" d="M501.35,-102.8C495.86,-97.5 490.27,-91.37 486,-85 481.25,-77.9 477.34,-69.49 474.28,-61.62"/>
<polygon fill="gray" stroke="gray" points="477.52,-60.31 470.85,-52.07 470.93,-62.67 477.52,-60.31"/>
</g>
<!-- prey_births&#45;&gt;prey -->
<g id="edge7" class="edge">
<title>prey_births&#45;&gt;prey</title>
<path fill="none" stroke="black" d="M597.15,-51.31C583.4,-63.89 564.15,-81.48 548.58,-95.71"/>
<polygon fill="black" stroke="black" points="545.84,-93.47 540.82,-102.8 550.56,-98.64 545.84,-93.47"/>
<text text-anchor="middle" x="580.5" y="-73.8" font-family="Times,serif" font-size="14.00">+</text>
</g>
<!-- prey_births_c -->
<g id="node8" class="node">
<title>prey_births_c</title>
<g id="a_node8"><a xlink:title="Prey birth rate = 1.1 &#10;">
<text text-anchor="middle" x="615" y="-117.3" font-family="Times,serif" font-size="14.00" fill="gray">const</text>
</a>
</g>
</g>
<!-- prey_births_c&#45;&gt;prey_births -->
<g id="edge3" class="edge">
<title>prey_births_c&#45;&gt;prey_births</title>
<path fill="none" stroke="gray" d="M615,-113.33C615,-100.26 615,-70.91 615,-52.08"/>
</g>
<!-- prey_deaths&#45;&gt;prey -->
<g id="edge8" class="edge">
<title>prey_deaths&#45;&gt;prey</title>
<path fill="none" stroke="black" d="M477.12,-51.89C485.1,-63.99 495.98,-80.51 505.03,-94.25"/>
<polygon fill="black" stroke="black" points="502.24,-96.37 510.67,-102.8 508.09,-92.52 502.24,-96.37"/>
<text text-anchor="middle" x="499.5" y="-73.8" font-family="Times,serif" font-size="14.00">&#45;</text>
</g>
<!-- prey_deaths_c -->
<g id="node10" class="node">
<title>prey_deaths_c</title>
<g id="a_node10"><a xlink:title="Predator effect = 0.4 &#10;">
<text text-anchor="middle" x="457" y="-117.3" font-family="Times,serif" font-size="14.00" fill="gray">const</text>
</a>
</g>
</g>
<!-- prey_deaths_c&#45;&gt;prey_deaths -->
<g id="edge4" class="edge">
<title>prey_deaths_c&#45;&gt;prey_deaths</title>
<path fill="none" stroke="gray" d="M457.71,-113.33C459.09,-100.26 462.2,-70.91 464.19,-52.08"/>
</g>
</g>
</svg>
