<?xml version="1.0" encoding="UTF-8" standalone="no"?>
<!DOCTYPE svg PUBLIC "-//W3C//DTD SVG 1.1//EN"
 "http://www.w3.org/Graphics/SVG/1.1/DTD/svg11.dtd">
<!-- Generated by graphviz version 2.43.0 (0)
 -->
<!-- Title: predator+prey Pages: 1 -->
<svg width="424pt" height="305pt"
 viewBox="0.00 0.00 423.79 305.00" xmlns="http://www.w3.org/2000/svg" xmlns:xlink="http://www.w3.org/1999/xlink">
<g id="graph0" class="graph" transform="scale(1 1) rotate(0) translate(4 301)">
<title>predator+prey</title>
<polygon fill="white" stroke="transparent" points="-4,4 -4,-301 419.79,-301 419.79,4 -4,4"/>
<!-- prey -->
<g id="node1" class="node">
<title>prey</title>
<g id="a_node1"><a xlink:title="Prey &#160;">
<polygon fill="none" stroke="black" points="287.09,-297 233.09,-297 233.09,-261 287.09,-261 287.09,-297"/>
<text text-anchor="middle" x="260.09" y="-275.3" font-family="Times,serif" font-size="14.00">prey</text>
</a>
</g>
</g>
<!-- prey_births -->
<g id="node3" class="node">
<title>prey_births</title>
<g id="a_node3"><a xlink:title="prey_births &#160;">
<ellipse fill="none" stroke="black" cx="352.09" cy="-192" rx="63.89" ry="18"/>
<text text-anchor="middle" x="352.09" y="-188.3" font-family="Times,serif" font-size="14.00">prey_births</text>
</a>
</g>
</g>
<!-- prey&#45;&gt;prey_births -->
<g id="edge9" class="edge">
<title>prey&#45;&gt;prey_births</title>
<path fill="none" stroke="gray" d="M287.17,-262.02C295.56,-256.49 304.57,-249.93 312.09,-243 320.19,-235.54 328,-226.38 334.55,-217.94"/>
<polygon fill="gray" stroke="gray" points="337.43,-219.93 340.63,-209.83 331.83,-215.73 337.43,-219.93"/>
</g>
<!-- prey_deaths -->
<g id="node5" class="node">
<title>prey_deaths</title>
<g id="a_node5"><a xlink:title="prey_deaths &#160;">
<ellipse fill="none" stroke="black" cx="260.09" cy="-18" rx="67.69" ry="18"/>
<text text-anchor="middle" x="260.09" y="-14.3" font-family="Times,serif" font-size="14.00">prey_deaths</text>
</a>
</g>
</g>
<!-- prey&#45;&gt;prey_deaths -->
<g id="edge10" class="edge">
<title>prey&#45;&gt;prey_deaths</title>
<path fill="none" stroke="gray" d="M257.75,-260.94C257.07,-255.25 256.43,-248.86 256.09,-243 251.32,-159.14 251.32,-137.86 256.09,-54 256.24,-51.44 256.44,-48.77 256.69,-46.11"/>
<polygon fill="gray" stroke="gray" points="260.18,-46.37 257.75,-36.06 253.22,-45.63 260.18,-46.37"/>
</g>
<!-- predator_births -->
<g id="node7" class="node">
<title>predator_births</title>
<g id="a_node7"><a xlink:title="predator_births &#160;">
<ellipse fill="none" stroke="black" cx="111.09" cy="-192" rx="83.39" ry="18"/>
<text text-anchor="middle" x="111.09" y="-188.3" font-family="Times,serif" font-size="14.00">predator_births</text>
</a>
</g>
</g>
<!-- prey&#45;&gt;predator_births -->
<g id="edge13" class="edge">
<title>prey&#45;&gt;predator_births</title>
<path fill="none" stroke="gray" d="M232.76,-262.41C209.02,-248.86 174.4,-229.12 148.16,-214.15"/>
<polygon fill="gray" stroke="gray" points="149.68,-210.98 139.26,-209.07 146.21,-217.06 149.68,-210.98"/>
</g>
<!-- predator -->
<g id="node2" class="node">
<title>predator</title>
<g id="a_node2"><a xlink:title="Predators &#160;">
<polygon fill="none" stroke="black" points="162.59,-123 83.59,-123 83.59,-87 162.59,-87 162.59,-123"/>
<text text-anchor="middle" x="123.09" y="-101.3" font-family="Times,serif" font-size="14.00">predator</text>
</a>
</g>
</g>
<!-- predator&#45;&gt;prey_deaths -->
<g id="edge11" class="edge">
<title>predator&#45;&gt;prey_deaths</title>
<path fill="none" stroke="gray" d="M150.82,-86.8C172.59,-73.29 202.99,-54.43 226.21,-40.02"/>
<polygon fill="gray" stroke="gray" points="228.07,-42.99 234.72,-34.74 224.38,-37.04 228.07,-42.99"/>
</g>
<!-- predator&#45;&gt;predator_births -->
<g id="edge12" class="edge">
<title>predator&#45;&gt;predator_births</title>
<path fill="none" stroke="gray" d="M124.48,-123.24C124.92,-132.93 124.89,-145.21 123.09,-156 122.64,-158.7 122.01,-161.47 121.27,-164.21"/>
<polygon fill="gray" stroke="gray" points="117.9,-163.26 118.23,-173.85 124.58,-165.36 117.9,-163.26"/>
</g>
<!-- predator_deaths -->
<g id="node9" class="node">
<title>predator_deaths</title>
<g id="a_node9"><a xlink:title="predator_deaths &#160;">
<ellipse fill="none" stroke="black" cx="87.09" cy="-18" rx="87.18" ry="18"/>
<text text-anchor="middle" x="87.09" y="-14.3" font-family="Times,serif" font-size="14.00">predator_deaths</text>
</a>
</g>
</g>
<!-- predator&#45;&gt;predator_deaths -->
<g id="edge14" class="edge">
<title>predator&#45;&gt;predator_deaths</title>
<path fill="none" stroke="gray" d="M115.93,-86.86C111.89,-77.2 106.73,-64.92 102.09,-54 100.93,-51.26 99.71,-48.4 98.5,-45.55"/>
<polygon fill="gray" stroke="gray" points="101.59,-43.9 94.44,-36.08 95.16,-46.65 101.59,-43.9"/>
</g>
<!-- prey_births&#45;&gt;prey -->
<g id="edge5" class="edge">
<title>prey_births&#45;&gt;prey</title>
<path fill="none" stroke="black" d="M325.24,-208.33C316.46,-213.96 306.95,-220.74 299.09,-228 291.29,-235.21 283.83,-244.09 277.56,-252.35"/>
<polygon fill="black" stroke="black" points="274.57,-250.51 271.5,-260.65 280.22,-254.64 274.57,-250.51"/>
<text text-anchor="middle" x="305.59" y="-231.8" font-family="Times,serif" font-size="14.00">+</text>
</g>
<!-- prey_births_c -->
<g id="node4" class="node">
<title>prey_births_c</title>
<g id="a_node4"><a xlink:title="Prey birth rate = 1.1 &#10;">
<text text-anchor="middle" x="352.09" y="-275.3" font-family="Times,serif" font-size="14.00" fill="gray">const</text>
</a>
</g>
</g>
<!-- prey_births_c&#45;&gt;prey_births -->
<g id="edge1" class="edge">
<title>prey_births_c&#45;&gt;prey_births</title>
<path fill="none" stroke="gray" d="M352.09,-271.33C352.09,-258.26 352.09,-228.91 352.09,-210.08"/>
</g>
<!-- prey_deaths&#45;&gt;prey -->
<g id="edge6" class="edge">
<title>prey_deaths&#45;&gt;prey</title>
<path fill="none" stroke="black" d="M260.09,-36.32C260.09,-80.38 260.09,-197.01 260.09,-250.49"/>
<polygon fill="black" stroke="black" points="256.59,-250.6 260.09,-260.6 263.59,-250.6 256.59,-250.6"/>
<text text-anchor="middle" x="262.59" y="-144.8" font-family="Times,serif" font-size="14.00">&#45;</text>
</g>
<!-- prey_deaths_c -->
<g id="node6" class="node">
<title>prey_deaths_c</title>
<g id="a_node6"><a xlink:title="Predator effect = 0.4 &#10;">
<text text-anchor="middle" x="308.09" y="-101.3" font-family="Times,serif" font-size="14.00" fill="gray">const</text>
</a>
</g>
</g>
<!-- prey_deaths_c&#45;&gt;prey_deaths -->
<g id="edge2" class="edge">
<title>prey_deaths_c&#45;&gt;prey_deaths</title>
<path fill="none" stroke="gray" d="M304.33,-97.33C296.94,-84.26 280.37,-54.91 269.74,-36.08"/>
</g>
<!-- predator_births&#45;&gt;predator -->
<g id="edge7" class="edge">
<title>predator_births&#45;&gt;predator</title>
<path fill="none" stroke="black" d="M109.08,-173.74C108.37,-164.05 108.16,-151.77 110.09,-141 110.58,-138.28 111.27,-135.5 112.07,-132.75"/>
<polygon fill="black" stroke="black" points="115.44,-133.7 115.36,-123.1 108.82,-131.44 115.44,-133.7"/>
<text text-anchor="middle" x="116.59" y="-144.8" font-family="Times,serif" font-size="14.00">+</text>
</g>
<!-- predator_births_c -->
<g id="node8" class="node">
<title>predator_births_c</title>
<g id="a_node8"><a xlink:title="Prey effect = 0.1 &#10;">
<text text-anchor="middle" x="111.09" y="-275.3" font-family="Times,serif" font-size="14.00" fill="gray">const</text>
</a>
</g>
</g>
<!-- predator_births_c&#45;&gt;predator_births -->
<g id="edge3" class="edge">
<title>predator_births_c&#45;&gt;predator_births</title>
<path fill="none" stroke="gray" d="M111.09,-271.33C111.09,-258.26 111.09,-228.91 111.09,-210.08"/>
</g>
<!-- predator_deaths&#45;&gt;predator -->
<g id="edge8" class="edge">
<title>predator_deaths&#45;&gt;predator</title>
<path fill="none" stroke="black" d="M90.1,-36.13C92.18,-46.01 95.43,-58.51 100.09,-69 101.45,-72.06 103.06,-75.15 104.79,-78.16"/>
<polygon fill="black" stroke="black" points="101.95,-80.21 110.21,-86.84 107.89,-76.5 101.95,-80.21"/>
<text text-anchor="middle" x="102.59" y="-57.8" font-family="Times,serif" font-size="14.00">&#45;</text>
</g>
<!-- predator_deaths_c -->
<g id="node10" class="node">
<title>predator_deaths_c</title>
<g id="a_node10"><a xlink:title="Predator death rate = 0.4 &#10;">
<text text-anchor="middle" x="46.09" y="-101.3" font-family="Times,serif" font-size="14.00" fill="gray">const</text>
</a>
</g>
</g>
<!-- predator_deaths_c&#45;&gt;predator_deaths -->
<g id="edge4" class="edge">
<title>predator_deaths_c&#45;&gt;predator_deaths</title>
<path fill="none" stroke="gray" d="M49.31,-97.33C55.61,-84.26 69.77,-54.91 78.85,-36.08"/>
</g>
</g>
</svg>
